<?xml version="1.0" encoding="UTF-8" standalone="no"?>
<!DOCTYPE svg PUBLIC "-//W3C//DTD SVG 1.1//EN" "http://www.w3.org/Graphics/SVG/1.1/DTD/svg11.dtd">
<svg width="100%" height="100%" viewBox="0 0 2481 3508" version="1.1" xmlns="http://www.w3.org/2000/svg" xmlns:xlink="http://www.w3.org/1999/xlink" xml:space="preserve" xmlns:serif="http://www.serif.com/" style="fill-rule:evenodd;clip-rule:evenodd;stroke-linejoin:round;stroke-miterlimit:1.5;">
    <g transform="matrix(1,0.000012,0.000012,1.002634,-345.943974,538.544514)">
        <path d="M1712,818L1717,1957" style="fill:none;stroke:black;stroke-width:41.61px;"/>
    </g>
    <g transform="matrix(0.989881,0.259007,-0.239758,0.916313,-132.475002,168.754249)">
        <path d="M1712,818C1712,818 1640.849,576.034 1507,489" style="fill:rgb(235,235,235);stroke:black;stroke-width:42.26px;"/>
    </g>
    <g transform="matrix(-1,0.000012,-0.000012,1.002634,2855.056263,538.544514)">
        <path d="M1712,818L1717,1957" style="fill:none;stroke:black;stroke-width:41.61px;"/>
    </g>
    <g transform="matrix(-0.989881,0.259007,0.239758,0.916313,2641.587291,168.754249)">
        <path d="M1712,818C1712,818 1640.849,576.034 1507,489" style="fill:rgb(235,235,235);stroke:black;stroke-width:42.26px;"/>
    </g>
    <g transform="matrix(0.961989,0.011069,0.011069,0.996777,-287.521065,510.206644)">
        <path d="M1717,1957L1899,1904" style="fill:none;stroke:black;stroke-width:42.06px;"/>
    </g>
    <g transform="matrix(1.154978,0.279595,-0.33634,0.960118,-186.846905,120.888831)">
        <path d="M1717,1957L1899,1904" style="fill:none;stroke:black;stroke-width:39.66px;"/>
    </g>
    <g transform="matrix(0.279595,-1.217822,0.960118,0.35464,-813.774186,3845.05847)">
        <path d="M1717,1957L1899,1904" style="fill:none;stroke:black;stroke-width:39.01px;"/>
    </g>
    <g transform="matrix(-0.736524,-1.16716,0.964436,-0.382866,928.451234,4975.28319)">
        <path d="M1717,1957L1899,1904" style="fill:none;stroke:black;stroke-width:37.61px;"/>
    </g>
    <g transform="matrix(0,1.220616,-0.34981,0,1914.088808,-10.921877)">
        <path d="M1999,1773L1649.977,1773L1737.233,1510L1911.744,1510L1999,1773Z" style="fill:white;stroke:white;stroke-width:46.41px;"/>
    </g>
    <g transform="matrix(0,0.226411,-0.258555,0,1829.496991,1988.308414)">
        <path d="M1999,1773L1649.977,1773L1737.233,1510L1911.744,1510L1999,1773Z" style="fill:white;stroke:white;stroke-width:171.46px;stroke-linejoin:miter;"/>
    </g>
    <g transform="matrix(0,0.226411,-0.258555,0,1829.496991,1988.308414)">
        <path d="M1999,1773L1649.977,1773L1737.233,1510L1911.744,1510L1999,1773Z" style="fill:white;stroke:white;stroke-width:171.46px;stroke-linejoin:miter;"/>
    </g>
    <g transform="matrix(0.226411,0,0,0.258555,921.791355,1979.567412)">
        <path d="M1999,1773L1649.977,1773L1737.233,1510L1911.744,1510L1999,1773Z" style="fill:white;stroke:white;stroke-width:171.46px;stroke-linejoin:miter;"/>
    </g>
    <g transform="matrix(-0.961989,0.011069,-0.011069,0.996777,2796.768078,511.206644)">
        <path d="M1717,1957L1899,1904" style="fill:none;stroke:black;stroke-width:42.06px;"/>
    </g>
    <g transform="matrix(-0.279595,-1.217822,-0.960118,0.35464,3323.021199,3846.05847)">
        <path d="M1717,1957L1899,1904" style="fill:none;stroke:black;stroke-width:39.01px;"/>
    </g>
    <g transform="matrix(0.736524,-1.16716,-0.964436,-0.382866,1580.795779,4976.28319)">
        <path d="M1717,1957L1899,1904" style="fill:none;stroke:black;stroke-width:37.61px;"/>
    </g>
    <g transform="matrix(-0,1.220616,0.34981,0,595.158205,-9.921877)">
        <path d="M1999,1773L1649.977,1773L1737.233,1510L1911.744,1510L1999,1773Z" style="fill:white;stroke:white;stroke-width:46.41px;"/>
    </g>
    <g transform="matrix(-0,0.226411,0.258555,0,679.750022,1989.308414)">
        <path d="M1999,1773L1649.977,1773L1737.233,1510L1911.744,1510L1999,1773Z" style="fill:white;stroke:white;stroke-width:171.46px;stroke-linejoin:miter;"/>
    </g>
    <g transform="matrix(-0,0.226411,0.258555,0,679.750022,1989.308414)">
        <path d="M1999,1773L1649.977,1773L1737.233,1510L1911.744,1510L1999,1773Z" style="fill:white;stroke:white;stroke-width:171.46px;stroke-linejoin:miter;"/>
    </g>
    <g transform="matrix(-0.226411,0,-0,0.258555,1587.455658,1980.567412)">
        <path d="M1999,1773L1649.977,1773L1737.233,1510L1911.744,1510L1999,1773Z" style="fill:white;stroke:white;stroke-width:171.46px;stroke-linejoin:miter;"/>
    </g>
    <g transform="matrix(1,0,-0,1.07868,-380.92126,531.904067)">
        <rect x="1240.157" y="989" width="761.843" height="197" style="fill:white;stroke:white;stroke-width:40.06px;stroke-linejoin:miter;"/>
    </g>
    <g transform="matrix(1,0,0,1,-410.12412,515.218788)">
        <path d="M1665.539,1044L1745,1170L1586.079,1170L1665.539,1044Z" style="fill:white;stroke:black;stroke-width:41.67px;stroke-linejoin:miter;"/>
    </g>
    <g transform="matrix(1,0,0,1,-410.12412,593.218788)">
        <path d="M1665.539,1044L1745,1170L1586.079,1170L1665.539,1044Z" style="fill:white;stroke:white;stroke-width:41.67px;stroke-linejoin:miter;"/>
    </g>
    <g transform="matrix(-1,0,0,-1,2777.03336,2831.218788)">
        <path d="M1665.539,1044L1745,1170L1586.079,1170L1665.539,1044Z" style="fill:white;stroke:black;stroke-width:41.67px;stroke-linejoin:miter;"/>
    </g>
    <g transform="matrix(-1,0,0,-1,2777.03336,2753.218788)">
        <path d="M1665.539,1044L1745,1170L1586.079,1170L1665.539,1044Z" style="fill:white;stroke:white;stroke-width:41.67px;stroke-linejoin:miter;"/>
    </g>
    <g transform="matrix(-1,0,0,-1,3065.03336,2831.218788)">
        <path d="M1665.539,1044L1745,1170L1586.079,1170L1665.539,1044Z" style="fill:white;stroke:black;stroke-width:41.67px;stroke-linejoin:miter;"/>
    </g>
    <g transform="matrix(-1,0,0,-1,3065.03336,2753.218788)">
        <path d="M1665.539,1044L1745,1170L1586.079,1170L1665.539,1044Z" style="fill:white;stroke:white;stroke-width:41.67px;stroke-linejoin:miter;"/>
    </g>
    <path d="M1478.955,1661.219L1634,1661.219" style="fill:none;stroke:black;stroke-width:41.67px;stroke-linecap:round;stroke-linejoin:miter;"/>
    <g transform="matrix(-1,0,0,1,2507.95462,0)">
        <path d="M1478.955,1661.219L1634,1661.219" style="fill:none;stroke:black;stroke-width:41.67px;stroke-linecap:round;stroke-linejoin:miter;"/>
    </g>
    <g transform="matrix(1.018621,0.132804,-0.276417,1.116055,405.074582,-332.831293)">
        <path d="M1190.955,1495L1148,1598.719" style="fill:none;stroke:white;stroke-width:40.56px;stroke-linecap:round;stroke-linejoin:miter;"/>
    </g>
    <g transform="matrix(-1.018621,0.132804,0.276417,1.116055,2105.425428,-332.831293)">
        <path d="M1190.955,1495L1148,1598.719" style="fill:none;stroke:white;stroke-width:40.56px;stroke-linecap:round;stroke-linejoin:miter;"/>
    </g>
    <g transform="matrix(-1.018621,0.132804,0.276417,1.116055,2141.425428,-48.831293)">
        <path d="M1190.955,1495L1148,1598.719" style="fill:none;stroke:white;stroke-width:20.28px;stroke-linecap:round;stroke-linejoin:miter;"/>
    </g>
    <g transform="matrix(1.018621,0.132804,-0.276417,1.116055,367.074582,-48.831293)">
        <path d="M1190.955,1495L1148,1598.719" style="fill:none;stroke:white;stroke-width:20.28px;stroke-linecap:round;stroke-linejoin:miter;"/>
    </g>
</svg>
