%TF.GenerationSoftware,KiCad,Pcbnew,9.0.5*%
%TF.CreationDate,2025-12-15T13:26:06-05:00*%
%TF.ProjectId,airbrakes,61697262-7261-46b6-9573-2e6b69636164,rev?*%
%TF.SameCoordinates,Original*%
%TF.FileFunction,Copper,L2,Bot*%
%TF.FilePolarity,Positive*%
%FSLAX46Y46*%
G04 Gerber Fmt 4.6, Leading zero omitted, Abs format (unit mm)*
G04 Created by KiCad (PCBNEW 9.0.5) date 2025-12-15 13:26:06*
%MOMM*%
%LPD*%
G01*
G04 APERTURE LIST*
G04 Aperture macros list*
%AMRoundRect*
0 Rectangle with rounded corners*
0 $1 Rounding radius*
0 $2 $3 $4 $5 $6 $7 $8 $9 X,Y pos of 4 corners*
0 Add a 4 corners polygon primitive as box body*
4,1,4,$2,$3,$4,$5,$6,$7,$8,$9,$2,$3,0*
0 Add four circle primitives for the rounded corners*
1,1,$1+$1,$2,$3*
1,1,$1+$1,$4,$5*
1,1,$1+$1,$6,$7*
1,1,$1+$1,$8,$9*
0 Add four rect primitives between the rounded corners*
20,1,$1+$1,$2,$3,$4,$5,0*
20,1,$1+$1,$4,$5,$6,$7,0*
20,1,$1+$1,$6,$7,$8,$9,0*
20,1,$1+$1,$8,$9,$2,$3,0*%
%AMHorizOval*
0 Thick line with rounded ends*
0 $1 width*
0 $2 $3 position (X,Y) of the first rounded end (center of the circle)*
0 $4 $5 position (X,Y) of the second rounded end (center of the circle)*
0 Add line between two ends*
20,1,$1,$2,$3,$4,$5,0*
0 Add two circle primitives to create the rounded ends*
1,1,$1,$2,$3*
1,1,$1,$4,$5*%
%AMFreePoly0*
4,1,15,-0.800000,0.480000,-0.480000,0.800000,0.640000,0.800000,0.701229,0.787821,0.753137,0.753137,0.787821,0.701229,0.800000,0.640000,0.800000,-0.640000,0.787821,-0.701229,0.753137,-0.753137,0.701229,-0.787821,0.640000,-0.800000,-0.480000,-0.800000,-0.800000,-0.480000,-0.800000,0.480000,-0.800000,0.480000,$1*%
G04 Aperture macros list end*
%TA.AperFunction,ComponentPad*%
%ADD10R,1.700000X1.700000*%
%TD*%
%TA.AperFunction,ComponentPad*%
%ADD11C,1.700000*%
%TD*%
%TA.AperFunction,ComponentPad*%
%ADD12C,1.600000*%
%TD*%
%TA.AperFunction,ComponentPad*%
%ADD13FreePoly0,270.000000*%
%TD*%
%TA.AperFunction,ComponentPad*%
%ADD14R,1.600000X1.600000*%
%TD*%
%TA.AperFunction,ComponentPad*%
%ADD15O,1.600000X1.600000*%
%TD*%
%TA.AperFunction,ComponentPad*%
%ADD16RoundRect,0.250000X-0.350000X-0.350000X0.350000X-0.350000X0.350000X0.350000X-0.350000X0.350000X0*%
%TD*%
%TA.AperFunction,ComponentPad*%
%ADD17C,1.200000*%
%TD*%
%TA.AperFunction,ComponentPad*%
%ADD18RoundRect,0.250000X0.909982X-0.307300X0.499557X0.820331X-0.909982X0.307300X-0.499557X-0.820331X0*%
%TD*%
%TA.AperFunction,ComponentPad*%
%ADD19HorizOval,1.700000X0.140954X0.051303X-0.140954X-0.051303X0*%
%TD*%
%TA.AperFunction,ViaPad*%
%ADD20C,0.600000*%
%TD*%
%TA.AperFunction,ViaPad*%
%ADD21C,0.400000*%
%TD*%
%TA.AperFunction,Conductor*%
%ADD22C,0.200000*%
%TD*%
G04 APERTURE END LIST*
D10*
%TO.P,J1,1,Pin_1*%
%TO.N,Net-(J1-Pin_1)*%
X110744000Y-94996000D03*
D11*
%TO.P,J1,2,Pin_2*%
%TO.N,VCC*%
X108204000Y-94996000D03*
%TO.P,J1,3,Pin_3*%
%TO.N,GND*%
X105664000Y-94996000D03*
%TD*%
D12*
%TO.P,MPU6050,1,VCC*%
%TO.N,VCC*%
X99441000Y-89654405D03*
%TO.P,MPU6050,2,GND*%
%TO.N,GND*%
X101981000Y-89654405D03*
%TO.P,MPU6050,3,SCL*%
%TO.N,Net-(BMP1-SCL)*%
X104521000Y-89654405D03*
%TO.P,MPU6050,4,SDA*%
%TO.N,Net-(BMP1-SDA)*%
X107061000Y-89654405D03*
%TO.P,MPU6050,5,XCL*%
%TO.N,unconnected-(MPU6050-XCL-Pad5)*%
X109601000Y-89654405D03*
%TO.P,MPU6050,6,XDA*%
%TO.N,unconnected-(MPU6050-XDA-Pad6)*%
X112141000Y-89654405D03*
%TO.P,MPU6050,7,ADO*%
%TO.N,unconnected-(MPU6050-ADO-Pad7)*%
X114681000Y-89654405D03*
%TO.P,MPU6050,8,INT*%
%TO.N,Net-(MPU6050-INT)*%
X117221000Y-89654405D03*
%TD*%
D13*
%TO.P,BMP180,1,VIN*%
%TO.N,VCC*%
X122936000Y-98044000D03*
D12*
%TO.P,BMP180,2,GND*%
%TO.N,GND*%
X122936000Y-100584000D03*
%TO.P,BMP180,3,SCL*%
%TO.N,Net-(BMP1-SCL)*%
X122936000Y-103124000D03*
%TO.P,BMP180,4,SDA*%
%TO.N,Net-(BMP1-SDA)*%
X122936000Y-105664000D03*
%TD*%
D14*
%TO.P,U1,1,D1/TX*%
%TO.N,unconnected-(U1-D1{slash}TX-Pad1)*%
X115570000Y-126492000D03*
D15*
%TO.P,U1,2,D0/RX*%
%TO.N,unconnected-(U1-D0{slash}RX-Pad2)*%
X115570000Y-123952000D03*
%TO.P,U1,3,GND*%
%TO.N,GND*%
X115570000Y-121412000D03*
%TO.P,U1,4,GND*%
X115570000Y-118872000D03*
%TO.P,U1,5,D2*%
%TO.N,Net-(BMP1-SDA)*%
X115570000Y-116332000D03*
%TO.P,U1,6,~D3*%
%TO.N,Net-(BMP1-SCL)*%
X115570000Y-113792000D03*
%TO.P,U1,7,D4/A6*%
%TO.N,Net-(MPU6050-INT)*%
X115570000Y-111252000D03*
%TO.P,U1,8,~D5*%
%TO.N,Net-(J1-Pin_1)*%
X115570000Y-108712000D03*
%TO.P,U1,9,~D6/A7*%
%TO.N,unconnected-(U1-~D6{slash}A7-Pad9)*%
X115570000Y-106172000D03*
%TO.P,U1,10,D7*%
%TO.N,unconnected-(U1-D7-Pad10)*%
X115570000Y-103632000D03*
%TO.P,U1,11,D8/A8*%
%TO.N,unconnected-(U1-D8{slash}A8-Pad11)*%
X115570000Y-101092000D03*
%TO.P,U1,12,~D9/A9*%
%TO.N,unconnected-(U1-~D9{slash}A9-Pad12)*%
X115570000Y-98552000D03*
%TO.P,U1,13,~D10/A10*%
%TO.N,Net-(U1-~D10{slash}A10)*%
X100330000Y-98552000D03*
%TO.P,U1,14,D16*%
%TO.N,Net-(U1-D16)*%
X100330000Y-101092000D03*
%TO.P,U1,15,D14*%
%TO.N,Net-(J3-DAT0)*%
X100330000Y-103632000D03*
%TO.P,U1,16,D15*%
%TO.N,Net-(U1-D15)*%
X100330000Y-106172000D03*
%TO.P,U1,17,D18/A0*%
%TO.N,unconnected-(U1-D18{slash}A0-Pad17)*%
X100330000Y-108712000D03*
%TO.P,U1,18,D19/A1*%
%TO.N,unconnected-(U1-D19{slash}A1-Pad18)*%
X100330000Y-111252000D03*
%TO.P,U1,19,D20/A2*%
%TO.N,unconnected-(U1-D20{slash}A2-Pad19)*%
X100330000Y-113792000D03*
%TO.P,U1,20,D21/A3*%
%TO.N,unconnected-(U1-D21{slash}A3-Pad20)*%
X100330000Y-116332000D03*
%TO.P,U1,21,VCC*%
%TO.N,VCC*%
X100330000Y-118872000D03*
%TO.P,U1,22,RST*%
%TO.N,unconnected-(U1-RST-Pad22)*%
X100330000Y-121412000D03*
%TO.P,U1,23,GND*%
%TO.N,GND*%
X100330000Y-123952000D03*
%TO.P,U1,24,RAW*%
%TO.N,Net-(J2-Pin_1)*%
X100330000Y-126492000D03*
%TD*%
D16*
%TO.P,C1,1*%
%TO.N,Net-(J3-VDD)*%
X95274000Y-98044000D03*
D17*
%TO.P,C1,2*%
%TO.N,Net-(U2E-VCC)*%
X96774000Y-98044000D03*
%TD*%
D18*
%TO.P,J2,1,Pin_1*%
%TO.N,Net-(J2-Pin_1)*%
X84167050Y-111569232D03*
D19*
%TO.P,J2,2,Pin_2*%
%TO.N,GND*%
X83312000Y-109220000D03*
%TD*%
D20*
%TO.N,Net-(J3-CLK)*%
X93218000Y-101092000D03*
D21*
X96774000Y-109982000D03*
D20*
%TO.N,GND*%
X81505617Y-98749569D03*
X91311499Y-98780227D03*
D21*
%TO.N,Net-(J3-CMD)*%
X91049000Y-109332000D03*
D20*
X92440165Y-95679241D03*
D21*
%TO.N,GND*%
X96774000Y-108682000D03*
X91049000Y-109982000D03*
X91049000Y-108032000D03*
X91049000Y-106082000D03*
D20*
%TO.N,Net-(J3-DAT0)*%
X90935277Y-99813889D03*
%TO.N,Net-(J3-VDD)*%
X92063943Y-96712903D03*
D21*
%TO.N,Net-(U2E-VCC)*%
X96774000Y-106082000D03*
D20*
X96774000Y-101092000D03*
X96774000Y-99568000D03*
%TD*%
D22*
%TO.N,Net-(J3-CLK)*%
X93218000Y-106426000D02*
X93218000Y-101092000D01*
X96774000Y-109982000D02*
X93218000Y-106426000D01*
%TO.N,Net-(J3-CMD)*%
X89916000Y-98010903D02*
X92247662Y-95679241D01*
X89916000Y-108199000D02*
X89916000Y-98010903D01*
X91049000Y-109332000D02*
X89916000Y-108199000D01*
X92247662Y-95679241D02*
X92440165Y-95679241D01*
%TO.N,Net-(BMP1-SCL)*%
X119380000Y-106426000D02*
X119380000Y-109982000D01*
X122682000Y-103124000D02*
X119380000Y-106426000D01*
X119380000Y-109982000D02*
X115570000Y-113792000D01*
X122936000Y-103124000D02*
X122682000Y-103124000D01*
%TO.N,Net-(MPU6050-INT)*%
X117856000Y-90289405D02*
X117856000Y-108966000D01*
X117221000Y-89654405D02*
X117856000Y-90289405D01*
X117856000Y-108966000D02*
X115570000Y-111252000D01*
%TO.N,Net-(J3-DAT0)*%
X91197388Y-100076000D02*
X90935277Y-99813889D01*
X100330000Y-103632000D02*
X97028000Y-100330000D01*
X97028000Y-100330000D02*
X91948000Y-100330000D01*
X91948000Y-100330000D02*
X91694000Y-100076000D01*
X91694000Y-100076000D02*
X91197388Y-100076000D01*
%TO.N,Net-(J3-VDD)*%
X94488000Y-98044000D02*
X93472000Y-97028000D01*
X93472000Y-97028000D02*
X92379040Y-97028000D01*
X92379040Y-97028000D02*
X92063943Y-96712903D01*
X95274000Y-98044000D02*
X94488000Y-98044000D01*
%TO.N,Net-(U2E-VCC)*%
X96774000Y-99568000D02*
X96774000Y-98044000D01*
X96774000Y-106082000D02*
X96774000Y-101092000D01*
%TD*%
%TA.AperFunction,Conductor*%
%TO.N,GND*%
G36*
X91545445Y-97333205D02*
G01*
X91571003Y-97346285D01*
X91684757Y-97422293D01*
X91684770Y-97422300D01*
X91793199Y-97467212D01*
X91830446Y-97482640D01*
X91985096Y-97513402D01*
X91985099Y-97513403D01*
X91985101Y-97513403D01*
X91985557Y-97513403D01*
X91985823Y-97513474D01*
X91991161Y-97514000D01*
X91991074Y-97514881D01*
X92047556Y-97530015D01*
X92147256Y-97587577D01*
X92258755Y-97617453D01*
X92299982Y-97628500D01*
X92299983Y-97628500D01*
X93171903Y-97628500D01*
X93238942Y-97648185D01*
X93259584Y-97664819D01*
X94007478Y-98412713D01*
X94007480Y-98412716D01*
X94119284Y-98524520D01*
X94160332Y-98548219D01*
X94169829Y-98556684D01*
X94181850Y-98575978D01*
X94197534Y-98592428D01*
X94205025Y-98610243D01*
X94239186Y-98713333D01*
X94239187Y-98713336D01*
X94268542Y-98760928D01*
X94331288Y-98862656D01*
X94455344Y-98986712D01*
X94604666Y-99078814D01*
X94771203Y-99133999D01*
X94873991Y-99144500D01*
X95674008Y-99144499D01*
X95674016Y-99144498D01*
X95674019Y-99144498D01*
X95730302Y-99138748D01*
X95776797Y-99133999D01*
X95879426Y-99099990D01*
X95949251Y-99097589D01*
X96009294Y-99133320D01*
X96040487Y-99195840D01*
X96032990Y-99265148D01*
X96004263Y-99334503D01*
X96004261Y-99334510D01*
X95973500Y-99489153D01*
X95973500Y-99605500D01*
X95953815Y-99672539D01*
X95901011Y-99718294D01*
X95849500Y-99729500D01*
X92248098Y-99729500D01*
X92181059Y-99709815D01*
X92160417Y-99693181D01*
X92062717Y-99595481D01*
X92062716Y-99595480D01*
X91973490Y-99543966D01*
X91973489Y-99543965D01*
X91925783Y-99516422D01*
X91869881Y-99501443D01*
X91773057Y-99475499D01*
X91773054Y-99475499D01*
X91738205Y-99475499D01*
X91671166Y-99455814D01*
X91635103Y-99420390D01*
X91557066Y-99303600D01*
X91557063Y-99303596D01*
X91445569Y-99192102D01*
X91445565Y-99192099D01*
X91314462Y-99104498D01*
X91314449Y-99104491D01*
X91168778Y-99044153D01*
X91168766Y-99044150D01*
X91014122Y-99013389D01*
X91014119Y-99013389D01*
X90856435Y-99013389D01*
X90856432Y-99013389D01*
X90701787Y-99044150D01*
X90701775Y-99044153D01*
X90687950Y-99049880D01*
X90618481Y-99057347D01*
X90556002Y-99026071D01*
X90520351Y-98965981D01*
X90516500Y-98935318D01*
X90516500Y-98311000D01*
X90536185Y-98243961D01*
X90552819Y-98223319D01*
X90905752Y-97870386D01*
X91414433Y-97361704D01*
X91475754Y-97328221D01*
X91545445Y-97333205D01*
G37*
%TD.AperFunction*%
%TA.AperFunction,Conductor*%
G36*
X108175874Y-73155488D02*
G01*
X108177746Y-73155520D01*
X108656422Y-73167458D01*
X108658341Y-73167521D01*
X109136854Y-73187417D01*
X109138732Y-73187511D01*
X109616781Y-73215355D01*
X109618738Y-73215485D01*
X110096225Y-73251268D01*
X110098157Y-73251428D01*
X110575005Y-73295144D01*
X110576923Y-73295336D01*
X111052953Y-73346969D01*
X111054925Y-73347199D01*
X111530044Y-73406739D01*
X111532079Y-73407013D01*
X111670092Y-73426643D01*
X112006007Y-73474422D01*
X112007980Y-73474719D01*
X112480887Y-73550024D01*
X112482759Y-73550338D01*
X112954389Y-73633499D01*
X112956234Y-73633841D01*
X113426335Y-73724813D01*
X113428288Y-73725208D01*
X113896765Y-73823972D01*
X113898779Y-73824414D01*
X114365497Y-73930940D01*
X114367491Y-73931412D01*
X114832431Y-74045694D01*
X114834397Y-74046195D01*
X115297365Y-74168187D01*
X115299321Y-74168720D01*
X115760193Y-74298390D01*
X115761990Y-74298910D01*
X116215521Y-74434688D01*
X116220776Y-74436262D01*
X116222745Y-74436870D01*
X116678954Y-74581755D01*
X116680914Y-74582395D01*
X117134778Y-74734886D01*
X117136725Y-74735559D01*
X117587921Y-74895546D01*
X117589785Y-74896224D01*
X118038295Y-75063703D01*
X118040220Y-75064440D01*
X118485848Y-75239337D01*
X118487761Y-75240106D01*
X118930411Y-75422381D01*
X118932310Y-75423181D01*
X119371900Y-75612801D01*
X119373786Y-75613633D01*
X119810206Y-75810553D01*
X119812077Y-75811417D01*
X120245105Y-76015536D01*
X120246800Y-76016352D01*
X120676487Y-76227696D01*
X120678328Y-76228621D01*
X120850988Y-76317138D01*
X121104386Y-76447047D01*
X121106041Y-76447912D01*
X121528507Y-76673442D01*
X121530281Y-76674409D01*
X121948827Y-76906868D01*
X121950619Y-76907883D01*
X122365210Y-77147248D01*
X122366919Y-77148254D01*
X122777517Y-77394501D01*
X122779255Y-77395563D01*
X123185706Y-77648604D01*
X123187381Y-77649666D01*
X123589535Y-77909404D01*
X123591242Y-77910526D01*
X123989129Y-78176984D01*
X123990746Y-78178087D01*
X124337736Y-78418910D01*
X124384045Y-78451050D01*
X124385728Y-78452239D01*
X124774402Y-78731676D01*
X124776066Y-78732893D01*
X125160090Y-79018789D01*
X125161732Y-79020033D01*
X125540949Y-79312269D01*
X125542482Y-79313470D01*
X125916827Y-79612001D01*
X125918412Y-79613287D01*
X126287749Y-79918002D01*
X126289222Y-79919239D01*
X126653420Y-80230031D01*
X126654977Y-80231382D01*
X127013937Y-80548167D01*
X127015471Y-80549544D01*
X127369083Y-80872221D01*
X127370594Y-80873623D01*
X127718824Y-81202161D01*
X127720284Y-81203561D01*
X128063023Y-81537859D01*
X128064436Y-81539261D01*
X128401553Y-81879191D01*
X128402992Y-81880666D01*
X128734443Y-82226184D01*
X128735843Y-82227670D01*
X129061448Y-82578588D01*
X129062753Y-82580017D01*
X129177443Y-82707820D01*
X129382580Y-82936411D01*
X129383943Y-82937956D01*
X129697674Y-83299468D01*
X129699013Y-83301036D01*
X130006783Y-83667823D01*
X130008094Y-83669413D01*
X130309668Y-84041192D01*
X130310953Y-84042804D01*
X130606287Y-84419523D01*
X130607545Y-84421155D01*
X130896622Y-84802790D01*
X130897824Y-84804404D01*
X131180584Y-85190881D01*
X131181682Y-85192409D01*
X131376280Y-85467881D01*
X131457905Y-85583428D01*
X131459081Y-85585121D01*
X131728818Y-85980752D01*
X131729900Y-85982368D01*
X131993000Y-86382392D01*
X131994087Y-86384075D01*
X132250508Y-86788426D01*
X132251597Y-86790176D01*
X132501217Y-87198661D01*
X132502277Y-87200429D01*
X132745057Y-87612981D01*
X132746088Y-87614766D01*
X132982016Y-88031363D01*
X132983016Y-88033164D01*
X133211964Y-88453582D01*
X133212935Y-88455401D01*
X133434872Y-88879584D01*
X133435768Y-88881332D01*
X133576326Y-89161204D01*
X133650645Y-89309186D01*
X133651554Y-89311035D01*
X133859282Y-89742384D01*
X133860161Y-89744249D01*
X134060658Y-90178923D01*
X134061506Y-90180802D01*
X134254793Y-90618845D01*
X134255609Y-90620737D01*
X134441547Y-91061835D01*
X134442332Y-91063741D01*
X134620934Y-91507921D01*
X134621687Y-91509839D01*
X134792867Y-91956887D01*
X134793588Y-91958819D01*
X134957327Y-92408689D01*
X134958016Y-92410631D01*
X135114261Y-92863176D01*
X135114917Y-92865130D01*
X135263594Y-93320137D01*
X135264218Y-93322102D01*
X135405333Y-93779589D01*
X135405924Y-93781563D01*
X135539408Y-94241300D01*
X135539966Y-94243284D01*
X135665774Y-94705120D01*
X135666300Y-94707113D01*
X135784442Y-95171088D01*
X135784934Y-95173090D01*
X135895342Y-95638937D01*
X135895800Y-95640946D01*
X135998440Y-96108522D01*
X135998865Y-96110539D01*
X136093714Y-96579730D01*
X136094106Y-96581754D01*
X136181156Y-97052527D01*
X136181514Y-97054556D01*
X136260726Y-97526699D01*
X136261050Y-97528735D01*
X136332402Y-98002119D01*
X136332692Y-98004160D01*
X136396154Y-98478592D01*
X136396411Y-98480637D01*
X136451996Y-98956199D01*
X136452218Y-98958247D01*
X136499883Y-99434580D01*
X136500071Y-99436633D01*
X136539812Y-99913704D01*
X136539966Y-99915760D01*
X136571771Y-100393412D01*
X136571891Y-100395469D01*
X136595757Y-100873651D01*
X136595842Y-100875711D01*
X136611751Y-101354095D01*
X136611803Y-101356155D01*
X136619762Y-101834861D01*
X136619779Y-101836922D01*
X136619779Y-102315633D01*
X136619762Y-102317694D01*
X136611803Y-102796400D01*
X136611751Y-102798460D01*
X136595842Y-103276844D01*
X136595757Y-103278904D01*
X136571891Y-103757086D01*
X136571771Y-103759143D01*
X136539966Y-104236795D01*
X136539812Y-104238851D01*
X136500071Y-104715922D01*
X136499883Y-104717975D01*
X136452218Y-105194308D01*
X136451996Y-105196356D01*
X136396411Y-105671918D01*
X136396154Y-105673963D01*
X136332692Y-106148395D01*
X136332402Y-106150436D01*
X136261050Y-106623820D01*
X136260726Y-106625856D01*
X136181514Y-107097999D01*
X136181156Y-107100028D01*
X136094106Y-107570801D01*
X136093714Y-107572825D01*
X135998865Y-108042016D01*
X135998440Y-108044033D01*
X135895800Y-108511609D01*
X135895342Y-108513618D01*
X135784934Y-108979465D01*
X135784442Y-108981467D01*
X135666300Y-109445442D01*
X135665774Y-109447435D01*
X135539966Y-109909271D01*
X135539408Y-109911255D01*
X135405924Y-110370992D01*
X135405333Y-110372966D01*
X135264218Y-110830453D01*
X135263594Y-110832418D01*
X135114917Y-111287425D01*
X135114261Y-111289379D01*
X134958016Y-111741924D01*
X134957327Y-111743866D01*
X134793588Y-112193736D01*
X134792867Y-112195668D01*
X134621687Y-112642716D01*
X134620934Y-112644634D01*
X134442332Y-113088814D01*
X134441547Y-113090720D01*
X134255609Y-113531818D01*
X134254793Y-113533710D01*
X134061506Y-113971753D01*
X134060658Y-113973632D01*
X133860161Y-114408306D01*
X133859282Y-114410171D01*
X133651554Y-114841520D01*
X133650645Y-114843369D01*
X133576726Y-114990555D01*
X133485358Y-115172485D01*
X133435813Y-115271137D01*
X133434872Y-115272971D01*
X133212935Y-115697154D01*
X133211964Y-115698973D01*
X132983016Y-116119391D01*
X132982016Y-116121192D01*
X132746088Y-116537789D01*
X132745057Y-116539574D01*
X132502277Y-116952126D01*
X132501217Y-116953894D01*
X132251597Y-117362379D01*
X132250508Y-117364129D01*
X131994087Y-117768480D01*
X131992969Y-117770211D01*
X131825324Y-118025104D01*
X131729965Y-118170090D01*
X131728818Y-118171803D01*
X131459081Y-118567434D01*
X131457905Y-118569127D01*
X131181715Y-118960100D01*
X131180543Y-118961729D01*
X131171310Y-118974351D01*
X130897853Y-119348112D01*
X130896622Y-119349765D01*
X130607545Y-119731400D01*
X130606287Y-119733032D01*
X130310953Y-120109751D01*
X130309668Y-120111363D01*
X130008094Y-120483142D01*
X130006783Y-120484732D01*
X129699013Y-120851519D01*
X129697674Y-120853087D01*
X129383943Y-121214599D01*
X129382580Y-121216144D01*
X129062793Y-121572494D01*
X129061403Y-121574016D01*
X128735857Y-121924871D01*
X128734443Y-121926371D01*
X128402992Y-122271889D01*
X128401553Y-122273364D01*
X128064436Y-122613294D01*
X128062972Y-122614746D01*
X127720311Y-122948968D01*
X127718824Y-122950394D01*
X127370594Y-123278932D01*
X127369083Y-123280334D01*
X127015471Y-123603011D01*
X127013937Y-123604388D01*
X126654977Y-123921173D01*
X126653420Y-123922524D01*
X126289275Y-124233272D01*
X126287696Y-124234597D01*
X125918427Y-124539256D01*
X125916827Y-124540554D01*
X125542526Y-124839050D01*
X125540903Y-124840322D01*
X125161732Y-125132522D01*
X125160090Y-125133766D01*
X124776066Y-125419662D01*
X124774402Y-125420879D01*
X124385728Y-125700316D01*
X124384045Y-125701505D01*
X123990791Y-125974437D01*
X123989088Y-125975599D01*
X123591257Y-126242019D01*
X123589535Y-126243151D01*
X123187414Y-126502868D01*
X123185673Y-126503972D01*
X122779276Y-126756979D01*
X122777517Y-126758054D01*
X122366952Y-127004282D01*
X122365176Y-127005327D01*
X121950620Y-127244671D01*
X121948827Y-127245687D01*
X121530281Y-127478146D01*
X121528471Y-127479132D01*
X121425078Y-127534328D01*
X121119952Y-127697218D01*
X121106148Y-127704587D01*
X121104321Y-127705542D01*
X120678328Y-127923934D01*
X120676487Y-127924859D01*
X120246902Y-128136154D01*
X120245044Y-128137048D01*
X119812077Y-128341138D01*
X119810206Y-128342002D01*
X119373786Y-128538922D01*
X119371900Y-128539754D01*
X118932310Y-128729374D01*
X118930411Y-128730174D01*
X118487761Y-128912449D01*
X118485848Y-128913218D01*
X118040220Y-129088115D01*
X118038295Y-129088852D01*
X117589822Y-129256317D01*
X117587885Y-129257022D01*
X117136725Y-129416996D01*
X117134778Y-129417669D01*
X116680914Y-129570160D01*
X116678954Y-129570800D01*
X116222745Y-129715685D01*
X116220776Y-129716293D01*
X115762077Y-129853619D01*
X115760097Y-129854193D01*
X115299338Y-129983830D01*
X115297350Y-129984372D01*
X114834413Y-130106356D01*
X114832415Y-130106865D01*
X114367502Y-130221140D01*
X114365497Y-130221615D01*
X113898779Y-130328141D01*
X113896765Y-130328583D01*
X113428321Y-130427340D01*
X113426301Y-130427748D01*
X112956325Y-130518697D01*
X112954298Y-130519072D01*
X112482839Y-130602203D01*
X112480807Y-130602544D01*
X112008021Y-130677829D01*
X112005982Y-130678136D01*
X111532079Y-130745542D01*
X111530037Y-130745816D01*
X111054962Y-130805351D01*
X111052914Y-130805590D01*
X110576988Y-130857212D01*
X110574937Y-130857417D01*
X110098218Y-130901121D01*
X110096164Y-130901292D01*
X109618788Y-130937066D01*
X109616732Y-130937203D01*
X109138824Y-130965039D01*
X109136765Y-130965142D01*
X108658409Y-130985031D01*
X108656350Y-130985099D01*
X108177845Y-130997033D01*
X108175784Y-130997068D01*
X107697031Y-131001047D01*
X107694969Y-131001047D01*
X107216215Y-130997068D01*
X107214154Y-130997033D01*
X106735649Y-130985099D01*
X106733590Y-130985031D01*
X106255234Y-130965142D01*
X106253175Y-130965039D01*
X105775267Y-130937203D01*
X105773211Y-130937066D01*
X105295835Y-130901292D01*
X105293781Y-130901121D01*
X104817062Y-130857417D01*
X104815011Y-130857212D01*
X104339085Y-130805590D01*
X104337037Y-130805351D01*
X103861962Y-130745816D01*
X103859920Y-130745542D01*
X103386017Y-130678136D01*
X103383978Y-130677829D01*
X102911192Y-130602544D01*
X102909160Y-130602203D01*
X102437701Y-130519072D01*
X102435674Y-130518697D01*
X101965698Y-130427748D01*
X101963678Y-130427340D01*
X101495234Y-130328583D01*
X101493220Y-130328141D01*
X101026502Y-130221615D01*
X101024497Y-130221140D01*
X100559584Y-130106865D01*
X100557586Y-130106356D01*
X100094649Y-129984372D01*
X100092661Y-129983830D01*
X99631902Y-129854193D01*
X99629922Y-129853619D01*
X99171223Y-129716293D01*
X99169254Y-129715685D01*
X98713045Y-129570800D01*
X98711085Y-129570160D01*
X98257221Y-129417669D01*
X98255274Y-129416996D01*
X97804114Y-129257022D01*
X97802177Y-129256317D01*
X97353704Y-129088852D01*
X97351779Y-129088115D01*
X96906151Y-128913218D01*
X96904238Y-128912449D01*
X96461588Y-128730174D01*
X96459689Y-128729374D01*
X96020099Y-128539754D01*
X96018213Y-128538922D01*
X95581793Y-128342002D01*
X95579922Y-128341138D01*
X95146955Y-128137048D01*
X95145150Y-128136179D01*
X94902734Y-128016945D01*
X94715512Y-127924859D01*
X94713671Y-127923934D01*
X94287678Y-127705542D01*
X94285915Y-127704620D01*
X93863528Y-127479132D01*
X93861718Y-127478146D01*
X93443172Y-127245687D01*
X93441379Y-127244671D01*
X93026823Y-127005327D01*
X93025047Y-127004282D01*
X92614482Y-126758054D01*
X92612723Y-126756979D01*
X92206326Y-126503972D01*
X92204585Y-126502868D01*
X92183019Y-126488939D01*
X92029286Y-126389648D01*
X99029500Y-126389648D01*
X99029500Y-126594351D01*
X99061522Y-126796534D01*
X99124781Y-126991223D01*
X99217715Y-127173613D01*
X99338028Y-127339213D01*
X99482786Y-127483971D01*
X99637749Y-127596556D01*
X99648390Y-127604287D01*
X99737212Y-127649544D01*
X99830776Y-127697218D01*
X99830778Y-127697218D01*
X99830781Y-127697220D01*
X99935137Y-127731127D01*
X100025465Y-127760477D01*
X100126557Y-127776488D01*
X100227648Y-127792500D01*
X100227649Y-127792500D01*
X100432351Y-127792500D01*
X100432352Y-127792500D01*
X100634534Y-127760477D01*
X100829219Y-127697220D01*
X101011610Y-127604287D01*
X101107901Y-127534328D01*
X101177213Y-127483971D01*
X101177215Y-127483968D01*
X101177219Y-127483966D01*
X101321966Y-127339219D01*
X101321968Y-127339215D01*
X101321971Y-127339213D01*
X101389920Y-127245687D01*
X101442287Y-127173610D01*
X101535220Y-126991219D01*
X101598477Y-126796534D01*
X101630500Y-126594352D01*
X101630500Y-126389648D01*
X101607297Y-126243151D01*
X101598477Y-126187465D01*
X101535218Y-125992776D01*
X101499405Y-125922491D01*
X101442287Y-125810390D01*
X101404685Y-125758635D01*
X101321971Y-125644786D01*
X101177213Y-125500028D01*
X101011611Y-125379713D01*
X100918369Y-125332203D01*
X100867574Y-125284229D01*
X100850779Y-125216407D01*
X100873317Y-125150273D01*
X100918371Y-125111234D01*
X101011347Y-125063861D01*
X101176894Y-124943582D01*
X101176895Y-124943582D01*
X101321582Y-124798895D01*
X101321582Y-124798894D01*
X101441856Y-124633353D01*
X101441861Y-124633345D01*
X101534261Y-124452000D01*
X99125739Y-124452000D01*
X99218138Y-124633345D01*
X99218143Y-124633353D01*
X99338417Y-124798894D01*
X99338417Y-124798895D01*
X99483104Y-124943582D01*
X99648652Y-125063861D01*
X99741628Y-125111234D01*
X99792425Y-125159208D01*
X99809220Y-125227029D01*
X99786683Y-125293164D01*
X99741630Y-125332203D01*
X99648388Y-125379713D01*
X99482786Y-125500028D01*
X99338028Y-125644786D01*
X99217715Y-125810386D01*
X99124781Y-125992776D01*
X99061522Y-126187465D01*
X99029500Y-126389648D01*
X92029286Y-126389648D01*
X91802464Y-126243151D01*
X91800742Y-126242019D01*
X91402911Y-125975599D01*
X91401208Y-125974437D01*
X91007954Y-125701505D01*
X91006271Y-125700316D01*
X90617597Y-125420879D01*
X90615933Y-125419662D01*
X90231909Y-125133766D01*
X90230267Y-125132522D01*
X89851096Y-124840322D01*
X89849473Y-124839050D01*
X89799519Y-124799213D01*
X89475170Y-124540552D01*
X89473572Y-124539256D01*
X89104262Y-124234562D01*
X89102765Y-124233307D01*
X88738578Y-123922523D01*
X88737022Y-123921173D01*
X88712281Y-123899339D01*
X99930000Y-123899339D01*
X99930000Y-124004661D01*
X99957259Y-124106394D01*
X100009920Y-124197606D01*
X100084394Y-124272080D01*
X100175606Y-124324741D01*
X100277339Y-124352000D01*
X100382661Y-124352000D01*
X100484394Y-124324741D01*
X100575606Y-124272080D01*
X100650080Y-124197606D01*
X100702741Y-124106394D01*
X100730000Y-124004661D01*
X100730000Y-123899339D01*
X100716685Y-123849648D01*
X114269500Y-123849648D01*
X114269500Y-124054351D01*
X114301522Y-124256534D01*
X114364781Y-124451223D01*
X114428691Y-124576653D01*
X114457582Y-124633353D01*
X114457715Y-124633613D01*
X114578028Y-124799213D01*
X114722784Y-124943969D01*
X114759068Y-124970330D01*
X114801735Y-125025659D01*
X114807715Y-125095273D01*
X114775109Y-125157068D01*
X114714271Y-125191426D01*
X114699440Y-125193938D01*
X114662519Y-125197907D01*
X114527671Y-125248202D01*
X114527664Y-125248206D01*
X114412455Y-125334452D01*
X114412452Y-125334455D01*
X114326206Y-125449664D01*
X114326202Y-125449671D01*
X114275908Y-125584517D01*
X114269501Y-125644116D01*
X114269501Y-125644123D01*
X114269500Y-125644135D01*
X114269500Y-127339870D01*
X114269501Y-127339876D01*
X114275908Y-127399483D01*
X114326202Y-127534328D01*
X114326206Y-127534335D01*
X114412452Y-127649544D01*
X114412455Y-127649547D01*
X114527664Y-127735793D01*
X114527671Y-127735797D01*
X114662517Y-127786091D01*
X114662516Y-127786091D01*
X114669444Y-127786835D01*
X114722127Y-127792500D01*
X116417872Y-127792499D01*
X116477483Y-127786091D01*
X116612331Y-127735796D01*
X116727546Y-127649546D01*
X116813796Y-127534331D01*
X116864091Y-127399483D01*
X116870500Y-127339873D01*
X116870499Y-125644128D01*
X116864091Y-125584517D01*
X116813796Y-125449669D01*
X116813795Y-125449668D01*
X116813793Y-125449664D01*
X116727547Y-125334455D01*
X116727544Y-125334452D01*
X116612335Y-125248206D01*
X116612328Y-125248202D01*
X116477482Y-125197908D01*
X116477483Y-125197908D01*
X116440560Y-125193939D01*
X116376009Y-125167201D01*
X116336160Y-125109809D01*
X116333667Y-125039984D01*
X116369319Y-124979895D01*
X116380930Y-124970331D01*
X116417219Y-124943966D01*
X116561966Y-124799219D01*
X116561968Y-124799215D01*
X116561971Y-124799213D01*
X116614732Y-124726590D01*
X116682287Y-124633610D01*
X116775220Y-124451219D01*
X116838477Y-124256534D01*
X116870500Y-124054352D01*
X116870500Y-123849648D01*
X116859317Y-123779044D01*
X116838477Y-123647465D01*
X116775218Y-123452776D01*
X116741503Y-123386607D01*
X116682287Y-123270390D01*
X116674556Y-123259749D01*
X116561971Y-123104786D01*
X116417213Y-122960028D01*
X116251611Y-122839713D01*
X116158369Y-122792203D01*
X116107574Y-122744229D01*
X116090779Y-122676407D01*
X116113317Y-122610273D01*
X116158371Y-122571234D01*
X116251347Y-122523861D01*
X116416894Y-122403582D01*
X116416895Y-122403582D01*
X116561582Y-122258895D01*
X116561582Y-122258894D01*
X116681856Y-122093353D01*
X116681861Y-122093345D01*
X116774261Y-121912000D01*
X114365739Y-121912000D01*
X114458138Y-122093345D01*
X114458143Y-122093353D01*
X114578417Y-122258894D01*
X114578417Y-122258895D01*
X114723104Y-122403582D01*
X114888652Y-122523861D01*
X114981628Y-122571234D01*
X115032425Y-122619208D01*
X115049220Y-122687029D01*
X115026683Y-122753164D01*
X114981630Y-122792203D01*
X114888388Y-122839713D01*
X114722786Y-122960028D01*
X114578028Y-123104786D01*
X114457715Y-123270386D01*
X114364781Y-123452776D01*
X114301522Y-123647465D01*
X114269500Y-123849648D01*
X100716685Y-123849648D01*
X100702741Y-123797606D01*
X100650080Y-123706394D01*
X100575606Y-123631920D01*
X100484394Y-123579259D01*
X100382661Y-123552000D01*
X100277339Y-123552000D01*
X100175606Y-123579259D01*
X100084394Y-123631920D01*
X100009920Y-123706394D01*
X99957259Y-123797606D01*
X99930000Y-123899339D01*
X88712281Y-123899339D01*
X88378062Y-123604388D01*
X88376528Y-123603011D01*
X88022916Y-123280334D01*
X88021405Y-123278932D01*
X87673175Y-122950394D01*
X87671688Y-122948968D01*
X87328977Y-122614696D01*
X87327563Y-122613294D01*
X86990446Y-122273364D01*
X86989007Y-122271889D01*
X86657556Y-121926371D01*
X86656142Y-121924871D01*
X86330546Y-121573961D01*
X86329251Y-121572544D01*
X86009416Y-121216140D01*
X86008056Y-121214599D01*
X85694325Y-120853087D01*
X85692986Y-120851519D01*
X85385216Y-120484732D01*
X85383905Y-120483142D01*
X85235457Y-120300136D01*
X85082301Y-120111326D01*
X85081077Y-120109790D01*
X84911681Y-119893713D01*
X88649500Y-119893713D01*
X88649500Y-120106286D01*
X88680203Y-120300140D01*
X88682754Y-120316243D01*
X88716602Y-120420417D01*
X88748444Y-120518414D01*
X88844951Y-120707820D01*
X88969890Y-120879786D01*
X89120213Y-121030109D01*
X89292179Y-121155048D01*
X89292181Y-121155049D01*
X89292184Y-121155051D01*
X89481588Y-121251557D01*
X89683757Y-121317246D01*
X89893713Y-121350500D01*
X89893714Y-121350500D01*
X90106286Y-121350500D01*
X90106287Y-121350500D01*
X90316243Y-121317246D01*
X90518412Y-121251557D01*
X90707816Y-121155051D01*
X90794709Y-121091920D01*
X90879786Y-121030109D01*
X90879788Y-121030106D01*
X90879792Y-121030104D01*
X91030104Y-120879792D01*
X91030106Y-120879788D01*
X91030109Y-120879786D01*
X91155048Y-120707820D01*
X91155047Y-120707820D01*
X91155051Y-120707816D01*
X91251557Y-120518412D01*
X91317246Y-120316243D01*
X91350500Y-120106287D01*
X91350500Y-119893713D01*
X91317246Y-119683757D01*
X91251557Y-119481588D01*
X91155051Y-119292184D01*
X91155049Y-119292181D01*
X91155048Y-119292179D01*
X91030109Y-119120213D01*
X90879786Y-118969890D01*
X90707820Y-118844951D01*
X90518414Y-118748444D01*
X90518413Y-118748443D01*
X90518412Y-118748443D01*
X90316243Y-118682754D01*
X90316241Y-118682753D01*
X90316240Y-118682753D01*
X90154957Y-118657208D01*
X90106287Y-118649500D01*
X89893713Y-118649500D01*
X89845042Y-118657208D01*
X89683760Y-118682753D01*
X89481585Y-118748444D01*
X89292179Y-118844951D01*
X89120213Y-118969890D01*
X88969890Y-119120213D01*
X88844951Y-119292179D01*
X88748444Y-119481585D01*
X88682753Y-119683760D01*
X88649500Y-119893713D01*
X84911681Y-119893713D01*
X84785700Y-119733016D01*
X84784454Y-119731400D01*
X84495377Y-119349765D01*
X84494189Y-119348170D01*
X84211400Y-118961652D01*
X84210333Y-118960169D01*
X83934090Y-118569121D01*
X83932918Y-118567434D01*
X83663154Y-118171763D01*
X83662117Y-118170214D01*
X83398980Y-117770133D01*
X83397912Y-117768480D01*
X83252697Y-117539490D01*
X83141470Y-117364095D01*
X83140402Y-117362379D01*
X82890751Y-116953842D01*
X82889754Y-116952180D01*
X82646942Y-116539574D01*
X82645911Y-116537789D01*
X82409983Y-116121192D01*
X82408983Y-116119391D01*
X82358923Y-116027465D01*
X82180024Y-115698954D01*
X82179064Y-115697154D01*
X81957106Y-115272930D01*
X81956253Y-115271268D01*
X81741326Y-114843312D01*
X81740445Y-114841520D01*
X81649999Y-114653708D01*
X81532694Y-114410122D01*
X81531838Y-114408306D01*
X81331314Y-113973574D01*
X81330493Y-113971753D01*
X81137206Y-113533710D01*
X81136390Y-113531818D01*
X81111661Y-113473154D01*
X80950434Y-113090677D01*
X80949667Y-113088814D01*
X80927093Y-113032674D01*
X80771057Y-112644614D01*
X80770335Y-112642775D01*
X80599098Y-112195578D01*
X80598411Y-112193736D01*
X80434672Y-111743866D01*
X80433983Y-111741924D01*
X80326490Y-111430582D01*
X80277716Y-111289314D01*
X80277105Y-111287495D01*
X80128388Y-110832366D01*
X80127781Y-110830453D01*
X79986666Y-110372966D01*
X79986075Y-110370992D01*
X79945779Y-110232206D01*
X79928029Y-110171073D01*
X82160849Y-110171073D01*
X82172643Y-110186168D01*
X82328053Y-110331090D01*
X82504217Y-110449915D01*
X82682204Y-110532912D01*
X82734643Y-110579084D01*
X82753795Y-110646278D01*
X82733579Y-110713159D01*
X82727066Y-110722204D01*
X82613957Y-110865251D01*
X82613956Y-110865252D01*
X82539812Y-111024256D01*
X82539811Y-111024258D01*
X82504334Y-111196073D01*
X82508864Y-111351747D01*
X82509437Y-111371444D01*
X82534725Y-111471625D01*
X82979358Y-112693241D01*
X83024381Y-112786239D01*
X83024382Y-112786240D01*
X83024383Y-112786242D01*
X83024383Y-112786243D01*
X83089153Y-112868156D01*
X83133197Y-112923859D01*
X83133201Y-112923862D01*
X83270813Y-113032674D01*
X83270814Y-113032674D01*
X83270815Y-113032675D01*
X83429819Y-113106820D01*
X83429820Y-113106820D01*
X83429822Y-113106821D01*
X83547704Y-113131160D01*
X83601637Y-113142296D01*
X83777005Y-113137194D01*
X83877186Y-113111906D01*
X85380709Y-112564667D01*
X85473708Y-112519644D01*
X85611328Y-112410828D01*
X85720144Y-112273210D01*
X85794288Y-112114206D01*
X85806113Y-112056933D01*
X85829765Y-111942390D01*
X85829510Y-111933610D01*
X85824663Y-111767020D01*
X85799375Y-111666839D01*
X85354742Y-110445223D01*
X85309719Y-110352225D01*
X85309716Y-110352221D01*
X85309716Y-110352220D01*
X85256604Y-110285050D01*
X85200903Y-110214605D01*
X85165144Y-110186330D01*
X85063286Y-110105789D01*
X84904277Y-110031642D01*
X84725683Y-109994767D01*
X84664009Y-109961933D01*
X84629877Y-109900968D01*
X84634123Y-109831227D01*
X84638375Y-109820924D01*
X84721371Y-109642938D01*
X84779941Y-109438677D01*
X84779942Y-109438673D01*
X84805839Y-109227762D01*
X84805170Y-109208618D01*
X83524114Y-109674885D01*
X83619007Y-109620099D01*
X83712099Y-109527007D01*
X83777925Y-109412993D01*
X83812000Y-109285826D01*
X83812000Y-109154174D01*
X83777925Y-109027007D01*
X83712099Y-108912993D01*
X83619007Y-108819901D01*
X83504993Y-108754075D01*
X83377826Y-108720000D01*
X83246174Y-108720000D01*
X83119007Y-108754075D01*
X83004993Y-108819901D01*
X82911901Y-108912993D01*
X82846075Y-109027007D01*
X82812000Y-109154174D01*
X82812000Y-109285826D01*
X82846075Y-109412993D01*
X82911901Y-109527007D01*
X83004993Y-109620099D01*
X83119007Y-109685925D01*
X83246174Y-109720000D01*
X83377826Y-109720000D01*
X83462498Y-109697311D01*
X82160849Y-110171073D01*
X79928029Y-110171073D01*
X79905211Y-110092485D01*
X79852570Y-109911181D01*
X79852054Y-109909348D01*
X79726207Y-109447366D01*
X79725715Y-109445505D01*
X79666317Y-109212233D01*
X81818161Y-109212233D01*
X81818829Y-109231380D01*
X82671143Y-108921163D01*
X82395560Y-108164004D01*
X82256179Y-108272901D01*
X82111258Y-108428310D01*
X81992433Y-108604474D01*
X81902628Y-108797061D01*
X81844058Y-109001323D01*
X81844057Y-109001327D01*
X81818161Y-109212233D01*
X79666317Y-109212233D01*
X79607557Y-108981467D01*
X79607065Y-108979465D01*
X79496657Y-108513618D01*
X79496199Y-108511609D01*
X79393559Y-108044033D01*
X79393134Y-108042016D01*
X79350192Y-107829593D01*
X79348654Y-107821983D01*
X83335252Y-107821983D01*
X83610834Y-108579143D01*
X83610835Y-108579143D01*
X84438067Y-108278054D01*
X89315498Y-108278054D01*
X89356423Y-108430785D01*
X89385358Y-108480900D01*
X89385359Y-108480904D01*
X89385360Y-108480904D01*
X89435479Y-108567714D01*
X89435481Y-108567717D01*
X89554349Y-108686585D01*
X89554355Y-108686590D01*
X90341701Y-109473936D01*
X90372735Y-109530771D01*
X90373650Y-109530494D01*
X90374982Y-109534886D01*
X90375186Y-109535259D01*
X90375384Y-109536209D01*
X90375420Y-109536330D01*
X90428221Y-109663804D01*
X90428228Y-109663817D01*
X90504885Y-109778541D01*
X90504888Y-109778545D01*
X90602454Y-109876111D01*
X90602458Y-109876114D01*
X90717182Y-109952771D01*
X90717195Y-109952778D01*
X90844667Y-110005578D01*
X90844672Y-110005580D01*
X90844676Y-110005580D01*
X90844677Y-110005581D01*
X90980004Y-110032500D01*
X90980007Y-110032500D01*
X91117995Y-110032500D01*
X91222797Y-110011653D01*
X91253328Y-110005580D01*
X91380811Y-109952775D01*
X91495542Y-109876114D01*
X91593114Y-109778542D01*
X91669775Y-109663811D01*
X91675070Y-109651029D01*
X91713098Y-109559219D01*
X91722580Y-109536328D01*
X91740646Y-109445505D01*
X91749500Y-109400995D01*
X91749500Y-109263004D01*
X91722581Y-109127677D01*
X91722580Y-109127676D01*
X91722580Y-109127672D01*
X91722578Y-109127667D01*
X91669778Y-109000195D01*
X91669771Y-109000182D01*
X91593114Y-108885458D01*
X91593111Y-108885454D01*
X91495545Y-108787888D01*
X91495541Y-108787885D01*
X91380817Y-108711228D01*
X91380804Y-108711221D01*
X91253330Y-108658420D01*
X91247494Y-108656650D01*
X91247921Y-108655239D01*
X91192502Y-108626240D01*
X91190936Y-108624701D01*
X90552819Y-107986584D01*
X90519334Y-107925261D01*
X90516500Y-107898903D01*
X90516500Y-100692459D01*
X90536185Y-100625420D01*
X90588989Y-100579665D01*
X90658147Y-100569721D01*
X90687951Y-100577897D01*
X90701780Y-100583626D01*
X90856430Y-100614388D01*
X90856433Y-100614389D01*
X90856435Y-100614389D01*
X90895679Y-100614389D01*
X90957677Y-100631001D01*
X90965603Y-100635577D01*
X91118331Y-100676501D01*
X91118334Y-100676501D01*
X91284041Y-100676501D01*
X91284057Y-100676500D01*
X91393901Y-100676500D01*
X91460940Y-100696185D01*
X91481582Y-100712818D01*
X91579284Y-100810520D01*
X91662394Y-100858503D01*
X91714207Y-100888418D01*
X91716215Y-100889577D01*
X91868942Y-100930500D01*
X91868943Y-100930500D01*
X92293500Y-100930500D01*
X92360539Y-100950185D01*
X92406294Y-101002989D01*
X92417500Y-101054500D01*
X92417500Y-101170846D01*
X92448261Y-101325489D01*
X92448264Y-101325501D01*
X92508602Y-101471172D01*
X92508609Y-101471185D01*
X92596602Y-101602874D01*
X92617480Y-101669551D01*
X92617500Y-101671765D01*
X92617500Y-106339330D01*
X92617499Y-106339348D01*
X92617499Y-106505054D01*
X92617498Y-106505054D01*
X92620179Y-106515059D01*
X92658423Y-106657785D01*
X92684398Y-106702775D01*
X92737477Y-106794712D01*
X92737481Y-106794717D01*
X92856349Y-106913585D01*
X92856355Y-106913590D01*
X96066701Y-110123936D01*
X96097735Y-110180771D01*
X96098650Y-110180494D01*
X96099982Y-110184886D01*
X96100186Y-110185259D01*
X96100384Y-110186209D01*
X96100420Y-110186330D01*
X96153221Y-110313804D01*
X96153228Y-110313817D01*
X96229885Y-110428541D01*
X96229888Y-110428545D01*
X96327454Y-110526111D01*
X96327458Y-110526114D01*
X96442182Y-110602771D01*
X96442195Y-110602778D01*
X96547215Y-110646278D01*
X96569672Y-110655580D01*
X96569676Y-110655580D01*
X96569677Y-110655581D01*
X96705004Y-110682500D01*
X96705007Y-110682500D01*
X96842995Y-110682500D01*
X96953659Y-110660487D01*
X96978328Y-110655580D01*
X97105811Y-110602775D01*
X97220542Y-110526114D01*
X97318114Y-110428542D01*
X97394775Y-110313811D01*
X97447580Y-110186328D01*
X97474500Y-110050993D01*
X97474500Y-109913007D01*
X97474500Y-109913004D01*
X97447581Y-109777677D01*
X97447580Y-109777676D01*
X97447580Y-109777672D01*
X97417050Y-109703966D01*
X97394778Y-109650195D01*
X97394771Y-109650182D01*
X97318114Y-109535458D01*
X97318111Y-109535454D01*
X97220545Y-109437888D01*
X97220541Y-109437885D01*
X97105817Y-109361228D01*
X97105804Y-109361221D01*
X96978330Y-109308420D01*
X96972494Y-109306650D01*
X96972921Y-109305239D01*
X96917502Y-109276240D01*
X96915936Y-109274701D01*
X93854819Y-106213584D01*
X93821334Y-106152261D01*
X93818500Y-106125903D01*
X93818500Y-101671765D01*
X93838185Y-101604726D01*
X93839398Y-101602874D01*
X93927390Y-101471185D01*
X93927390Y-101471184D01*
X93927394Y-101471179D01*
X93987737Y-101325497D01*
X94018500Y-101170842D01*
X94018500Y-101054500D01*
X94038185Y-100987461D01*
X94090989Y-100941706D01*
X94142500Y-100930500D01*
X95849500Y-100930500D01*
X95916539Y-100950185D01*
X95962294Y-101002989D01*
X95973500Y-101054500D01*
X95973500Y-101170846D01*
X96004261Y-101325489D01*
X96004264Y-101325501D01*
X96064602Y-101471172D01*
X96064609Y-101471185D01*
X96152602Y-101602874D01*
X96173480Y-101669551D01*
X96173500Y-101671765D01*
X96173500Y-105682230D01*
X96155253Y-105744369D01*
X96156095Y-105744819D01*
X96153935Y-105748859D01*
X96153815Y-105749269D01*
X96153278Y-105750087D01*
X96153223Y-105750190D01*
X96100421Y-105877667D01*
X96100418Y-105877677D01*
X96073500Y-106013004D01*
X96073500Y-106013007D01*
X96073500Y-106150993D01*
X96073500Y-106150995D01*
X96073499Y-106150995D01*
X96100418Y-106286322D01*
X96100421Y-106286332D01*
X96153221Y-106413804D01*
X96153228Y-106413817D01*
X96229885Y-106528541D01*
X96229888Y-106528545D01*
X96327454Y-106626111D01*
X96327458Y-106626114D01*
X96442182Y-106702771D01*
X96442195Y-106702778D01*
X96569667Y-106755578D01*
X96569672Y-106755580D01*
X96569676Y-106755580D01*
X96569677Y-106755581D01*
X96705004Y-106782500D01*
X96705007Y-106782500D01*
X96842995Y-106782500D01*
X96934041Y-106764389D01*
X96978328Y-106755580D01*
X97105811Y-106702775D01*
X97220542Y-106626114D01*
X97318114Y-106528542D01*
X97394775Y-106413811D01*
X97447580Y-106286328D01*
X97469274Y-106177265D01*
X97474500Y-106150995D01*
X97474500Y-106013004D01*
X97447581Y-105877677D01*
X97447580Y-105877676D01*
X97447580Y-105877672D01*
X97401470Y-105766352D01*
X97394776Y-105750190D01*
X97391905Y-105744819D01*
X97393205Y-105744123D01*
X97374520Y-105684438D01*
X97374500Y-105682230D01*
X97374500Y-101825097D01*
X97394185Y-101758058D01*
X97446989Y-101712303D01*
X97516147Y-101702359D01*
X97579703Y-101731384D01*
X97586181Y-101737416D01*
X99035922Y-103187157D01*
X99069407Y-103248480D01*
X99066173Y-103313155D01*
X99061522Y-103327468D01*
X99029500Y-103529648D01*
X99029500Y-103734351D01*
X99061522Y-103936534D01*
X99124781Y-104131223D01*
X99217715Y-104313613D01*
X99338028Y-104479213D01*
X99482786Y-104623971D01*
X99612174Y-104717975D01*
X99648390Y-104744287D01*
X99739840Y-104790883D01*
X99741080Y-104791515D01*
X99791876Y-104839490D01*
X99808671Y-104907311D01*
X99786134Y-104973446D01*
X99741080Y-105012485D01*
X99648386Y-105059715D01*
X99482786Y-105180028D01*
X99338028Y-105324786D01*
X99217715Y-105490386D01*
X99124781Y-105672776D01*
X99061522Y-105867465D01*
X99038471Y-106013007D01*
X99029500Y-106069648D01*
X99029500Y-106274352D01*
X99033878Y-106301995D01*
X99061522Y-106476534D01*
X99124781Y-106671223D01*
X99217715Y-106853613D01*
X99338028Y-107019213D01*
X99482786Y-107163971D01*
X99637749Y-107276556D01*
X99648390Y-107284287D01*
X99739840Y-107330883D01*
X99741080Y-107331515D01*
X99791876Y-107379490D01*
X99808671Y-107447311D01*
X99786134Y-107513446D01*
X99741080Y-107552485D01*
X99648386Y-107599715D01*
X99482786Y-107720028D01*
X99338028Y-107864786D01*
X99217715Y-108030386D01*
X99124781Y-108212776D01*
X99061522Y-108407465D01*
X99029500Y-108609648D01*
X99029500Y-108814351D01*
X99061522Y-109016534D01*
X99124781Y-109211223D01*
X99217715Y-109393613D01*
X99338028Y-109559213D01*
X99482786Y-109703971D01*
X99637749Y-109816556D01*
X99648390Y-109824287D01*
X99739840Y-109870883D01*
X99741080Y-109871515D01*
X99791876Y-109919490D01*
X99808671Y-109987311D01*
X99786134Y-110053446D01*
X99741080Y-110092485D01*
X99648386Y-110139715D01*
X99482786Y-110260028D01*
X99338028Y-110404786D01*
X99217715Y-110570386D01*
X99124781Y-110752776D01*
X99061522Y-110947465D01*
X99029500Y-111149648D01*
X99029500Y-111354351D01*
X99061522Y-111556534D01*
X99124781Y-111751223D01*
X99217715Y-111933613D01*
X99338028Y-112099213D01*
X99482786Y-112243971D01*
X99637749Y-112356556D01*
X99648390Y-112364287D01*
X99739722Y-112410823D01*
X99741080Y-112411515D01*
X99791876Y-112459490D01*
X99808671Y-112527311D01*
X99786134Y-112593446D01*
X99741080Y-112632485D01*
X99648386Y-112679715D01*
X99482786Y-112800028D01*
X99338028Y-112944786D01*
X99217715Y-113110386D01*
X99124781Y-113292776D01*
X99061522Y-113487465D01*
X99029500Y-113689648D01*
X99029500Y-113894351D01*
X99061522Y-114096534D01*
X99124781Y-114291223D01*
X99217715Y-114473613D01*
X99338028Y-114639213D01*
X99482786Y-114783971D01*
X99637749Y-114896556D01*
X99648390Y-114904287D01*
X99739840Y-114950883D01*
X99741080Y-114951515D01*
X99791876Y-114999490D01*
X99808671Y-115067311D01*
X99786134Y-115133446D01*
X99741080Y-115172485D01*
X99648386Y-115219715D01*
X99482786Y-115340028D01*
X99338028Y-115484786D01*
X99217715Y-115650386D01*
X99124781Y-115832776D01*
X99061522Y-116027465D01*
X99029500Y-116229648D01*
X99029500Y-116434351D01*
X99061522Y-116636534D01*
X99124781Y-116831223D01*
X99217715Y-117013613D01*
X99338028Y-117179213D01*
X99482786Y-117323971D01*
X99637749Y-117436556D01*
X99648390Y-117444287D01*
X99739840Y-117490883D01*
X99741080Y-117491515D01*
X99791876Y-117539490D01*
X99808671Y-117607311D01*
X99786134Y-117673446D01*
X99741080Y-117712485D01*
X99648386Y-117759715D01*
X99482786Y-117880028D01*
X99338028Y-118024786D01*
X99217715Y-118190386D01*
X99124781Y-118372776D01*
X99061522Y-118567465D01*
X99029500Y-118769648D01*
X99029500Y-118974351D01*
X99061522Y-119176534D01*
X99124781Y-119371223D01*
X99181014Y-119481585D01*
X99217582Y-119553353D01*
X99217715Y-119553613D01*
X99338028Y-119719213D01*
X99482786Y-119863971D01*
X99637749Y-119976556D01*
X99648390Y-119984287D01*
X99739840Y-120030883D01*
X99741080Y-120031515D01*
X99791876Y-120079490D01*
X99808671Y-120147311D01*
X99786134Y-120213446D01*
X99741080Y-120252485D01*
X99648386Y-120299715D01*
X99482786Y-120420028D01*
X99338028Y-120564786D01*
X99217715Y-120730386D01*
X99124781Y-120912776D01*
X99061522Y-121107465D01*
X99029500Y-121309648D01*
X99029500Y-121514351D01*
X99061522Y-121716534D01*
X99124781Y-121911223D01*
X99188691Y-122036653D01*
X99217582Y-122093353D01*
X99217715Y-122093613D01*
X99338028Y-122259213D01*
X99482786Y-122403971D01*
X99637749Y-122516556D01*
X99648390Y-122524287D01*
X99720424Y-122560990D01*
X99741629Y-122571795D01*
X99792425Y-122619770D01*
X99809220Y-122687591D01*
X99786682Y-122753726D01*
X99741629Y-122792765D01*
X99648650Y-122840140D01*
X99483105Y-122960417D01*
X99483104Y-122960417D01*
X99338417Y-123105104D01*
X99338417Y-123105105D01*
X99218143Y-123270646D01*
X99218138Y-123270654D01*
X99125739Y-123452000D01*
X101534260Y-123452000D01*
X101441861Y-123270654D01*
X101441856Y-123270646D01*
X101321582Y-123105105D01*
X101321582Y-123105104D01*
X101176895Y-122960417D01*
X101011349Y-122840140D01*
X100918370Y-122792765D01*
X100867574Y-122744790D01*
X100850779Y-122676969D01*
X100873316Y-122610835D01*
X100918370Y-122571795D01*
X100919471Y-122571234D01*
X101011610Y-122524287D01*
X101032770Y-122508913D01*
X101177213Y-122403971D01*
X101177215Y-122403968D01*
X101177219Y-122403966D01*
X101321966Y-122259219D01*
X101321968Y-122259215D01*
X101321971Y-122259213D01*
X101374732Y-122186590D01*
X101442287Y-122093610D01*
X101535220Y-121911219D01*
X101598477Y-121716534D01*
X101630500Y-121514352D01*
X101630500Y-121359339D01*
X115170000Y-121359339D01*
X115170000Y-121464661D01*
X115197259Y-121566394D01*
X115249920Y-121657606D01*
X115324394Y-121732080D01*
X115415606Y-121784741D01*
X115517339Y-121812000D01*
X115622661Y-121812000D01*
X115724394Y-121784741D01*
X115815606Y-121732080D01*
X115890080Y-121657606D01*
X115942741Y-121566394D01*
X115970000Y-121464661D01*
X115970000Y-121359339D01*
X115942741Y-121257606D01*
X115890080Y-121166394D01*
X115815606Y-121091920D01*
X115724394Y-121039259D01*
X115622661Y-121012000D01*
X115517339Y-121012000D01*
X115415606Y-121039259D01*
X115324394Y-121091920D01*
X115249920Y-121166394D01*
X115197259Y-121257606D01*
X115170000Y-121359339D01*
X101630500Y-121359339D01*
X101630500Y-121309648D01*
X101615690Y-121216140D01*
X101598477Y-121107465D01*
X101535218Y-120912776D01*
X101534823Y-120912000D01*
X114365739Y-120912000D01*
X115070000Y-120912000D01*
X116070000Y-120912000D01*
X116774260Y-120912000D01*
X116681861Y-120730654D01*
X116681856Y-120730646D01*
X116561582Y-120565105D01*
X116561582Y-120565104D01*
X116416895Y-120420417D01*
X116251349Y-120300140D01*
X116157819Y-120252484D01*
X116107023Y-120204509D01*
X116090228Y-120136688D01*
X116112765Y-120070553D01*
X116157820Y-120031514D01*
X116251345Y-119983861D01*
X116251353Y-119983856D01*
X116375423Y-119893713D01*
X123649500Y-119893713D01*
X123649500Y-120106286D01*
X123680203Y-120300140D01*
X123682754Y-120316243D01*
X123716602Y-120420417D01*
X123748444Y-120518414D01*
X123844951Y-120707820D01*
X123969890Y-120879786D01*
X124120213Y-121030109D01*
X124292179Y-121155048D01*
X124292181Y-121155049D01*
X124292184Y-121155051D01*
X124481588Y-121251557D01*
X124683757Y-121317246D01*
X124893713Y-121350500D01*
X124893714Y-121350500D01*
X125106286Y-121350500D01*
X125106287Y-121350500D01*
X125316243Y-121317246D01*
X125518412Y-121251557D01*
X125707816Y-121155051D01*
X125794709Y-121091920D01*
X125879786Y-121030109D01*
X125879788Y-121030106D01*
X125879792Y-121030104D01*
X126030104Y-120879792D01*
X126030106Y-120879788D01*
X126030109Y-120879786D01*
X126155048Y-120707820D01*
X126155047Y-120707820D01*
X126155051Y-120707816D01*
X126251557Y-120518412D01*
X126317246Y-120316243D01*
X126350500Y-120106287D01*
X126350500Y-119893713D01*
X126317246Y-119683757D01*
X126251557Y-119481588D01*
X126155051Y-119292184D01*
X126155049Y-119292181D01*
X126155048Y-119292179D01*
X126030109Y-119120213D01*
X125879786Y-118969890D01*
X125707820Y-118844951D01*
X125518414Y-118748444D01*
X125518413Y-118748443D01*
X125518412Y-118748443D01*
X125316243Y-118682754D01*
X125316241Y-118682753D01*
X125316240Y-118682753D01*
X125154957Y-118657208D01*
X125106287Y-118649500D01*
X124893713Y-118649500D01*
X124845042Y-118657208D01*
X124683760Y-118682753D01*
X124481585Y-118748444D01*
X124292179Y-118844951D01*
X124120213Y-118969890D01*
X123969890Y-119120213D01*
X123844951Y-119292179D01*
X123748444Y-119481585D01*
X123682753Y-119683760D01*
X123649500Y-119893713D01*
X116375423Y-119893713D01*
X116416894Y-119863582D01*
X116416895Y-119863582D01*
X116479318Y-119801160D01*
X116561582Y-119718895D01*
X116561582Y-119718894D01*
X116681856Y-119553353D01*
X116681861Y-119553345D01*
X116774261Y-119372000D01*
X116070000Y-119372000D01*
X116070000Y-120912000D01*
X115070000Y-120912000D01*
X115070000Y-119372000D01*
X114365739Y-119372000D01*
X114458138Y-119553345D01*
X114458143Y-119553353D01*
X114578417Y-119718894D01*
X114578417Y-119718895D01*
X114723104Y-119863582D01*
X114888646Y-119983856D01*
X114888654Y-119983861D01*
X114982179Y-120031514D01*
X115032975Y-120079488D01*
X115049771Y-120147309D01*
X115027234Y-120213444D01*
X114982180Y-120252483D01*
X114888655Y-120300136D01*
X114723105Y-120420417D01*
X114723104Y-120420417D01*
X114578417Y-120565104D01*
X114578417Y-120565105D01*
X114458143Y-120730646D01*
X114458138Y-120730654D01*
X114365739Y-120912000D01*
X101534823Y-120912000D01*
X101501503Y-120846607D01*
X101442287Y-120730390D01*
X101425886Y-120707816D01*
X101321971Y-120564786D01*
X101177213Y-120420028D01*
X101011614Y-120299715D01*
X101005006Y-120296348D01*
X100918917Y-120252483D01*
X100868123Y-120204511D01*
X100851328Y-120136690D01*
X100873865Y-120070555D01*
X100918917Y-120031516D01*
X101011610Y-119984287D01*
X101032770Y-119968913D01*
X101177213Y-119863971D01*
X101177215Y-119863968D01*
X101177219Y-119863966D01*
X101321966Y-119719219D01*
X101321968Y-119719215D01*
X101321971Y-119719213D01*
X101374732Y-119646590D01*
X101442287Y-119553610D01*
X101535220Y-119371219D01*
X101598477Y-119176534D01*
X101630500Y-118974352D01*
X101630500Y-118819339D01*
X115170000Y-118819339D01*
X115170000Y-118924661D01*
X115197259Y-119026394D01*
X115249920Y-119117606D01*
X115324394Y-119192080D01*
X115415606Y-119244741D01*
X115517339Y-119272000D01*
X115622661Y-119272000D01*
X115724394Y-119244741D01*
X115815606Y-119192080D01*
X115890080Y-119117606D01*
X115942741Y-119026394D01*
X115970000Y-118924661D01*
X115970000Y-118819339D01*
X115942741Y-118717606D01*
X115890080Y-118626394D01*
X115815606Y-118551920D01*
X115724394Y-118499259D01*
X115622661Y-118472000D01*
X115517339Y-118472000D01*
X115415606Y-118499259D01*
X115324394Y-118551920D01*
X115249920Y-118626394D01*
X115197259Y-118717606D01*
X115170000Y-118819339D01*
X101630500Y-118819339D01*
X101630500Y-118769648D01*
X101611470Y-118649500D01*
X101598477Y-118567465D01*
X101535218Y-118372776D01*
X101461189Y-118227488D01*
X101442287Y-118190390D01*
X101427538Y-118170090D01*
X101321971Y-118024786D01*
X101177213Y-117880028D01*
X101011614Y-117759715D01*
X101005006Y-117756348D01*
X100918917Y-117712483D01*
X100868123Y-117664511D01*
X100851328Y-117596690D01*
X100873865Y-117530555D01*
X100918917Y-117491516D01*
X101011610Y-117444287D01*
X101124348Y-117362379D01*
X101177213Y-117323971D01*
X101177215Y-117323968D01*
X101177219Y-117323966D01*
X101321966Y-117179219D01*
X101321968Y-117179215D01*
X101321971Y-117179213D01*
X101374732Y-117106590D01*
X101442287Y-117013610D01*
X101535220Y-116831219D01*
X101598477Y-116636534D01*
X101630500Y-116434352D01*
X101630500Y-116229648D01*
X101598477Y-116027466D01*
X101583205Y-115980465D01*
X101535218Y-115832776D01*
X101467041Y-115698973D01*
X101442287Y-115650390D01*
X101434556Y-115639749D01*
X101321971Y-115484786D01*
X101177213Y-115340028D01*
X101011614Y-115219715D01*
X101005006Y-115216348D01*
X100918917Y-115172483D01*
X100868123Y-115124511D01*
X100851328Y-115056690D01*
X100873865Y-114990555D01*
X100918917Y-114951516D01*
X101011610Y-114904287D01*
X101032770Y-114888913D01*
X101177213Y-114783971D01*
X101177215Y-114783968D01*
X101177219Y-114783966D01*
X101321966Y-114639219D01*
X101321968Y-114639215D01*
X101321971Y-114639213D01*
X101374732Y-114566590D01*
X101442287Y-114473610D01*
X101535220Y-114291219D01*
X101598477Y-114096534D01*
X101630500Y-113894352D01*
X101630500Y-113689648D01*
X101618907Y-113616453D01*
X101598477Y-113487465D01*
X101569127Y-113397137D01*
X101535220Y-113292781D01*
X101535218Y-113292778D01*
X101535218Y-113292776D01*
X101501503Y-113226607D01*
X101442287Y-113110390D01*
X101426611Y-113088814D01*
X101321971Y-112944786D01*
X101177213Y-112800028D01*
X101011614Y-112679715D01*
X101005006Y-112676348D01*
X100918917Y-112632483D01*
X100868123Y-112584511D01*
X100851328Y-112516690D01*
X100873865Y-112450555D01*
X100918917Y-112411516D01*
X101011610Y-112364287D01*
X101032770Y-112348913D01*
X101177213Y-112243971D01*
X101177215Y-112243968D01*
X101177219Y-112243966D01*
X101321966Y-112099219D01*
X101321968Y-112099215D01*
X101321971Y-112099213D01*
X101398880Y-111993355D01*
X101442287Y-111933610D01*
X101535220Y-111751219D01*
X101598477Y-111556534D01*
X101630500Y-111354352D01*
X101630500Y-111149648D01*
X101598477Y-110947466D01*
X101535220Y-110752781D01*
X101535218Y-110752778D01*
X101535218Y-110752776D01*
X101485694Y-110655581D01*
X101442287Y-110570390D01*
X101354758Y-110449915D01*
X101321971Y-110404786D01*
X101177213Y-110260028D01*
X101011614Y-110139715D01*
X100980646Y-110123936D01*
X100918917Y-110092483D01*
X100868123Y-110044511D01*
X100851328Y-109976690D01*
X100873865Y-109910555D01*
X100918917Y-109871516D01*
X101011610Y-109824287D01*
X101074573Y-109778542D01*
X101177213Y-109703971D01*
X101177215Y-109703968D01*
X101177219Y-109703966D01*
X101321966Y-109559219D01*
X101321968Y-109559215D01*
X101321971Y-109559213D01*
X101383927Y-109473936D01*
X101442287Y-109393610D01*
X101535220Y-109211219D01*
X101598477Y-109016534D01*
X101630500Y-108814352D01*
X101630500Y-108609648D01*
X101610108Y-108480900D01*
X101598477Y-108407465D01*
X101553462Y-108268924D01*
X101535220Y-108212781D01*
X101535218Y-108212778D01*
X101535218Y-108212776D01*
X101501503Y-108146607D01*
X101442287Y-108030390D01*
X101434556Y-108019749D01*
X101321971Y-107864786D01*
X101177213Y-107720028D01*
X101011614Y-107599715D01*
X100954867Y-107570801D01*
X100918917Y-107552483D01*
X100868123Y-107504511D01*
X100851328Y-107436690D01*
X100873865Y-107370555D01*
X100918917Y-107331516D01*
X101011610Y-107284287D01*
X101032770Y-107268913D01*
X101177213Y-107163971D01*
X101177215Y-107163968D01*
X101177219Y-107163966D01*
X101321966Y-107019219D01*
X101321968Y-107019215D01*
X101321971Y-107019213D01*
X101403846Y-106906520D01*
X101442287Y-106853610D01*
X101535220Y-106671219D01*
X101598477Y-106476534D01*
X101630500Y-106274352D01*
X101630500Y-106069648D01*
X101610834Y-105945481D01*
X101598477Y-105867465D01*
X101559939Y-105748859D01*
X101535220Y-105672781D01*
X101535218Y-105672778D01*
X101535218Y-105672776D01*
X101501503Y-105606607D01*
X101442287Y-105490390D01*
X101434556Y-105479749D01*
X101321971Y-105324786D01*
X101177213Y-105180028D01*
X101011614Y-105059715D01*
X101005006Y-105056348D01*
X100918917Y-105012483D01*
X100868123Y-104964511D01*
X100851328Y-104896690D01*
X100873865Y-104830555D01*
X100918917Y-104791516D01*
X101011610Y-104744287D01*
X101047826Y-104717975D01*
X101177213Y-104623971D01*
X101177215Y-104623968D01*
X101177219Y-104623966D01*
X101321966Y-104479219D01*
X101321968Y-104479215D01*
X101321971Y-104479213D01*
X101384987Y-104392477D01*
X101442287Y-104313610D01*
X101535220Y-104131219D01*
X101598477Y-103936534D01*
X101630500Y-103734352D01*
X101630500Y-103529648D01*
X101614485Y-103428534D01*
X101598477Y-103327465D01*
X101535218Y-103132776D01*
X101501503Y-103066607D01*
X101442287Y-102950390D01*
X101434556Y-102939749D01*
X101321971Y-102784786D01*
X101177213Y-102640028D01*
X101011614Y-102519715D01*
X101005006Y-102516348D01*
X100918917Y-102472483D01*
X100868123Y-102424511D01*
X100851328Y-102356690D01*
X100873865Y-102290555D01*
X100918917Y-102251516D01*
X101011610Y-102204287D01*
X101111067Y-102132028D01*
X101177213Y-102083971D01*
X101177215Y-102083968D01*
X101177219Y-102083966D01*
X101321966Y-101939219D01*
X101321968Y-101939215D01*
X101321971Y-101939213D01*
X101382774Y-101855523D01*
X101442287Y-101773610D01*
X101535220Y-101591219D01*
X101598477Y-101396534D01*
X101630500Y-101194352D01*
X101630500Y-100989648D01*
X101614467Y-100888421D01*
X101598477Y-100787465D01*
X101549125Y-100635576D01*
X101535220Y-100592781D01*
X101535218Y-100592778D01*
X101535218Y-100592776D01*
X101478612Y-100481682D01*
X101442287Y-100410390D01*
X101429952Y-100393412D01*
X101321971Y-100244786D01*
X101177213Y-100100028D01*
X101011614Y-99979715D01*
X100975441Y-99961284D01*
X100918917Y-99932483D01*
X100868123Y-99884511D01*
X100851328Y-99816690D01*
X100873865Y-99750555D01*
X100918917Y-99711516D01*
X101011610Y-99664287D01*
X101092524Y-99605500D01*
X101177213Y-99543971D01*
X101177215Y-99543968D01*
X101177219Y-99543966D01*
X101321966Y-99399219D01*
X101321968Y-99399215D01*
X101321971Y-99399213D01*
X101391437Y-99303600D01*
X101442287Y-99233610D01*
X101535220Y-99051219D01*
X101598477Y-98856534D01*
X101630500Y-98654352D01*
X101630500Y-98449648D01*
X101607067Y-98301701D01*
X101598477Y-98247465D01*
X101569127Y-98157137D01*
X101535220Y-98052781D01*
X101535218Y-98052778D01*
X101535218Y-98052776D01*
X101473600Y-97931846D01*
X101442287Y-97870390D01*
X101434556Y-97859749D01*
X101321971Y-97704786D01*
X101177213Y-97560028D01*
X101011613Y-97439715D01*
X101011612Y-97439714D01*
X101011610Y-97439713D01*
X100954653Y-97410691D01*
X100829223Y-97346781D01*
X100634534Y-97283522D01*
X100459995Y-97255878D01*
X100432352Y-97251500D01*
X100227648Y-97251500D01*
X100203329Y-97255351D01*
X100025465Y-97283522D01*
X99830776Y-97346781D01*
X99648386Y-97439715D01*
X99482786Y-97560028D01*
X99338028Y-97704786D01*
X99217715Y-97870386D01*
X99124781Y-98052776D01*
X99061522Y-98247465D01*
X99029500Y-98449648D01*
X99029500Y-98654351D01*
X99061522Y-98856534D01*
X99124781Y-99051223D01*
X99172309Y-99144500D01*
X99214429Y-99227165D01*
X99217715Y-99233613D01*
X99338028Y-99399213D01*
X99482786Y-99543971D01*
X99624384Y-99646846D01*
X99648390Y-99664287D01*
X99705098Y-99693181D01*
X99741080Y-99711515D01*
X99791876Y-99759490D01*
X99808671Y-99827311D01*
X99786134Y-99893446D01*
X99741080Y-99932485D01*
X99648386Y-99979715D01*
X99482786Y-100100028D01*
X99338028Y-100244786D01*
X99217715Y-100410386D01*
X99124781Y-100592776D01*
X99061522Y-100787465D01*
X99029500Y-100989648D01*
X99029500Y-101182903D01*
X99009815Y-101249942D01*
X98957011Y-101295697D01*
X98887853Y-101305641D01*
X98824297Y-101276616D01*
X98817819Y-101270584D01*
X97545207Y-99997972D01*
X97511722Y-99936649D01*
X97516706Y-99866957D01*
X97518306Y-99862891D01*
X97543737Y-99801497D01*
X97574500Y-99646842D01*
X97574500Y-99489158D01*
X97574500Y-99489155D01*
X97574499Y-99489153D01*
X97564031Y-99436528D01*
X97543737Y-99334503D01*
X97530935Y-99303596D01*
X97483397Y-99188827D01*
X97483395Y-99188823D01*
X97483394Y-99188821D01*
X97414716Y-99086038D01*
X97393839Y-99019362D01*
X97412323Y-98951982D01*
X97444929Y-98916834D01*
X97490928Y-98883414D01*
X97613414Y-98760928D01*
X97715232Y-98620788D01*
X97793873Y-98466445D01*
X97847402Y-98301701D01*
X97874500Y-98130611D01*
X97874500Y-97957389D01*
X97847402Y-97786299D01*
X97793873Y-97621555D01*
X97715232Y-97467212D01*
X97613414Y-97327072D01*
X97490928Y-97204586D01*
X97350788Y-97102768D01*
X97196445Y-97024127D01*
X97031701Y-96970598D01*
X97031699Y-96970597D01*
X97031698Y-96970597D01*
X96900271Y-96949781D01*
X96860611Y-96943500D01*
X96687389Y-96943500D01*
X96647728Y-96949781D01*
X96516302Y-96970597D01*
X96351549Y-97024129D01*
X96203353Y-97099638D01*
X96134684Y-97112534D01*
X96081963Y-97094692D01*
X95943340Y-97009189D01*
X95943335Y-97009187D01*
X95943334Y-97009186D01*
X95776797Y-96954001D01*
X95776795Y-96954000D01*
X95674010Y-96943500D01*
X94873998Y-96943500D01*
X94873980Y-96943501D01*
X94771203Y-96954000D01*
X94771200Y-96954001D01*
X94604668Y-97009185D01*
X94604654Y-97009192D01*
X94501172Y-97073019D01*
X94433780Y-97091459D01*
X94367117Y-97070536D01*
X94348396Y-97055161D01*
X93959590Y-96666355D01*
X93959588Y-96666352D01*
X93840717Y-96547481D01*
X93840712Y-96547477D01*
X93723388Y-96479741D01*
X93723386Y-96479739D01*
X93703787Y-96468424D01*
X93703786Y-96468423D01*
X93703785Y-96468423D01*
X93551057Y-96427499D01*
X93392943Y-96427499D01*
X93385339Y-96427499D01*
X93385339Y-96427498D01*
X93385331Y-96427500D01*
X93123347Y-96427500D01*
X93056308Y-96407815D01*
X93010553Y-96355011D01*
X93000609Y-96285853D01*
X93022282Y-96238396D01*
X105128708Y-96238396D01*
X105145780Y-96247094D01*
X105347871Y-96312757D01*
X105557754Y-96346000D01*
X105770246Y-96346000D01*
X105980127Y-96312757D01*
X105980130Y-96312757D01*
X106182218Y-96247094D01*
X106182220Y-96247093D01*
X106199289Y-96238395D01*
X106199290Y-96238395D01*
X105664001Y-95703106D01*
X105664000Y-95703106D01*
X105128708Y-96238396D01*
X93022282Y-96238396D01*
X93029634Y-96222297D01*
X93035666Y-96215819D01*
X93061951Y-96189533D01*
X93061954Y-96189530D01*
X93087667Y-96151048D01*
X93104070Y-96126500D01*
X93149555Y-96058426D01*
X93149555Y-96058425D01*
X93149559Y-96058420D01*
X93209902Y-95912738D01*
X93240665Y-95758083D01*
X93240665Y-95600399D01*
X93240665Y-95600396D01*
X93240664Y-95600394D01*
X93223521Y-95514213D01*
X93209902Y-95445744D01*
X93182676Y-95380013D01*
X93149562Y-95300068D01*
X93149555Y-95300055D01*
X93061954Y-95168952D01*
X93061951Y-95168948D01*
X92950457Y-95057454D01*
X92950453Y-95057451D01*
X92846487Y-94987983D01*
X92819349Y-94969850D01*
X92819337Y-94969843D01*
X92673666Y-94909505D01*
X92673654Y-94909502D01*
X92574370Y-94889753D01*
X104314000Y-94889753D01*
X104314000Y-95102246D01*
X104347242Y-95312127D01*
X104347242Y-95312130D01*
X104412903Y-95514213D01*
X104412908Y-95514225D01*
X104421602Y-95531289D01*
X104421603Y-95531290D01*
X104956894Y-94996000D01*
X104891068Y-94930174D01*
X105164000Y-94930174D01*
X105164000Y-95061826D01*
X105198075Y-95188993D01*
X105263901Y-95303007D01*
X105356993Y-95396099D01*
X105471007Y-95461925D01*
X105598174Y-95496000D01*
X105729826Y-95496000D01*
X105856993Y-95461925D01*
X105971007Y-95396099D01*
X106064099Y-95303007D01*
X106129925Y-95188993D01*
X106164000Y-95061826D01*
X106164000Y-94995999D01*
X106371106Y-94995999D01*
X106371106Y-94996001D01*
X106919082Y-95543977D01*
X106937269Y-95546327D01*
X106990722Y-95591321D01*
X106997862Y-95603552D01*
X107048951Y-95703820D01*
X107173890Y-95875786D01*
X107324213Y-96026109D01*
X107496179Y-96151048D01*
X107496181Y-96151049D01*
X107496184Y-96151051D01*
X107685588Y-96247557D01*
X107887757Y-96313246D01*
X108097713Y-96346500D01*
X108097714Y-96346500D01*
X108310286Y-96346500D01*
X108310287Y-96346500D01*
X108520243Y-96313246D01*
X108722412Y-96247557D01*
X108911816Y-96151051D01*
X109083792Y-96026104D01*
X109197329Y-95912566D01*
X109258648Y-95879084D01*
X109328340Y-95884068D01*
X109384274Y-95925939D01*
X109401189Y-95956917D01*
X109450202Y-96088328D01*
X109450206Y-96088335D01*
X109536452Y-96203544D01*
X109536455Y-96203547D01*
X109651664Y-96289793D01*
X109651671Y-96289797D01*
X109786517Y-96340091D01*
X109786516Y-96340091D01*
X109793444Y-96340835D01*
X109846127Y-96346500D01*
X111641872Y-96346499D01*
X111701483Y-96340091D01*
X111836331Y-96289796D01*
X111951546Y-96203546D01*
X112037796Y-96088331D01*
X112088091Y-95953483D01*
X112094500Y-95893873D01*
X112094499Y-94098128D01*
X112088091Y-94038517D01*
X112086810Y-94035083D01*
X112037797Y-93903671D01*
X112037793Y-93903664D01*
X111951547Y-93788455D01*
X111951544Y-93788452D01*
X111836335Y-93702206D01*
X111836328Y-93702202D01*
X111701482Y-93651908D01*
X111701483Y-93651908D01*
X111641883Y-93645501D01*
X111641881Y-93645500D01*
X111641873Y-93645500D01*
X111641864Y-93645500D01*
X109846129Y-93645500D01*
X109846123Y-93645501D01*
X109786516Y-93651908D01*
X109651671Y-93702202D01*
X109651664Y-93702206D01*
X109536455Y-93788452D01*
X109536452Y-93788455D01*
X109450206Y-93903664D01*
X109450203Y-93903669D01*
X109401189Y-94035083D01*
X109359317Y-94091016D01*
X109293853Y-94115433D01*
X109225580Y-94100581D01*
X109197326Y-94079430D01*
X109083786Y-93965890D01*
X108911820Y-93840951D01*
X108722414Y-93744444D01*
X108722413Y-93744443D01*
X108722412Y-93744443D01*
X108520243Y-93678754D01*
X108520241Y-93678753D01*
X108520240Y-93678753D01*
X108358957Y-93653208D01*
X108310287Y-93645500D01*
X108097713Y-93645500D01*
X108049042Y-93653208D01*
X107887760Y-93678753D01*
X107685585Y-93744444D01*
X107496179Y-93840951D01*
X107324213Y-93965890D01*
X107173890Y-94116213D01*
X107048949Y-94288182D01*
X106997861Y-94388447D01*
X106949887Y-94439242D01*
X106920614Y-94446490D01*
X106371106Y-94995999D01*
X106164000Y-94995999D01*
X106164000Y-94930174D01*
X106129925Y-94803007D01*
X106064099Y-94688993D01*
X105971007Y-94595901D01*
X105856993Y-94530075D01*
X105729826Y-94496000D01*
X105598174Y-94496000D01*
X105471007Y-94530075D01*
X105356993Y-94595901D01*
X105263901Y-94688993D01*
X105198075Y-94803007D01*
X105164000Y-94930174D01*
X104891068Y-94930174D01*
X104421603Y-94460709D01*
X104412904Y-94477783D01*
X104347242Y-94679869D01*
X104347242Y-94679872D01*
X104314000Y-94889753D01*
X92574370Y-94889753D01*
X92519010Y-94878741D01*
X92519007Y-94878741D01*
X92361323Y-94878741D01*
X92361320Y-94878741D01*
X92206675Y-94909502D01*
X92206663Y-94909505D01*
X92060992Y-94969843D01*
X92060979Y-94969850D01*
X91929876Y-95057451D01*
X91929872Y-95057454D01*
X91818378Y-95168948D01*
X91818375Y-95168952D01*
X91730774Y-95300055D01*
X91730771Y-95300062D01*
X91707092Y-95357227D01*
X91680212Y-95397454D01*
X89550014Y-97527652D01*
X89550006Y-97527660D01*
X89547286Y-97530381D01*
X89547284Y-97530383D01*
X89435480Y-97642187D01*
X89416372Y-97675284D01*
X89356423Y-97779118D01*
X89315499Y-97931846D01*
X89315499Y-97931848D01*
X89315499Y-98099949D01*
X89315500Y-98099962D01*
X89315500Y-108112330D01*
X89315499Y-108112348D01*
X89315499Y-108278054D01*
X89315498Y-108278054D01*
X84438067Y-108278054D01*
X84463149Y-108268925D01*
X84463149Y-108268924D01*
X84451361Y-108253836D01*
X84295951Y-108108913D01*
X84295942Y-108108906D01*
X84119787Y-107990087D01*
X84119783Y-107990085D01*
X83927194Y-107900279D01*
X83722933Y-107841709D01*
X83722929Y-107841708D01*
X83512016Y-107815812D01*
X83335252Y-107821983D01*
X79348654Y-107821983D01*
X79298285Y-107572825D01*
X79297893Y-107570801D01*
X79210843Y-107100028D01*
X79210485Y-107097999D01*
X79182715Y-106932477D01*
X79131264Y-106625804D01*
X79130949Y-106623820D01*
X79059582Y-106150334D01*
X79059322Y-106148501D01*
X78995840Y-105673930D01*
X78995588Y-105671918D01*
X78940003Y-105196356D01*
X78939781Y-105194308D01*
X78934897Y-105145501D01*
X78892106Y-104717872D01*
X78891936Y-104716016D01*
X78852185Y-104238834D01*
X78852033Y-104236795D01*
X78851999Y-104236284D01*
X78820226Y-103759120D01*
X78820108Y-103757086D01*
X78796240Y-103278856D01*
X78796157Y-103276844D01*
X78794478Y-103226351D01*
X78780246Y-102798399D01*
X78780196Y-102796400D01*
X78777596Y-102640028D01*
X78772235Y-102317562D01*
X78772219Y-102315780D01*
X78772138Y-102276786D01*
X78771722Y-102076278D01*
X78772219Y-101836754D01*
X78772236Y-101834972D01*
X78773958Y-101731384D01*
X78780197Y-101356096D01*
X78780246Y-101354159D01*
X78796159Y-100875654D01*
X78796242Y-100873651D01*
X78796999Y-100858501D01*
X78820109Y-100395440D01*
X78820228Y-100393412D01*
X78830125Y-100244786D01*
X78852034Y-99915733D01*
X78852187Y-99913704D01*
X78854619Y-99884511D01*
X78891937Y-99436528D01*
X78892105Y-99434693D01*
X78939785Y-98958207D01*
X78940003Y-98956199D01*
X78948511Y-98883410D01*
X78995591Y-98480605D01*
X78995845Y-98478592D01*
X79018263Y-98311000D01*
X79059324Y-98004036D01*
X79059577Y-98002253D01*
X79130960Y-97528663D01*
X79131261Y-97526769D01*
X79210485Y-97054550D01*
X79210843Y-97052527D01*
X79297893Y-96581754D01*
X79298285Y-96579730D01*
X79304805Y-96547481D01*
X79393138Y-96110516D01*
X79393559Y-96108522D01*
X79496208Y-95640903D01*
X79496657Y-95638937D01*
X79505044Y-95603552D01*
X79607067Y-95173078D01*
X79607557Y-95171088D01*
X79636492Y-95057454D01*
X79725723Y-94707022D01*
X79726198Y-94705220D01*
X79852063Y-94243175D01*
X79852561Y-94241405D01*
X79986081Y-93781540D01*
X79986665Y-93779591D01*
X79986666Y-93779589D01*
X79994682Y-93753603D01*
X105128709Y-93753603D01*
X105664000Y-94288894D01*
X105664001Y-94288894D01*
X106199290Y-93753603D01*
X106199289Y-93753602D01*
X106182225Y-93744908D01*
X106182213Y-93744903D01*
X105980128Y-93679242D01*
X105770246Y-93646000D01*
X105557754Y-93646000D01*
X105347872Y-93679242D01*
X105347869Y-93679242D01*
X105145783Y-93744904D01*
X105128709Y-93753603D01*
X79994682Y-93753603D01*
X80127808Y-93322015D01*
X80128376Y-93320225D01*
X80277117Y-92865023D01*
X80277704Y-92863276D01*
X80433998Y-92410587D01*
X80434672Y-92408689D01*
X80598411Y-91958819D01*
X80599083Y-91957015D01*
X80770350Y-91509739D01*
X80771040Y-91507982D01*
X80949701Y-91063657D01*
X80950416Y-91061920D01*
X81136422Y-90620661D01*
X81137206Y-90618845D01*
X81188933Y-90501618D01*
X81330518Y-90180744D01*
X81331294Y-90179027D01*
X81531882Y-89744153D01*
X81532672Y-89742479D01*
X81624376Y-89552053D01*
X98140500Y-89552053D01*
X98140500Y-89756756D01*
X98172522Y-89958939D01*
X98235781Y-90153628D01*
X98328715Y-90336018D01*
X98449028Y-90501618D01*
X98593786Y-90646376D01*
X98748749Y-90758961D01*
X98759390Y-90766692D01*
X98875607Y-90825908D01*
X98941776Y-90859623D01*
X98941778Y-90859623D01*
X98941781Y-90859625D01*
X99046137Y-90893532D01*
X99136465Y-90922882D01*
X99237557Y-90938893D01*
X99338648Y-90954905D01*
X99338649Y-90954905D01*
X99543351Y-90954905D01*
X99543352Y-90954905D01*
X99745534Y-90922882D01*
X99940219Y-90859625D01*
X99940468Y-90859498D01*
X101483011Y-90859498D01*
X101676588Y-90922395D01*
X101878683Y-90954405D01*
X102083317Y-90954405D01*
X102285411Y-90922395D01*
X102478987Y-90859498D01*
X101981001Y-90361511D01*
X101981000Y-90361511D01*
X101483011Y-90859498D01*
X99940468Y-90859498D01*
X100122610Y-90766692D01*
X100186048Y-90720602D01*
X100186050Y-90720601D01*
X100288212Y-90646376D01*
X100288210Y-90646376D01*
X100288219Y-90646371D01*
X100432966Y-90501624D01*
X100432968Y-90501620D01*
X100432971Y-90501618D01*
X100553286Y-90336016D01*
X100616534Y-90211885D01*
X100664508Y-90161088D01*
X100732329Y-90144293D01*
X100755966Y-90147605D01*
X100775905Y-90152391D01*
X101273893Y-89654405D01*
X101221232Y-89601744D01*
X101581000Y-89601744D01*
X101581000Y-89707066D01*
X101608259Y-89808799D01*
X101660920Y-89900011D01*
X101735394Y-89974485D01*
X101826606Y-90027146D01*
X101928339Y-90054405D01*
X102033661Y-90054405D01*
X102135394Y-90027146D01*
X102226606Y-89974485D01*
X102301080Y-89900011D01*
X102353741Y-89808799D01*
X102381000Y-89707066D01*
X102381000Y-89654404D01*
X102688106Y-89654404D01*
X102688106Y-89654405D01*
X103186093Y-90152391D01*
X103206031Y-90147605D01*
X103275814Y-90151096D01*
X103332632Y-90191759D01*
X103345463Y-90211883D01*
X103408713Y-90336016D01*
X103529028Y-90501618D01*
X103673786Y-90646376D01*
X103828749Y-90758961D01*
X103839390Y-90766692D01*
X103955607Y-90825908D01*
X104021776Y-90859623D01*
X104021778Y-90859623D01*
X104021781Y-90859625D01*
X104126137Y-90893532D01*
X104216465Y-90922882D01*
X104317557Y-90938893D01*
X104418648Y-90954905D01*
X104418649Y-90954905D01*
X104623351Y-90954905D01*
X104623352Y-90954905D01*
X104825534Y-90922882D01*
X105020219Y-90859625D01*
X105202610Y-90766692D01*
X105300927Y-90695261D01*
X105368213Y-90646376D01*
X105368215Y-90646373D01*
X105368219Y-90646371D01*
X105512966Y-90501624D01*
X105512968Y-90501620D01*
X105512971Y-90501618D01*
X105633284Y-90336019D01*
X105633286Y-90336016D01*
X105633287Y-90336015D01*
X105680516Y-90243322D01*
X105728489Y-90192528D01*
X105796310Y-90175733D01*
X105862445Y-90198270D01*
X105901485Y-90243324D01*
X105948715Y-90336019D01*
X106069028Y-90501618D01*
X106213786Y-90646376D01*
X106368749Y-90758961D01*
X106379390Y-90766692D01*
X106495607Y-90825908D01*
X106561776Y-90859623D01*
X106561778Y-90859623D01*
X106561781Y-90859625D01*
X106666137Y-90893532D01*
X106756465Y-90922882D01*
X106857557Y-90938893D01*
X106958648Y-90954905D01*
X106958649Y-90954905D01*
X107163351Y-90954905D01*
X107163352Y-90954905D01*
X107365534Y-90922882D01*
X107560219Y-90859625D01*
X107742610Y-90766692D01*
X107840927Y-90695261D01*
X107908213Y-90646376D01*
X107908215Y-90646373D01*
X107908219Y-90646371D01*
X108052966Y-90501624D01*
X108052968Y-90501620D01*
X108052971Y-90501618D01*
X108173284Y-90336019D01*
X108173286Y-90336016D01*
X108173287Y-90336015D01*
X108220516Y-90243322D01*
X108268489Y-90192528D01*
X108336310Y-90175733D01*
X108402445Y-90198270D01*
X108441485Y-90243324D01*
X108488715Y-90336019D01*
X108609028Y-90501618D01*
X108753786Y-90646376D01*
X108908749Y-90758961D01*
X108919390Y-90766692D01*
X109035607Y-90825908D01*
X109101776Y-90859623D01*
X109101778Y-90859623D01*
X109101781Y-90859625D01*
X109206137Y-90893532D01*
X109296465Y-90922882D01*
X109397557Y-90938893D01*
X109498648Y-90954905D01*
X109498649Y-90954905D01*
X109703351Y-90954905D01*
X109703352Y-90954905D01*
X109905534Y-90922882D01*
X110100219Y-90859625D01*
X110282610Y-90766692D01*
X110380927Y-90695261D01*
X110448213Y-90646376D01*
X110448215Y-90646373D01*
X110448219Y-90646371D01*
X110592966Y-90501624D01*
X110592968Y-90501620D01*
X110592971Y-90501618D01*
X110713284Y-90336019D01*
X110713286Y-90336016D01*
X110713287Y-90336015D01*
X110760516Y-90243322D01*
X110808489Y-90192528D01*
X110876310Y-90175733D01*
X110942445Y-90198270D01*
X110981485Y-90243324D01*
X111028715Y-90336019D01*
X111149028Y-90501618D01*
X111293786Y-90646376D01*
X111448749Y-90758961D01*
X111459390Y-90766692D01*
X111575607Y-90825908D01*
X111641776Y-90859623D01*
X111641778Y-90859623D01*
X111641781Y-90859625D01*
X111746137Y-90893532D01*
X111836465Y-90922882D01*
X111937557Y-90938893D01*
X112038648Y-90954905D01*
X112038649Y-90954905D01*
X112243351Y-90954905D01*
X112243352Y-90954905D01*
X112445534Y-90922882D01*
X112640219Y-90859625D01*
X112822610Y-90766692D01*
X112920927Y-90695261D01*
X112988213Y-90646376D01*
X112988215Y-90646373D01*
X112988219Y-90646371D01*
X113132966Y-90501624D01*
X113132968Y-90501620D01*
X113132971Y-90501618D01*
X113253284Y-90336019D01*
X113253286Y-90336016D01*
X113253287Y-90336015D01*
X113300516Y-90243322D01*
X113348489Y-90192528D01*
X113416310Y-90175733D01*
X113482445Y-90198270D01*
X113521485Y-90243324D01*
X113568715Y-90336019D01*
X113689028Y-90501618D01*
X113833786Y-90646376D01*
X113988749Y-90758961D01*
X113999390Y-90766692D01*
X114115607Y-90825908D01*
X114181776Y-90859623D01*
X114181778Y-90859623D01*
X114181781Y-90859625D01*
X114286137Y-90893532D01*
X114376465Y-90922882D01*
X114477557Y-90938893D01*
X114578648Y-90954905D01*
X114578649Y-90954905D01*
X114783351Y-90954905D01*
X114783352Y-90954905D01*
X114985534Y-90922882D01*
X115180219Y-90859625D01*
X115362610Y-90766692D01*
X115460927Y-90695261D01*
X115528213Y-90646376D01*
X115528215Y-90646373D01*
X115528219Y-90646371D01*
X115672966Y-90501624D01*
X115672968Y-90501620D01*
X115672971Y-90501618D01*
X115793284Y-90336019D01*
X115793286Y-90336016D01*
X115793287Y-90336015D01*
X115840516Y-90243322D01*
X115888489Y-90192528D01*
X115956310Y-90175733D01*
X116022445Y-90198270D01*
X116061485Y-90243324D01*
X116108715Y-90336019D01*
X116229028Y-90501618D01*
X116373786Y-90646376D01*
X116528749Y-90758961D01*
X116539390Y-90766692D01*
X116655607Y-90825908D01*
X116721776Y-90859623D01*
X116721778Y-90859623D01*
X116721781Y-90859625D01*
X116826137Y-90893532D01*
X116916465Y-90922882D01*
X117017557Y-90938893D01*
X117118648Y-90954905D01*
X117131500Y-90954905D01*
X117198539Y-90974590D01*
X117244294Y-91027394D01*
X117255500Y-91078905D01*
X117255500Y-108665902D01*
X117246855Y-108695342D01*
X117240332Y-108725329D01*
X117236577Y-108730344D01*
X117235815Y-108732941D01*
X117219181Y-108753583D01*
X117082181Y-108890583D01*
X117020858Y-108924068D01*
X116951166Y-108919084D01*
X116895233Y-108877212D01*
X116870816Y-108811748D01*
X116870500Y-108802902D01*
X116870500Y-108609648D01*
X116838477Y-108407465D01*
X116793462Y-108268924D01*
X116775220Y-108212781D01*
X116775218Y-108212778D01*
X116775218Y-108212776D01*
X116741503Y-108146607D01*
X116682287Y-108030390D01*
X116674556Y-108019749D01*
X116561971Y-107864786D01*
X116417213Y-107720028D01*
X116251614Y-107599715D01*
X116194867Y-107570801D01*
X116158917Y-107552483D01*
X116108123Y-107504511D01*
X116091328Y-107436690D01*
X116113865Y-107370555D01*
X116158917Y-107331516D01*
X116251610Y-107284287D01*
X116272770Y-107268913D01*
X116417213Y-107163971D01*
X116417215Y-107163968D01*
X116417219Y-107163966D01*
X116561966Y-107019219D01*
X116561968Y-107019215D01*
X116561971Y-107019213D01*
X116643846Y-106906520D01*
X116682287Y-106853610D01*
X116775220Y-106671219D01*
X116838477Y-106476534D01*
X116870500Y-106274352D01*
X116870500Y-106069648D01*
X116850834Y-105945481D01*
X116838477Y-105867465D01*
X116799939Y-105748859D01*
X116775220Y-105672781D01*
X116775218Y-105672778D01*
X116775218Y-105672776D01*
X116741503Y-105606607D01*
X116682287Y-105490390D01*
X116674556Y-105479749D01*
X116561971Y-105324786D01*
X116417213Y-105180028D01*
X116251614Y-105059715D01*
X116245006Y-105056348D01*
X116158917Y-105012483D01*
X116108123Y-104964511D01*
X116091328Y-104896690D01*
X116113865Y-104830555D01*
X116158917Y-104791516D01*
X116251610Y-104744287D01*
X116287826Y-104717975D01*
X116417213Y-104623971D01*
X116417215Y-104623968D01*
X116417219Y-104623966D01*
X116561966Y-104479219D01*
X116561968Y-104479215D01*
X116561971Y-104479213D01*
X116624987Y-104392477D01*
X116682287Y-104313610D01*
X116775220Y-104131219D01*
X116838477Y-103936534D01*
X116870500Y-103734352D01*
X116870500Y-103529648D01*
X116854485Y-103428534D01*
X116838477Y-103327465D01*
X116775218Y-103132776D01*
X116741503Y-103066607D01*
X116682287Y-102950390D01*
X116674556Y-102939749D01*
X116561971Y-102784786D01*
X116417213Y-102640028D01*
X116251614Y-102519715D01*
X116245006Y-102516348D01*
X116158917Y-102472483D01*
X116108123Y-102424511D01*
X116091328Y-102356690D01*
X116113865Y-102290555D01*
X116158917Y-102251516D01*
X116251610Y-102204287D01*
X116351067Y-102132028D01*
X116417213Y-102083971D01*
X116417215Y-102083968D01*
X116417219Y-102083966D01*
X116561966Y-101939219D01*
X116561968Y-101939215D01*
X116561971Y-101939213D01*
X116622774Y-101855523D01*
X116682287Y-101773610D01*
X116775220Y-101591219D01*
X116838477Y-101396534D01*
X116870500Y-101194352D01*
X116870500Y-100989648D01*
X116854467Y-100888421D01*
X116838477Y-100787465D01*
X116789125Y-100635576D01*
X116775220Y-100592781D01*
X116775218Y-100592778D01*
X116775218Y-100592776D01*
X116718612Y-100481682D01*
X116682287Y-100410390D01*
X116669952Y-100393412D01*
X116561971Y-100244786D01*
X116417213Y-100100028D01*
X116251614Y-99979715D01*
X116215441Y-99961284D01*
X116158917Y-99932483D01*
X116108123Y-99884511D01*
X116091328Y-99816690D01*
X116113865Y-99750555D01*
X116158917Y-99711516D01*
X116251610Y-99664287D01*
X116332524Y-99605500D01*
X116417213Y-99543971D01*
X116417215Y-99543968D01*
X116417219Y-99543966D01*
X116561966Y-99399219D01*
X116561968Y-99399215D01*
X116561971Y-99399213D01*
X116631437Y-99303600D01*
X116682287Y-99233610D01*
X116775220Y-99051219D01*
X116838477Y-98856534D01*
X116870500Y-98654352D01*
X116870500Y-98449648D01*
X116847067Y-98301701D01*
X116838477Y-98247465D01*
X116809127Y-98157137D01*
X116775220Y-98052781D01*
X116775218Y-98052778D01*
X116775218Y-98052776D01*
X116713600Y-97931846D01*
X116682287Y-97870390D01*
X116674556Y-97859749D01*
X116561971Y-97704786D01*
X116417213Y-97560028D01*
X116251613Y-97439715D01*
X116251612Y-97439714D01*
X116251610Y-97439713D01*
X116194653Y-97410691D01*
X116069223Y-97346781D01*
X115874534Y-97283522D01*
X115699995Y-97255878D01*
X115672352Y-97251500D01*
X115467648Y-97251500D01*
X115443329Y-97255351D01*
X115265465Y-97283522D01*
X115070776Y-97346781D01*
X114888386Y-97439715D01*
X114722786Y-97560028D01*
X114578028Y-97704786D01*
X114457715Y-97870386D01*
X114364781Y-98052776D01*
X114301522Y-98247465D01*
X114269500Y-98449648D01*
X114269500Y-98654351D01*
X114301522Y-98856534D01*
X114364781Y-99051223D01*
X114412309Y-99144500D01*
X114454429Y-99227165D01*
X114457715Y-99233613D01*
X114578028Y-99399213D01*
X114722786Y-99543971D01*
X114864384Y-99646846D01*
X114888390Y-99664287D01*
X114945098Y-99693181D01*
X114981080Y-99711515D01*
X115031876Y-99759490D01*
X115048671Y-99827311D01*
X115026134Y-99893446D01*
X114981080Y-99932485D01*
X114888386Y-99979715D01*
X114722786Y-100100028D01*
X114578028Y-100244786D01*
X114457715Y-100410386D01*
X114364781Y-100592776D01*
X114301522Y-100787465D01*
X114269500Y-100989648D01*
X114269500Y-101194351D01*
X114301522Y-101396534D01*
X114364781Y-101591223D01*
X114457715Y-101773613D01*
X114578028Y-101939213D01*
X114722786Y-102083971D01*
X114877749Y-102196556D01*
X114888390Y-102204287D01*
X114979840Y-102250883D01*
X114981080Y-102251515D01*
X115031876Y-102299490D01*
X115048671Y-102367311D01*
X115026134Y-102433446D01*
X114981080Y-102472485D01*
X114888386Y-102519715D01*
X114722786Y-102640028D01*
X114578028Y-102784786D01*
X114457715Y-102950386D01*
X114364781Y-103132776D01*
X114301522Y-103327465D01*
X114269500Y-103529648D01*
X114269500Y-103734351D01*
X114301522Y-103936534D01*
X114364781Y-104131223D01*
X114457715Y-104313613D01*
X114578028Y-104479213D01*
X114722786Y-104623971D01*
X114852174Y-104717975D01*
X114888390Y-104744287D01*
X114979840Y-104790883D01*
X114981080Y-104791515D01*
X115031876Y-104839490D01*
X115048671Y-104907311D01*
X115026134Y-104973446D01*
X114981080Y-105012485D01*
X114888386Y-105059715D01*
X114722786Y-105180028D01*
X114578028Y-105324786D01*
X114457715Y-105490386D01*
X114364781Y-105672776D01*
X114301522Y-105867465D01*
X114278471Y-106013007D01*
X114269500Y-106069648D01*
X114269500Y-106274352D01*
X114273878Y-106301995D01*
X114301522Y-106476534D01*
X114364781Y-106671223D01*
X114457715Y-106853613D01*
X114578028Y-107019213D01*
X114722786Y-107163971D01*
X114877749Y-107276556D01*
X114888390Y-107284287D01*
X114979840Y-107330883D01*
X114981080Y-107331515D01*
X115031876Y-107379490D01*
X115048671Y-107447311D01*
X115026134Y-107513446D01*
X114981080Y-107552485D01*
X114888386Y-107599715D01*
X114722786Y-107720028D01*
X114578028Y-107864786D01*
X114457715Y-108030386D01*
X114364781Y-108212776D01*
X114301522Y-108407465D01*
X114269500Y-108609648D01*
X114269500Y-108814351D01*
X114301522Y-109016534D01*
X114364781Y-109211223D01*
X114457715Y-109393613D01*
X114578028Y-109559213D01*
X114722786Y-109703971D01*
X114877749Y-109816556D01*
X114888390Y-109824287D01*
X114979840Y-109870883D01*
X114981080Y-109871515D01*
X115031876Y-109919490D01*
X115048671Y-109987311D01*
X115026134Y-110053446D01*
X114981080Y-110092485D01*
X114888386Y-110139715D01*
X114722786Y-110260028D01*
X114578028Y-110404786D01*
X114457715Y-110570386D01*
X114364781Y-110752776D01*
X114301522Y-110947465D01*
X114269500Y-111149648D01*
X114269500Y-111354351D01*
X114301522Y-111556534D01*
X114364781Y-111751223D01*
X114457715Y-111933613D01*
X114578028Y-112099213D01*
X114722786Y-112243971D01*
X114877749Y-112356556D01*
X114888390Y-112364287D01*
X114979722Y-112410823D01*
X114981080Y-112411515D01*
X115031876Y-112459490D01*
X115048671Y-112527311D01*
X115026134Y-112593446D01*
X114981080Y-112632485D01*
X114888386Y-112679715D01*
X114722786Y-112800028D01*
X114578028Y-112944786D01*
X114457715Y-113110386D01*
X114364781Y-113292776D01*
X114301522Y-113487465D01*
X114269500Y-113689648D01*
X114269500Y-113894351D01*
X114301522Y-114096534D01*
X114364781Y-114291223D01*
X114457715Y-114473613D01*
X114578028Y-114639213D01*
X114722786Y-114783971D01*
X114877749Y-114896556D01*
X114888390Y-114904287D01*
X114979840Y-114950883D01*
X114981080Y-114951515D01*
X115031876Y-114999490D01*
X115048671Y-115067311D01*
X115026134Y-115133446D01*
X114981080Y-115172485D01*
X114888386Y-115219715D01*
X114722786Y-115340028D01*
X114578028Y-115484786D01*
X114457715Y-115650386D01*
X114364781Y-115832776D01*
X114301522Y-116027465D01*
X114269500Y-116229648D01*
X114269500Y-116434351D01*
X114301522Y-116636534D01*
X114364781Y-116831223D01*
X114457715Y-117013613D01*
X114578028Y-117179213D01*
X114722786Y-117323971D01*
X114877749Y-117436556D01*
X114888390Y-117444287D01*
X114960424Y-117480990D01*
X114981629Y-117491795D01*
X115032425Y-117539770D01*
X115049220Y-117607591D01*
X115026682Y-117673726D01*
X114981629Y-117712765D01*
X114888650Y-117760140D01*
X114723105Y-117880417D01*
X114723104Y-117880417D01*
X114578417Y-118025104D01*
X114578417Y-118025105D01*
X114458143Y-118190646D01*
X114458138Y-118190654D01*
X114365739Y-118372000D01*
X116774260Y-118372000D01*
X116681861Y-118190654D01*
X116681856Y-118190646D01*
X116561582Y-118025105D01*
X116561582Y-118025104D01*
X116416895Y-117880417D01*
X116251349Y-117760140D01*
X116158370Y-117712765D01*
X116107574Y-117664790D01*
X116090779Y-117596969D01*
X116113316Y-117530835D01*
X116158370Y-117491795D01*
X116158920Y-117491515D01*
X116251610Y-117444287D01*
X116364348Y-117362379D01*
X116417213Y-117323971D01*
X116417215Y-117323968D01*
X116417219Y-117323966D01*
X116561966Y-117179219D01*
X116561968Y-117179215D01*
X116561971Y-117179213D01*
X116614732Y-117106590D01*
X116682287Y-117013610D01*
X116775220Y-116831219D01*
X116838477Y-116636534D01*
X116870500Y-116434352D01*
X116870500Y-116229648D01*
X116838477Y-116027466D01*
X116823205Y-115980465D01*
X116775218Y-115832776D01*
X116707041Y-115698973D01*
X116682287Y-115650390D01*
X116674556Y-115639749D01*
X116561971Y-115484786D01*
X116417213Y-115340028D01*
X116251614Y-115219715D01*
X116245006Y-115216348D01*
X116158917Y-115172483D01*
X116108123Y-115124511D01*
X116091328Y-115056690D01*
X116113865Y-114990555D01*
X116158917Y-114951516D01*
X116251610Y-114904287D01*
X116272770Y-114888913D01*
X116417213Y-114783971D01*
X116417215Y-114783968D01*
X116417219Y-114783966D01*
X116561966Y-114639219D01*
X116561968Y-114639215D01*
X116561971Y-114639213D01*
X116614732Y-114566590D01*
X116682287Y-114473610D01*
X116775220Y-114291219D01*
X116838477Y-114096534D01*
X116870500Y-113894352D01*
X116870500Y-113689648D01*
X116838477Y-113487466D01*
X116833825Y-113473151D01*
X116831832Y-113403312D01*
X116864075Y-113347158D01*
X119860520Y-110350716D01*
X119939577Y-110213784D01*
X119980501Y-110061057D01*
X119980501Y-109902942D01*
X119980501Y-109895347D01*
X119980500Y-109895329D01*
X119980500Y-106726096D01*
X120000185Y-106659057D01*
X120016814Y-106638420D01*
X121481234Y-105174000D01*
X121542554Y-105140517D01*
X121612246Y-105145501D01*
X121668179Y-105187373D01*
X121692596Y-105252837D01*
X121686843Y-105300000D01*
X121667524Y-105359457D01*
X121667523Y-105359464D01*
X121635500Y-105561648D01*
X121635500Y-105766351D01*
X121667522Y-105968534D01*
X121730781Y-106163223D01*
X121756442Y-106213584D01*
X121820522Y-106339348D01*
X121823715Y-106345613D01*
X121944028Y-106511213D01*
X122088786Y-106655971D01*
X122225886Y-106755578D01*
X122254390Y-106776287D01*
X122370607Y-106835503D01*
X122436776Y-106869218D01*
X122436778Y-106869218D01*
X122436781Y-106869220D01*
X122541137Y-106903127D01*
X122631465Y-106932477D01*
X122732557Y-106948488D01*
X122833648Y-106964500D01*
X122833649Y-106964500D01*
X123038351Y-106964500D01*
X123038352Y-106964500D01*
X123240534Y-106932477D01*
X123435219Y-106869220D01*
X123617610Y-106776287D01*
X123718787Y-106702778D01*
X123783213Y-106655971D01*
X123783215Y-106655968D01*
X123783219Y-106655966D01*
X123927966Y-106511219D01*
X123927968Y-106511215D01*
X123927971Y-106511213D01*
X123998736Y-106413811D01*
X124048287Y-106345610D01*
X124141220Y-106163219D01*
X124204477Y-105968534D01*
X124236500Y-105766352D01*
X124236500Y-105561648D01*
X124204477Y-105359466D01*
X124204476Y-105359464D01*
X124150814Y-105194308D01*
X124141220Y-105164781D01*
X124141218Y-105164778D01*
X124141218Y-105164776D01*
X124087685Y-105059713D01*
X124048287Y-104982390D01*
X124035297Y-104964511D01*
X123927971Y-104816786D01*
X123783213Y-104672028D01*
X123617614Y-104551715D01*
X123611006Y-104548348D01*
X123524917Y-104504483D01*
X123474123Y-104456511D01*
X123457328Y-104388690D01*
X123479865Y-104322555D01*
X123524917Y-104283516D01*
X123617610Y-104236287D01*
X123638770Y-104220913D01*
X123783213Y-104115971D01*
X123783215Y-104115968D01*
X123783219Y-104115966D01*
X123927966Y-103971219D01*
X123927968Y-103971215D01*
X123927971Y-103971213D01*
X123980732Y-103898590D01*
X124048287Y-103805610D01*
X124141220Y-103623219D01*
X124204477Y-103428534D01*
X124236500Y-103226352D01*
X124236500Y-103021648D01*
X124204477Y-102819466D01*
X124196982Y-102796400D01*
X124141218Y-102624776D01*
X124087685Y-102519713D01*
X124048287Y-102442390D01*
X124011425Y-102391653D01*
X123927971Y-102276786D01*
X123783213Y-102132028D01*
X123617611Y-102011713D01*
X123493478Y-101948463D01*
X123442683Y-101900489D01*
X123425888Y-101832668D01*
X123429200Y-101809031D01*
X123433986Y-101789093D01*
X122936001Y-101291106D01*
X122936000Y-101291106D01*
X122438011Y-101789093D01*
X122442799Y-101809033D01*
X122439308Y-101878816D01*
X122398644Y-101935633D01*
X122378520Y-101948465D01*
X122254386Y-102011715D01*
X122088786Y-102132028D01*
X121944028Y-102276786D01*
X121823715Y-102442386D01*
X121730781Y-102624776D01*
X121667522Y-102819465D01*
X121635500Y-103021648D01*
X121635500Y-103226355D01*
X121638593Y-103245888D01*
X121629636Y-103315181D01*
X121603800Y-103352963D01*
X120284736Y-104672028D01*
X119011286Y-105945478D01*
X119011284Y-105945480D01*
X118955382Y-106001381D01*
X118899481Y-106057282D01*
X118899480Y-106057284D01*
X118884455Y-106083309D01*
X118820423Y-106194215D01*
X118779499Y-106346943D01*
X118779499Y-106346945D01*
X118779499Y-106515046D01*
X118779500Y-106515059D01*
X118779500Y-109681901D01*
X118759815Y-109748940D01*
X118743181Y-109769582D01*
X117082181Y-111430582D01*
X117020858Y-111464067D01*
X116951166Y-111459083D01*
X116895233Y-111417211D01*
X116870816Y-111351747D01*
X116870500Y-111342901D01*
X116870500Y-111149648D01*
X116838478Y-110947472D01*
X116838477Y-110947471D01*
X116838477Y-110947466D01*
X116833825Y-110933151D01*
X116831832Y-110863312D01*
X116864075Y-110807158D01*
X118224713Y-109446521D01*
X118224716Y-109446520D01*
X118336520Y-109334716D01*
X118386639Y-109247904D01*
X118415577Y-109197785D01*
X118456500Y-109045058D01*
X118456500Y-108886943D01*
X118456500Y-100481682D01*
X121636000Y-100481682D01*
X121636000Y-100686317D01*
X121668010Y-100888418D01*
X121668010Y-100888421D01*
X121730904Y-101081987D01*
X121730905Y-101081987D01*
X122228893Y-100584000D01*
X122228893Y-100583999D01*
X122176233Y-100531339D01*
X122536000Y-100531339D01*
X122536000Y-100636661D01*
X122563259Y-100738394D01*
X122615920Y-100829606D01*
X122690394Y-100904080D01*
X122781606Y-100956741D01*
X122883339Y-100984000D01*
X122988661Y-100984000D01*
X123090394Y-100956741D01*
X123181606Y-100904080D01*
X123256080Y-100829606D01*
X123308741Y-100738394D01*
X123336000Y-100636661D01*
X123336000Y-100583999D01*
X123643106Y-100583999D01*
X123643106Y-100584000D01*
X124141093Y-101081986D01*
X124203990Y-100888411D01*
X124236000Y-100686317D01*
X124236000Y-100481682D01*
X124203990Y-100279588D01*
X124141093Y-100086011D01*
X123643106Y-100583999D01*
X123336000Y-100583999D01*
X123336000Y-100531339D01*
X123308741Y-100429606D01*
X123256080Y-100338394D01*
X123181606Y-100263920D01*
X123090394Y-100211259D01*
X122988661Y-100184000D01*
X122883339Y-100184000D01*
X122781606Y-100211259D01*
X122690394Y-100263920D01*
X122615920Y-100338394D01*
X122563259Y-100429606D01*
X122536000Y-100531339D01*
X122176233Y-100531339D01*
X121730904Y-100086011D01*
X121668010Y-100279578D01*
X121668010Y-100279581D01*
X121636000Y-100481682D01*
X118456500Y-100481682D01*
X118456500Y-97523019D01*
X121635500Y-97523019D01*
X121635500Y-98737388D01*
X121641546Y-98803926D01*
X121641548Y-98803933D01*
X121689265Y-98957066D01*
X121689267Y-98957070D01*
X121772242Y-99094329D01*
X121772246Y-99094334D01*
X121885665Y-99207753D01*
X121885670Y-99207757D01*
X122022929Y-99290732D01*
X122022933Y-99290734D01*
X122077100Y-99307612D01*
X122176067Y-99338452D01*
X122242619Y-99344500D01*
X122352245Y-99344499D01*
X122419282Y-99364183D01*
X122439924Y-99380818D01*
X122936000Y-99876893D01*
X122936001Y-99876893D01*
X123432074Y-99380818D01*
X123493397Y-99347333D01*
X123519754Y-99344499D01*
X123629380Y-99344499D01*
X123629388Y-99344499D01*
X123695926Y-99338453D01*
X123695927Y-99338452D01*
X123695933Y-99338452D01*
X123849069Y-99290733D01*
X123954224Y-99227165D01*
X123986329Y-99207757D01*
X123986330Y-99207755D01*
X123986335Y-99207753D01*
X124099753Y-99094335D01*
X124125818Y-99051219D01*
X124164814Y-98986710D01*
X124182733Y-98957069D01*
X124230452Y-98803933D01*
X124236500Y-98737381D01*
X124236499Y-97523025D01*
X124225940Y-97438950D01*
X124170863Y-97305984D01*
X124118879Y-97239065D01*
X123740931Y-96861116D01*
X123740930Y-96861115D01*
X123740922Y-96861108D01*
X123674017Y-96809136D01*
X123607533Y-96781598D01*
X123541050Y-96754060D01*
X123456977Y-96743500D01*
X122415029Y-96743500D01*
X122330950Y-96754060D01*
X122197984Y-96809136D01*
X122131065Y-96861121D01*
X122131058Y-96861127D01*
X121753117Y-97239067D01*
X121753108Y-97239077D01*
X121701136Y-97305982D01*
X121646060Y-97438950D01*
X121635500Y-97523019D01*
X118456500Y-97523019D01*
X118456500Y-90368466D01*
X118456501Y-90368463D01*
X118456501Y-90210348D01*
X118440866Y-90152001D01*
X118440050Y-90139955D01*
X118445098Y-90117155D01*
X118445654Y-90093815D01*
X118445743Y-90093534D01*
X118489477Y-89958939D01*
X118521500Y-89756757D01*
X118521500Y-89552053D01*
X118513257Y-89500011D01*
X118489477Y-89349870D01*
X118458458Y-89254405D01*
X118426220Y-89155186D01*
X118426218Y-89155183D01*
X118426218Y-89155181D01*
X118380515Y-89065485D01*
X118333287Y-88972795D01*
X118325556Y-88962154D01*
X118212971Y-88807191D01*
X118068213Y-88662433D01*
X117902613Y-88542120D01*
X117902612Y-88542119D01*
X117902610Y-88542118D01*
X117845653Y-88513096D01*
X117720223Y-88449186D01*
X117525534Y-88385927D01*
X117350995Y-88358283D01*
X117323352Y-88353905D01*
X117118648Y-88353905D01*
X117094329Y-88357756D01*
X116916465Y-88385927D01*
X116721776Y-88449186D01*
X116539386Y-88542120D01*
X116373786Y-88662433D01*
X116229028Y-88807191D01*
X116108715Y-88972791D01*
X116061485Y-89065485D01*
X116013510Y-89116281D01*
X115945689Y-89133076D01*
X115879554Y-89110539D01*
X115840515Y-89065485D01*
X115839883Y-89064245D01*
X115793287Y-88972795D01*
X115785556Y-88962154D01*
X115672971Y-88807191D01*
X115528213Y-88662433D01*
X115362613Y-88542120D01*
X115362612Y-88542119D01*
X115362610Y-88542118D01*
X115305653Y-88513096D01*
X115180223Y-88449186D01*
X114985534Y-88385927D01*
X114810995Y-88358283D01*
X114783352Y-88353905D01*
X114578648Y-88353905D01*
X114554329Y-88357756D01*
X114376465Y-88385927D01*
X114181776Y-88449186D01*
X113999386Y-88542120D01*
X113833786Y-88662433D01*
X113689028Y-88807191D01*
X113568715Y-88972791D01*
X113521485Y-89065485D01*
X113473510Y-89116281D01*
X113405689Y-89133076D01*
X113339554Y-89110539D01*
X113300515Y-89065485D01*
X113299883Y-89064245D01*
X113253287Y-88972795D01*
X113245556Y-88962154D01*
X113132971Y-88807191D01*
X112988213Y-88662433D01*
X112822613Y-88542120D01*
X112822612Y-88542119D01*
X112822610Y-88542118D01*
X112765653Y-88513096D01*
X112640223Y-88449186D01*
X112445534Y-88385927D01*
X112270995Y-88358283D01*
X112243352Y-88353905D01*
X112038648Y-88353905D01*
X112014329Y-88357756D01*
X111836465Y-88385927D01*
X111641776Y-88449186D01*
X111459386Y-88542120D01*
X111293786Y-88662433D01*
X111149028Y-88807191D01*
X111028715Y-88972791D01*
X110981485Y-89065485D01*
X110933510Y-89116281D01*
X110865689Y-89133076D01*
X110799554Y-89110539D01*
X110760515Y-89065485D01*
X110759883Y-89064245D01*
X110713287Y-88972795D01*
X110705556Y-88962154D01*
X110592971Y-88807191D01*
X110448213Y-88662433D01*
X110282613Y-88542120D01*
X110282612Y-88542119D01*
X110282610Y-88542118D01*
X110225653Y-88513096D01*
X110100223Y-88449186D01*
X109905534Y-88385927D01*
X109730995Y-88358283D01*
X109703352Y-88353905D01*
X109498648Y-88353905D01*
X109474329Y-88357756D01*
X109296465Y-88385927D01*
X109101776Y-88449186D01*
X108919386Y-88542120D01*
X108753786Y-88662433D01*
X108609028Y-88807191D01*
X108488715Y-88972791D01*
X108441485Y-89065485D01*
X108393510Y-89116281D01*
X108325689Y-89133076D01*
X108259554Y-89110539D01*
X108220515Y-89065485D01*
X108219883Y-89064245D01*
X108173287Y-88972795D01*
X108165556Y-88962154D01*
X108052971Y-88807191D01*
X107908213Y-88662433D01*
X107742613Y-88542120D01*
X107742612Y-88542119D01*
X107742610Y-88542118D01*
X107685653Y-88513096D01*
X107560223Y-88449186D01*
X107365534Y-88385927D01*
X107190995Y-88358283D01*
X107163352Y-88353905D01*
X106958648Y-88353905D01*
X106934329Y-88357756D01*
X106756465Y-88385927D01*
X106561776Y-88449186D01*
X106379386Y-88542120D01*
X106213786Y-88662433D01*
X106069028Y-88807191D01*
X105948715Y-88972791D01*
X105901485Y-89065485D01*
X105853510Y-89116281D01*
X105785689Y-89133076D01*
X105719554Y-89110539D01*
X105680515Y-89065485D01*
X105679883Y-89064245D01*
X105633287Y-88972795D01*
X105625556Y-88962154D01*
X105512971Y-88807191D01*
X105368213Y-88662433D01*
X105202613Y-88542120D01*
X105202612Y-88542119D01*
X105202610Y-88542118D01*
X105145653Y-88513096D01*
X105020223Y-88449186D01*
X104825534Y-88385927D01*
X104650995Y-88358283D01*
X104623352Y-88353905D01*
X104418648Y-88353905D01*
X104394329Y-88357756D01*
X104216465Y-88385927D01*
X104021776Y-88449186D01*
X103839386Y-88542120D01*
X103673786Y-88662433D01*
X103529028Y-88807191D01*
X103408715Y-88972791D01*
X103345465Y-89096925D01*
X103297490Y-89147721D01*
X103229669Y-89164516D01*
X103206033Y-89161204D01*
X103186093Y-89156416D01*
X102688106Y-89654404D01*
X102381000Y-89654404D01*
X102381000Y-89601744D01*
X102353741Y-89500011D01*
X102301080Y-89408799D01*
X102226606Y-89334325D01*
X102135394Y-89281664D01*
X102033661Y-89254405D01*
X101928339Y-89254405D01*
X101826606Y-89281664D01*
X101735394Y-89334325D01*
X101660920Y-89408799D01*
X101608259Y-89500011D01*
X101581000Y-89601744D01*
X101221232Y-89601744D01*
X100775904Y-89156416D01*
X100755965Y-89161203D01*
X100686183Y-89157712D01*
X100629365Y-89117047D01*
X100616534Y-89096924D01*
X100600515Y-89065485D01*
X100553287Y-88972795D01*
X100545556Y-88962154D01*
X100432971Y-88807191D01*
X100288213Y-88662433D01*
X100186045Y-88588205D01*
X100122613Y-88542120D01*
X100122612Y-88542119D01*
X100122610Y-88542118D01*
X100065653Y-88513096D01*
X99940464Y-88449309D01*
X101483011Y-88449309D01*
X101981000Y-88947298D01*
X101981001Y-88947298D01*
X102478987Y-88449310D01*
X102478987Y-88449309D01*
X102285419Y-88386415D01*
X102083317Y-88354405D01*
X101878683Y-88354405D01*
X101676581Y-88386415D01*
X101676578Y-88386415D01*
X101483011Y-88449309D01*
X99940464Y-88449309D01*
X99940223Y-88449186D01*
X99745534Y-88385927D01*
X99570995Y-88358283D01*
X99543352Y-88353905D01*
X99338648Y-88353905D01*
X99314329Y-88357756D01*
X99136465Y-88385927D01*
X98941776Y-88449186D01*
X98759386Y-88542120D01*
X98593786Y-88662433D01*
X98449028Y-88807191D01*
X98328715Y-88972791D01*
X98235781Y-89155181D01*
X98172522Y-89349870D01*
X98140500Y-89552053D01*
X81624376Y-89552053D01*
X81740449Y-89311024D01*
X81741302Y-89309290D01*
X81956277Y-88881240D01*
X81957079Y-88879676D01*
X82179101Y-88455331D01*
X82179997Y-88453651D01*
X82409015Y-88033105D01*
X82409951Y-88031419D01*
X82645928Y-87614736D01*
X82646942Y-87612981D01*
X82889786Y-87200321D01*
X82890719Y-87198765D01*
X83140458Y-86790084D01*
X83141436Y-86788512D01*
X83397942Y-86384027D01*
X83398944Y-86382476D01*
X83662154Y-85982284D01*
X83663117Y-85980846D01*
X83932958Y-85585062D01*
X83934048Y-85583493D01*
X84210375Y-85192327D01*
X84211359Y-85190958D01*
X84494231Y-84804328D01*
X84495330Y-84802852D01*
X84784509Y-84421082D01*
X84785654Y-84419598D01*
X85081125Y-84042704D01*
X85082255Y-84041286D01*
X85383938Y-83669372D01*
X85385184Y-83667860D01*
X85693032Y-83300981D01*
X85694275Y-83299526D01*
X86008113Y-82937890D01*
X86009364Y-82936473D01*
X86329303Y-82579954D01*
X86330488Y-82578657D01*
X86656218Y-82227602D01*
X86657487Y-82226257D01*
X86976491Y-81893713D01*
X88649500Y-81893713D01*
X88649500Y-82106286D01*
X88682753Y-82316239D01*
X88748444Y-82518414D01*
X88844951Y-82707820D01*
X88969890Y-82879786D01*
X89120213Y-83030109D01*
X89292179Y-83155048D01*
X89292181Y-83155049D01*
X89292184Y-83155051D01*
X89481588Y-83251557D01*
X89683757Y-83317246D01*
X89893713Y-83350500D01*
X89893714Y-83350500D01*
X90106286Y-83350500D01*
X90106287Y-83350500D01*
X90316243Y-83317246D01*
X90518412Y-83251557D01*
X90707816Y-83155051D01*
X90729789Y-83139086D01*
X90879786Y-83030109D01*
X90879788Y-83030106D01*
X90879792Y-83030104D01*
X91030104Y-82879792D01*
X91030106Y-82879788D01*
X91030109Y-82879786D01*
X91155048Y-82707820D01*
X91155047Y-82707820D01*
X91155051Y-82707816D01*
X91251557Y-82518412D01*
X91317246Y-82316243D01*
X91350500Y-82106287D01*
X91350500Y-81893713D01*
X123649500Y-81893713D01*
X123649500Y-82106286D01*
X123682753Y-82316239D01*
X123748444Y-82518414D01*
X123844951Y-82707820D01*
X123969890Y-82879786D01*
X124120213Y-83030109D01*
X124292179Y-83155048D01*
X124292181Y-83155049D01*
X124292184Y-83155051D01*
X124481588Y-83251557D01*
X124683757Y-83317246D01*
X124893713Y-83350500D01*
X124893714Y-83350500D01*
X125106286Y-83350500D01*
X125106287Y-83350500D01*
X125316243Y-83317246D01*
X125518412Y-83251557D01*
X125707816Y-83155051D01*
X125729789Y-83139086D01*
X125879786Y-83030109D01*
X125879788Y-83030106D01*
X125879792Y-83030104D01*
X126030104Y-82879792D01*
X126030106Y-82879788D01*
X126030109Y-82879786D01*
X126155048Y-82707820D01*
X126155047Y-82707820D01*
X126155051Y-82707816D01*
X126251557Y-82518412D01*
X126317246Y-82316243D01*
X126350500Y-82106287D01*
X126350500Y-81893713D01*
X126317246Y-81683757D01*
X126251557Y-81481588D01*
X126155051Y-81292184D01*
X126155049Y-81292181D01*
X126155048Y-81292179D01*
X126030109Y-81120213D01*
X125879786Y-80969890D01*
X125707820Y-80844951D01*
X125518414Y-80748444D01*
X125518413Y-80748443D01*
X125518412Y-80748443D01*
X125316243Y-80682754D01*
X125316241Y-80682753D01*
X125316240Y-80682753D01*
X125154957Y-80657208D01*
X125106287Y-80649500D01*
X124893713Y-80649500D01*
X124845042Y-80657208D01*
X124683760Y-80682753D01*
X124481585Y-80748444D01*
X124292179Y-80844951D01*
X124120213Y-80969890D01*
X123969890Y-81120213D01*
X123844951Y-81292179D01*
X123748444Y-81481585D01*
X123682753Y-81683760D01*
X123649500Y-81893713D01*
X91350500Y-81893713D01*
X91317246Y-81683757D01*
X91251557Y-81481588D01*
X91155051Y-81292184D01*
X91155049Y-81292181D01*
X91155048Y-81292179D01*
X91030109Y-81120213D01*
X90879786Y-80969890D01*
X90707820Y-80844951D01*
X90518414Y-80748444D01*
X90518413Y-80748443D01*
X90518412Y-80748443D01*
X90316243Y-80682754D01*
X90316241Y-80682753D01*
X90316240Y-80682753D01*
X90154957Y-80657208D01*
X90106287Y-80649500D01*
X89893713Y-80649500D01*
X89845042Y-80657208D01*
X89683760Y-80682753D01*
X89481585Y-80748444D01*
X89292179Y-80844951D01*
X89120213Y-80969890D01*
X88969890Y-81120213D01*
X88844951Y-81292179D01*
X88748444Y-81481585D01*
X88682753Y-81683760D01*
X88649500Y-81893713D01*
X86976491Y-81893713D01*
X86989057Y-81880614D01*
X86990394Y-81879244D01*
X87327613Y-81539210D01*
X87328916Y-81537918D01*
X87671773Y-81203504D01*
X87673175Y-81202161D01*
X87919368Y-80969890D01*
X88021442Y-80873588D01*
X88022878Y-80872255D01*
X88376608Y-80549471D01*
X88377984Y-80548236D01*
X88737089Y-80231323D01*
X88738509Y-80230090D01*
X89102836Y-79919188D01*
X89104191Y-79918051D01*
X89473646Y-79613238D01*
X89475097Y-79612061D01*
X89849574Y-79313425D01*
X89850990Y-79312315D01*
X90230326Y-79019988D01*
X90231850Y-79018833D01*
X90616011Y-78732835D01*
X90617515Y-78731735D01*
X91006322Y-78452202D01*
X91007903Y-78451085D01*
X91401312Y-78178046D01*
X91402816Y-78177020D01*
X91800810Y-77910490D01*
X91802392Y-77909451D01*
X92204672Y-77649631D01*
X92206238Y-77648638D01*
X92612797Y-77395530D01*
X92614408Y-77394545D01*
X93025131Y-77148223D01*
X93026735Y-77147279D01*
X93441433Y-76907852D01*
X93443120Y-76906897D01*
X93861756Y-76674387D01*
X93863442Y-76673469D01*
X94286005Y-76447887D01*
X94287561Y-76447073D01*
X94713677Y-76228617D01*
X94715459Y-76227722D01*
X95145244Y-76016330D01*
X95146844Y-76015559D01*
X95579965Y-75811396D01*
X95581753Y-75810571D01*
X96018275Y-75613605D01*
X96020035Y-75612829D01*
X96459716Y-75423169D01*
X96461558Y-75422393D01*
X96904269Y-75240093D01*
X96906119Y-75239349D01*
X97351822Y-75064423D01*
X97353659Y-75063719D01*
X97802252Y-74896210D01*
X97804039Y-74895560D01*
X98255295Y-74735551D01*
X98257201Y-74734892D01*
X98711105Y-74582388D01*
X98713023Y-74581762D01*
X99169288Y-74436859D01*
X99171192Y-74436271D01*
X99630039Y-74298901D01*
X99631772Y-74298399D01*
X100092709Y-74168711D01*
X100094604Y-74168195D01*
X100557631Y-74046187D01*
X100559539Y-74045701D01*
X101024535Y-73931405D01*
X101026463Y-73930949D01*
X101493247Y-73824407D01*
X101495207Y-73823977D01*
X101963734Y-73725203D01*
X101965640Y-73724818D01*
X102435787Y-73633836D01*
X102437589Y-73633503D01*
X102909260Y-73550335D01*
X102911092Y-73550027D01*
X103384036Y-73474717D01*
X103385974Y-73474425D01*
X103859926Y-73407012D01*
X103861940Y-73406741D01*
X104337088Y-73347198D01*
X104339032Y-73346971D01*
X104815088Y-73295335D01*
X104816982Y-73295145D01*
X105293852Y-73251428D01*
X105295764Y-73251268D01*
X105773269Y-73215485D01*
X105775210Y-73215355D01*
X106253273Y-73187511D01*
X106255139Y-73187417D01*
X106733662Y-73167521D01*
X106735573Y-73167458D01*
X107214255Y-73155520D01*
X107216123Y-73155488D01*
X107695037Y-73151509D01*
X107696963Y-73151509D01*
X108175874Y-73155488D01*
G37*
%TD.AperFunction*%
%TD*%
M02*
