%TF.GenerationSoftware,KiCad,Pcbnew,9.0.5*%
%TF.CreationDate,2025-12-15T13:45:07-05:00*%
%TF.ProjectId,airbrakes,61697262-7261-46b6-9573-2e6b69636164,rev?*%
%TF.SameCoordinates,Original*%
%TF.FileFunction,Copper,L1,Top*%
%TF.FilePolarity,Positive*%
%FSLAX46Y46*%
G04 Gerber Fmt 4.6, Leading zero omitted, Abs format (unit mm)*
G04 Created by KiCad (PCBNEW 9.0.5) date 2025-12-15 13:45:07*
%MOMM*%
%LPD*%
G01*
G04 APERTURE LIST*
G04 Aperture macros list*
%AMRoundRect*
0 Rectangle with rounded corners*
0 $1 Rounding radius*
0 $2 $3 $4 $5 $6 $7 $8 $9 X,Y pos of 4 corners*
0 Add a 4 corners polygon primitive as box body*
4,1,4,$2,$3,$4,$5,$6,$7,$8,$9,$2,$3,0*
0 Add four circle primitives for the rounded corners*
1,1,$1+$1,$2,$3*
1,1,$1+$1,$4,$5*
1,1,$1+$1,$6,$7*
1,1,$1+$1,$8,$9*
0 Add four rect primitives between the rounded corners*
20,1,$1+$1,$2,$3,$4,$5,0*
20,1,$1+$1,$4,$5,$6,$7,0*
20,1,$1+$1,$6,$7,$8,$9,0*
20,1,$1+$1,$8,$9,$2,$3,0*%
%AMHorizOval*
0 Thick line with rounded ends*
0 $1 width*
0 $2 $3 position (X,Y) of the first rounded end (center of the circle)*
0 $4 $5 position (X,Y) of the second rounded end (center of the circle)*
0 Add line between two ends*
20,1,$1,$2,$3,$4,$5,0*
0 Add two circle primitives to create the rounded ends*
1,1,$1,$2,$3*
1,1,$1,$4,$5*%
%AMRotRect*
0 Rectangle, with rotation*
0 The origin of the aperture is its center*
0 $1 length*
0 $2 width*
0 $3 Rotation angle, in degrees counterclockwise*
0 Add horizontal line*
21,1,$1,$2,0,0,$3*%
%AMFreePoly0*
4,1,15,-0.800000,0.480000,-0.480000,0.800000,0.640000,0.800000,0.701229,0.787821,0.753137,0.753137,0.787821,0.701229,0.800000,0.640000,0.800000,-0.640000,0.787821,-0.701229,0.753137,-0.753137,0.701229,-0.787821,0.640000,-0.800000,-0.480000,-0.800000,-0.800000,-0.480000,-0.800000,0.480000,-0.800000,0.480000,$1*%
G04 Aperture macros list end*
%TA.AperFunction,ComponentPad*%
%ADD10R,1.700000X1.700000*%
%TD*%
%TA.AperFunction,ComponentPad*%
%ADD11C,1.700000*%
%TD*%
%TA.AperFunction,SMDPad,CuDef*%
%ADD12RoundRect,0.100000X-0.637500X-0.100000X0.637500X-0.100000X0.637500X0.100000X-0.637500X0.100000X0*%
%TD*%
%TA.AperFunction,SMDPad,CuDef*%
%ADD13RotRect,0.700000X1.750000X70.000000*%
%TD*%
%TA.AperFunction,SMDPad,CuDef*%
%ADD14RotRect,1.450000X1.000000X70.000000*%
%TD*%
%TA.AperFunction,SMDPad,CuDef*%
%ADD15RotRect,1.000000X1.550000X70.000000*%
%TD*%
%TA.AperFunction,SMDPad,CuDef*%
%ADD16RotRect,0.800000X1.500000X70.000000*%
%TD*%
%TA.AperFunction,SMDPad,CuDef*%
%ADD17RotRect,1.300000X1.500000X70.000000*%
%TD*%
%TA.AperFunction,SMDPad,CuDef*%
%ADD18RotRect,1.500000X1.500000X70.000000*%
%TD*%
%TA.AperFunction,SMDPad,CuDef*%
%ADD19RotRect,0.800000X1.400000X70.000000*%
%TD*%
%TA.AperFunction,ComponentPad*%
%ADD20C,1.600000*%
%TD*%
%TA.AperFunction,ComponentPad*%
%ADD21FreePoly0,270.000000*%
%TD*%
%TA.AperFunction,ComponentPad*%
%ADD22R,1.600000X1.600000*%
%TD*%
%TA.AperFunction,ComponentPad*%
%ADD23O,1.600000X1.600000*%
%TD*%
%TA.AperFunction,ComponentPad*%
%ADD24RoundRect,0.250000X-0.350000X-0.350000X0.350000X-0.350000X0.350000X0.350000X-0.350000X0.350000X0*%
%TD*%
%TA.AperFunction,ComponentPad*%
%ADD25C,1.200000*%
%TD*%
%TA.AperFunction,ComponentPad*%
%ADD26RoundRect,0.250000X0.909982X-0.307300X0.499557X0.820331X-0.909982X0.307300X-0.499557X-0.820331X0*%
%TD*%
%TA.AperFunction,ComponentPad*%
%ADD27HorizOval,1.700000X0.140954X0.051303X-0.140954X-0.051303X0*%
%TD*%
%TA.AperFunction,ViaPad*%
%ADD28C,0.600000*%
%TD*%
%TA.AperFunction,ViaPad*%
%ADD29C,0.400000*%
%TD*%
%TA.AperFunction,Conductor*%
%ADD30C,0.600000*%
%TD*%
%TA.AperFunction,Conductor*%
%ADD31C,0.200000*%
%TD*%
G04 APERTURE END LIST*
D10*
%TO.P,J1,1,Pin_1*%
%TO.N,Net-(J1-Pin_1)*%
X110744000Y-94996000D03*
D11*
%TO.P,J1,2,Pin_2*%
%TO.N,VCC*%
X108204000Y-94996000D03*
%TO.P,J1,3,Pin_3*%
%TO.N,GND*%
X105664000Y-94996000D03*
%TD*%
D12*
%TO.P,U2,1*%
%TO.N,GND*%
X91049000Y-106082000D03*
%TO.P,U2,2*%
%TO.N,Net-(U1-~D10{slash}A10)*%
X91049000Y-106732000D03*
%TO.P,U2,3*%
%TO.N,Net-(J3-DAT3{slash}CD)*%
X91049000Y-107382000D03*
%TO.P,U2,4*%
%TO.N,GND*%
X91049000Y-108032000D03*
%TO.P,U2,5*%
%TO.N,Net-(U1-D16)*%
X91049000Y-108682000D03*
%TO.P,U2,6*%
%TO.N,Net-(J3-CMD)*%
X91049000Y-109332000D03*
%TO.P,U2,7,GND*%
%TO.N,GND*%
X91049000Y-109982000D03*
%TO.P,U2,8*%
%TO.N,Net-(J3-CLK)*%
X96774000Y-109982000D03*
%TO.P,U2,9*%
%TO.N,Net-(U1-D15)*%
X96774000Y-109332000D03*
%TO.P,U2,10*%
%TO.N,GND*%
X96774000Y-108682000D03*
%TO.P,U2,11*%
%TO.N,N/C*%
X96774000Y-108032000D03*
%TO.P,U2,12*%
X96774000Y-107382000D03*
%TO.P,U2,13*%
X96774000Y-106732000D03*
%TO.P,U2,14,VCC*%
%TO.N,Net-(U2E-VCC)*%
X96774000Y-106082000D03*
%TD*%
D13*
%TO.P,J3,1,DAT2*%
%TO.N,unconnected-(J3-DAT2-Pad1)*%
X93192609Y-93611918D03*
%TO.P,J3,2,DAT3/CD*%
%TO.N,Net-(J3-DAT3{slash}CD)*%
X92816387Y-94645581D03*
%TO.P,J3,3,CMD*%
%TO.N,Net-(J3-CMD)*%
X92440165Y-95679241D03*
%TO.P,J3,4,VDD*%
%TO.N,Net-(J3-VDD)*%
X92063943Y-96712903D03*
%TO.P,J3,5,CLK*%
%TO.N,Net-(J3-CLK)*%
X91687721Y-97746565D03*
%TO.P,J3,6,VSS*%
%TO.N,GND*%
X91311499Y-98780227D03*
%TO.P,J3,7,DAT0*%
%TO.N,Net-(J3-DAT0)*%
X90935277Y-99813889D03*
%TO.P,J3,8,DAT1*%
%TO.N,unconnected-(J3-DAT1-Pad8)*%
X90559054Y-100847551D03*
D14*
%TO.P,J3,9,SHIELD*%
%TO.N,GND*%
X81505617Y-98749569D03*
D15*
%TO.P,J3,10*%
%TO.N,N/C*%
X83864778Y-87662838D03*
D16*
%TO.P,J3,11*%
X82804000Y-99568000D03*
D17*
X90031170Y-101932430D03*
D18*
X93913097Y-91266918D03*
D19*
X86280340Y-88116360D03*
%TD*%
D20*
%TO.P,MPU6050,1,VCC*%
%TO.N,VCC*%
X99441000Y-89654405D03*
%TO.P,MPU6050,2,GND*%
%TO.N,GND*%
X101981000Y-89654405D03*
%TO.P,MPU6050,3,SCL*%
%TO.N,Net-(BMP1-SCL)*%
X104521000Y-89654405D03*
%TO.P,MPU6050,4,SDA*%
%TO.N,Net-(BMP1-SDA)*%
X107061000Y-89654405D03*
%TO.P,MPU6050,5,XCL*%
%TO.N,unconnected-(MPU6050-XCL-Pad5)*%
X109601000Y-89654405D03*
%TO.P,MPU6050,6,XDA*%
%TO.N,unconnected-(MPU6050-XDA-Pad6)*%
X112141000Y-89654405D03*
%TO.P,MPU6050,7,ADO*%
%TO.N,unconnected-(MPU6050-ADO-Pad7)*%
X114681000Y-89654405D03*
%TO.P,MPU6050,8,INT*%
%TO.N,Net-(MPU6050-INT)*%
X117221000Y-89654405D03*
%TD*%
D21*
%TO.P,BMP180,1,VIN*%
%TO.N,VCC*%
X122936000Y-98044000D03*
D20*
%TO.P,BMP180,2,GND*%
%TO.N,GND*%
X122936000Y-100584000D03*
%TO.P,BMP180,3,SCL*%
%TO.N,Net-(BMP1-SCL)*%
X122936000Y-103124000D03*
%TO.P,BMP180,4,SDA*%
%TO.N,Net-(BMP1-SDA)*%
X122936000Y-105664000D03*
%TD*%
D22*
%TO.P,U1,1,D1/TX*%
%TO.N,unconnected-(U1-D1{slash}TX-Pad1)*%
X115570000Y-126492000D03*
D23*
%TO.P,U1,2,D0/RX*%
%TO.N,unconnected-(U1-D0{slash}RX-Pad2)*%
X115570000Y-123952000D03*
%TO.P,U1,3,GND*%
%TO.N,GND*%
X115570000Y-121412000D03*
%TO.P,U1,4,GND*%
X115570000Y-118872000D03*
%TO.P,U1,5,D2*%
%TO.N,Net-(BMP1-SDA)*%
X115570000Y-116332000D03*
%TO.P,U1,6,~D3*%
%TO.N,Net-(BMP1-SCL)*%
X115570000Y-113792000D03*
%TO.P,U1,7,D4/A6*%
%TO.N,Net-(MPU6050-INT)*%
X115570000Y-111252000D03*
%TO.P,U1,8,~D5*%
%TO.N,Net-(J1-Pin_1)*%
X115570000Y-108712000D03*
%TO.P,U1,9,~D6/A7*%
%TO.N,unconnected-(U1-~D6{slash}A7-Pad9)*%
X115570000Y-106172000D03*
%TO.P,U1,10,D7*%
%TO.N,unconnected-(U1-D7-Pad10)*%
X115570000Y-103632000D03*
%TO.P,U1,11,D8/A8*%
%TO.N,unconnected-(U1-D8{slash}A8-Pad11)*%
X115570000Y-101092000D03*
%TO.P,U1,12,~D9/A9*%
%TO.N,unconnected-(U1-~D9{slash}A9-Pad12)*%
X115570000Y-98552000D03*
%TO.P,U1,13,~D10/A10*%
%TO.N,Net-(U1-~D10{slash}A10)*%
X100330000Y-98552000D03*
%TO.P,U1,14,D16*%
%TO.N,Net-(U1-D16)*%
X100330000Y-101092000D03*
%TO.P,U1,15,D14*%
%TO.N,Net-(J3-DAT0)*%
X100330000Y-103632000D03*
%TO.P,U1,16,D15*%
%TO.N,Net-(U1-D15)*%
X100330000Y-106172000D03*
%TO.P,U1,17,D18/A0*%
%TO.N,unconnected-(U1-D18{slash}A0-Pad17)*%
X100330000Y-108712000D03*
%TO.P,U1,18,D19/A1*%
%TO.N,unconnected-(U1-D19{slash}A1-Pad18)*%
X100330000Y-111252000D03*
%TO.P,U1,19,D20/A2*%
%TO.N,unconnected-(U1-D20{slash}A2-Pad19)*%
X100330000Y-113792000D03*
%TO.P,U1,20,D21/A3*%
%TO.N,unconnected-(U1-D21{slash}A3-Pad20)*%
X100330000Y-116332000D03*
%TO.P,U1,21,VCC*%
%TO.N,VCC*%
X100330000Y-118872000D03*
%TO.P,U1,22,RST*%
%TO.N,unconnected-(U1-RST-Pad22)*%
X100330000Y-121412000D03*
%TO.P,U1,23,GND*%
%TO.N,GND*%
X100330000Y-123952000D03*
%TO.P,U1,24,RAW*%
%TO.N,Net-(J2-Pin_1)*%
X100330000Y-126492000D03*
%TD*%
D24*
%TO.P,C1,1*%
%TO.N,Net-(J3-VDD)*%
X95274000Y-98044000D03*
D25*
%TO.P,C1,2*%
%TO.N,Net-(U2E-VCC)*%
X96774000Y-98044000D03*
%TD*%
D26*
%TO.P,J2,1,Pin_1*%
%TO.N,Net-(J2-Pin_1)*%
X84167050Y-111569232D03*
D27*
%TO.P,J2,2,Pin_2*%
%TO.N,GND*%
X83312000Y-109220000D03*
%TD*%
D28*
%TO.N,Net-(J3-CLK)*%
X93218000Y-101092000D03*
D29*
X96774000Y-109982000D03*
D28*
%TO.N,GND*%
X81505617Y-98749569D03*
X91311499Y-98780227D03*
D29*
%TO.N,Net-(J3-CMD)*%
X91049000Y-109332000D03*
D28*
X92440165Y-95679241D03*
D29*
%TO.N,GND*%
X96774000Y-108682000D03*
X91049000Y-109982000D03*
X91049000Y-108032000D03*
X91049000Y-106082000D03*
D28*
%TO.N,Net-(J3-DAT0)*%
X90935277Y-99813889D03*
%TO.N,Net-(J3-VDD)*%
X92063943Y-96712903D03*
D29*
%TO.N,Net-(U2E-VCC)*%
X96774000Y-106082000D03*
D28*
X96774000Y-101092000D03*
X96774000Y-99568000D03*
%TD*%
D30*
%TO.N,Net-(J2-Pin_1)*%
X97886054Y-116174054D02*
X93281232Y-111569232D01*
X99822000Y-126492000D02*
X97886054Y-124556054D01*
X100330000Y-126492000D02*
X99822000Y-126492000D01*
X97886054Y-124556054D02*
X97886054Y-116174054D01*
X93281232Y-111569232D02*
X84167050Y-111569232D01*
D31*
%TO.N,Net-(J3-CLK)*%
X91904565Y-97746565D02*
X91687721Y-97746565D01*
X93218000Y-99060000D02*
X91904565Y-97746565D01*
X93218000Y-101092000D02*
X93218000Y-99060000D01*
%TO.N,Net-(U1-~D10{slash}A10)*%
X93166000Y-106732000D02*
X91049000Y-106732000D01*
X98806000Y-99568000D02*
X98806000Y-101092000D01*
X99822000Y-98552000D02*
X98806000Y-99568000D01*
X100330000Y-98552000D02*
X99822000Y-98552000D01*
X98806000Y-101092000D02*
X93166000Y-106732000D01*
%TO.N,Net-(J3-DAT3{slash}CD)*%
X88392000Y-97971042D02*
X91717461Y-94645581D01*
X91717461Y-94645581D02*
X92816387Y-94645581D01*
X88392000Y-105462499D02*
X88392000Y-97971042D01*
X90311501Y-107382000D02*
X88392000Y-105462499D01*
X91049000Y-107382000D02*
X90311501Y-107382000D01*
%TO.N,Net-(J1-Pin_1)*%
X110744000Y-103886000D02*
X115570000Y-108712000D01*
X110744000Y-94996000D02*
X110744000Y-103886000D01*
%TO.N,Net-(BMP1-SDA)*%
X107061000Y-89654405D02*
X107061000Y-90237900D01*
X121412000Y-107188000D02*
X121412000Y-110490000D01*
X118257000Y-93813900D02*
X118257000Y-113645000D01*
X116859100Y-92416000D02*
X118257000Y-93813900D01*
X121412000Y-110490000D02*
X115570000Y-116332000D01*
X107061000Y-90237900D02*
X109239100Y-92416000D01*
X122936000Y-105664000D02*
X121412000Y-107188000D01*
X109239100Y-92416000D02*
X116859100Y-92416000D01*
X118257000Y-113645000D02*
X115570000Y-116332000D01*
%TO.N,Net-(BMP1-SCL)*%
X117856000Y-111633000D02*
X115980550Y-113508450D01*
X117856000Y-93980000D02*
X117856000Y-111633000D01*
X115980550Y-113508450D02*
X115853550Y-113508450D01*
X116693000Y-92817000D02*
X117856000Y-93980000D01*
X104648000Y-89916000D02*
X107549000Y-92817000D01*
X107549000Y-92817000D02*
X116693000Y-92817000D01*
X104648000Y-89781405D02*
X104648000Y-89916000D01*
X104521000Y-89654405D02*
X104648000Y-89781405D01*
%TO.N,Net-(U1-D16)*%
X91049000Y-108682000D02*
X91786500Y-108682000D01*
X91786500Y-108682000D02*
X99376500Y-101092000D01*
X99376500Y-101092000D02*
X100330000Y-101092000D01*
%TO.N,Net-(U1-D15)*%
X98552000Y-107188000D02*
X99568000Y-106172000D01*
X96774000Y-109332000D02*
X97678000Y-109332000D01*
X98552000Y-108458000D02*
X98552000Y-107188000D01*
X97678000Y-109332000D02*
X98552000Y-108458000D01*
X99568000Y-106172000D02*
X100330000Y-106172000D01*
%TO.N,Net-(U2E-VCC)*%
X96774000Y-99568000D02*
X96774000Y-101092000D01*
%TD*%
%TA.AperFunction,Conductor*%
%TO.N,VCC*%
G36*
X108190870Y-72898518D02*
G01*
X108668548Y-72906501D01*
X108670438Y-72906548D01*
X109147946Y-72922513D01*
X109149966Y-72922598D01*
X109627090Y-72946537D01*
X109628963Y-72946647D01*
X110105748Y-72978563D01*
X110107611Y-72978704D01*
X110583754Y-73018581D01*
X110585624Y-73018753D01*
X111060981Y-73066574D01*
X111062933Y-73066786D01*
X111537476Y-73122549D01*
X111539361Y-73122787D01*
X112012905Y-73186473D01*
X112014864Y-73186754D01*
X112487160Y-73258325D01*
X112489052Y-73258628D01*
X112948745Y-73336168D01*
X112960159Y-73338094D01*
X112962201Y-73338456D01*
X113431797Y-73425761D01*
X113433795Y-73426150D01*
X113901915Y-73521300D01*
X113903767Y-73521692D01*
X114370398Y-73624687D01*
X114372258Y-73625114D01*
X114836971Y-73735860D01*
X114838914Y-73736340D01*
X115301757Y-73854849D01*
X115303588Y-73855335D01*
X115764380Y-73981559D01*
X115766241Y-73982085D01*
X116224847Y-74115987D01*
X116226717Y-74116550D01*
X116683102Y-74258122D01*
X116684882Y-74258691D01*
X117138697Y-74407823D01*
X117140655Y-74408484D01*
X117591903Y-74565174D01*
X117593798Y-74565850D01*
X117830166Y-74652378D01*
X118042377Y-74730064D01*
X118044316Y-74730793D01*
X118489978Y-74902436D01*
X118491875Y-74903183D01*
X118934777Y-75082319D01*
X118936619Y-75083082D01*
X119376443Y-75269583D01*
X119378225Y-75270357D01*
X119783086Y-75450072D01*
X119814856Y-75464175D01*
X119816743Y-75465032D01*
X120250031Y-75666098D01*
X120251819Y-75666947D01*
X120681730Y-75875247D01*
X120683505Y-75876125D01*
X121109882Y-76091583D01*
X121111625Y-76092483D01*
X121534373Y-76315051D01*
X121536061Y-76315958D01*
X121955002Y-76545544D01*
X121956801Y-76546549D01*
X122371828Y-76783091D01*
X122373506Y-76784066D01*
X122784563Y-77027536D01*
X122786336Y-77028607D01*
X123193117Y-77278819D01*
X123194858Y-77279909D01*
X123597549Y-77536978D01*
X123599156Y-77538022D01*
X123997479Y-77801774D01*
X123999128Y-77802885D01*
X124392993Y-78073259D01*
X124394650Y-78074417D01*
X124783877Y-78351286D01*
X124785555Y-78352501D01*
X125170072Y-78635816D01*
X125171730Y-78637059D01*
X125551488Y-78926781D01*
X125553125Y-78928052D01*
X125927981Y-79224072D01*
X125929596Y-79225370D01*
X126299388Y-79527560D01*
X126300981Y-79528883D01*
X126665809Y-79837326D01*
X126667294Y-79838603D01*
X126965704Y-80099568D01*
X127026883Y-80153070D01*
X127028431Y-80154447D01*
X127382673Y-80474840D01*
X127384198Y-80476243D01*
X127733004Y-80802479D01*
X127734506Y-80803907D01*
X128077870Y-81135983D01*
X128079347Y-81137436D01*
X128417058Y-81475147D01*
X128418511Y-81476624D01*
X128750587Y-81819988D01*
X128752015Y-81821490D01*
X129078251Y-82170296D01*
X129079654Y-82171821D01*
X129400047Y-82526063D01*
X129401424Y-82527611D01*
X129709407Y-82879786D01*
X129715854Y-82887157D01*
X129717205Y-82888728D01*
X130025610Y-83253512D01*
X130026934Y-83255106D01*
X130329124Y-83624898D01*
X130330422Y-83626513D01*
X130626442Y-84001369D01*
X130627713Y-84003006D01*
X130917435Y-84382764D01*
X130918678Y-84384422D01*
X131201993Y-84768939D01*
X131203208Y-84770617D01*
X131480077Y-85159844D01*
X131481252Y-85161525D01*
X131751591Y-85555340D01*
X131752720Y-85557015D01*
X132016429Y-85955273D01*
X132017559Y-85957011D01*
X132274575Y-86359621D01*
X132275675Y-86361377D01*
X132525887Y-86768158D01*
X132526958Y-86769931D01*
X132735230Y-87121563D01*
X132770395Y-87180932D01*
X132771424Y-87182704D01*
X132863633Y-87344489D01*
X133007939Y-87597683D01*
X133008950Y-87599492D01*
X133238500Y-88018366D01*
X133239466Y-88020165D01*
X133384242Y-88295152D01*
X133461986Y-88442820D01*
X133462936Y-88444662D01*
X133678348Y-88870948D01*
X133679267Y-88872805D01*
X133887527Y-89302633D01*
X133888415Y-89304505D01*
X134089462Y-89737751D01*
X134090319Y-89739638D01*
X134284111Y-90176209D01*
X134284936Y-90178110D01*
X134471397Y-90617839D01*
X134472190Y-90619753D01*
X134651298Y-91062588D01*
X134652058Y-91064516D01*
X134823701Y-91510178D01*
X134824430Y-91512117D01*
X134988634Y-91960668D01*
X134989330Y-91962620D01*
X135146008Y-92413834D01*
X135146671Y-92415797D01*
X135295771Y-92869512D01*
X135296402Y-92871486D01*
X135437927Y-93327721D01*
X135438524Y-93329705D01*
X135572390Y-93788187D01*
X135572954Y-93790181D01*
X135699136Y-94250819D01*
X135699667Y-94252822D01*
X135818145Y-94715546D01*
X135818642Y-94717557D01*
X135929361Y-95182154D01*
X135929825Y-95184174D01*
X136032784Y-95650643D01*
X136033213Y-95652670D01*
X136128340Y-96120680D01*
X136128736Y-96122714D01*
X136216038Y-96592295D01*
X136216400Y-96594335D01*
X136295854Y-97065368D01*
X136296181Y-97067414D01*
X136367733Y-97539582D01*
X136368027Y-97541633D01*
X136431696Y-98015048D01*
X136431955Y-98017104D01*
X136487702Y-98491509D01*
X136487926Y-98493569D01*
X136535732Y-98968774D01*
X136535922Y-98970837D01*
X136575782Y-99446779D01*
X136575938Y-99448846D01*
X136607841Y-99925434D01*
X136607962Y-99927502D01*
X136631895Y-100404505D01*
X136631982Y-100406575D01*
X136647943Y-100883963D01*
X136647995Y-100886035D01*
X136655977Y-101363624D01*
X136655994Y-101365696D01*
X136655994Y-101843293D01*
X136655977Y-101845365D01*
X136647995Y-102322954D01*
X136647943Y-102325026D01*
X136631982Y-102802414D01*
X136631895Y-102804484D01*
X136607962Y-103281487D01*
X136607841Y-103283555D01*
X136575938Y-103760143D01*
X136575782Y-103762210D01*
X136535922Y-104238152D01*
X136535732Y-104240215D01*
X136487926Y-104715420D01*
X136487702Y-104717480D01*
X136431955Y-105191885D01*
X136431696Y-105193941D01*
X136368027Y-105667356D01*
X136367733Y-105669407D01*
X136296181Y-106141575D01*
X136295854Y-106143621D01*
X136216400Y-106614654D01*
X136216038Y-106616694D01*
X136128736Y-107086275D01*
X136128340Y-107088309D01*
X136033213Y-107556319D01*
X136032784Y-107558346D01*
X135929825Y-108024815D01*
X135929361Y-108026835D01*
X135818642Y-108491432D01*
X135818145Y-108493443D01*
X135699667Y-108956167D01*
X135699136Y-108958170D01*
X135572954Y-109418808D01*
X135572390Y-109420802D01*
X135438524Y-109879284D01*
X135437927Y-109881268D01*
X135296402Y-110337503D01*
X135295771Y-110339477D01*
X135146671Y-110793192D01*
X135146008Y-110795155D01*
X134989330Y-111246369D01*
X134988634Y-111248321D01*
X134824430Y-111696872D01*
X134823701Y-111698811D01*
X134652058Y-112144473D01*
X134651298Y-112146401D01*
X134472190Y-112589236D01*
X134471397Y-112591150D01*
X134284936Y-113030879D01*
X134284111Y-113032780D01*
X134090319Y-113469351D01*
X134089462Y-113471238D01*
X133888415Y-113904484D01*
X133887527Y-113906356D01*
X133679267Y-114336184D01*
X133678348Y-114338041D01*
X133462936Y-114764327D01*
X133461986Y-114766169D01*
X133239480Y-115188798D01*
X133238500Y-115190623D01*
X133008950Y-115609497D01*
X133007939Y-115611306D01*
X132771436Y-116026265D01*
X132770395Y-116028057D01*
X132526958Y-116439058D01*
X132525887Y-116440831D01*
X132275675Y-116847612D01*
X132274575Y-116849368D01*
X132017559Y-117251978D01*
X132016429Y-117253716D01*
X131752720Y-117651974D01*
X131751562Y-117653692D01*
X131481264Y-118047447D01*
X131480077Y-118049145D01*
X131203208Y-118438372D01*
X131201993Y-118440050D01*
X130918678Y-118824567D01*
X130917435Y-118826225D01*
X130627713Y-119205983D01*
X130626442Y-119207620D01*
X130330422Y-119582476D01*
X130329124Y-119584091D01*
X130026934Y-119953883D01*
X130025610Y-119955477D01*
X129717205Y-120320261D01*
X129715854Y-120321832D01*
X129401424Y-120681378D01*
X129400047Y-120682926D01*
X129079654Y-121037168D01*
X129078251Y-121038693D01*
X128752015Y-121387499D01*
X128750587Y-121389001D01*
X128418511Y-121732365D01*
X128417058Y-121733842D01*
X128079347Y-122071553D01*
X128077870Y-122073006D01*
X127734506Y-122405082D01*
X127733004Y-122406510D01*
X127384198Y-122732746D01*
X127382673Y-122734149D01*
X127028431Y-123054542D01*
X127026883Y-123055919D01*
X126667337Y-123370349D01*
X126665766Y-123371700D01*
X126300982Y-123680105D01*
X126299388Y-123681429D01*
X125929596Y-123983619D01*
X125927981Y-123984917D01*
X125553125Y-124280937D01*
X125551488Y-124282208D01*
X125171730Y-124571930D01*
X125170072Y-124573173D01*
X124785555Y-124856488D01*
X124783877Y-124857703D01*
X124394650Y-125134572D01*
X124392952Y-125135759D01*
X123999197Y-125406057D01*
X123997479Y-125407215D01*
X123599221Y-125670924D01*
X123597483Y-125672054D01*
X123194873Y-125929070D01*
X123193117Y-125930170D01*
X122786336Y-126180382D01*
X122784563Y-126181453D01*
X122373562Y-126424890D01*
X122371770Y-126425931D01*
X121956811Y-126662434D01*
X121955002Y-126663445D01*
X121536128Y-126892995D01*
X121534303Y-126893975D01*
X121111674Y-127116481D01*
X121109832Y-127117431D01*
X120683546Y-127332843D01*
X120681689Y-127333762D01*
X120251861Y-127542022D01*
X120249989Y-127542910D01*
X119816743Y-127743957D01*
X119814856Y-127744814D01*
X119378285Y-127938606D01*
X119376384Y-127939431D01*
X118936655Y-128125892D01*
X118934741Y-128126685D01*
X118491906Y-128305793D01*
X118489978Y-128306553D01*
X118044316Y-128478196D01*
X118042377Y-128478925D01*
X117593826Y-128643129D01*
X117591874Y-128643825D01*
X117140660Y-128800503D01*
X117138697Y-128801166D01*
X116684982Y-128950266D01*
X116683008Y-128950897D01*
X116226773Y-129092422D01*
X116224789Y-129093019D01*
X115766307Y-129226885D01*
X115764313Y-129227449D01*
X115303675Y-129353631D01*
X115301672Y-129354162D01*
X114838948Y-129472640D01*
X114836937Y-129473137D01*
X114372340Y-129583856D01*
X114370320Y-129584320D01*
X113903851Y-129687279D01*
X113901824Y-129687708D01*
X113433814Y-129782835D01*
X113431780Y-129783231D01*
X112962199Y-129870533D01*
X112960159Y-129870895D01*
X112489126Y-129950349D01*
X112487080Y-129950676D01*
X112014912Y-130022228D01*
X112012861Y-130022522D01*
X111539446Y-130086191D01*
X111537390Y-130086450D01*
X111062985Y-130142197D01*
X111060925Y-130142421D01*
X110585720Y-130190227D01*
X110583657Y-130190417D01*
X110107715Y-130230277D01*
X110105648Y-130230433D01*
X109629060Y-130262336D01*
X109626992Y-130262457D01*
X109149989Y-130286390D01*
X109147919Y-130286477D01*
X108670531Y-130302438D01*
X108668459Y-130302490D01*
X108190870Y-130310472D01*
X108188798Y-130310489D01*
X107711202Y-130310489D01*
X107709130Y-130310472D01*
X107231540Y-130302490D01*
X107229468Y-130302438D01*
X106752080Y-130286477D01*
X106750010Y-130286390D01*
X106273007Y-130262457D01*
X106270939Y-130262336D01*
X105794351Y-130230433D01*
X105792284Y-130230277D01*
X105316342Y-130190417D01*
X105314279Y-130190227D01*
X104839074Y-130142421D01*
X104837014Y-130142197D01*
X104362609Y-130086450D01*
X104360553Y-130086191D01*
X103887138Y-130022522D01*
X103885087Y-130022228D01*
X103412919Y-129950676D01*
X103410873Y-129950349D01*
X102939840Y-129870895D01*
X102937800Y-129870533D01*
X102468219Y-129783231D01*
X102466185Y-129782835D01*
X101998175Y-129687708D01*
X101996148Y-129687279D01*
X101529679Y-129584320D01*
X101527659Y-129583856D01*
X101063062Y-129473137D01*
X101061051Y-129472640D01*
X100598327Y-129354162D01*
X100596324Y-129353631D01*
X100135686Y-129227449D01*
X100133692Y-129226885D01*
X99675210Y-129093019D01*
X99673226Y-129092422D01*
X99464805Y-129027769D01*
X99216969Y-128950890D01*
X99215041Y-128950273D01*
X99096298Y-128911252D01*
X98761302Y-128801166D01*
X98759339Y-128800503D01*
X98308125Y-128643825D01*
X98306173Y-128643129D01*
X97857622Y-128478925D01*
X97855683Y-128478196D01*
X97410021Y-128306553D01*
X97408093Y-128305793D01*
X96965258Y-128126685D01*
X96963344Y-128125892D01*
X96523615Y-127939431D01*
X96521714Y-127938606D01*
X96085143Y-127744814D01*
X96083256Y-127743957D01*
X95650010Y-127542910D01*
X95648138Y-127542022D01*
X95218310Y-127333762D01*
X95216453Y-127332843D01*
X94790167Y-127117431D01*
X94788325Y-127116481D01*
X94365670Y-126893961D01*
X94363896Y-126893008D01*
X94173474Y-126788654D01*
X93944997Y-126663445D01*
X93943188Y-126662434D01*
X93528229Y-126425931D01*
X93526437Y-126424890D01*
X93115436Y-126181453D01*
X93113663Y-126180382D01*
X92706882Y-125930170D01*
X92705126Y-125929070D01*
X92519210Y-125810386D01*
X92302480Y-125672030D01*
X92300814Y-125670947D01*
X91902520Y-125407215D01*
X91900845Y-125406086D01*
X91507030Y-125135747D01*
X91505349Y-125134572D01*
X91116122Y-124857703D01*
X91114444Y-124856488D01*
X90729927Y-124573173D01*
X90728269Y-124571930D01*
X90348511Y-124282208D01*
X90346874Y-124280937D01*
X89972018Y-123984917D01*
X89970403Y-123983619D01*
X89600611Y-123681429D01*
X89599017Y-123680105D01*
X89511516Y-123606128D01*
X89234200Y-123371671D01*
X89232696Y-123370378D01*
X88873116Y-123055919D01*
X88871568Y-123054542D01*
X88517326Y-122734149D01*
X88515801Y-122732746D01*
X88166995Y-122406510D01*
X88165493Y-122405082D01*
X87822129Y-122073006D01*
X87820652Y-122071553D01*
X87482941Y-121733842D01*
X87481488Y-121732365D01*
X87149412Y-121389001D01*
X87147984Y-121387499D01*
X86821748Y-121038693D01*
X86820345Y-121037168D01*
X86499952Y-120682926D01*
X86498575Y-120681378D01*
X86356060Y-120518414D01*
X86184108Y-120321789D01*
X86182831Y-120320304D01*
X86001368Y-120105668D01*
X85885737Y-119968899D01*
X85885737Y-119968898D01*
X85874391Y-119955479D01*
X85873065Y-119953883D01*
X85823895Y-119893713D01*
X88649500Y-119893713D01*
X88649500Y-120106286D01*
X88682753Y-120316239D01*
X88748444Y-120518414D01*
X88844951Y-120707820D01*
X88969890Y-120879786D01*
X89120213Y-121030109D01*
X89292179Y-121155048D01*
X89292181Y-121155049D01*
X89292184Y-121155051D01*
X89481588Y-121251557D01*
X89683757Y-121317246D01*
X89893713Y-121350500D01*
X89893714Y-121350500D01*
X90106286Y-121350500D01*
X90106287Y-121350500D01*
X90316243Y-121317246D01*
X90518412Y-121251557D01*
X90707816Y-121155051D01*
X90773313Y-121107465D01*
X90879786Y-121030109D01*
X90879788Y-121030106D01*
X90879792Y-121030104D01*
X91030104Y-120879792D01*
X91030106Y-120879788D01*
X91030109Y-120879786D01*
X91155048Y-120707820D01*
X91155047Y-120707820D01*
X91155051Y-120707816D01*
X91251557Y-120518412D01*
X91317246Y-120316243D01*
X91350500Y-120106287D01*
X91350500Y-119893713D01*
X91317246Y-119683757D01*
X91251557Y-119481588D01*
X91155051Y-119292184D01*
X91155049Y-119292181D01*
X91155048Y-119292179D01*
X91030109Y-119120213D01*
X90879786Y-118969890D01*
X90707820Y-118844951D01*
X90518414Y-118748444D01*
X90518413Y-118748443D01*
X90518412Y-118748443D01*
X90316243Y-118682754D01*
X90316241Y-118682753D01*
X90316240Y-118682753D01*
X90154957Y-118657208D01*
X90106287Y-118649500D01*
X89893713Y-118649500D01*
X89845042Y-118657208D01*
X89683760Y-118682753D01*
X89481585Y-118748444D01*
X89292179Y-118844951D01*
X89120213Y-118969890D01*
X88969890Y-119120213D01*
X88844951Y-119292179D01*
X88748444Y-119481585D01*
X88682753Y-119683760D01*
X88649500Y-119893713D01*
X85823895Y-119893713D01*
X85570875Y-119584091D01*
X85569577Y-119582476D01*
X85273557Y-119207620D01*
X85272286Y-119205983D01*
X84982564Y-118826225D01*
X84981321Y-118824567D01*
X84925233Y-118748444D01*
X84697995Y-118440035D01*
X84696791Y-118438372D01*
X84419922Y-118049145D01*
X84418764Y-118047488D01*
X84148390Y-117653623D01*
X84147279Y-117651974D01*
X84110857Y-117596969D01*
X83883527Y-117253651D01*
X83882483Y-117252044D01*
X83625414Y-116849353D01*
X83624324Y-116847612D01*
X83614243Y-116831223D01*
X83374100Y-116440812D01*
X83373041Y-116439058D01*
X83249007Y-116229648D01*
X83129571Y-116028001D01*
X83128596Y-116026323D01*
X82892054Y-115611296D01*
X82891049Y-115609497D01*
X82661463Y-115190556D01*
X82660556Y-115188868D01*
X82437988Y-114766120D01*
X82437088Y-114764377D01*
X82221630Y-114338000D01*
X82220732Y-114336184D01*
X82059815Y-114004068D01*
X82012452Y-113906314D01*
X82011584Y-113904484D01*
X81810537Y-113471238D01*
X81809680Y-113469351D01*
X81731299Y-113292776D01*
X81615842Y-113032674D01*
X81615088Y-113030938D01*
X81428587Y-112591114D01*
X81427809Y-112589236D01*
X81417871Y-112564666D01*
X81248688Y-112146370D01*
X81247941Y-112144473D01*
X81076298Y-111698811D01*
X81075569Y-111696872D01*
X80911365Y-111248321D01*
X80910669Y-111246369D01*
X80893204Y-111196073D01*
X80753989Y-110795150D01*
X80753328Y-110793192D01*
X80744459Y-110766203D01*
X80604196Y-110339377D01*
X80603627Y-110337597D01*
X80462055Y-109881212D01*
X80461492Y-109879342D01*
X80327590Y-109420736D01*
X80327064Y-109418875D01*
X80270454Y-109212215D01*
X81817660Y-109212215D01*
X81817660Y-109212218D01*
X81825077Y-109424650D01*
X81825077Y-109424653D01*
X81825078Y-109424656D01*
X81856975Y-109588753D01*
X81865638Y-109633319D01*
X81865641Y-109633329D01*
X81938341Y-109833074D01*
X81938341Y-109833075D01*
X82041401Y-110018998D01*
X82041404Y-110019003D01*
X82135715Y-110139715D01*
X82172274Y-110186508D01*
X82327740Y-110331483D01*
X82327743Y-110331485D01*
X82503964Y-110450349D01*
X82503968Y-110450351D01*
X82503971Y-110450353D01*
X82681885Y-110533316D01*
X82734324Y-110579488D01*
X82753476Y-110646682D01*
X82733260Y-110713563D01*
X82726747Y-110722608D01*
X82613956Y-110865251D01*
X82613956Y-110865252D01*
X82539812Y-111024256D01*
X82539811Y-111024258D01*
X82504334Y-111196073D01*
X82508316Y-111332902D01*
X82509437Y-111371444D01*
X82534725Y-111471625D01*
X82979358Y-112693241D01*
X83024381Y-112786239D01*
X83024382Y-112786240D01*
X83024383Y-112786242D01*
X83024383Y-112786243D01*
X83082648Y-112859930D01*
X83133197Y-112923859D01*
X83133201Y-112923862D01*
X83270813Y-113032674D01*
X83270814Y-113032674D01*
X83270815Y-113032675D01*
X83429819Y-113106820D01*
X83429820Y-113106820D01*
X83429822Y-113106821D01*
X83547704Y-113131160D01*
X83601637Y-113142296D01*
X83777005Y-113137194D01*
X83877186Y-113111906D01*
X85380709Y-112564667D01*
X85473708Y-112519644D01*
X85611328Y-112410828D01*
X85611335Y-112410818D01*
X85616110Y-112406046D01*
X85677435Y-112372564D01*
X85703787Y-112369732D01*
X92898292Y-112369732D01*
X92965331Y-112389417D01*
X92985973Y-112406051D01*
X97049235Y-116469313D01*
X97082720Y-116530636D01*
X97085554Y-116556994D01*
X97085554Y-124634900D01*
X97116315Y-124789543D01*
X97116318Y-124789555D01*
X97176656Y-124935226D01*
X97176663Y-124935239D01*
X97264264Y-125066342D01*
X97264267Y-125066346D01*
X99072751Y-126874829D01*
X99103001Y-126924191D01*
X99124781Y-126991222D01*
X99217715Y-127173613D01*
X99338028Y-127339213D01*
X99482786Y-127483971D01*
X99637749Y-127596556D01*
X99648390Y-127604287D01*
X99737212Y-127649544D01*
X99830776Y-127697218D01*
X99830778Y-127697218D01*
X99830781Y-127697220D01*
X99935137Y-127731127D01*
X100025465Y-127760477D01*
X100126557Y-127776488D01*
X100227648Y-127792500D01*
X100227649Y-127792500D01*
X100432351Y-127792500D01*
X100432352Y-127792500D01*
X100634534Y-127760477D01*
X100829219Y-127697220D01*
X101011610Y-127604287D01*
X101107901Y-127534328D01*
X101177213Y-127483971D01*
X101177215Y-127483968D01*
X101177219Y-127483966D01*
X101321966Y-127339219D01*
X101321968Y-127339215D01*
X101321971Y-127339213D01*
X101374732Y-127266590D01*
X101442287Y-127173610D01*
X101535220Y-126991219D01*
X101598477Y-126796534D01*
X101630500Y-126594352D01*
X101630500Y-126389648D01*
X101598477Y-126187466D01*
X101596523Y-126181453D01*
X101535218Y-125992776D01*
X101499405Y-125922491D01*
X101442287Y-125810390D01*
X101404685Y-125758635D01*
X101321971Y-125644786D01*
X101177213Y-125500028D01*
X101011614Y-125379715D01*
X101005006Y-125376348D01*
X100918917Y-125332483D01*
X100868123Y-125284511D01*
X100851328Y-125216690D01*
X100873865Y-125150555D01*
X100918917Y-125111516D01*
X101011610Y-125064287D01*
X101032770Y-125048913D01*
X101177213Y-124943971D01*
X101177215Y-124943968D01*
X101177219Y-124943966D01*
X101321966Y-124799219D01*
X101321968Y-124799215D01*
X101321971Y-124799213D01*
X101374732Y-124726590D01*
X101442287Y-124633610D01*
X101535220Y-124451219D01*
X101598477Y-124256534D01*
X101630500Y-124054352D01*
X101630500Y-123849648D01*
X101598477Y-123647466D01*
X101585045Y-123606128D01*
X101535218Y-123452776D01*
X101493892Y-123371671D01*
X101442287Y-123270390D01*
X101434556Y-123259749D01*
X101321971Y-123104786D01*
X101177213Y-122960028D01*
X101011614Y-122839715D01*
X101005006Y-122836348D01*
X100918917Y-122792483D01*
X100868123Y-122744511D01*
X100851328Y-122676690D01*
X100873865Y-122610555D01*
X100918917Y-122571516D01*
X101011610Y-122524287D01*
X101032770Y-122508913D01*
X101177213Y-122403971D01*
X101177215Y-122403968D01*
X101177219Y-122403966D01*
X101321966Y-122259219D01*
X101321968Y-122259215D01*
X101321971Y-122259213D01*
X101374732Y-122186590D01*
X101442287Y-122093610D01*
X101535220Y-121911219D01*
X101598477Y-121716534D01*
X101630500Y-121514352D01*
X101630500Y-121309648D01*
X101598477Y-121107466D01*
X101535220Y-120912781D01*
X101535218Y-120912778D01*
X101535218Y-120912776D01*
X101501503Y-120846607D01*
X101442287Y-120730390D01*
X101406678Y-120681378D01*
X101321971Y-120564786D01*
X101177213Y-120420028D01*
X101011611Y-120299713D01*
X100918369Y-120252203D01*
X100867574Y-120204229D01*
X100850779Y-120136407D01*
X100873317Y-120070273D01*
X100918371Y-120031234D01*
X101011347Y-119983861D01*
X101176894Y-119863582D01*
X101176895Y-119863582D01*
X101321582Y-119718895D01*
X101321582Y-119718894D01*
X101441856Y-119553353D01*
X101441861Y-119553345D01*
X101534261Y-119372000D01*
X99125739Y-119372000D01*
X99218138Y-119553345D01*
X99218143Y-119553353D01*
X99338417Y-119718894D01*
X99338417Y-119718895D01*
X99483104Y-119863582D01*
X99648652Y-119983861D01*
X99741628Y-120031234D01*
X99792425Y-120079208D01*
X99809220Y-120147029D01*
X99786683Y-120213164D01*
X99741630Y-120252203D01*
X99648388Y-120299713D01*
X99482786Y-120420028D01*
X99338028Y-120564786D01*
X99217715Y-120730386D01*
X99124781Y-120912776D01*
X99061522Y-121107465D01*
X99029500Y-121309648D01*
X99029500Y-121514351D01*
X99061522Y-121716534D01*
X99124781Y-121911223D01*
X99188691Y-122036653D01*
X99206474Y-122071553D01*
X99217715Y-122093613D01*
X99338028Y-122259213D01*
X99482786Y-122403971D01*
X99637749Y-122516556D01*
X99648390Y-122524287D01*
X99739840Y-122570883D01*
X99741080Y-122571515D01*
X99791876Y-122619490D01*
X99808671Y-122687311D01*
X99786134Y-122753446D01*
X99741080Y-122792485D01*
X99648386Y-122839715D01*
X99482786Y-122960028D01*
X99338028Y-123104786D01*
X99217715Y-123270386D01*
X99124781Y-123452776D01*
X99061522Y-123647465D01*
X99029500Y-123849648D01*
X99029500Y-124054351D01*
X99061523Y-124256535D01*
X99061524Y-124256539D01*
X99066961Y-124273274D01*
X99068954Y-124343115D01*
X99032873Y-124402947D01*
X98970171Y-124433773D01*
X98900757Y-124425807D01*
X98861348Y-124399270D01*
X98722873Y-124260795D01*
X98689388Y-124199472D01*
X98686554Y-124173114D01*
X98686554Y-118819339D01*
X99930000Y-118819339D01*
X99930000Y-118924661D01*
X99957259Y-119026394D01*
X100009920Y-119117606D01*
X100084394Y-119192080D01*
X100175606Y-119244741D01*
X100277339Y-119272000D01*
X100382661Y-119272000D01*
X100484394Y-119244741D01*
X100575606Y-119192080D01*
X100650080Y-119117606D01*
X100702741Y-119026394D01*
X100730000Y-118924661D01*
X100730000Y-118819339D01*
X100702741Y-118717606D01*
X100650080Y-118626394D01*
X100575606Y-118551920D01*
X100484394Y-118499259D01*
X100382661Y-118472000D01*
X100277339Y-118472000D01*
X100175606Y-118499259D01*
X100084394Y-118551920D01*
X100009920Y-118626394D01*
X99957259Y-118717606D01*
X99930000Y-118819339D01*
X98686554Y-118819339D01*
X98686554Y-116095212D01*
X98681407Y-116069334D01*
X98681407Y-116069332D01*
X98681407Y-116069331D01*
X98656340Y-115943312D01*
X98655792Y-115940557D01*
X98595448Y-115794875D01*
X98595446Y-115794872D01*
X98595444Y-115794868D01*
X98507843Y-115663765D01*
X98507840Y-115663761D01*
X93791524Y-110947445D01*
X93791520Y-110947442D01*
X93660417Y-110859841D01*
X93660404Y-110859834D01*
X93514733Y-110799496D01*
X93514721Y-110799493D01*
X93360077Y-110768732D01*
X93360074Y-110768732D01*
X92143255Y-110768732D01*
X92076216Y-110749047D01*
X92030461Y-110696243D01*
X92020517Y-110627085D01*
X92049542Y-110563529D01*
X92067769Y-110546356D01*
X92114782Y-110510282D01*
X92211036Y-110384841D01*
X92271544Y-110238762D01*
X92287000Y-110121361D01*
X92286999Y-109842640D01*
X92285882Y-109834158D01*
X92282823Y-109810919D01*
X92271544Y-109725238D01*
X92271542Y-109725234D01*
X92262935Y-109704455D01*
X92255465Y-109634986D01*
X92262935Y-109609545D01*
X92271544Y-109588762D01*
X92287000Y-109471361D01*
X92286999Y-109192640D01*
X92276145Y-109110192D01*
X92286911Y-109041161D01*
X92311400Y-109006333D01*
X95324321Y-105993412D01*
X95385642Y-105959929D01*
X95455334Y-105964913D01*
X95511267Y-106006785D01*
X95535684Y-106072249D01*
X95536000Y-106081094D01*
X95536000Y-106221362D01*
X95551453Y-106338753D01*
X95551457Y-106338765D01*
X95560066Y-106359550D01*
X95567533Y-106429019D01*
X95560066Y-106454450D01*
X95551457Y-106475234D01*
X95551455Y-106475239D01*
X95536000Y-106592638D01*
X95536000Y-106871363D01*
X95551453Y-106988753D01*
X95551457Y-106988765D01*
X95560066Y-107009550D01*
X95567533Y-107079019D01*
X95560066Y-107104450D01*
X95551457Y-107125234D01*
X95551455Y-107125239D01*
X95536000Y-107242638D01*
X95536000Y-107521363D01*
X95551453Y-107638753D01*
X95551457Y-107638765D01*
X95560066Y-107659550D01*
X95567533Y-107729019D01*
X95560066Y-107754450D01*
X95551457Y-107775234D01*
X95551455Y-107775239D01*
X95536000Y-107892638D01*
X95536000Y-108171363D01*
X95551453Y-108288753D01*
X95551457Y-108288765D01*
X95560066Y-108309550D01*
X95567533Y-108379019D01*
X95560066Y-108404450D01*
X95551457Y-108425234D01*
X95551455Y-108425239D01*
X95536000Y-108542638D01*
X95536000Y-108821363D01*
X95551453Y-108938753D01*
X95551457Y-108938765D01*
X95560066Y-108959550D01*
X95567533Y-109029019D01*
X95560066Y-109054450D01*
X95551457Y-109075234D01*
X95551455Y-109075239D01*
X95536000Y-109192638D01*
X95536000Y-109471363D01*
X95551453Y-109588753D01*
X95551457Y-109588765D01*
X95560066Y-109609550D01*
X95567533Y-109679019D01*
X95560066Y-109704450D01*
X95551457Y-109725234D01*
X95551455Y-109725239D01*
X95536000Y-109842638D01*
X95536000Y-110121363D01*
X95551453Y-110238753D01*
X95551456Y-110238762D01*
X95593173Y-110339477D01*
X95611964Y-110384841D01*
X95708218Y-110510282D01*
X95833659Y-110606536D01*
X95979738Y-110667044D01*
X96097139Y-110682500D01*
X96705004Y-110682499D01*
X96705007Y-110682500D01*
X96842993Y-110682500D01*
X96842995Y-110682499D01*
X97450860Y-110682499D01*
X97450863Y-110682499D01*
X97568253Y-110667046D01*
X97568257Y-110667044D01*
X97568262Y-110667044D01*
X97714341Y-110606536D01*
X97839782Y-110510282D01*
X97936036Y-110384841D01*
X97996544Y-110238762D01*
X98012000Y-110121361D01*
X98011999Y-109898599D01*
X98020643Y-109869157D01*
X98027166Y-109839173D01*
X98030920Y-109834158D01*
X98031683Y-109831560D01*
X98048317Y-109810919D01*
X98158520Y-109700716D01*
X98158521Y-109700713D01*
X98864778Y-108994456D01*
X98926100Y-108960972D01*
X98995792Y-108965956D01*
X99051725Y-109007828D01*
X99070388Y-109043818D01*
X99118743Y-109192640D01*
X99124781Y-109211221D01*
X99217715Y-109393613D01*
X99338028Y-109559213D01*
X99482786Y-109703971D01*
X99629990Y-109810919D01*
X99648390Y-109824287D01*
X99736452Y-109869157D01*
X99741080Y-109871515D01*
X99791876Y-109919490D01*
X99808671Y-109987311D01*
X99786134Y-110053446D01*
X99741080Y-110092485D01*
X99648386Y-110139715D01*
X99482786Y-110260028D01*
X99338028Y-110404786D01*
X99217715Y-110570386D01*
X99124781Y-110752776D01*
X99061522Y-110947465D01*
X99029500Y-111149648D01*
X99029500Y-111354351D01*
X99061522Y-111556534D01*
X99124781Y-111751223D01*
X99217715Y-111933613D01*
X99338028Y-112099213D01*
X99482786Y-112243971D01*
X99637749Y-112356556D01*
X99648390Y-112364287D01*
X99739730Y-112410827D01*
X99741080Y-112411515D01*
X99791876Y-112459490D01*
X99808671Y-112527311D01*
X99786134Y-112593446D01*
X99741080Y-112632485D01*
X99648386Y-112679715D01*
X99482786Y-112800028D01*
X99338028Y-112944786D01*
X99217715Y-113110386D01*
X99124781Y-113292776D01*
X99061522Y-113487465D01*
X99029500Y-113689648D01*
X99029500Y-113894351D01*
X99061522Y-114096534D01*
X99124781Y-114291223D01*
X99217715Y-114473613D01*
X99338028Y-114639213D01*
X99482786Y-114783971D01*
X99637749Y-114896556D01*
X99648390Y-114904287D01*
X99739840Y-114950883D01*
X99741080Y-114951515D01*
X99791876Y-114999490D01*
X99808671Y-115067311D01*
X99786134Y-115133446D01*
X99741080Y-115172485D01*
X99648386Y-115219715D01*
X99482786Y-115340028D01*
X99338028Y-115484786D01*
X99217715Y-115650386D01*
X99124781Y-115832776D01*
X99061522Y-116027465D01*
X99029500Y-116229648D01*
X99029500Y-116434352D01*
X99030523Y-116440812D01*
X99061522Y-116636534D01*
X99124781Y-116831223D01*
X99217715Y-117013613D01*
X99338028Y-117179213D01*
X99482786Y-117323971D01*
X99637749Y-117436556D01*
X99648390Y-117444287D01*
X99720424Y-117480990D01*
X99741629Y-117491795D01*
X99792425Y-117539770D01*
X99809220Y-117607591D01*
X99786682Y-117673726D01*
X99741629Y-117712765D01*
X99648650Y-117760140D01*
X99483105Y-117880417D01*
X99483104Y-117880417D01*
X99338417Y-118025104D01*
X99338417Y-118025105D01*
X99218143Y-118190646D01*
X99218138Y-118190654D01*
X99125739Y-118372000D01*
X101534260Y-118372000D01*
X101441861Y-118190654D01*
X101441856Y-118190646D01*
X101321582Y-118025105D01*
X101321582Y-118025104D01*
X101176895Y-117880417D01*
X101011349Y-117760140D01*
X100918370Y-117712765D01*
X100867574Y-117664790D01*
X100850779Y-117596969D01*
X100873316Y-117530835D01*
X100918370Y-117491795D01*
X100918920Y-117491515D01*
X101011610Y-117444287D01*
X101032770Y-117428913D01*
X101177213Y-117323971D01*
X101177215Y-117323968D01*
X101177219Y-117323966D01*
X101321966Y-117179219D01*
X101321968Y-117179215D01*
X101321971Y-117179213D01*
X101374732Y-117106590D01*
X101442287Y-117013610D01*
X101535220Y-116831219D01*
X101598477Y-116636534D01*
X101630500Y-116434352D01*
X101630500Y-116229648D01*
X101598477Y-116027466D01*
X101583205Y-115980465D01*
X101569127Y-115937137D01*
X101535220Y-115832781D01*
X101535218Y-115832778D01*
X101535218Y-115832776D01*
X101501503Y-115766607D01*
X101442287Y-115650390D01*
X101412577Y-115609497D01*
X101321971Y-115484786D01*
X101177213Y-115340028D01*
X101011614Y-115219715D01*
X101005006Y-115216348D01*
X100918917Y-115172483D01*
X100868123Y-115124511D01*
X100851328Y-115056690D01*
X100873865Y-114990555D01*
X100918917Y-114951516D01*
X101011610Y-114904287D01*
X101032770Y-114888913D01*
X101177213Y-114783971D01*
X101177215Y-114783968D01*
X101177219Y-114783966D01*
X101321966Y-114639219D01*
X101321968Y-114639215D01*
X101321971Y-114639213D01*
X101374732Y-114566590D01*
X101442287Y-114473610D01*
X101535220Y-114291219D01*
X101598477Y-114096534D01*
X101630500Y-113894352D01*
X101630500Y-113689648D01*
X101598477Y-113487466D01*
X101580644Y-113432583D01*
X101535218Y-113292776D01*
X101501503Y-113226607D01*
X101442287Y-113110390D01*
X101434556Y-113099749D01*
X101321971Y-112944786D01*
X101177213Y-112800028D01*
X101011614Y-112679715D01*
X101005006Y-112676348D01*
X100918917Y-112632483D01*
X100868123Y-112584511D01*
X100851328Y-112516690D01*
X100873865Y-112450555D01*
X100918917Y-112411516D01*
X101011610Y-112364287D01*
X101032770Y-112348913D01*
X101177213Y-112243971D01*
X101177215Y-112243968D01*
X101177219Y-112243966D01*
X101321966Y-112099219D01*
X101321968Y-112099215D01*
X101321971Y-112099213D01*
X101398880Y-111993355D01*
X101442287Y-111933610D01*
X101535220Y-111751219D01*
X101598477Y-111556534D01*
X101630500Y-111354352D01*
X101630500Y-111149648D01*
X101598477Y-110947466D01*
X101598470Y-110947445D01*
X101569127Y-110857137D01*
X101535220Y-110752781D01*
X101535218Y-110752778D01*
X101535218Y-110752776D01*
X101488194Y-110660487D01*
X101442287Y-110570390D01*
X101434556Y-110559749D01*
X101321971Y-110404786D01*
X101177213Y-110260028D01*
X101011614Y-110139715D01*
X100975590Y-110121360D01*
X100918917Y-110092483D01*
X100868123Y-110044511D01*
X100851328Y-109976690D01*
X100873865Y-109910555D01*
X100918917Y-109871516D01*
X101011610Y-109824287D01*
X101032770Y-109808913D01*
X101177213Y-109703971D01*
X101177215Y-109703968D01*
X101177219Y-109703966D01*
X101321966Y-109559219D01*
X101321968Y-109559215D01*
X101321971Y-109559213D01*
X101374732Y-109486590D01*
X101442287Y-109393610D01*
X101535220Y-109211219D01*
X101598477Y-109016534D01*
X101630500Y-108814352D01*
X101630500Y-108609648D01*
X101619887Y-108542639D01*
X101598477Y-108407465D01*
X101535218Y-108212776D01*
X101498981Y-108141658D01*
X101442287Y-108030390D01*
X101412686Y-107989647D01*
X101321971Y-107864786D01*
X101177213Y-107720028D01*
X101011614Y-107599715D01*
X101005006Y-107596348D01*
X100918917Y-107552483D01*
X100868123Y-107504511D01*
X100851328Y-107436690D01*
X100873865Y-107370555D01*
X100918917Y-107331516D01*
X101011610Y-107284287D01*
X101068934Y-107242639D01*
X101177213Y-107163971D01*
X101177215Y-107163968D01*
X101177219Y-107163966D01*
X101321966Y-107019219D01*
X101321968Y-107019215D01*
X101321971Y-107019213D01*
X101384987Y-106932477D01*
X101442287Y-106853610D01*
X101532872Y-106675827D01*
X101535218Y-106671223D01*
X101535218Y-106671222D01*
X101535220Y-106671219D01*
X101598477Y-106476534D01*
X101630500Y-106274352D01*
X101630500Y-106069648D01*
X101613122Y-105959929D01*
X101598477Y-105867465D01*
X101552053Y-105724588D01*
X101535220Y-105672781D01*
X101535218Y-105672777D01*
X101535218Y-105672776D01*
X101501503Y-105606607D01*
X101442287Y-105490390D01*
X101418365Y-105457464D01*
X101321971Y-105324786D01*
X101177213Y-105180028D01*
X101011614Y-105059715D01*
X101005006Y-105056348D01*
X100918917Y-105012483D01*
X100868123Y-104964511D01*
X100851328Y-104896690D01*
X100873865Y-104830555D01*
X100918917Y-104791516D01*
X101011610Y-104744287D01*
X101111067Y-104672028D01*
X101177213Y-104623971D01*
X101177215Y-104623968D01*
X101177219Y-104623966D01*
X101321966Y-104479219D01*
X101321968Y-104479215D01*
X101321971Y-104479213D01*
X101384987Y-104392477D01*
X101442287Y-104313610D01*
X101535220Y-104131219D01*
X101598477Y-103936534D01*
X101630500Y-103734352D01*
X101630500Y-103529648D01*
X101598477Y-103327466D01*
X101584209Y-103283555D01*
X101565623Y-103226351D01*
X101535220Y-103132781D01*
X101535218Y-103132778D01*
X101535218Y-103132776D01*
X101501503Y-103066607D01*
X101442287Y-102950390D01*
X101434556Y-102939749D01*
X101321971Y-102784786D01*
X101177213Y-102640028D01*
X101011614Y-102519715D01*
X101005006Y-102516348D01*
X100918917Y-102472483D01*
X100868123Y-102424511D01*
X100851328Y-102356690D01*
X100873865Y-102290555D01*
X100918917Y-102251516D01*
X101011610Y-102204287D01*
X101111067Y-102132028D01*
X101177213Y-102083971D01*
X101177215Y-102083968D01*
X101177219Y-102083966D01*
X101321966Y-101939219D01*
X101321968Y-101939215D01*
X101321971Y-101939213D01*
X101378259Y-101861738D01*
X101442287Y-101773610D01*
X101535220Y-101591219D01*
X101598477Y-101396534D01*
X101630500Y-101194352D01*
X101630500Y-100989648D01*
X101623289Y-100944122D01*
X101598477Y-100787465D01*
X101556481Y-100658216D01*
X101535220Y-100592781D01*
X101535218Y-100592778D01*
X101535218Y-100592776D01*
X101481312Y-100486981D01*
X101442287Y-100410390D01*
X101434556Y-100399749D01*
X101321971Y-100244786D01*
X101177213Y-100100028D01*
X101011614Y-99979715D01*
X100952119Y-99949401D01*
X100918917Y-99932483D01*
X100868123Y-99884511D01*
X100851328Y-99816690D01*
X100873865Y-99750555D01*
X100918917Y-99711516D01*
X101011610Y-99664287D01*
X101111059Y-99592034D01*
X101177213Y-99543971D01*
X101177215Y-99543968D01*
X101177219Y-99543966D01*
X101321966Y-99399219D01*
X101321968Y-99399215D01*
X101321971Y-99399213D01*
X101387706Y-99308735D01*
X101442287Y-99233610D01*
X101535220Y-99051219D01*
X101598477Y-98856534D01*
X101630500Y-98654352D01*
X101630500Y-98449648D01*
X101607067Y-98301701D01*
X101598477Y-98247465D01*
X101569127Y-98157137D01*
X101535220Y-98052781D01*
X101535218Y-98052778D01*
X101535218Y-98052776D01*
X101486615Y-97957389D01*
X101442287Y-97870390D01*
X101421756Y-97842131D01*
X101321971Y-97704786D01*
X101177213Y-97560028D01*
X101011613Y-97439715D01*
X101011612Y-97439714D01*
X101011610Y-97439713D01*
X100954459Y-97410593D01*
X100829223Y-97346781D01*
X100634534Y-97283522D01*
X100459995Y-97255878D01*
X100432352Y-97251500D01*
X100227648Y-97251500D01*
X100203329Y-97255351D01*
X100025465Y-97283522D01*
X99830776Y-97346781D01*
X99648386Y-97439715D01*
X99482786Y-97560028D01*
X99338028Y-97704786D01*
X99217715Y-97870386D01*
X99124781Y-98052776D01*
X99061522Y-98247465D01*
X99029500Y-98449645D01*
X99029191Y-98453572D01*
X99004299Y-98518858D01*
X98993255Y-98531509D01*
X98325481Y-99199282D01*
X98325477Y-99199287D01*
X98276928Y-99283378D01*
X98276858Y-99283500D01*
X98246423Y-99336215D01*
X98205499Y-99488943D01*
X98205499Y-99488945D01*
X98205499Y-99657046D01*
X98205500Y-99657059D01*
X98205500Y-100791903D01*
X98185815Y-100858942D01*
X98169181Y-100879584D01*
X97786181Y-101262584D01*
X97724858Y-101296069D01*
X97655166Y-101291085D01*
X97599233Y-101249213D01*
X97574816Y-101183749D01*
X97574500Y-101174903D01*
X97574500Y-101013155D01*
X97574499Y-101013153D01*
X97543737Y-100858503D01*
X97537425Y-100843265D01*
X97483397Y-100712827D01*
X97483390Y-100712814D01*
X97395398Y-100581125D01*
X97374520Y-100514447D01*
X97374500Y-100512234D01*
X97374500Y-100147765D01*
X97394185Y-100080726D01*
X97395398Y-100078874D01*
X97483390Y-99947185D01*
X97483390Y-99947184D01*
X97483394Y-99947179D01*
X97543737Y-99801497D01*
X97574500Y-99646842D01*
X97574500Y-99489158D01*
X97574500Y-99489155D01*
X97574499Y-99489153D01*
X97561625Y-99424433D01*
X97543737Y-99334503D01*
X97543735Y-99334498D01*
X97483397Y-99188827D01*
X97483395Y-99188823D01*
X97483394Y-99188821D01*
X97414716Y-99086038D01*
X97393839Y-99019362D01*
X97412323Y-98951982D01*
X97444929Y-98916834D01*
X97490928Y-98883414D01*
X97613414Y-98760928D01*
X97715232Y-98620788D01*
X97793873Y-98466445D01*
X97847402Y-98301701D01*
X97874500Y-98130611D01*
X97874500Y-97957389D01*
X97847402Y-97786299D01*
X97793873Y-97621555D01*
X97715232Y-97467212D01*
X97613414Y-97327072D01*
X97490928Y-97204586D01*
X97350788Y-97102768D01*
X97196445Y-97024127D01*
X97031701Y-96970598D01*
X97031699Y-96970597D01*
X97031698Y-96970597D01*
X96900271Y-96949781D01*
X96860611Y-96943500D01*
X96687389Y-96943500D01*
X96647728Y-96949781D01*
X96516302Y-96970597D01*
X96351549Y-97024129D01*
X96203353Y-97099638D01*
X96134684Y-97112534D01*
X96081963Y-97094692D01*
X95943340Y-97009189D01*
X95943335Y-97009187D01*
X95943334Y-97009186D01*
X95776797Y-96954001D01*
X95776795Y-96954000D01*
X95674010Y-96943500D01*
X94873998Y-96943500D01*
X94873980Y-96943501D01*
X94771203Y-96954000D01*
X94771200Y-96954001D01*
X94604668Y-97009185D01*
X94604663Y-97009187D01*
X94455342Y-97101289D01*
X94331289Y-97225342D01*
X94239187Y-97374663D01*
X94239185Y-97374668D01*
X94217631Y-97439715D01*
X94184001Y-97541203D01*
X94184001Y-97541204D01*
X94184000Y-97541204D01*
X94173500Y-97643983D01*
X94173500Y-98444001D01*
X94173501Y-98444019D01*
X94184000Y-98546796D01*
X94184001Y-98546799D01*
X94199436Y-98593377D01*
X94239186Y-98713334D01*
X94331288Y-98862656D01*
X94455344Y-98986712D01*
X94604666Y-99078814D01*
X94771203Y-99133999D01*
X94873991Y-99144500D01*
X95674008Y-99144499D01*
X95674016Y-99144498D01*
X95674019Y-99144498D01*
X95734536Y-99138316D01*
X95776797Y-99133999D01*
X95879426Y-99099990D01*
X95949251Y-99097589D01*
X96009294Y-99133320D01*
X96040487Y-99195840D01*
X96032990Y-99265148D01*
X96004263Y-99334503D01*
X96004261Y-99334510D01*
X95973500Y-99489153D01*
X95973500Y-99646846D01*
X96004261Y-99801489D01*
X96004264Y-99801501D01*
X96064602Y-99947172D01*
X96064609Y-99947185D01*
X96152602Y-100078874D01*
X96173480Y-100145551D01*
X96173500Y-100147765D01*
X96173500Y-100512234D01*
X96153815Y-100579273D01*
X96152602Y-100581125D01*
X96064609Y-100712814D01*
X96064602Y-100712827D01*
X96004264Y-100858498D01*
X96004261Y-100858510D01*
X95973500Y-101013153D01*
X95973500Y-101170846D01*
X96004261Y-101325489D01*
X96004264Y-101325501D01*
X96064602Y-101471172D01*
X96064609Y-101471185D01*
X96152210Y-101602288D01*
X96152213Y-101602292D01*
X96263707Y-101713786D01*
X96263711Y-101713789D01*
X96394814Y-101801390D01*
X96394827Y-101801397D01*
X96524757Y-101855215D01*
X96540503Y-101861737D01*
X96695153Y-101892499D01*
X96695156Y-101892500D01*
X96856903Y-101892500D01*
X96923942Y-101912185D01*
X96969697Y-101964989D01*
X96979641Y-102034147D01*
X96950616Y-102097703D01*
X96944584Y-102104181D01*
X92953584Y-106095181D01*
X92892261Y-106128666D01*
X92865903Y-106131500D01*
X92410999Y-106131500D01*
X92343960Y-106111815D01*
X92298205Y-106059011D01*
X92286999Y-106007500D01*
X92286999Y-105942636D01*
X92271546Y-105825246D01*
X92271544Y-105825241D01*
X92271544Y-105825238D01*
X92211036Y-105679159D01*
X92114782Y-105553718D01*
X91989341Y-105457464D01*
X91943910Y-105438646D01*
X91843262Y-105396956D01*
X91843260Y-105396955D01*
X91725870Y-105381501D01*
X91725867Y-105381500D01*
X91725861Y-105381500D01*
X91117995Y-105381500D01*
X91117993Y-105381500D01*
X90980007Y-105381500D01*
X90980004Y-105381500D01*
X90372136Y-105381500D01*
X90254746Y-105396953D01*
X90254737Y-105396956D01*
X90108660Y-105457463D01*
X89983218Y-105553718D01*
X89886963Y-105679160D01*
X89832310Y-105811104D01*
X89788469Y-105865507D01*
X89722174Y-105887572D01*
X89654475Y-105870293D01*
X89630068Y-105851332D01*
X89028819Y-105250083D01*
X88995334Y-105188760D01*
X88992500Y-105162402D01*
X88992500Y-102955811D01*
X89012185Y-102888772D01*
X89064989Y-102843017D01*
X89134147Y-102833073D01*
X89158905Y-102839287D01*
X90387431Y-103286434D01*
X90445638Y-103300800D01*
X90445640Y-103300799D01*
X90445641Y-103300800D01*
X90531988Y-103300115D01*
X90589556Y-103299659D01*
X90727322Y-103258017D01*
X90847776Y-103179249D01*
X90941159Y-103069735D01*
X90967569Y-103015912D01*
X91326048Y-102030993D01*
X91367472Y-101974733D01*
X91406684Y-101954713D01*
X91475273Y-101933982D01*
X91595728Y-101855215D01*
X91689110Y-101745701D01*
X91715521Y-101691878D01*
X91987680Y-100944122D01*
X91987682Y-100944117D01*
X92002047Y-100885914D01*
X92001833Y-100858942D01*
X92001630Y-100833422D01*
X92020781Y-100766231D01*
X92031260Y-100751997D01*
X92065333Y-100712039D01*
X92091744Y-100658216D01*
X92349730Y-99949401D01*
X92363905Y-99910455D01*
X92373113Y-99873148D01*
X92408288Y-99812778D01*
X92470517Y-99781009D01*
X92540043Y-99787928D01*
X92594793Y-99831336D01*
X92617382Y-99897453D01*
X92617500Y-99902861D01*
X92617500Y-100512234D01*
X92597815Y-100579273D01*
X92596602Y-100581125D01*
X92508609Y-100712814D01*
X92508602Y-100712827D01*
X92448264Y-100858498D01*
X92448261Y-100858510D01*
X92417500Y-101013153D01*
X92417500Y-101170846D01*
X92448261Y-101325489D01*
X92448264Y-101325501D01*
X92508602Y-101471172D01*
X92508609Y-101471185D01*
X92596210Y-101602288D01*
X92596213Y-101602292D01*
X92707707Y-101713786D01*
X92707711Y-101713789D01*
X92838814Y-101801390D01*
X92838827Y-101801397D01*
X92968757Y-101855215D01*
X92984503Y-101861737D01*
X93139153Y-101892499D01*
X93139156Y-101892500D01*
X93139158Y-101892500D01*
X93296844Y-101892500D01*
X93296845Y-101892499D01*
X93451497Y-101861737D01*
X93597179Y-101801394D01*
X93728289Y-101713789D01*
X93839789Y-101602289D01*
X93927394Y-101471179D01*
X93987737Y-101325497D01*
X94018500Y-101170842D01*
X94018500Y-101013158D01*
X94018500Y-101013155D01*
X94018499Y-101013153D01*
X93987737Y-100858503D01*
X93981425Y-100843265D01*
X93927397Y-100712827D01*
X93927390Y-100712814D01*
X93839398Y-100581125D01*
X93818520Y-100514447D01*
X93818500Y-100512234D01*
X93818500Y-99149060D01*
X93818501Y-99149047D01*
X93818501Y-98980944D01*
X93815764Y-98970729D01*
X93777577Y-98828216D01*
X93777573Y-98828209D01*
X93698524Y-98691290D01*
X93698518Y-98691282D01*
X93423977Y-98416741D01*
X93101230Y-98093995D01*
X93067746Y-98032673D01*
X93072389Y-97963906D01*
X93116347Y-97843136D01*
X93130714Y-97784928D01*
X93130297Y-97732434D01*
X93149448Y-97665243D01*
X93159927Y-97651009D01*
X93193999Y-97611053D01*
X93220410Y-97557230D01*
X93492569Y-96809474D01*
X93492571Y-96809469D01*
X93506936Y-96751266D01*
X93506878Y-96744000D01*
X93506519Y-96698772D01*
X93525670Y-96631581D01*
X93536149Y-96617347D01*
X93570221Y-96577391D01*
X93596632Y-96523568D01*
X93868791Y-95775812D01*
X93868793Y-95775807D01*
X93883158Y-95717604D01*
X93882741Y-95665112D01*
X93901892Y-95597921D01*
X93912371Y-95583687D01*
X93946443Y-95543731D01*
X93972854Y-95489908D01*
X94191306Y-94889713D01*
X104313500Y-94889713D01*
X104313500Y-95102286D01*
X104344212Y-95296198D01*
X104346754Y-95312243D01*
X104408864Y-95503398D01*
X104412444Y-95514414D01*
X104508951Y-95703820D01*
X104633890Y-95875786D01*
X104784213Y-96026109D01*
X104956179Y-96151048D01*
X104956181Y-96151049D01*
X104956184Y-96151051D01*
X105145588Y-96247557D01*
X105347757Y-96313246D01*
X105557713Y-96346500D01*
X105557714Y-96346500D01*
X105770286Y-96346500D01*
X105770287Y-96346500D01*
X105980243Y-96313246D01*
X106182412Y-96247557D01*
X106200392Y-96238396D01*
X107668708Y-96238396D01*
X107685780Y-96247094D01*
X107887871Y-96312757D01*
X108097754Y-96346000D01*
X108310246Y-96346000D01*
X108520127Y-96312757D01*
X108520130Y-96312757D01*
X108722218Y-96247094D01*
X108722220Y-96247093D01*
X108739289Y-96238395D01*
X108739290Y-96238395D01*
X108204001Y-95703106D01*
X108204000Y-95703106D01*
X107668708Y-96238396D01*
X106200392Y-96238396D01*
X106371816Y-96151051D01*
X106448865Y-96095071D01*
X106448867Y-96095071D01*
X106543785Y-96026109D01*
X106543783Y-96026109D01*
X106543792Y-96026104D01*
X106694104Y-95875792D01*
X106694106Y-95875788D01*
X106694109Y-95875786D01*
X106781678Y-95755255D01*
X106819051Y-95703816D01*
X106870138Y-95603551D01*
X106918109Y-95552758D01*
X106947386Y-95545507D01*
X107496894Y-94996000D01*
X107431068Y-94930174D01*
X107704000Y-94930174D01*
X107704000Y-95061826D01*
X107738075Y-95188993D01*
X107803901Y-95303007D01*
X107896993Y-95396099D01*
X108011007Y-95461925D01*
X108138174Y-95496000D01*
X108269826Y-95496000D01*
X108396993Y-95461925D01*
X108511007Y-95396099D01*
X108604099Y-95303007D01*
X108669925Y-95188993D01*
X108704000Y-95061826D01*
X108704000Y-94930174D01*
X108669925Y-94803007D01*
X108604099Y-94688993D01*
X108511007Y-94595901D01*
X108396993Y-94530075D01*
X108269826Y-94496000D01*
X108138174Y-94496000D01*
X108011007Y-94530075D01*
X107896993Y-94595901D01*
X107803901Y-94688993D01*
X107738075Y-94803007D01*
X107704000Y-94930174D01*
X107431068Y-94930174D01*
X106948912Y-94448018D01*
X106930725Y-94445668D01*
X106877273Y-94400672D01*
X106870136Y-94388445D01*
X106819051Y-94288184D01*
X106819049Y-94288181D01*
X106819048Y-94288179D01*
X106694109Y-94116213D01*
X106543786Y-93965890D01*
X106371820Y-93840951D01*
X106182414Y-93744444D01*
X106182413Y-93744443D01*
X106182412Y-93744443D01*
X105980243Y-93678754D01*
X105980241Y-93678753D01*
X105980240Y-93678753D01*
X105818957Y-93653208D01*
X105770287Y-93645500D01*
X105557713Y-93645500D01*
X105509042Y-93653208D01*
X105347760Y-93678753D01*
X105145585Y-93744444D01*
X104956179Y-93840951D01*
X104784213Y-93965890D01*
X104633890Y-94116213D01*
X104508951Y-94288179D01*
X104412444Y-94477585D01*
X104412443Y-94477587D01*
X104412443Y-94477588D01*
X104388912Y-94550008D01*
X104346753Y-94679760D01*
X104313500Y-94889713D01*
X94191306Y-94889713D01*
X94245013Y-94742152D01*
X94245015Y-94742147D01*
X94259380Y-94683944D01*
X94259347Y-94679757D01*
X94258963Y-94631449D01*
X94278114Y-94564258D01*
X94288593Y-94550024D01*
X94322665Y-94510068D01*
X94349076Y-94456245D01*
X94607981Y-93744904D01*
X94621237Y-93708484D01*
X94635602Y-93650281D01*
X94634461Y-93506368D01*
X94634461Y-93506364D01*
X94592818Y-93368598D01*
X94514051Y-93248143D01*
X94404537Y-93154761D01*
X94350723Y-93128355D01*
X94350718Y-93128353D01*
X94350714Y-93128351D01*
X93852365Y-92946967D01*
X92616276Y-92497067D01*
X92558072Y-92482702D01*
X92414160Y-92483843D01*
X92414155Y-92483844D01*
X92276390Y-92525487D01*
X92155936Y-92604252D01*
X92155934Y-92604255D01*
X92062552Y-92713768D01*
X92036144Y-92767587D01*
X92036139Y-92767598D01*
X91763980Y-93515351D01*
X91749615Y-93573555D01*
X91750031Y-93626049D01*
X91730878Y-93693243D01*
X91720391Y-93707485D01*
X91686332Y-93747429D01*
X91686331Y-93747430D01*
X91686331Y-93747431D01*
X91666201Y-93788455D01*
X91659922Y-93801250D01*
X91659919Y-93801255D01*
X91585987Y-94004383D01*
X91566420Y-94030957D01*
X91547743Y-94058141D01*
X91545597Y-94059237D01*
X91544560Y-94060647D01*
X91517478Y-94076299D01*
X91509692Y-94079568D01*
X91485676Y-94086004D01*
X91469255Y-94095485D01*
X91462488Y-94099391D01*
X91462478Y-94099396D01*
X91348751Y-94165056D01*
X91348743Y-94165062D01*
X87911479Y-97602326D01*
X87900380Y-97621552D01*
X87883090Y-97651500D01*
X87865992Y-97681115D01*
X87836361Y-97732437D01*
X87832423Y-97739257D01*
X87791499Y-97891985D01*
X87791499Y-97891987D01*
X87791499Y-98060088D01*
X87791500Y-98060101D01*
X87791500Y-105375829D01*
X87791499Y-105375847D01*
X87791499Y-105541553D01*
X87791498Y-105541553D01*
X87832423Y-105694285D01*
X87843391Y-105713280D01*
X87843392Y-105713285D01*
X87843393Y-105713285D01*
X87911475Y-105831208D01*
X87911481Y-105831216D01*
X88030349Y-105950084D01*
X88030355Y-105950089D01*
X89786595Y-107706329D01*
X89820080Y-107767652D01*
X89821853Y-107810194D01*
X89811000Y-107892636D01*
X89811000Y-108171363D01*
X89826453Y-108288753D01*
X89826457Y-108288765D01*
X89835066Y-108309550D01*
X89842533Y-108379019D01*
X89835066Y-108404450D01*
X89826457Y-108425234D01*
X89826455Y-108425239D01*
X89811000Y-108542638D01*
X89811000Y-108821363D01*
X89826453Y-108938753D01*
X89826457Y-108938765D01*
X89835066Y-108959550D01*
X89842533Y-109029019D01*
X89835066Y-109054450D01*
X89826457Y-109075234D01*
X89826455Y-109075239D01*
X89811000Y-109192638D01*
X89811000Y-109471363D01*
X89826453Y-109588753D01*
X89826457Y-109588765D01*
X89835066Y-109609550D01*
X89842533Y-109679019D01*
X89835066Y-109704450D01*
X89826457Y-109725234D01*
X89826455Y-109725239D01*
X89811000Y-109842638D01*
X89811000Y-110121363D01*
X89826453Y-110238753D01*
X89826456Y-110238762D01*
X89868173Y-110339477D01*
X89886964Y-110384841D01*
X89937233Y-110450353D01*
X89983219Y-110510283D01*
X90030231Y-110546356D01*
X90071434Y-110602784D01*
X90075589Y-110672530D01*
X90041377Y-110733450D01*
X89979659Y-110766203D01*
X89954745Y-110768732D01*
X85559316Y-110768732D01*
X85492277Y-110749047D01*
X85446522Y-110696243D01*
X85442794Y-110687143D01*
X85428067Y-110646682D01*
X85354742Y-110445223D01*
X85309719Y-110352225D01*
X85309716Y-110352221D01*
X85309716Y-110352220D01*
X85250700Y-110277583D01*
X85200903Y-110214605D01*
X85200898Y-110214601D01*
X85063286Y-110105789D01*
X84904277Y-110031642D01*
X84726186Y-109994871D01*
X84664512Y-109962037D01*
X84630380Y-109901072D01*
X84634626Y-109831331D01*
X84638868Y-109821050D01*
X84721841Y-109643115D01*
X84780434Y-109438776D01*
X84806340Y-109227788D01*
X84798922Y-109015344D01*
X84758361Y-108806676D01*
X84685657Y-108606922D01*
X84582599Y-108421002D01*
X84582597Y-108420999D01*
X84582595Y-108420996D01*
X84451730Y-108253497D01*
X84451729Y-108253496D01*
X84451726Y-108253492D01*
X84296260Y-108108517D01*
X84296256Y-108108514D01*
X84120035Y-107989650D01*
X84120026Y-107989645D01*
X83927374Y-107899810D01*
X83845636Y-107876372D01*
X83723033Y-107841217D01*
X83512045Y-107815311D01*
X83512041Y-107815311D01*
X83512040Y-107815311D01*
X83299606Y-107822728D01*
X83299602Y-107822728D01*
X83299601Y-107822729D01*
X83217777Y-107838634D01*
X83090937Y-107863289D01*
X83090934Y-107863289D01*
X83090933Y-107863290D01*
X83090929Y-107863291D01*
X83090927Y-107863292D01*
X82609274Y-108038598D01*
X82609273Y-108038598D01*
X82423350Y-108141658D01*
X82423345Y-108141661D01*
X82255846Y-108272526D01*
X82255841Y-108272531D01*
X82110863Y-108428000D01*
X81991999Y-108604221D01*
X81991997Y-108604225D01*
X81902157Y-108796886D01*
X81843566Y-109001224D01*
X81843565Y-109001228D01*
X81837000Y-109054699D01*
X81817782Y-109211223D01*
X81817660Y-109212215D01*
X80270454Y-109212215D01*
X80200840Y-108958083D01*
X80200354Y-108956252D01*
X80081845Y-108493409D01*
X80081357Y-108491432D01*
X79970619Y-108026753D01*
X79970192Y-108024893D01*
X79867197Y-107558262D01*
X79866805Y-107556410D01*
X79771655Y-107088290D01*
X79771263Y-107086275D01*
X79753134Y-106988765D01*
X79683961Y-106616694D01*
X79683599Y-106614654D01*
X79660301Y-106476534D01*
X79604133Y-106143547D01*
X79603830Y-106141655D01*
X79532259Y-105669359D01*
X79531972Y-105667356D01*
X79468292Y-105193856D01*
X79468054Y-105191971D01*
X79412291Y-104717428D01*
X79412073Y-104715420D01*
X79407708Y-104672028D01*
X79364258Y-104240119D01*
X79364086Y-104238249D01*
X79324209Y-103762106D01*
X79324068Y-103760243D01*
X79292152Y-103283458D01*
X79292042Y-103281585D01*
X79268103Y-102804461D01*
X79268017Y-102802414D01*
X79262078Y-102624776D01*
X79252053Y-102324933D01*
X79252006Y-102323043D01*
X79244020Y-101845238D01*
X79244004Y-101843438D01*
X79243916Y-101801390D01*
X79243505Y-101604495D01*
X79244004Y-101365537D01*
X79244021Y-101363738D01*
X79245661Y-101265613D01*
X79252007Y-100885914D01*
X79252053Y-100884059D01*
X79268018Y-100406544D01*
X79268104Y-100404505D01*
X79283381Y-100100028D01*
X79292043Y-99927397D01*
X79292151Y-99925538D01*
X79324069Y-99448737D01*
X79324208Y-99446892D01*
X79345568Y-99191847D01*
X80286750Y-99191847D01*
X80287891Y-99335761D01*
X80287892Y-99335766D01*
X80329534Y-99473528D01*
X80329535Y-99473531D01*
X80408300Y-99593984D01*
X80408301Y-99593984D01*
X80408302Y-99593986D01*
X80517816Y-99687368D01*
X80571639Y-99713779D01*
X81601303Y-100088545D01*
X81659511Y-100102911D01*
X81659512Y-100102910D01*
X81663670Y-100103937D01*
X81688583Y-100113005D01*
X81692431Y-100114893D01*
X81692432Y-100114894D01*
X81746255Y-100141305D01*
X83245766Y-100687081D01*
X83303973Y-100701447D01*
X83303975Y-100701446D01*
X83303976Y-100701447D01*
X83357942Y-100701019D01*
X83447891Y-100700306D01*
X83585657Y-100658663D01*
X83706111Y-100579896D01*
X83799494Y-100470382D01*
X83825904Y-100416559D01*
X84113407Y-99626649D01*
X84132268Y-99574829D01*
X84140828Y-99540141D01*
X84146633Y-99516626D01*
X84145491Y-99372709D01*
X84103849Y-99234943D01*
X84040661Y-99138314D01*
X84020447Y-99071435D01*
X84039599Y-99004242D01*
X84092039Y-98958070D01*
X84161116Y-98947578D01*
X84186852Y-98953929D01*
X85841245Y-99556080D01*
X85841245Y-99556079D01*
X85846962Y-99540374D01*
X87898556Y-93903664D01*
X88719847Y-91647186D01*
X92450756Y-91647186D01*
X92451898Y-91791096D01*
X92451899Y-91791104D01*
X92493540Y-91928866D01*
X92493540Y-91928867D01*
X92497865Y-91935481D01*
X92572309Y-92049322D01*
X92681822Y-92142705D01*
X92735645Y-92169115D01*
X94235156Y-92714891D01*
X94293363Y-92729258D01*
X94293364Y-92729257D01*
X94293365Y-92729258D01*
X94329342Y-92728972D01*
X94437281Y-92728116D01*
X94575047Y-92686474D01*
X94695501Y-92607706D01*
X94788884Y-92498193D01*
X94815294Y-92444370D01*
X95361070Y-90944859D01*
X95375437Y-90886652D01*
X95375222Y-90859498D01*
X98943011Y-90859498D01*
X99136588Y-90922395D01*
X99338683Y-90954405D01*
X99543317Y-90954405D01*
X99745411Y-90922395D01*
X99938987Y-90859498D01*
X99441001Y-90361511D01*
X99441000Y-90361511D01*
X98943011Y-90859498D01*
X95375222Y-90859498D01*
X95374924Y-90821904D01*
X95374295Y-90742739D01*
X95374295Y-90742734D01*
X95332653Y-90604968D01*
X95253885Y-90484514D01*
X95252590Y-90483410D01*
X95214661Y-90451067D01*
X95144372Y-90391131D01*
X95126925Y-90382570D01*
X95090558Y-90364725D01*
X95090553Y-90364723D01*
X95090549Y-90364721D01*
X93591038Y-89818945D01*
X93549932Y-89808799D01*
X93532828Y-89804577D01*
X93388918Y-89805719D01*
X93388910Y-89805720D01*
X93251148Y-89847361D01*
X93251147Y-89847361D01*
X93130695Y-89926128D01*
X93130691Y-89926131D01*
X93037310Y-90035643D01*
X93037308Y-90035646D01*
X93010904Y-90089456D01*
X93010898Y-90089471D01*
X92955912Y-90240544D01*
X92493805Y-91510178D01*
X92465124Y-91588978D01*
X92450756Y-91647186D01*
X88719847Y-91647186D01*
X88737749Y-91598000D01*
X88737749Y-91597999D01*
X88748416Y-91568692D01*
X86869031Y-90884652D01*
X83953138Y-98896001D01*
X83911712Y-98952264D01*
X83846443Y-98977200D01*
X83794206Y-98970112D01*
X82759132Y-98593377D01*
X82702868Y-98551951D01*
X82677932Y-98486682D01*
X82685020Y-98434446D01*
X82710116Y-98365498D01*
X82724483Y-98307290D01*
X82723342Y-98163372D01*
X82681699Y-98025607D01*
X82623043Y-97935907D01*
X82602933Y-97905153D01*
X82602932Y-97905152D01*
X82493418Y-97811770D01*
X82493417Y-97811769D01*
X82466159Y-97798394D01*
X82439595Y-97785359D01*
X82371831Y-97760695D01*
X81409940Y-97410596D01*
X81409933Y-97410593D01*
X81370441Y-97400846D01*
X81351723Y-97396227D01*
X81351722Y-97396227D01*
X81351718Y-97396226D01*
X81207810Y-97397367D01*
X81207805Y-97397368D01*
X81070040Y-97439011D01*
X80949587Y-97517776D01*
X80949585Y-97517779D01*
X80856202Y-97627292D01*
X80856201Y-97627295D01*
X80829797Y-97681105D01*
X80829791Y-97681120D01*
X80301115Y-99133644D01*
X80286750Y-99191847D01*
X79345568Y-99191847D01*
X79364086Y-98970729D01*
X79364257Y-98968881D01*
X79412080Y-98493500D01*
X79412289Y-98491573D01*
X79468056Y-98017003D01*
X79468290Y-98015147D01*
X79531980Y-97541573D01*
X79532256Y-97539648D01*
X79603833Y-97067314D01*
X79604130Y-97065460D01*
X79683602Y-96594317D01*
X79683961Y-96592295D01*
X79729658Y-96346499D01*
X79771270Y-96122675D01*
X79771659Y-96120680D01*
X79776864Y-96095072D01*
X79866810Y-95652554D01*
X79867192Y-95650751D01*
X79970197Y-95184070D01*
X79970612Y-95182262D01*
X80081372Y-94717495D01*
X80081838Y-94715608D01*
X80095190Y-94663461D01*
X81024109Y-94663461D01*
X81024110Y-94663461D01*
X81024110Y-94663462D01*
X82762541Y-95296199D01*
X83617592Y-92946967D01*
X83617591Y-92946966D01*
X81879160Y-92314229D01*
X81879159Y-92314230D01*
X81024109Y-94663461D01*
X80095190Y-94663461D01*
X80200362Y-94252708D01*
X80200831Y-94250936D01*
X80327072Y-93790082D01*
X80327581Y-93788284D01*
X80461502Y-93329614D01*
X80462045Y-93327810D01*
X80603637Y-92871358D01*
X80604184Y-92869648D01*
X80753342Y-92415755D01*
X80753991Y-92413834D01*
X80910692Y-91962553D01*
X80911341Y-91960734D01*
X81075573Y-91512103D01*
X81076298Y-91510178D01*
X81247941Y-91064516D01*
X81248673Y-91062658D01*
X81427841Y-90619675D01*
X81428569Y-90617918D01*
X81615107Y-90178008D01*
X81615867Y-90176258D01*
X81809697Y-89739599D01*
X81810537Y-89737751D01*
X81849215Y-89654404D01*
X81896695Y-89552087D01*
X98141000Y-89552087D01*
X98141000Y-89756722D01*
X98173010Y-89958823D01*
X98173010Y-89958826D01*
X98235904Y-90152392D01*
X98235905Y-90152392D01*
X98733893Y-89654405D01*
X98681232Y-89601744D01*
X99041000Y-89601744D01*
X99041000Y-89707066D01*
X99068259Y-89808799D01*
X99120920Y-89900011D01*
X99195394Y-89974485D01*
X99286606Y-90027146D01*
X99388339Y-90054405D01*
X99493661Y-90054405D01*
X99595394Y-90027146D01*
X99686606Y-89974485D01*
X99761080Y-89900011D01*
X99813741Y-89808799D01*
X99841000Y-89707066D01*
X99841000Y-89654404D01*
X100148106Y-89654404D01*
X100148106Y-89654405D01*
X100646093Y-90152391D01*
X100666031Y-90147605D01*
X100735814Y-90151096D01*
X100792632Y-90191759D01*
X100805463Y-90211883D01*
X100868713Y-90336016D01*
X100989028Y-90501618D01*
X101133786Y-90646376D01*
X101266410Y-90742731D01*
X101299390Y-90766692D01*
X101415607Y-90825908D01*
X101481776Y-90859623D01*
X101481778Y-90859623D01*
X101481781Y-90859625D01*
X101564962Y-90886652D01*
X101676465Y-90922882D01*
X101777557Y-90938893D01*
X101878648Y-90954905D01*
X101878649Y-90954905D01*
X102083351Y-90954905D01*
X102083352Y-90954905D01*
X102285534Y-90922882D01*
X102480219Y-90859625D01*
X102662610Y-90766692D01*
X102777663Y-90683102D01*
X102828213Y-90646376D01*
X102828215Y-90646373D01*
X102828219Y-90646371D01*
X102972966Y-90501624D01*
X102972968Y-90501620D01*
X102972971Y-90501618D01*
X103093284Y-90336019D01*
X103093286Y-90336016D01*
X103093287Y-90336015D01*
X103140516Y-90243322D01*
X103188489Y-90192528D01*
X103256310Y-90175733D01*
X103322445Y-90198270D01*
X103361485Y-90243324D01*
X103408715Y-90336019D01*
X103529028Y-90501618D01*
X103673786Y-90646376D01*
X103806410Y-90742731D01*
X103839390Y-90766692D01*
X103955607Y-90825908D01*
X104021776Y-90859623D01*
X104021778Y-90859623D01*
X104021781Y-90859625D01*
X104104962Y-90886652D01*
X104216465Y-90922882D01*
X104317557Y-90938893D01*
X104418648Y-90954905D01*
X104418649Y-90954905D01*
X104623350Y-90954905D01*
X104623352Y-90954905D01*
X104745964Y-90935484D01*
X104815253Y-90944438D01*
X104853040Y-90970276D01*
X107180284Y-93297520D01*
X107180286Y-93297521D01*
X107180290Y-93297524D01*
X107303396Y-93368598D01*
X107317216Y-93376577D01*
X107469943Y-93417501D01*
X107469945Y-93417501D01*
X107635654Y-93417501D01*
X107635670Y-93417500D01*
X107964879Y-93417500D01*
X108031918Y-93437185D01*
X108077673Y-93489989D01*
X108087617Y-93559147D01*
X108058592Y-93622703D01*
X107999814Y-93660477D01*
X107984277Y-93663973D01*
X107887872Y-93679242D01*
X107887869Y-93679242D01*
X107685783Y-93744904D01*
X107668709Y-93753603D01*
X108204000Y-94288894D01*
X108204001Y-94288894D01*
X108739290Y-93753603D01*
X108739289Y-93753602D01*
X108722225Y-93744908D01*
X108722213Y-93744903D01*
X108520128Y-93679242D01*
X108423723Y-93663973D01*
X108360588Y-93634044D01*
X108323657Y-93574732D01*
X108324655Y-93504870D01*
X108363265Y-93446637D01*
X108427229Y-93418523D01*
X108443121Y-93417500D01*
X109727705Y-93417500D01*
X109794744Y-93437185D01*
X109840499Y-93489989D01*
X109850443Y-93559147D01*
X109821418Y-93622703D01*
X109771038Y-93657682D01*
X109651671Y-93702202D01*
X109651664Y-93702206D01*
X109536455Y-93788452D01*
X109536452Y-93788455D01*
X109450206Y-93903664D01*
X109450202Y-93903671D01*
X109399908Y-94038517D01*
X109394803Y-94086004D01*
X109393501Y-94098123D01*
X109393500Y-94098135D01*
X109393500Y-94462243D01*
X109373815Y-94529282D01*
X109357181Y-94549924D01*
X108911106Y-94995999D01*
X108911106Y-94996000D01*
X109357181Y-95442075D01*
X109390666Y-95503398D01*
X109393500Y-95529756D01*
X109393500Y-95893869D01*
X109393501Y-95893876D01*
X109399908Y-95953483D01*
X109450202Y-96088328D01*
X109450206Y-96088335D01*
X109536452Y-96203544D01*
X109536455Y-96203547D01*
X109651664Y-96289793D01*
X109651671Y-96289797D01*
X109696618Y-96306561D01*
X109786517Y-96340091D01*
X109846127Y-96346500D01*
X110019500Y-96346499D01*
X110086539Y-96366183D01*
X110132294Y-96418987D01*
X110143500Y-96470499D01*
X110143500Y-103799330D01*
X110143499Y-103799348D01*
X110143499Y-103965054D01*
X110143498Y-103965054D01*
X110184423Y-104117785D01*
X110213358Y-104167900D01*
X110213359Y-104167904D01*
X110213360Y-104167904D01*
X110252838Y-104236284D01*
X110263479Y-104254714D01*
X110263481Y-104254717D01*
X110382349Y-104373585D01*
X110382355Y-104373590D01*
X114275921Y-108267157D01*
X114309406Y-108328480D01*
X114306173Y-108393149D01*
X114301523Y-108407460D01*
X114301523Y-108407462D01*
X114280113Y-108542639D01*
X114269500Y-108609648D01*
X114269500Y-108814352D01*
X114271603Y-108827632D01*
X114301522Y-109016534D01*
X114364781Y-109211223D01*
X114457715Y-109393613D01*
X114578028Y-109559213D01*
X114722786Y-109703971D01*
X114869990Y-109810919D01*
X114888390Y-109824287D01*
X114976452Y-109869157D01*
X114981080Y-109871515D01*
X115031876Y-109919490D01*
X115048671Y-109987311D01*
X115026134Y-110053446D01*
X114981080Y-110092485D01*
X114888386Y-110139715D01*
X114722786Y-110260028D01*
X114578028Y-110404786D01*
X114457715Y-110570386D01*
X114364781Y-110752776D01*
X114301522Y-110947465D01*
X114269500Y-111149648D01*
X114269500Y-111354351D01*
X114301522Y-111556534D01*
X114364781Y-111751223D01*
X114457715Y-111933613D01*
X114578028Y-112099213D01*
X114722786Y-112243971D01*
X114877749Y-112356556D01*
X114888390Y-112364287D01*
X114979730Y-112410827D01*
X114981080Y-112411515D01*
X115031876Y-112459490D01*
X115048671Y-112527311D01*
X115026134Y-112593446D01*
X114981080Y-112632485D01*
X114888386Y-112679715D01*
X114722786Y-112800028D01*
X114578028Y-112944786D01*
X114457715Y-113110386D01*
X114364781Y-113292776D01*
X114301522Y-113487465D01*
X114269500Y-113689648D01*
X114269500Y-113894351D01*
X114301522Y-114096534D01*
X114364781Y-114291223D01*
X114457715Y-114473613D01*
X114578028Y-114639213D01*
X114722786Y-114783971D01*
X114877749Y-114896556D01*
X114888390Y-114904287D01*
X114979840Y-114950883D01*
X114981080Y-114951515D01*
X115031876Y-114999490D01*
X115048671Y-115067311D01*
X115026134Y-115133446D01*
X114981080Y-115172485D01*
X114888386Y-115219715D01*
X114722786Y-115340028D01*
X114578028Y-115484786D01*
X114457715Y-115650386D01*
X114364781Y-115832776D01*
X114301522Y-116027465D01*
X114269500Y-116229648D01*
X114269500Y-116434352D01*
X114270523Y-116440812D01*
X114301522Y-116636534D01*
X114364781Y-116831223D01*
X114457715Y-117013613D01*
X114578028Y-117179213D01*
X114722786Y-117323971D01*
X114877749Y-117436556D01*
X114888390Y-117444287D01*
X114979840Y-117490883D01*
X114981080Y-117491515D01*
X115031876Y-117539490D01*
X115048671Y-117607311D01*
X115026134Y-117673446D01*
X114981080Y-117712485D01*
X114888386Y-117759715D01*
X114722786Y-117880028D01*
X114578028Y-118024786D01*
X114457715Y-118190386D01*
X114364781Y-118372776D01*
X114301522Y-118567465D01*
X114269500Y-118769648D01*
X114269500Y-118974351D01*
X114301522Y-119176534D01*
X114364781Y-119371223D01*
X114421014Y-119481585D01*
X114457582Y-119553353D01*
X114457715Y-119553613D01*
X114578028Y-119719213D01*
X114722786Y-119863971D01*
X114846542Y-119953883D01*
X114888390Y-119984287D01*
X114979840Y-120030883D01*
X114981080Y-120031515D01*
X115031876Y-120079490D01*
X115048671Y-120147311D01*
X115026134Y-120213446D01*
X114981080Y-120252485D01*
X114888386Y-120299715D01*
X114722786Y-120420028D01*
X114578028Y-120564786D01*
X114457715Y-120730386D01*
X114364781Y-120912776D01*
X114301522Y-121107465D01*
X114269500Y-121309648D01*
X114269500Y-121514351D01*
X114301522Y-121716534D01*
X114364781Y-121911223D01*
X114428691Y-122036653D01*
X114446474Y-122071553D01*
X114457715Y-122093613D01*
X114578028Y-122259213D01*
X114722786Y-122403971D01*
X114877749Y-122516556D01*
X114888390Y-122524287D01*
X114979840Y-122570883D01*
X114981080Y-122571515D01*
X115031876Y-122619490D01*
X115048671Y-122687311D01*
X115026134Y-122753446D01*
X114981080Y-122792485D01*
X114888386Y-122839715D01*
X114722786Y-122960028D01*
X114578028Y-123104786D01*
X114457715Y-123270386D01*
X114364781Y-123452776D01*
X114301522Y-123647465D01*
X114269500Y-123849648D01*
X114269500Y-124054351D01*
X114301522Y-124256534D01*
X114364781Y-124451223D01*
X114457715Y-124633613D01*
X114578028Y-124799213D01*
X114722784Y-124943969D01*
X114759068Y-124970330D01*
X114801735Y-125025659D01*
X114807715Y-125095273D01*
X114775109Y-125157068D01*
X114714271Y-125191426D01*
X114699440Y-125193938D01*
X114662519Y-125197907D01*
X114527671Y-125248202D01*
X114527664Y-125248206D01*
X114412455Y-125334452D01*
X114412452Y-125334455D01*
X114326206Y-125449664D01*
X114326202Y-125449671D01*
X114275908Y-125584517D01*
X114269501Y-125644116D01*
X114269501Y-125644123D01*
X114269500Y-125644135D01*
X114269500Y-127339870D01*
X114269501Y-127339876D01*
X114275908Y-127399483D01*
X114326202Y-127534328D01*
X114326206Y-127534335D01*
X114412452Y-127649544D01*
X114412455Y-127649547D01*
X114527664Y-127735793D01*
X114527671Y-127735797D01*
X114662517Y-127786091D01*
X114662516Y-127786091D01*
X114669444Y-127786835D01*
X114722127Y-127792500D01*
X116417872Y-127792499D01*
X116477483Y-127786091D01*
X116612331Y-127735796D01*
X116727546Y-127649546D01*
X116813796Y-127534331D01*
X116864091Y-127399483D01*
X116870500Y-127339873D01*
X116870499Y-125644128D01*
X116864091Y-125584517D01*
X116813796Y-125449669D01*
X116813795Y-125449668D01*
X116813793Y-125449664D01*
X116727547Y-125334455D01*
X116727544Y-125334452D01*
X116612335Y-125248206D01*
X116612328Y-125248202D01*
X116477482Y-125197908D01*
X116477483Y-125197908D01*
X116440560Y-125193939D01*
X116376009Y-125167201D01*
X116336160Y-125109809D01*
X116333667Y-125039984D01*
X116369319Y-124979895D01*
X116380930Y-124970331D01*
X116417219Y-124943966D01*
X116561966Y-124799219D01*
X116561968Y-124799215D01*
X116561971Y-124799213D01*
X116614732Y-124726590D01*
X116682287Y-124633610D01*
X116775220Y-124451219D01*
X116838477Y-124256534D01*
X116870500Y-124054352D01*
X116870500Y-123849648D01*
X116838477Y-123647466D01*
X116825045Y-123606128D01*
X116775218Y-123452776D01*
X116733892Y-123371671D01*
X116682287Y-123270390D01*
X116674556Y-123259749D01*
X116561971Y-123104786D01*
X116417213Y-122960028D01*
X116251614Y-122839715D01*
X116245006Y-122836348D01*
X116158917Y-122792483D01*
X116108123Y-122744511D01*
X116091328Y-122676690D01*
X116113865Y-122610555D01*
X116158917Y-122571516D01*
X116251610Y-122524287D01*
X116272770Y-122508913D01*
X116417213Y-122403971D01*
X116417215Y-122403968D01*
X116417219Y-122403966D01*
X116561966Y-122259219D01*
X116561968Y-122259215D01*
X116561971Y-122259213D01*
X116614732Y-122186590D01*
X116682287Y-122093610D01*
X116775220Y-121911219D01*
X116838477Y-121716534D01*
X116870500Y-121514352D01*
X116870500Y-121309648D01*
X116838477Y-121107466D01*
X116775220Y-120912781D01*
X116775218Y-120912778D01*
X116775218Y-120912776D01*
X116741503Y-120846607D01*
X116682287Y-120730390D01*
X116646678Y-120681378D01*
X116561971Y-120564786D01*
X116417213Y-120420028D01*
X116251614Y-120299715D01*
X116245006Y-120296348D01*
X116158917Y-120252483D01*
X116108123Y-120204511D01*
X116091328Y-120136690D01*
X116113865Y-120070555D01*
X116158917Y-120031516D01*
X116251610Y-119984287D01*
X116293458Y-119953883D01*
X116376276Y-119893713D01*
X123649500Y-119893713D01*
X123649500Y-120106286D01*
X123682753Y-120316239D01*
X123748444Y-120518414D01*
X123844951Y-120707820D01*
X123969890Y-120879786D01*
X124120213Y-121030109D01*
X124292179Y-121155048D01*
X124292181Y-121155049D01*
X124292184Y-121155051D01*
X124481588Y-121251557D01*
X124683757Y-121317246D01*
X124893713Y-121350500D01*
X124893714Y-121350500D01*
X125106286Y-121350500D01*
X125106287Y-121350500D01*
X125316243Y-121317246D01*
X125518412Y-121251557D01*
X125707816Y-121155051D01*
X125773313Y-121107465D01*
X125879786Y-121030109D01*
X125879788Y-121030106D01*
X125879792Y-121030104D01*
X126030104Y-120879792D01*
X126030106Y-120879788D01*
X126030109Y-120879786D01*
X126155048Y-120707820D01*
X126155047Y-120707820D01*
X126155051Y-120707816D01*
X126251557Y-120518412D01*
X126317246Y-120316243D01*
X126350500Y-120106287D01*
X126350500Y-119893713D01*
X126317246Y-119683757D01*
X126251557Y-119481588D01*
X126155051Y-119292184D01*
X126155049Y-119292181D01*
X126155048Y-119292179D01*
X126030109Y-119120213D01*
X125879786Y-118969890D01*
X125707820Y-118844951D01*
X125518414Y-118748444D01*
X125518413Y-118748443D01*
X125518412Y-118748443D01*
X125316243Y-118682754D01*
X125316241Y-118682753D01*
X125316240Y-118682753D01*
X125154957Y-118657208D01*
X125106287Y-118649500D01*
X124893713Y-118649500D01*
X124845042Y-118657208D01*
X124683760Y-118682753D01*
X124481585Y-118748444D01*
X124292179Y-118844951D01*
X124120213Y-118969890D01*
X123969890Y-119120213D01*
X123844951Y-119292179D01*
X123748444Y-119481585D01*
X123682753Y-119683760D01*
X123649500Y-119893713D01*
X116376276Y-119893713D01*
X116417213Y-119863971D01*
X116417215Y-119863968D01*
X116417219Y-119863966D01*
X116561966Y-119719219D01*
X116561968Y-119719215D01*
X116561971Y-119719213D01*
X116660141Y-119584091D01*
X116682287Y-119553610D01*
X116775220Y-119371219D01*
X116838477Y-119176534D01*
X116870500Y-118974352D01*
X116870500Y-118769648D01*
X116851470Y-118649500D01*
X116838477Y-118567465D01*
X116775218Y-118372776D01*
X116701189Y-118227488D01*
X116682287Y-118190390D01*
X116674556Y-118179749D01*
X116561971Y-118024786D01*
X116417213Y-117880028D01*
X116251614Y-117759715D01*
X116245006Y-117756348D01*
X116158917Y-117712483D01*
X116108123Y-117664511D01*
X116091328Y-117596690D01*
X116113865Y-117530555D01*
X116158917Y-117491516D01*
X116251610Y-117444287D01*
X116272770Y-117428913D01*
X116417213Y-117323971D01*
X116417215Y-117323968D01*
X116417219Y-117323966D01*
X116561966Y-117179219D01*
X116561968Y-117179215D01*
X116561971Y-117179213D01*
X116614732Y-117106590D01*
X116682287Y-117013610D01*
X116775220Y-116831219D01*
X116838477Y-116636534D01*
X116870500Y-116434352D01*
X116870500Y-116229648D01*
X116838477Y-116027466D01*
X116833825Y-116013151D01*
X116831832Y-115943312D01*
X116864075Y-115887158D01*
X118625713Y-114125521D01*
X118625716Y-114125520D01*
X118737520Y-114013716D01*
X118737520Y-114013714D01*
X121892520Y-110858716D01*
X121971577Y-110721784D01*
X122012501Y-110569057D01*
X122012501Y-110410942D01*
X122012501Y-110403347D01*
X122012500Y-110403329D01*
X122012500Y-107488096D01*
X122032185Y-107421057D01*
X122048815Y-107400419D01*
X122491157Y-106958076D01*
X122552480Y-106924592D01*
X122617154Y-106927826D01*
X122631466Y-106932477D01*
X122833648Y-106964500D01*
X122833649Y-106964500D01*
X123038351Y-106964500D01*
X123038352Y-106964500D01*
X123240534Y-106932477D01*
X123435219Y-106869220D01*
X123617610Y-106776287D01*
X123710590Y-106708732D01*
X123783213Y-106655971D01*
X123783215Y-106655968D01*
X123783219Y-106655966D01*
X123927966Y-106511219D01*
X123927968Y-106511215D01*
X123927971Y-106511213D01*
X124003685Y-106407000D01*
X124048287Y-106345610D01*
X124141220Y-106163219D01*
X124204477Y-105968534D01*
X124236500Y-105766352D01*
X124236500Y-105561648D01*
X124219999Y-105457464D01*
X124204477Y-105359465D01*
X124165612Y-105239853D01*
X124141220Y-105164781D01*
X124141218Y-105164778D01*
X124141218Y-105164776D01*
X124087685Y-105059713D01*
X124048287Y-104982390D01*
X124035297Y-104964511D01*
X123927971Y-104816786D01*
X123783213Y-104672028D01*
X123617614Y-104551715D01*
X123611006Y-104548348D01*
X123524917Y-104504483D01*
X123474123Y-104456511D01*
X123457328Y-104388690D01*
X123479865Y-104322555D01*
X123524917Y-104283516D01*
X123617610Y-104236287D01*
X123711732Y-104167904D01*
X123783213Y-104115971D01*
X123783215Y-104115968D01*
X123783219Y-104115966D01*
X123927966Y-103971219D01*
X123927968Y-103971215D01*
X123927971Y-103971213D01*
X123980732Y-103898590D01*
X124048287Y-103805610D01*
X124141220Y-103623219D01*
X124204477Y-103428534D01*
X124236500Y-103226352D01*
X124236500Y-103021648D01*
X124204477Y-102819466D01*
X124198936Y-102802414D01*
X124141218Y-102624776D01*
X124087685Y-102519713D01*
X124048287Y-102442390D01*
X124016030Y-102397991D01*
X123927971Y-102276786D01*
X123783213Y-102132028D01*
X123617614Y-102011715D01*
X123611006Y-102008348D01*
X123524917Y-101964483D01*
X123474123Y-101916511D01*
X123457328Y-101848690D01*
X123479865Y-101782555D01*
X123524917Y-101743516D01*
X123617610Y-101696287D01*
X123638770Y-101680913D01*
X123783213Y-101575971D01*
X123783215Y-101575968D01*
X123783219Y-101575966D01*
X123927966Y-101431219D01*
X123927968Y-101431215D01*
X123927971Y-101431213D01*
X124004777Y-101325497D01*
X124048287Y-101265610D01*
X124141220Y-101083219D01*
X124204477Y-100888534D01*
X124236500Y-100686352D01*
X124236500Y-100481648D01*
X124204477Y-100279466D01*
X124203532Y-100276559D01*
X124151004Y-100114894D01*
X124141220Y-100084781D01*
X124141218Y-100084778D01*
X124141218Y-100084776D01*
X124099668Y-100003231D01*
X124048287Y-99902390D01*
X124035297Y-99884511D01*
X123927971Y-99736786D01*
X123783219Y-99592034D01*
X123733732Y-99556080D01*
X123712113Y-99540373D01*
X123669448Y-99485044D01*
X123663469Y-99415431D01*
X123696074Y-99353635D01*
X123748109Y-99321669D01*
X123848864Y-99290272D01*
X123986019Y-99207360D01*
X123986023Y-99207357D01*
X124099357Y-99094023D01*
X124099360Y-99094019D01*
X124182273Y-98956863D01*
X124182275Y-98956859D01*
X124229956Y-98803843D01*
X124236000Y-98737337D01*
X124236000Y-98544000D01*
X121636000Y-98544000D01*
X121636000Y-98737337D01*
X121642043Y-98803843D01*
X121689724Y-98956859D01*
X121689726Y-98956863D01*
X121772639Y-99094019D01*
X121772642Y-99094023D01*
X121885976Y-99207357D01*
X121885980Y-99207360D01*
X122023136Y-99290273D01*
X122023140Y-99290275D01*
X122123890Y-99321670D01*
X122182038Y-99360407D01*
X122210012Y-99424433D01*
X122198930Y-99493418D01*
X122159885Y-99540373D01*
X122088787Y-99592028D01*
X122088782Y-99592032D01*
X121944028Y-99736786D01*
X121823715Y-99902386D01*
X121730781Y-100084776D01*
X121667522Y-100279465D01*
X121637284Y-100470382D01*
X121635500Y-100481648D01*
X121635500Y-100686352D01*
X121637710Y-100700305D01*
X121667522Y-100888534D01*
X121730781Y-101083223D01*
X121787405Y-101194351D01*
X121822171Y-101262584D01*
X121823715Y-101265613D01*
X121944028Y-101431213D01*
X122088786Y-101575971D01*
X122243749Y-101688556D01*
X122254390Y-101696287D01*
X122345840Y-101742883D01*
X122347080Y-101743515D01*
X122397876Y-101791490D01*
X122414671Y-101859311D01*
X122392134Y-101925446D01*
X122347080Y-101964485D01*
X122254386Y-102011715D01*
X122088786Y-102132028D01*
X121944028Y-102276786D01*
X121823715Y-102442386D01*
X121730781Y-102624776D01*
X121667522Y-102819465D01*
X121635500Y-103021648D01*
X121635500Y-103226351D01*
X121667522Y-103428534D01*
X121730781Y-103623223D01*
X121787405Y-103734351D01*
X121820522Y-103799348D01*
X121823715Y-103805613D01*
X121944028Y-103971213D01*
X122088786Y-104115971D01*
X122243749Y-104228556D01*
X122254390Y-104236287D01*
X122345840Y-104282883D01*
X122347080Y-104283515D01*
X122397876Y-104331490D01*
X122414671Y-104399311D01*
X122392134Y-104465446D01*
X122347080Y-104504485D01*
X122254386Y-104551715D01*
X122088786Y-104672028D01*
X121944028Y-104816786D01*
X121823715Y-104982386D01*
X121730781Y-105164776D01*
X121667522Y-105359465D01*
X121635500Y-105561648D01*
X121635500Y-105766351D01*
X121667522Y-105968534D01*
X121672173Y-105982848D01*
X121674165Y-106052690D01*
X121641921Y-106108842D01*
X121043286Y-106707478D01*
X120931481Y-106819282D01*
X120931479Y-106819285D01*
X120884026Y-106901478D01*
X120884025Y-106901479D01*
X120882370Y-106904346D01*
X120852423Y-106956215D01*
X120811499Y-107108943D01*
X120811499Y-107108945D01*
X120811499Y-107277046D01*
X120811500Y-107277059D01*
X120811500Y-110189902D01*
X120791815Y-110256941D01*
X120775181Y-110277583D01*
X119069181Y-111983583D01*
X119007858Y-112017068D01*
X118938166Y-112012084D01*
X118882233Y-111970212D01*
X118857816Y-111904748D01*
X118857500Y-111895902D01*
X118857500Y-97991339D01*
X122536000Y-97991339D01*
X122536000Y-98096661D01*
X122563259Y-98198394D01*
X122615920Y-98289606D01*
X122690394Y-98364080D01*
X122781606Y-98416741D01*
X122883339Y-98444000D01*
X122988661Y-98444000D01*
X123090394Y-98416741D01*
X123181606Y-98364080D01*
X123256080Y-98289606D01*
X123308741Y-98198394D01*
X123336000Y-98096661D01*
X123336000Y-97991339D01*
X123308741Y-97889606D01*
X123256080Y-97798394D01*
X123181606Y-97723920D01*
X123090394Y-97671259D01*
X122988661Y-97644000D01*
X122883339Y-97644000D01*
X122781606Y-97671259D01*
X122690394Y-97723920D01*
X122615920Y-97798394D01*
X122563259Y-97889606D01*
X122536000Y-97991339D01*
X118857500Y-97991339D01*
X118857500Y-97523058D01*
X121636000Y-97523058D01*
X121636000Y-97544000D01*
X122436000Y-97544000D01*
X123436000Y-97544000D01*
X124236000Y-97544000D01*
X124236000Y-97523058D01*
X124235999Y-97523056D01*
X124225450Y-97439074D01*
X124170429Y-97306241D01*
X124118507Y-97239403D01*
X124118496Y-97239390D01*
X123740609Y-96861503D01*
X123740596Y-96861492D01*
X123673758Y-96809570D01*
X123540924Y-96754549D01*
X123456941Y-96744000D01*
X123436000Y-96744000D01*
X123436000Y-97544000D01*
X122436000Y-97544000D01*
X122436000Y-96744000D01*
X122415056Y-96744000D01*
X122331074Y-96754549D01*
X122198241Y-96809570D01*
X122131403Y-96861492D01*
X122131390Y-96861503D01*
X121753503Y-97239390D01*
X121753492Y-97239403D01*
X121701570Y-97306241D01*
X121701570Y-97306242D01*
X121646549Y-97439075D01*
X121636000Y-97523058D01*
X118857500Y-97523058D01*
X118857500Y-93734843D01*
X118852845Y-93717472D01*
X118816577Y-93582115D01*
X118779275Y-93517507D01*
X118774126Y-93508588D01*
X118774124Y-93508583D01*
X118737524Y-93445190D01*
X118737521Y-93445186D01*
X118737520Y-93445184D01*
X118625716Y-93333380D01*
X118625715Y-93333379D01*
X118621385Y-93329049D01*
X118621374Y-93329039D01*
X117346690Y-92054355D01*
X117346688Y-92054352D01*
X117227817Y-91935481D01*
X117227816Y-91935480D01*
X117141004Y-91885360D01*
X117141004Y-91885359D01*
X117141000Y-91885358D01*
X117090885Y-91856423D01*
X116938157Y-91815499D01*
X116780043Y-91815499D01*
X116772447Y-91815499D01*
X116772431Y-91815500D01*
X109539198Y-91815500D01*
X109472159Y-91795815D01*
X109451517Y-91779181D01*
X108178767Y-90506432D01*
X108166196Y-90483410D01*
X108150407Y-90462460D01*
X108149716Y-90453230D01*
X108145282Y-90445109D01*
X108147153Y-90418944D01*
X108145197Y-90392785D01*
X108149754Y-90382570D01*
X108150266Y-90375417D01*
X108157424Y-90359676D01*
X108161319Y-90352486D01*
X108173287Y-90336015D01*
X108221238Y-90241905D01*
X108221976Y-90240544D01*
X108245532Y-90216835D01*
X108268489Y-90192528D01*
X108270072Y-90192135D01*
X108271222Y-90190979D01*
X108303867Y-90183767D01*
X108336310Y-90175733D01*
X108337853Y-90176258D01*
X108339446Y-90175907D01*
X108370808Y-90187489D01*
X108402445Y-90198270D01*
X108403595Y-90199597D01*
X108404989Y-90200112D01*
X108411318Y-90208510D01*
X108441485Y-90243324D01*
X108488715Y-90336019D01*
X108609028Y-90501618D01*
X108753786Y-90646376D01*
X108886410Y-90742731D01*
X108919390Y-90766692D01*
X109035607Y-90825908D01*
X109101776Y-90859623D01*
X109101778Y-90859623D01*
X109101781Y-90859625D01*
X109184962Y-90886652D01*
X109296465Y-90922882D01*
X109397557Y-90938893D01*
X109498648Y-90954905D01*
X109498649Y-90954905D01*
X109703351Y-90954905D01*
X109703352Y-90954905D01*
X109905534Y-90922882D01*
X110100219Y-90859625D01*
X110282610Y-90766692D01*
X110397663Y-90683102D01*
X110448213Y-90646376D01*
X110448215Y-90646373D01*
X110448219Y-90646371D01*
X110592966Y-90501624D01*
X110592968Y-90501620D01*
X110592971Y-90501618D01*
X110713284Y-90336019D01*
X110713286Y-90336016D01*
X110713287Y-90336015D01*
X110760516Y-90243322D01*
X110808489Y-90192528D01*
X110876310Y-90175733D01*
X110942445Y-90198270D01*
X110981485Y-90243324D01*
X111028715Y-90336019D01*
X111149028Y-90501618D01*
X111293786Y-90646376D01*
X111426410Y-90742731D01*
X111459390Y-90766692D01*
X111575607Y-90825908D01*
X111641776Y-90859623D01*
X111641778Y-90859623D01*
X111641781Y-90859625D01*
X111724962Y-90886652D01*
X111836465Y-90922882D01*
X111937557Y-90938893D01*
X112038648Y-90954905D01*
X112038649Y-90954905D01*
X112243351Y-90954905D01*
X112243352Y-90954905D01*
X112445534Y-90922882D01*
X112640219Y-90859625D01*
X112822610Y-90766692D01*
X112937663Y-90683102D01*
X112988213Y-90646376D01*
X112988215Y-90646373D01*
X112988219Y-90646371D01*
X113132966Y-90501624D01*
X113132968Y-90501620D01*
X113132971Y-90501618D01*
X113253284Y-90336019D01*
X113253286Y-90336016D01*
X113253287Y-90336015D01*
X113300516Y-90243322D01*
X113348489Y-90192528D01*
X113416310Y-90175733D01*
X113482445Y-90198270D01*
X113521485Y-90243324D01*
X113568715Y-90336019D01*
X113689028Y-90501618D01*
X113833786Y-90646376D01*
X113966410Y-90742731D01*
X113999390Y-90766692D01*
X114115607Y-90825908D01*
X114181776Y-90859623D01*
X114181778Y-90859623D01*
X114181781Y-90859625D01*
X114264962Y-90886652D01*
X114376465Y-90922882D01*
X114477557Y-90938893D01*
X114578648Y-90954905D01*
X114578649Y-90954905D01*
X114783351Y-90954905D01*
X114783352Y-90954905D01*
X114985534Y-90922882D01*
X115180219Y-90859625D01*
X115362610Y-90766692D01*
X115477663Y-90683102D01*
X115528213Y-90646376D01*
X115528215Y-90646373D01*
X115528219Y-90646371D01*
X115672966Y-90501624D01*
X115672968Y-90501620D01*
X115672971Y-90501618D01*
X115793284Y-90336019D01*
X115793286Y-90336016D01*
X115793287Y-90336015D01*
X115840516Y-90243322D01*
X115888489Y-90192528D01*
X115956310Y-90175733D01*
X116022445Y-90198270D01*
X116061485Y-90243324D01*
X116108715Y-90336019D01*
X116229028Y-90501618D01*
X116373786Y-90646376D01*
X116506410Y-90742731D01*
X116539390Y-90766692D01*
X116655607Y-90825908D01*
X116721776Y-90859623D01*
X116721778Y-90859623D01*
X116721781Y-90859625D01*
X116804962Y-90886652D01*
X116916465Y-90922882D01*
X117017557Y-90938893D01*
X117118648Y-90954905D01*
X117118649Y-90954905D01*
X117323351Y-90954905D01*
X117323352Y-90954905D01*
X117525534Y-90922882D01*
X117720219Y-90859625D01*
X117902610Y-90766692D01*
X118017663Y-90683102D01*
X118068213Y-90646376D01*
X118068215Y-90646373D01*
X118068219Y-90646371D01*
X118212966Y-90501624D01*
X118212968Y-90501620D01*
X118212971Y-90501618D01*
X118273036Y-90418944D01*
X118333287Y-90336015D01*
X118426220Y-90153624D01*
X118489477Y-89958939D01*
X118521500Y-89756757D01*
X118521500Y-89552053D01*
X118513257Y-89500011D01*
X118489477Y-89349870D01*
X118437506Y-89189921D01*
X118426220Y-89155186D01*
X118426218Y-89155183D01*
X118426218Y-89155181D01*
X118380515Y-89065485D01*
X118333287Y-88972795D01*
X118315136Y-88947812D01*
X118212971Y-88807191D01*
X118068213Y-88662433D01*
X117902613Y-88542120D01*
X117902612Y-88542119D01*
X117902610Y-88542118D01*
X117845653Y-88513096D01*
X117720223Y-88449186D01*
X117525534Y-88385927D01*
X117350995Y-88358283D01*
X117323352Y-88353905D01*
X117118648Y-88353905D01*
X117094329Y-88357756D01*
X116916465Y-88385927D01*
X116721776Y-88449186D01*
X116539386Y-88542120D01*
X116373786Y-88662433D01*
X116229028Y-88807191D01*
X116108715Y-88972791D01*
X116061485Y-89065485D01*
X116013510Y-89116281D01*
X115945689Y-89133076D01*
X115879554Y-89110539D01*
X115840515Y-89065485D01*
X115839883Y-89064245D01*
X115793287Y-88972795D01*
X115775136Y-88947812D01*
X115672971Y-88807191D01*
X115528213Y-88662433D01*
X115362613Y-88542120D01*
X115362612Y-88542119D01*
X115362610Y-88542118D01*
X115305653Y-88513096D01*
X115180223Y-88449186D01*
X114985534Y-88385927D01*
X114810995Y-88358283D01*
X114783352Y-88353905D01*
X114578648Y-88353905D01*
X114554329Y-88357756D01*
X114376465Y-88385927D01*
X114181776Y-88449186D01*
X113999386Y-88542120D01*
X113833786Y-88662433D01*
X113689028Y-88807191D01*
X113568715Y-88972791D01*
X113521485Y-89065485D01*
X113473510Y-89116281D01*
X113405689Y-89133076D01*
X113339554Y-89110539D01*
X113300515Y-89065485D01*
X113299883Y-89064245D01*
X113253287Y-88972795D01*
X113235136Y-88947812D01*
X113132971Y-88807191D01*
X112988213Y-88662433D01*
X112822613Y-88542120D01*
X112822612Y-88542119D01*
X112822610Y-88542118D01*
X112765653Y-88513096D01*
X112640223Y-88449186D01*
X112445534Y-88385927D01*
X112270995Y-88358283D01*
X112243352Y-88353905D01*
X112038648Y-88353905D01*
X112014329Y-88357756D01*
X111836465Y-88385927D01*
X111641776Y-88449186D01*
X111459386Y-88542120D01*
X111293786Y-88662433D01*
X111149028Y-88807191D01*
X111028715Y-88972791D01*
X110981485Y-89065485D01*
X110933510Y-89116281D01*
X110865689Y-89133076D01*
X110799554Y-89110539D01*
X110760515Y-89065485D01*
X110759883Y-89064245D01*
X110713287Y-88972795D01*
X110695136Y-88947812D01*
X110592971Y-88807191D01*
X110448213Y-88662433D01*
X110282613Y-88542120D01*
X110282612Y-88542119D01*
X110282610Y-88542118D01*
X110225653Y-88513096D01*
X110100223Y-88449186D01*
X109905534Y-88385927D01*
X109730995Y-88358283D01*
X109703352Y-88353905D01*
X109498648Y-88353905D01*
X109474329Y-88357756D01*
X109296465Y-88385927D01*
X109101776Y-88449186D01*
X108919386Y-88542120D01*
X108753786Y-88662433D01*
X108609028Y-88807191D01*
X108488715Y-88972791D01*
X108441485Y-89065485D01*
X108393510Y-89116281D01*
X108325689Y-89133076D01*
X108259554Y-89110539D01*
X108220515Y-89065485D01*
X108219883Y-89064245D01*
X108173287Y-88972795D01*
X108155136Y-88947812D01*
X108052971Y-88807191D01*
X107908213Y-88662433D01*
X107742613Y-88542120D01*
X107742612Y-88542119D01*
X107742610Y-88542118D01*
X107685653Y-88513096D01*
X107560223Y-88449186D01*
X107365534Y-88385927D01*
X107190995Y-88358283D01*
X107163352Y-88353905D01*
X106958648Y-88353905D01*
X106934329Y-88357756D01*
X106756465Y-88385927D01*
X106561776Y-88449186D01*
X106379386Y-88542120D01*
X106213786Y-88662433D01*
X106069028Y-88807191D01*
X105948715Y-88972791D01*
X105901485Y-89065485D01*
X105853510Y-89116281D01*
X105785689Y-89133076D01*
X105719554Y-89110539D01*
X105680515Y-89065485D01*
X105679883Y-89064245D01*
X105633287Y-88972795D01*
X105615136Y-88947812D01*
X105512971Y-88807191D01*
X105368213Y-88662433D01*
X105202613Y-88542120D01*
X105202612Y-88542119D01*
X105202610Y-88542118D01*
X105145653Y-88513096D01*
X105020223Y-88449186D01*
X104825534Y-88385927D01*
X104650995Y-88358283D01*
X104623352Y-88353905D01*
X104418648Y-88353905D01*
X104394329Y-88357756D01*
X104216465Y-88385927D01*
X104021776Y-88449186D01*
X103839386Y-88542120D01*
X103673786Y-88662433D01*
X103529028Y-88807191D01*
X103408715Y-88972791D01*
X103361485Y-89065485D01*
X103313510Y-89116281D01*
X103245689Y-89133076D01*
X103179554Y-89110539D01*
X103140515Y-89065485D01*
X103139883Y-89064245D01*
X103093287Y-88972795D01*
X103075136Y-88947812D01*
X102972971Y-88807191D01*
X102828213Y-88662433D01*
X102662613Y-88542120D01*
X102662612Y-88542119D01*
X102662610Y-88542118D01*
X102605653Y-88513096D01*
X102480223Y-88449186D01*
X102285534Y-88385927D01*
X102110995Y-88358283D01*
X102083352Y-88353905D01*
X101878648Y-88353905D01*
X101854329Y-88357756D01*
X101676465Y-88385927D01*
X101481776Y-88449186D01*
X101299386Y-88542120D01*
X101133786Y-88662433D01*
X100989028Y-88807191D01*
X100868715Y-88972791D01*
X100805465Y-89096925D01*
X100757490Y-89147721D01*
X100689669Y-89164516D01*
X100666033Y-89161204D01*
X100646093Y-89156416D01*
X100148106Y-89654404D01*
X99841000Y-89654404D01*
X99841000Y-89601744D01*
X99813741Y-89500011D01*
X99761080Y-89408799D01*
X99686606Y-89334325D01*
X99595394Y-89281664D01*
X99493661Y-89254405D01*
X99388339Y-89254405D01*
X99286606Y-89281664D01*
X99195394Y-89334325D01*
X99120920Y-89408799D01*
X99068259Y-89500011D01*
X99041000Y-89601744D01*
X98681232Y-89601744D01*
X98235904Y-89156416D01*
X98173010Y-89349983D01*
X98173010Y-89349986D01*
X98141000Y-89552087D01*
X81896695Y-89552087D01*
X82011625Y-89304417D01*
X82012429Y-89302721D01*
X82220775Y-88872716D01*
X82221606Y-88871037D01*
X82437098Y-88444594D01*
X82437957Y-88442928D01*
X82499237Y-88326532D01*
X82547883Y-88276385D01*
X82615923Y-88260498D01*
X82681751Y-88283917D01*
X82689410Y-88289945D01*
X82695512Y-88295148D01*
X82695516Y-88295151D01*
X82749339Y-88321561D01*
X83552582Y-88613917D01*
X84295838Y-88884440D01*
X84329216Y-88892677D01*
X84354042Y-88898805D01*
X84497959Y-88897664D01*
X84635725Y-88856021D01*
X84756179Y-88777254D01*
X84849562Y-88667740D01*
X84875972Y-88613917D01*
X84879883Y-88603169D01*
X84921304Y-88546906D01*
X84986571Y-88521967D01*
X85054961Y-88536272D01*
X85100187Y-88577712D01*
X85106243Y-88586973D01*
X85215757Y-88680355D01*
X85269580Y-88706766D01*
X86675121Y-89218340D01*
X86733329Y-89232706D01*
X86733332Y-89232705D01*
X86733333Y-89232706D01*
X86797292Y-89232198D01*
X86877246Y-89231565D01*
X87015012Y-89189922D01*
X87135467Y-89111155D01*
X87228849Y-89001641D01*
X87255259Y-88947818D01*
X87410256Y-88521967D01*
X87436701Y-88449309D01*
X98943011Y-88449309D01*
X99441000Y-88947298D01*
X99441001Y-88947298D01*
X99938987Y-88449310D01*
X99938987Y-88449309D01*
X99745419Y-88386415D01*
X99543317Y-88354405D01*
X99338683Y-88354405D01*
X99136581Y-88386415D01*
X99136578Y-88386415D01*
X98943011Y-88449309D01*
X87436701Y-88449309D01*
X87438096Y-88445477D01*
X87561623Y-88106088D01*
X87575988Y-88047885D01*
X87574847Y-87903972D01*
X87574847Y-87903968D01*
X87533204Y-87766202D01*
X87454437Y-87645747D01*
X87344923Y-87552365D01*
X87344922Y-87552364D01*
X87318495Y-87539396D01*
X87291100Y-87525954D01*
X87291092Y-87525951D01*
X85885568Y-87014383D01*
X85885561Y-87014380D01*
X85846069Y-87004633D01*
X85827351Y-87000014D01*
X85827350Y-87000014D01*
X85827346Y-87000013D01*
X85683438Y-87001154D01*
X85683433Y-87001155D01*
X85545668Y-87042798D01*
X85425214Y-87121563D01*
X85425211Y-87121567D01*
X85372413Y-87183485D01*
X85313936Y-87221724D01*
X85244069Y-87222278D01*
X85184993Y-87184972D01*
X85174278Y-87170893D01*
X85143554Y-87123908D01*
X85034040Y-87030525D01*
X85034039Y-87030524D01*
X85034036Y-87030523D01*
X84980226Y-87004119D01*
X84980217Y-87004115D01*
X83692323Y-86535360D01*
X83636060Y-86493934D01*
X83611124Y-86428665D01*
X83625434Y-86360276D01*
X83630205Y-86352131D01*
X83882518Y-85956890D01*
X83883491Y-85955393D01*
X84147326Y-85556945D01*
X84148353Y-85555420D01*
X84418802Y-85161445D01*
X84419891Y-85159887D01*
X84696842Y-84770546D01*
X84697953Y-84769011D01*
X84981368Y-84384358D01*
X84982517Y-84382826D01*
X85272302Y-84002985D01*
X85273557Y-84001369D01*
X85569577Y-83626513D01*
X85570875Y-83624898D01*
X85873116Y-83255044D01*
X85874341Y-83253569D01*
X86182881Y-82888626D01*
X86184056Y-82887259D01*
X86498619Y-82527561D01*
X86499907Y-82526113D01*
X86820359Y-82171805D01*
X86821748Y-82170296D01*
X87080435Y-81893713D01*
X88649500Y-81893713D01*
X88649500Y-82106286D01*
X88682753Y-82316239D01*
X88748444Y-82518414D01*
X88844951Y-82707820D01*
X88969890Y-82879786D01*
X89120213Y-83030109D01*
X89292179Y-83155048D01*
X89292181Y-83155049D01*
X89292184Y-83155051D01*
X89481588Y-83251557D01*
X89683757Y-83317246D01*
X89893713Y-83350500D01*
X89893714Y-83350500D01*
X90106286Y-83350500D01*
X90106287Y-83350500D01*
X90316243Y-83317246D01*
X90518412Y-83251557D01*
X90707816Y-83155051D01*
X90729789Y-83139086D01*
X90879786Y-83030109D01*
X90879788Y-83030106D01*
X90879792Y-83030104D01*
X91030104Y-82879792D01*
X91030106Y-82879788D01*
X91030109Y-82879786D01*
X91155048Y-82707820D01*
X91155047Y-82707820D01*
X91155051Y-82707816D01*
X91251557Y-82518412D01*
X91317246Y-82316243D01*
X91350500Y-82106287D01*
X91350500Y-81893713D01*
X123649500Y-81893713D01*
X123649500Y-82106286D01*
X123682753Y-82316239D01*
X123748444Y-82518414D01*
X123844951Y-82707820D01*
X123969890Y-82879786D01*
X124120213Y-83030109D01*
X124292179Y-83155048D01*
X124292181Y-83155049D01*
X124292184Y-83155051D01*
X124481588Y-83251557D01*
X124683757Y-83317246D01*
X124893713Y-83350500D01*
X124893714Y-83350500D01*
X125106286Y-83350500D01*
X125106287Y-83350500D01*
X125316243Y-83317246D01*
X125518412Y-83251557D01*
X125707816Y-83155051D01*
X125729789Y-83139086D01*
X125879786Y-83030109D01*
X125879788Y-83030106D01*
X125879792Y-83030104D01*
X126030104Y-82879792D01*
X126030106Y-82879788D01*
X126030109Y-82879786D01*
X126155048Y-82707820D01*
X126155047Y-82707820D01*
X126155051Y-82707816D01*
X126251557Y-82518412D01*
X126317246Y-82316243D01*
X126350500Y-82106287D01*
X126350500Y-81893713D01*
X126317246Y-81683757D01*
X126251557Y-81481588D01*
X126155051Y-81292184D01*
X126155049Y-81292181D01*
X126155048Y-81292179D01*
X126030109Y-81120213D01*
X125879786Y-80969890D01*
X125707820Y-80844951D01*
X125518414Y-80748444D01*
X125518413Y-80748443D01*
X125518412Y-80748443D01*
X125316243Y-80682754D01*
X125316241Y-80682753D01*
X125316240Y-80682753D01*
X125154957Y-80657208D01*
X125106287Y-80649500D01*
X124893713Y-80649500D01*
X124845042Y-80657208D01*
X124683760Y-80682753D01*
X124481585Y-80748444D01*
X124292179Y-80844951D01*
X124120213Y-80969890D01*
X123969890Y-81120213D01*
X123844951Y-81292179D01*
X123748444Y-81481585D01*
X123682753Y-81683760D01*
X123649500Y-81893713D01*
X91350500Y-81893713D01*
X91317246Y-81683757D01*
X91251557Y-81481588D01*
X91155051Y-81292184D01*
X91155049Y-81292181D01*
X91155048Y-81292179D01*
X91030109Y-81120213D01*
X90879786Y-80969890D01*
X90707820Y-80844951D01*
X90518414Y-80748444D01*
X90518413Y-80748443D01*
X90518412Y-80748443D01*
X90316243Y-80682754D01*
X90316241Y-80682753D01*
X90316240Y-80682753D01*
X90154957Y-80657208D01*
X90106287Y-80649500D01*
X89893713Y-80649500D01*
X89845042Y-80657208D01*
X89683760Y-80682753D01*
X89481585Y-80748444D01*
X89292179Y-80844951D01*
X89120213Y-80969890D01*
X88969890Y-81120213D01*
X88844951Y-81292179D01*
X88748444Y-81481585D01*
X88682753Y-81683760D01*
X88649500Y-81893713D01*
X87080435Y-81893713D01*
X87148046Y-81821424D01*
X87149354Y-81820048D01*
X87481547Y-81476563D01*
X87482880Y-81475208D01*
X87820713Y-81137375D01*
X87822068Y-81136042D01*
X88165556Y-80803847D01*
X88166929Y-80802541D01*
X88515816Y-80476228D01*
X88517326Y-80474840D01*
X88871618Y-80154402D01*
X88873066Y-80153114D01*
X89232764Y-79838551D01*
X89234131Y-79837376D01*
X89599074Y-79528836D01*
X89600549Y-79527611D01*
X89970430Y-79225348D01*
X89972018Y-79224072D01*
X90346874Y-78928052D01*
X90348511Y-78926781D01*
X90728331Y-78637012D01*
X90729863Y-78635863D01*
X91114516Y-78352448D01*
X91116051Y-78351337D01*
X91505392Y-78074386D01*
X91506950Y-78073297D01*
X91900925Y-77802848D01*
X91902450Y-77801821D01*
X92300898Y-77537986D01*
X92302395Y-77537013D01*
X92705193Y-77279876D01*
X92706811Y-77278862D01*
X93113737Y-77028562D01*
X93115367Y-77027577D01*
X93526544Y-76784036D01*
X93528118Y-76783122D01*
X93943248Y-76546521D01*
X93944936Y-76545578D01*
X94363987Y-76315931D01*
X94365575Y-76315078D01*
X94788422Y-76092457D01*
X94790068Y-76091608D01*
X95216542Y-75876101D01*
X95218221Y-75875270D01*
X95648226Y-75666924D01*
X95649922Y-75666120D01*
X96083298Y-75465012D01*
X96085104Y-75464192D01*
X96521818Y-75270337D01*
X96523513Y-75269602D01*
X96963423Y-75083064D01*
X96965180Y-75082336D01*
X97408163Y-74903168D01*
X97409986Y-74902449D01*
X97659417Y-74806383D01*
X97855683Y-74730793D01*
X97857622Y-74730064D01*
X98306239Y-74565836D01*
X98308058Y-74565187D01*
X98759380Y-74408472D01*
X98761260Y-74407837D01*
X99215153Y-74258679D01*
X99216863Y-74258132D01*
X99673315Y-74116540D01*
X99675119Y-74115997D01*
X100133789Y-73982076D01*
X100135587Y-73981567D01*
X100596441Y-73855326D01*
X100598213Y-73854857D01*
X101061113Y-73736333D01*
X101063000Y-73735867D01*
X101527767Y-73625107D01*
X101529575Y-73624692D01*
X101996256Y-73521687D01*
X101998059Y-73521305D01*
X102466226Y-73426145D01*
X102468180Y-73425765D01*
X102937819Y-73338452D01*
X102939822Y-73338097D01*
X103410965Y-73258625D01*
X103412819Y-73258328D01*
X103885153Y-73186751D01*
X103887078Y-73186475D01*
X104360652Y-73122785D01*
X104362508Y-73122551D01*
X104837078Y-73066784D01*
X104839005Y-73066575D01*
X105314386Y-73018752D01*
X105316234Y-73018581D01*
X105792397Y-72978703D01*
X105794242Y-72978564D01*
X106271043Y-72946646D01*
X106272902Y-72946538D01*
X106750038Y-72922597D01*
X106752049Y-72922513D01*
X107229564Y-72906548D01*
X107231448Y-72906501D01*
X107709130Y-72898518D01*
X107711202Y-72898501D01*
X108188798Y-72898501D01*
X108190870Y-72898518D01*
G37*
%TD.AperFunction*%
%TD*%
M02*
