%TF.GenerationSoftware,KiCad,Pcbnew,9.0.5*%
%TF.CreationDate,2025-12-15T13:45:07-05:00*%
%TF.ProjectId,airbrakes,61697262-7261-46b6-9573-2e6b69636164,rev?*%
%TF.SameCoordinates,Original*%
%TF.FileFunction,Legend,Bot*%
%TF.FilePolarity,Positive*%
%FSLAX46Y46*%
G04 Gerber Fmt 4.6, Leading zero omitted, Abs format (unit mm)*
G04 Created by KiCad (PCBNEW 9.0.5) date 2025-12-15 13:45:07*
%MOMM*%
%LPD*%
G01*
G04 APERTURE LIST*
%ADD10C,0.200000*%
%ADD11C,0.625000*%
%ADD12C,0.150000*%
%ADD13C,0.120000*%
G04 APERTURE END LIST*
D10*
X127955971Y-108850422D02*
X128741685Y-108850422D01*
X128741685Y-108850422D02*
X128884542Y-108921850D01*
X128884542Y-108921850D02*
X128955971Y-109064707D01*
X128955971Y-109064707D02*
X128955971Y-109350422D01*
X128955971Y-109350422D02*
X128884542Y-109493279D01*
X128027400Y-108850422D02*
X127955971Y-108993279D01*
X127955971Y-108993279D02*
X127955971Y-109350422D01*
X127955971Y-109350422D02*
X128027400Y-109493279D01*
X128027400Y-109493279D02*
X128170257Y-109564707D01*
X128170257Y-109564707D02*
X128313114Y-109564707D01*
X128313114Y-109564707D02*
X128455971Y-109493279D01*
X128455971Y-109493279D02*
X128527400Y-109350422D01*
X128527400Y-109350422D02*
X128527400Y-108993279D01*
X128527400Y-108993279D02*
X128598828Y-108850422D01*
X127955971Y-107493279D02*
X128741685Y-107493279D01*
X128741685Y-107493279D02*
X128884542Y-107564707D01*
X128884542Y-107564707D02*
X128955971Y-107707564D01*
X128955971Y-107707564D02*
X128955971Y-107993279D01*
X128955971Y-107993279D02*
X128884542Y-108136136D01*
X128027400Y-107493279D02*
X127955971Y-107636136D01*
X127955971Y-107636136D02*
X127955971Y-107993279D01*
X127955971Y-107993279D02*
X128027400Y-108136136D01*
X128027400Y-108136136D02*
X128170257Y-108207564D01*
X128170257Y-108207564D02*
X128313114Y-108207564D01*
X128313114Y-108207564D02*
X128455971Y-108136136D01*
X128455971Y-108136136D02*
X128527400Y-107993279D01*
X128527400Y-107993279D02*
X128527400Y-107636136D01*
X128527400Y-107636136D02*
X128598828Y-107493279D01*
X127955971Y-106778993D02*
X128955971Y-106778993D01*
X128670257Y-106778993D02*
X128813114Y-106707564D01*
X128813114Y-106707564D02*
X128884542Y-106636136D01*
X128884542Y-106636136D02*
X128955971Y-106493278D01*
X128955971Y-106493278D02*
X128955971Y-106350421D01*
X127955971Y-105850422D02*
X128955971Y-105850422D01*
X129455971Y-105850422D02*
X129384542Y-105921850D01*
X129384542Y-105921850D02*
X129313114Y-105850422D01*
X129313114Y-105850422D02*
X129384542Y-105778993D01*
X129384542Y-105778993D02*
X129455971Y-105850422D01*
X129455971Y-105850422D02*
X129313114Y-105850422D01*
X128955971Y-105350421D02*
X128955971Y-104778993D01*
X129455971Y-105136136D02*
X128170257Y-105136136D01*
X128170257Y-105136136D02*
X128027400Y-105064707D01*
X128027400Y-105064707D02*
X127955971Y-104921850D01*
X127955971Y-104921850D02*
X127955971Y-104778993D01*
X127955971Y-103136136D02*
X129455971Y-103136136D01*
X128527400Y-102993279D02*
X127955971Y-102564707D01*
X128955971Y-102564707D02*
X128384542Y-103136136D01*
X127955971Y-101707564D02*
X128027400Y-101850421D01*
X128027400Y-101850421D02*
X128098828Y-101921850D01*
X128098828Y-101921850D02*
X128241685Y-101993278D01*
X128241685Y-101993278D02*
X128670257Y-101993278D01*
X128670257Y-101993278D02*
X128813114Y-101921850D01*
X128813114Y-101921850D02*
X128884542Y-101850421D01*
X128884542Y-101850421D02*
X128955971Y-101707564D01*
X128955971Y-101707564D02*
X128955971Y-101493278D01*
X128955971Y-101493278D02*
X128884542Y-101350421D01*
X128884542Y-101350421D02*
X128813114Y-101278993D01*
X128813114Y-101278993D02*
X128670257Y-101207564D01*
X128670257Y-101207564D02*
X128241685Y-101207564D01*
X128241685Y-101207564D02*
X128098828Y-101278993D01*
X128098828Y-101278993D02*
X128027400Y-101350421D01*
X128027400Y-101350421D02*
X127955971Y-101493278D01*
X127955971Y-101493278D02*
X127955971Y-101707564D01*
X128955971Y-99921850D02*
X127955971Y-99921850D01*
X128955971Y-100564707D02*
X128170257Y-100564707D01*
X128170257Y-100564707D02*
X128027400Y-100493278D01*
X128027400Y-100493278D02*
X127955971Y-100350421D01*
X127955971Y-100350421D02*
X127955971Y-100136135D01*
X127955971Y-100136135D02*
X128027400Y-99993278D01*
X128027400Y-99993278D02*
X128098828Y-99921850D01*
X128955971Y-99207564D02*
X127955971Y-99207564D01*
X128813114Y-99207564D02*
X128884542Y-99136135D01*
X128884542Y-99136135D02*
X128955971Y-98993278D01*
X128955971Y-98993278D02*
X128955971Y-98778992D01*
X128955971Y-98778992D02*
X128884542Y-98636135D01*
X128884542Y-98636135D02*
X128741685Y-98564707D01*
X128741685Y-98564707D02*
X127955971Y-98564707D01*
X127955971Y-97207564D02*
X129455971Y-97207564D01*
X128027400Y-97207564D02*
X127955971Y-97350421D01*
X127955971Y-97350421D02*
X127955971Y-97636135D01*
X127955971Y-97636135D02*
X128027400Y-97778992D01*
X128027400Y-97778992D02*
X128098828Y-97850421D01*
X128098828Y-97850421D02*
X128241685Y-97921849D01*
X128241685Y-97921849D02*
X128670257Y-97921849D01*
X128670257Y-97921849D02*
X128813114Y-97850421D01*
X128813114Y-97850421D02*
X128884542Y-97778992D01*
X128884542Y-97778992D02*
X128955971Y-97636135D01*
X128955971Y-97636135D02*
X128955971Y-97350421D01*
X128955971Y-97350421D02*
X128884542Y-97207564D01*
X127955971Y-96493278D02*
X128955971Y-96493278D01*
X129455971Y-96493278D02*
X129384542Y-96564706D01*
X129384542Y-96564706D02*
X129313114Y-96493278D01*
X129313114Y-96493278D02*
X129384542Y-96421849D01*
X129384542Y-96421849D02*
X129455971Y-96493278D01*
X129455971Y-96493278D02*
X129313114Y-96493278D01*
X128955971Y-95778992D02*
X127955971Y-95778992D01*
X128813114Y-95778992D02*
X128884542Y-95707563D01*
X128884542Y-95707563D02*
X128955971Y-95564706D01*
X128955971Y-95564706D02*
X128955971Y-95350420D01*
X128955971Y-95350420D02*
X128884542Y-95207563D01*
X128884542Y-95207563D02*
X128741685Y-95136135D01*
X128741685Y-95136135D02*
X127955971Y-95136135D01*
X128955971Y-94564706D02*
X127955971Y-94207563D01*
X128955971Y-93850420D02*
X127955971Y-94207563D01*
X127955971Y-94207563D02*
X127598828Y-94350420D01*
X127598828Y-94350420D02*
X127527400Y-94421849D01*
X127527400Y-94421849D02*
X127455971Y-94564706D01*
X127955971Y-92636135D02*
X128741685Y-92636135D01*
X128741685Y-92636135D02*
X128884542Y-92707563D01*
X128884542Y-92707563D02*
X128955971Y-92850420D01*
X128955971Y-92850420D02*
X128955971Y-93136135D01*
X128955971Y-93136135D02*
X128884542Y-93278992D01*
X128027400Y-92636135D02*
X127955971Y-92778992D01*
X127955971Y-92778992D02*
X127955971Y-93136135D01*
X127955971Y-93136135D02*
X128027400Y-93278992D01*
X128027400Y-93278992D02*
X128170257Y-93350420D01*
X128170257Y-93350420D02*
X128313114Y-93350420D01*
X128313114Y-93350420D02*
X128455971Y-93278992D01*
X128455971Y-93278992D02*
X128527400Y-93136135D01*
X128527400Y-93136135D02*
X128527400Y-92778992D01*
X128527400Y-92778992D02*
X128598828Y-92636135D01*
D11*
X122652149Y-87723976D02*
X122652149Y-85628738D01*
X122652149Y-85628738D02*
X122842625Y-85247785D01*
X122842625Y-85247785D02*
X123223577Y-85057309D01*
X123223577Y-85057309D02*
X123985482Y-85057309D01*
X123985482Y-85057309D02*
X124366435Y-85247785D01*
X122652149Y-87533500D02*
X123033101Y-87723976D01*
X123033101Y-87723976D02*
X123985482Y-87723976D01*
X123985482Y-87723976D02*
X124366435Y-87533500D01*
X124366435Y-87533500D02*
X124556911Y-87152547D01*
X124556911Y-87152547D02*
X124556911Y-86771595D01*
X124556911Y-86771595D02*
X124366435Y-86390642D01*
X124366435Y-86390642D02*
X123985482Y-86200166D01*
X123985482Y-86200166D02*
X123033101Y-86200166D01*
X123033101Y-86200166D02*
X122652149Y-86009690D01*
X120747387Y-87723976D02*
X120747387Y-85057309D01*
X120747387Y-83723976D02*
X120937863Y-83914452D01*
X120937863Y-83914452D02*
X120747387Y-84104928D01*
X120747387Y-84104928D02*
X120556910Y-83914452D01*
X120556910Y-83914452D02*
X120747387Y-83723976D01*
X120747387Y-83723976D02*
X120747387Y-84104928D01*
X118842625Y-87723976D02*
X118842625Y-85057309D01*
X118842625Y-85819214D02*
X118652148Y-85438261D01*
X118652148Y-85438261D02*
X118461672Y-85247785D01*
X118461672Y-85247785D02*
X118080720Y-85057309D01*
X118080720Y-85057309D02*
X117699767Y-85057309D01*
X116366435Y-87723976D02*
X116366435Y-83723976D01*
X116366435Y-85247785D02*
X115985482Y-85057309D01*
X115985482Y-85057309D02*
X115223577Y-85057309D01*
X115223577Y-85057309D02*
X114842625Y-85247785D01*
X114842625Y-85247785D02*
X114652149Y-85438261D01*
X114652149Y-85438261D02*
X114461673Y-85819214D01*
X114461673Y-85819214D02*
X114461673Y-86962071D01*
X114461673Y-86962071D02*
X114652149Y-87343023D01*
X114652149Y-87343023D02*
X114842625Y-87533500D01*
X114842625Y-87533500D02*
X115223577Y-87723976D01*
X115223577Y-87723976D02*
X115985482Y-87723976D01*
X115985482Y-87723976D02*
X116366435Y-87533500D01*
X112747387Y-87723976D02*
X112747387Y-85057309D01*
X112747387Y-85819214D02*
X112556910Y-85438261D01*
X112556910Y-85438261D02*
X112366434Y-85247785D01*
X112366434Y-85247785D02*
X111985482Y-85057309D01*
X111985482Y-85057309D02*
X111604529Y-85057309D01*
X108556911Y-87723976D02*
X108556911Y-85628738D01*
X108556911Y-85628738D02*
X108747387Y-85247785D01*
X108747387Y-85247785D02*
X109128339Y-85057309D01*
X109128339Y-85057309D02*
X109890244Y-85057309D01*
X109890244Y-85057309D02*
X110271197Y-85247785D01*
X108556911Y-87533500D02*
X108937863Y-87723976D01*
X108937863Y-87723976D02*
X109890244Y-87723976D01*
X109890244Y-87723976D02*
X110271197Y-87533500D01*
X110271197Y-87533500D02*
X110461673Y-87152547D01*
X110461673Y-87152547D02*
X110461673Y-86771595D01*
X110461673Y-86771595D02*
X110271197Y-86390642D01*
X110271197Y-86390642D02*
X109890244Y-86200166D01*
X109890244Y-86200166D02*
X108937863Y-86200166D01*
X108937863Y-86200166D02*
X108556911Y-86009690D01*
X106652149Y-87723976D02*
X106652149Y-83723976D01*
X106271196Y-86200166D02*
X105128339Y-87723976D01*
X105128339Y-85057309D02*
X106652149Y-86581119D01*
X101890244Y-87533500D02*
X102271196Y-87723976D01*
X102271196Y-87723976D02*
X103033101Y-87723976D01*
X103033101Y-87723976D02*
X103414054Y-87533500D01*
X103414054Y-87533500D02*
X103604530Y-87152547D01*
X103604530Y-87152547D02*
X103604530Y-85628738D01*
X103604530Y-85628738D02*
X103414054Y-85247785D01*
X103414054Y-85247785D02*
X103033101Y-85057309D01*
X103033101Y-85057309D02*
X102271196Y-85057309D01*
X102271196Y-85057309D02*
X101890244Y-85247785D01*
X101890244Y-85247785D02*
X101699768Y-85628738D01*
X101699768Y-85628738D02*
X101699768Y-86009690D01*
X101699768Y-86009690D02*
X103604530Y-86390642D01*
X100175959Y-87533500D02*
X99795006Y-87723976D01*
X99795006Y-87723976D02*
X99033102Y-87723976D01*
X99033102Y-87723976D02*
X98652149Y-87533500D01*
X98652149Y-87533500D02*
X98461673Y-87152547D01*
X98461673Y-87152547D02*
X98461673Y-86962071D01*
X98461673Y-86962071D02*
X98652149Y-86581119D01*
X98652149Y-86581119D02*
X99033102Y-86390642D01*
X99033102Y-86390642D02*
X99604530Y-86390642D01*
X99604530Y-86390642D02*
X99985483Y-86200166D01*
X99985483Y-86200166D02*
X100175959Y-85819214D01*
X100175959Y-85819214D02*
X100175959Y-85628738D01*
X100175959Y-85628738D02*
X99985483Y-85247785D01*
X99985483Y-85247785D02*
X99604530Y-85057309D01*
X99604530Y-85057309D02*
X99033102Y-85057309D01*
X99033102Y-85057309D02*
X98652149Y-85247785D01*
X93699769Y-87723976D02*
X93699769Y-85057309D01*
X93699769Y-85819214D02*
X93509292Y-85438261D01*
X93509292Y-85438261D02*
X93318816Y-85247785D01*
X93318816Y-85247785D02*
X92937864Y-85057309D01*
X92937864Y-85057309D02*
X92556911Y-85057309D01*
X89128340Y-87723976D02*
X91414055Y-87723976D01*
X90271198Y-87723976D02*
X90271198Y-83723976D01*
X90271198Y-83723976D02*
X90652150Y-84295404D01*
X90652150Y-84295404D02*
X91033102Y-84676357D01*
X91033102Y-84676357D02*
X91414055Y-84866833D01*
D12*
X11699115Y-86153290D02*
X11027906Y-86397590D01*
X11027906Y-86397590D02*
X10909951Y-86491197D01*
X10909951Y-86491197D02*
X10853029Y-86613265D01*
X10853029Y-86613265D02*
X10857142Y-86763793D01*
X10857142Y-86763793D02*
X10889716Y-86853288D01*
X11463040Y-85783137D02*
X11491501Y-85722103D01*
X11491501Y-85722103D02*
X11503675Y-85616322D01*
X11503675Y-85616322D02*
X11422241Y-85392586D01*
X11422241Y-85392586D02*
X11344921Y-85319378D01*
X11344921Y-85319378D02*
X11283887Y-85290917D01*
X11283887Y-85290917D02*
X11178105Y-85278743D01*
X11178105Y-85278743D02*
X11088611Y-85311317D01*
X11088611Y-85311317D02*
X10970656Y-85404924D01*
X10970656Y-85404924D02*
X10629129Y-86137331D01*
X10629129Y-86137331D02*
X10417402Y-85555617D01*
D13*
%TO.C,J2*%
X79138107Y-108014878D02*
X84748072Y-105973017D01*
X80112209Y-108469108D02*
X81155370Y-111335171D01*
X81744300Y-115175336D02*
X79138107Y-108014878D01*
X82198532Y-114201235D02*
X81155370Y-111335171D01*
X82627787Y-106755380D02*
X82884302Y-107460149D01*
X82884302Y-107460149D02*
X80112209Y-108469108D01*
X84037326Y-106242349D02*
X84742095Y-105985834D01*
X84652962Y-107933796D02*
X84037326Y-106242349D01*
X84742095Y-105985834D02*
X85357732Y-107677281D01*
X84748072Y-105973017D02*
X87354265Y-113133475D01*
X84970625Y-113192275D02*
X82198532Y-114201235D01*
X85165992Y-109343336D02*
X85870761Y-109086821D01*
X85227140Y-113897044D02*
X84970625Y-113192275D01*
X85357732Y-107677281D02*
X84652962Y-107933796D01*
X85508012Y-110283027D02*
X85165992Y-109343336D01*
X85870761Y-109086821D02*
X86212783Y-110026513D01*
X86021042Y-111692569D02*
X86725813Y-111436052D01*
X86212783Y-110026513D02*
X85508012Y-110283027D01*
X86636679Y-113384014D02*
X86021042Y-111692569D01*
X86725813Y-111436052D02*
X87341448Y-113127499D01*
X87298436Y-112132184D02*
X87725962Y-113306801D01*
X87341448Y-113127499D02*
X86636679Y-113384014D01*
X87354265Y-113133475D02*
X81744300Y-115175336D01*
X87725962Y-113306801D02*
X86551346Y-113734325D01*
%TD*%
M02*
