M48
; DRILL file {KiCad 9.0.5} date 2025-12-15T13:45:04-0500
; FORMAT={-:-/ absolute / metric / decimal}
; #@! TF.CreationDate,2025-12-15T13:45:04-05:00
; #@! TF.GenerationSoftware,Kicad,Pcbnew,9.0.5
; #@! TF.FileFunction,Plated,1,2,PTH
FMAT,2
METRIC
; #@! TA.AperFunction,Plated,PTH,ViaDrill
T1C0.200
; #@! TA.AperFunction,Plated,PTH,ViaDrill
T2C0.300
; #@! TA.AperFunction,Plated,PTH,ComponentDrill
T3C0.600
; #@! TA.AperFunction,Plated,PTH,ComponentDrill
T4C0.800
; #@! TA.AperFunction,Plated,PTH,ComponentDrill
T5C1.000
%
G90
G05
T1
X91.049Y-106.082
X91.049Y-108.032
X91.049Y-109.332
X91.049Y-109.982
X96.774Y-106.082
X96.774Y-108.682
X96.774Y-109.982
T2
X81.506Y-98.75
X90.935Y-99.814
X91.311Y-98.78
X92.064Y-96.713
X92.44Y-95.679
X93.218Y-101.092
X96.774Y-99.568
X96.774Y-101.092
T3
X95.274Y-98.044
X96.774Y-98.044
T4
X99.441Y-89.654
X100.33Y-98.552
X100.33Y-101.092
X100.33Y-103.632
X100.33Y-106.172
X100.33Y-108.712
X100.33Y-111.252
X100.33Y-113.792
X100.33Y-116.332
X100.33Y-118.872
X100.33Y-121.412
X100.33Y-123.952
X100.33Y-126.492
X101.981Y-89.654
X104.521Y-89.654
X107.061Y-89.654
X109.601Y-89.654
X112.141Y-89.654
X114.681Y-89.654
X115.57Y-98.552
X115.57Y-101.092
X115.57Y-103.632
X115.57Y-106.172
X115.57Y-108.712
X115.57Y-111.252
X115.57Y-113.792
X115.57Y-116.332
X115.57Y-118.872
X115.57Y-121.412
X115.57Y-123.952
X115.57Y-126.492
X117.221Y-89.654
X122.936Y-98.044
X122.936Y-100.584
X122.936Y-103.124
X122.936Y-105.664
T5
X83.312Y-109.22
X84.167Y-111.569
X105.664Y-94.996
X108.204Y-94.996
X110.744Y-94.996
M30
