M48
; DRILL file {KiCad 9.0.5} date 2025-12-18T19:47:08-0500
; FORMAT={-:-/ absolute / metric / decimal}
; #@! TF.CreationDate,2025-12-18T19:47:08-05:00
; #@! TF.GenerationSoftware,Kicad,Pcbnew,9.0.5
; #@! TF.FileFunction,Plated,1,2,PTH
FMAT,2
METRIC
; #@! TA.AperFunction,Plated,PTH,ViaDrill
T1C0.200
; #@! TA.AperFunction,Plated,PTH,ViaDrill
T2C0.300
; #@! TA.AperFunction,Plated,PTH,ComponentDrill
T3C0.800
; #@! TA.AperFunction,Plated,PTH,ComponentDrill
T4C0.950
; #@! TA.AperFunction,Plated,PTH,ComponentDrill
T5C1.000
; #@! TA.AperFunction,Plated,PTH,ComponentDrill
T6C1.100
%
G90
G05
T1
X91.436Y-104.222
X91.436Y-108.032
X91.436Y-111.842
X92.653Y-90.782
X96.386Y-104.222
X96.386Y-109.302
X96.386Y-111.842
T2
X81.342Y-94.886
X82.095Y-92.818
X82.847Y-90.751
X83.223Y-89.717
X86.36Y-93.472
X91.436Y-106.762
X117.538Y-111.95
X118.237Y-123.063
X118.935Y-110.553
T3
X99.314Y-90.424
X100.33Y-98.552
X100.33Y-101.092
X100.33Y-103.632
X100.33Y-106.172
X100.33Y-108.712
X100.33Y-111.252
X100.33Y-113.792
X100.33Y-116.332
X100.33Y-118.872
X100.33Y-121.412
X100.33Y-123.952
X100.33Y-126.492
X101.854Y-90.424
X104.394Y-90.424
X106.934Y-90.424
X109.474Y-90.424
X112.014Y-90.424
X114.554Y-90.424
X115.57Y-98.552
X115.57Y-101.092
X115.57Y-103.632
X115.57Y-106.172
X115.57Y-108.712
X115.57Y-111.252
X115.57Y-113.792
X115.57Y-116.332
X115.57Y-118.872
X115.57Y-121.412
X115.57Y-123.952
X115.57Y-126.492
X117.094Y-90.424
X122.174Y-96.901
X124.714Y-96.901
X127.254Y-96.901
X129.794Y-96.901
T4
X124.52Y-103.395
X127.02Y-103.395
X129.52Y-103.395
X132.02Y-103.395
T5
X83.312Y-109.22
X84.167Y-111.569
X88.9Y-119.126
X90.668Y-120.894
X105.664Y-94.996
X108.204Y-94.996
X110.744Y-94.996
T6
X125.441Y-114.885
X128.691Y-109.256
X129.338Y-117.135
X132.588Y-111.506
M30
