%TF.GenerationSoftware,KiCad,Pcbnew,9.0.5*%
%TF.CreationDate,2025-12-18T19:46:57-05:00*%
%TF.ProjectId,airbrakes,61697262-7261-46b6-9573-2e6b69636164,rev?*%
%TF.SameCoordinates,Original*%
%TF.FileFunction,Copper,L2,Bot*%
%TF.FilePolarity,Positive*%
%FSLAX46Y46*%
G04 Gerber Fmt 4.6, Leading zero omitted, Abs format (unit mm)*
G04 Created by KiCad (PCBNEW 9.0.5) date 2025-12-18 19:46:57*
%MOMM*%
%LPD*%
G01*
G04 APERTURE LIST*
G04 Aperture macros list*
%AMRoundRect*
0 Rectangle with rounded corners*
0 $1 Rounding radius*
0 $2 $3 $4 $5 $6 $7 $8 $9 X,Y pos of 4 corners*
0 Add a 4 corners polygon primitive as box body*
4,1,4,$2,$3,$4,$5,$6,$7,$8,$9,$2,$3,0*
0 Add four circle primitives for the rounded corners*
1,1,$1+$1,$2,$3*
1,1,$1+$1,$4,$5*
1,1,$1+$1,$6,$7*
1,1,$1+$1,$8,$9*
0 Add four rect primitives between the rounded corners*
20,1,$1+$1,$2,$3,$4,$5,0*
20,1,$1+$1,$4,$5,$6,$7,0*
20,1,$1+$1,$6,$7,$8,$9,0*
20,1,$1+$1,$8,$9,$2,$3,0*%
%AMHorizOval*
0 Thick line with rounded ends*
0 $1 width*
0 $2 $3 position (X,Y) of the first rounded end (center of the circle)*
0 $4 $5 position (X,Y) of the second rounded end (center of the circle)*
0 Add line between two ends*
20,1,$1,$2,$3,$4,$5,0*
0 Add two circle primitives to create the rounded ends*
1,1,$1,$2,$3*
1,1,$1,$4,$5*%
%AMRotRect*
0 Rectangle, with rotation*
0 The origin of the aperture is its center*
0 $1 length*
0 $2 width*
0 $3 Rotation angle, in degrees counterclockwise*
0 Add horizontal line*
21,1,$1,$2,0,0,$3*%
%AMFreePoly0*
4,1,15,-0.800000,0.480000,-0.480000,0.800000,0.640000,0.800000,0.701229,0.787821,0.753137,0.753137,0.787821,0.701229,0.800000,0.640000,0.800000,-0.640000,0.787821,-0.701229,0.753137,-0.753137,0.701229,-0.787821,0.640000,-0.800000,-0.480000,-0.800000,-0.800000,-0.480000,-0.800000,0.480000,-0.800000,0.480000,$1*%
G04 Aperture macros list end*
%TA.AperFunction,SMDPad,CuDef*%
%ADD10RoundRect,0.237500X-0.300000X-0.237500X0.300000X-0.237500X0.300000X0.237500X-0.300000X0.237500X0*%
%TD*%
%TA.AperFunction,SMDPad,CuDef*%
%ADD11RoundRect,0.250000X-0.337500X-0.475000X0.337500X-0.475000X0.337500X0.475000X-0.337500X0.475000X0*%
%TD*%
%TA.AperFunction,ComponentPad*%
%ADD12R,1.600000X1.600000*%
%TD*%
%TA.AperFunction,ComponentPad*%
%ADD13C,1.600000*%
%TD*%
%TA.AperFunction,ComponentPad*%
%ADD14FreePoly0,0.000000*%
%TD*%
%TA.AperFunction,ComponentPad*%
%ADD15O,1.600000X1.600000*%
%TD*%
%TA.AperFunction,ComponentPad*%
%ADD16RoundRect,0.250000X-0.600000X-0.725000X0.600000X-0.725000X0.600000X0.725000X-0.600000X0.725000X0*%
%TD*%
%TA.AperFunction,ComponentPad*%
%ADD17O,1.700000X1.950000*%
%TD*%
%TA.AperFunction,ComponentPad*%
%ADD18R,1.700000X1.700000*%
%TD*%
%TA.AperFunction,ComponentPad*%
%ADD19C,1.700000*%
%TD*%
%TA.AperFunction,ComponentPad*%
%ADD20RoundRect,0.250000X0.909982X-0.307300X0.499557X0.820331X-0.909982X0.307300X-0.499557X-0.820331X0*%
%TD*%
%TA.AperFunction,ComponentPad*%
%ADD21HorizOval,1.700000X0.140954X0.051303X-0.140954X-0.051303X0*%
%TD*%
%TA.AperFunction,ComponentPad*%
%ADD22RotRect,2.000000X2.000000X150.000000*%
%TD*%
%TA.AperFunction,ComponentPad*%
%ADD23C,2.000000*%
%TD*%
%TA.AperFunction,ComponentPad*%
%ADD24RoundRect,0.250000X0.954594X0.106066X0.106066X0.954594X-0.954594X-0.106066X-0.106066X-0.954594X0*%
%TD*%
%TA.AperFunction,ComponentPad*%
%ADD25HorizOval,1.700000X0.106066X0.106066X-0.106066X-0.106066X0*%
%TD*%
%TA.AperFunction,ViaPad*%
%ADD26C,0.600000*%
%TD*%
%TA.AperFunction,ViaPad*%
%ADD27C,0.400000*%
%TD*%
%TA.AperFunction,Conductor*%
%ADD28C,0.200000*%
%TD*%
G04 APERTURE END LIST*
D10*
%TO.P,C1,1*%
%TO.N,Net-(J3-VDD)*%
X95022500Y-102108000D03*
%TO.P,C1,2*%
%TO.N,Net-(U2E-VCC)*%
X96747500Y-102108000D03*
%TD*%
D11*
%TO.P,C2,1*%
%TO.N,Net-(J3-VDD)*%
X94847500Y-97663000D03*
%TO.P,C2,2*%
%TO.N,Net-(U2E-VCC)*%
X96922500Y-97663000D03*
%TD*%
D12*
%TO.P,MPU6050,1,VCC*%
%TO.N,VCC*%
X99314000Y-90424000D03*
D13*
%TO.P,MPU6050,2,GND*%
%TO.N,GND*%
X101854000Y-90424000D03*
%TO.P,MPU6050,3,SCL*%
%TO.N,Net-(BMP180-SCL)*%
X104394000Y-90424000D03*
%TO.P,MPU6050,4,SDA*%
%TO.N,Net-(BMP180-SDA)*%
X106934000Y-90424000D03*
%TO.P,MPU6050,5,XCL*%
%TO.N,unconnected-(MPU6050-XCL-Pad5)*%
X109474000Y-90424000D03*
%TO.P,MPU6050,6,XDA*%
%TO.N,unconnected-(MPU6050-XDA-Pad6)*%
X112014000Y-90424000D03*
%TO.P,MPU6050,7,ADO*%
%TO.N,unconnected-(MPU6050-ADO-Pad7)*%
X114554000Y-90424000D03*
%TO.P,MPU6050,8,INT*%
%TO.N,Net-(MPU6050-INT)*%
X117094000Y-90424000D03*
%TD*%
D14*
%TO.P,BMP180,1,VIN*%
%TO.N,VCC*%
X122174000Y-96901000D03*
D13*
%TO.P,BMP180,2,GND*%
%TO.N,GND*%
X124714000Y-96901000D03*
%TO.P,BMP180,3,SCL*%
%TO.N,Net-(BMP180-SCL)*%
X127254000Y-96901000D03*
%TO.P,BMP180,4,SDA*%
%TO.N,Net-(BMP180-SDA)*%
X129794000Y-96901000D03*
%TD*%
D12*
%TO.P,U1,1,D1/TX*%
%TO.N,Net-(RADIO1-Pin_3)*%
X115570000Y-126492000D03*
D15*
%TO.P,U1,2,D0/RX*%
%TO.N,Net-(RADIO1-Pin_4)*%
X115570000Y-123952000D03*
%TO.P,U1,3,GND*%
%TO.N,GND*%
X115570000Y-121412000D03*
%TO.P,U1,4,GND*%
X115570000Y-118872000D03*
%TO.P,U1,5,D2*%
%TO.N,Net-(BMP180-SDA)*%
X115570000Y-116332000D03*
%TO.P,U1,6,~D3*%
%TO.N,Net-(BMP180-SCL)*%
X115570000Y-113792000D03*
%TO.P,U1,7,D4/A6*%
%TO.N,Net-(MPU6050-INT)*%
X115570000Y-111252000D03*
%TO.P,U1,8,~D5*%
%TO.N,Net-(SERVO1-Pin_1)*%
X115570000Y-108712000D03*
%TO.P,U1,9,~D6/A7*%
%TO.N,unconnected-(U1-~D6{slash}A7-Pad9)*%
X115570000Y-106172000D03*
%TO.P,U1,10,D7*%
%TO.N,unconnected-(U1-D7-Pad10)*%
X115570000Y-103632000D03*
%TO.P,U1,11,D8/A8*%
%TO.N,unconnected-(U1-D8{slash}A8-Pad11)*%
X115570000Y-101092000D03*
%TO.P,U1,12,~D9/A9*%
%TO.N,unconnected-(U1-~D9{slash}A9-Pad12)*%
X115570000Y-98552000D03*
%TO.P,U1,13,~D10/A10*%
%TO.N,Net-(U1-~D10{slash}A10)*%
X100330000Y-98552000D03*
%TO.P,U1,14,D16*%
%TO.N,Net-(U1-D16)*%
X100330000Y-101092000D03*
%TO.P,U1,15,D14*%
%TO.N,Net-(J3-DAT0)*%
X100330000Y-103632000D03*
%TO.P,U1,16,D15*%
%TO.N,Net-(U1-D15)*%
X100330000Y-106172000D03*
%TO.P,U1,17,D18/A0*%
%TO.N,unconnected-(U1-D18{slash}A0-Pad17)*%
X100330000Y-108712000D03*
%TO.P,U1,18,D19/A1*%
%TO.N,unconnected-(U1-D19{slash}A1-Pad18)*%
X100330000Y-111252000D03*
%TO.P,U1,19,D20/A2*%
%TO.N,unconnected-(U1-D20{slash}A2-Pad19)*%
X100330000Y-113792000D03*
%TO.P,U1,20,D21/A3*%
%TO.N,unconnected-(U1-D21{slash}A3-Pad20)*%
X100330000Y-116332000D03*
%TO.P,U1,21,VCC*%
%TO.N,VCC*%
X100330000Y-118872000D03*
%TO.P,U1,22,RST*%
%TO.N,Net-(U1-RST)*%
X100330000Y-121412000D03*
%TO.P,U1,23,GND*%
%TO.N,GND*%
X100330000Y-123952000D03*
%TO.P,U1,24,RAW*%
%TO.N,Net-(Switch1-Pin_1)*%
X100330000Y-126492000D03*
%TD*%
D16*
%TO.P,RADIO1,1,Pin_1*%
%TO.N,VCC*%
X124520000Y-103395000D03*
D17*
%TO.P,RADIO1,2,Pin_2*%
%TO.N,GND*%
X127020000Y-103395000D03*
%TO.P,RADIO1,3,Pin_3*%
%TO.N,Net-(RADIO1-Pin_3)*%
X129520000Y-103395000D03*
%TO.P,RADIO1,4,Pin_4*%
%TO.N,Net-(RADIO1-Pin_4)*%
X132020000Y-103395000D03*
%TD*%
D18*
%TO.P,SERVO1,1,Pin_1*%
%TO.N,Net-(SERVO1-Pin_1)*%
X110744000Y-94996000D03*
D19*
%TO.P,SERVO1,2,Pin_2*%
%TO.N,VCC*%
X108204000Y-94996000D03*
%TO.P,SERVO1,3,Pin_3*%
%TO.N,GND*%
X105664000Y-94996000D03*
%TD*%
D20*
%TO.P,PWR1,1,Pin_1*%
%TO.N,Net-(PWR1-Pin_1)*%
X84167050Y-111569232D03*
D21*
%TO.P,PWR1,2,Pin_2*%
%TO.N,GND*%
X83312000Y-109220000D03*
%TD*%
D22*
%TO.P,RST1,1,1*%
%TO.N,Net-(U1-RST)*%
X129338000Y-117135165D03*
X132588000Y-111506000D03*
D23*
%TO.P,RST1,2,2*%
%TO.N,GND*%
X125440884Y-114885165D03*
X128690886Y-109255999D03*
%TD*%
D24*
%TO.P,Switch1,1,Pin_1*%
%TO.N,Net-(Switch1-Pin_1)*%
X90667767Y-120893767D03*
D25*
%TO.P,Switch1,2,Pin_2*%
%TO.N,Net-(PWR1-Pin_1)*%
X88900000Y-119126000D03*
%TD*%
D26*
%TO.N,GND*%
X96386500Y-109302000D03*
X92653063Y-90781699D03*
X91436500Y-111842000D03*
X82847181Y-90751041D03*
X91436500Y-108032000D03*
X91436500Y-104222000D03*
%TO.N,Net-(BMP180-SCL)*%
X118935500Y-110553500D03*
X117538500Y-111950500D03*
%TO.N,Net-(J3-DAT3{slash}CD)*%
X91436500Y-106762000D03*
X81342293Y-94885687D03*
D27*
%TO.N,Net-(J3-CLK)*%
X96386500Y-111842000D03*
D26*
X86360000Y-93472000D03*
%TO.N,Net-(J3-DAT0)*%
X83223403Y-89717379D03*
%TO.N,Net-(J3-VDD)*%
X82094737Y-92818365D03*
D27*
%TO.N,Net-(U2E-VCC)*%
X96386500Y-104222000D03*
D26*
%TO.N,Net-(RADIO1-Pin_4)*%
X118237000Y-123063000D03*
%TD*%
D28*
%TO.N,Net-(J3-VDD)*%
X95022500Y-97838000D02*
X95022500Y-98044000D01*
X94847500Y-97663000D02*
X95022500Y-97838000D01*
X93853000Y-97663000D02*
X94847500Y-97663000D01*
X89008365Y-92818365D02*
X93853000Y-97663000D01*
X82094737Y-92818365D02*
X89008365Y-92818365D01*
%TO.N,Net-(U2E-VCC)*%
X96747500Y-102108000D02*
X96747500Y-99086500D01*
X96747500Y-103097500D02*
X96747500Y-102108000D01*
%TO.N,Net-(J3-VDD)*%
X94869000Y-98933000D02*
X94869000Y-97684500D01*
X94869000Y-97684500D02*
X94847500Y-97663000D01*
X94996000Y-99060000D02*
X94869000Y-98933000D01*
X94996000Y-102081500D02*
X94996000Y-99060000D01*
X95022500Y-102108000D02*
X94996000Y-102081500D01*
%TO.N,Net-(U2E-VCC)*%
X96901000Y-97684500D02*
X96922500Y-97663000D01*
X96901000Y-98933000D02*
X96901000Y-97684500D01*
X96747500Y-99086500D02*
X96901000Y-98933000D01*
X96386500Y-103458500D02*
X96747500Y-103097500D01*
X96386500Y-104222000D02*
X96386500Y-103458500D01*
X96747500Y-98044000D02*
X96774000Y-98070500D01*
%TO.N,Net-(U1-RST)*%
X128871165Y-117602000D02*
X106426000Y-117602000D01*
X129338000Y-117135165D02*
X128871165Y-117602000D01*
X106426000Y-117602000D02*
X102616000Y-121412000D01*
X129338000Y-114756000D02*
X129338000Y-117135165D01*
X102616000Y-121412000D02*
X100330000Y-121412000D01*
X132588000Y-111506000D02*
X129338000Y-114756000D01*
%TO.N,Net-(BMP180-SCL)*%
X117538500Y-111950500D02*
X118935500Y-110553500D01*
%TO.N,Net-(MPU6050-INT)*%
X117094000Y-91440000D02*
X117602000Y-91948000D01*
X117602000Y-109220000D02*
X115570000Y-111252000D01*
X117602000Y-91948000D02*
X117602000Y-109220000D01*
X117094000Y-90424000D02*
X117094000Y-91440000D01*
%TO.N,Net-(J3-DAT3{slash}CD)*%
X81342293Y-97852293D02*
X90252000Y-106762000D01*
X90252000Y-106762000D02*
X91436500Y-106762000D01*
X81342293Y-94885687D02*
X81342293Y-97852293D01*
%TO.N,Net-(J3-CLK)*%
X93726000Y-109181500D02*
X93726000Y-98103100D01*
X86868000Y-93472000D02*
X86360000Y-93472000D01*
X88842265Y-93219365D02*
X87120635Y-93219365D01*
X87120635Y-93219365D02*
X86868000Y-93472000D01*
X93726000Y-98103100D02*
X88842265Y-93219365D01*
X96386500Y-111842000D02*
X93726000Y-109181500D01*
%TO.N,Net-(J3-DAT0)*%
X99060000Y-97028000D02*
X99060000Y-102362000D01*
X92134100Y-95377000D02*
X97409000Y-95377000D01*
X86384865Y-92417365D02*
X89174465Y-92417365D01*
X83684879Y-89717379D02*
X86384865Y-92417365D01*
X97409000Y-95377000D02*
X99060000Y-97028000D01*
X83223403Y-89717379D02*
X83684879Y-89717379D01*
X89174465Y-92417365D02*
X92134100Y-95377000D01*
X99060000Y-102362000D02*
X100330000Y-103632000D01*
%TO.N,Net-(RADIO1-Pin_4)*%
X118237000Y-123063000D02*
X117348000Y-123952000D01*
X117348000Y-123952000D02*
X115570000Y-123952000D01*
%TD*%
%TA.AperFunction,Conductor*%
%TO.N,GND*%
G36*
X123303733Y-77724814D02*
G01*
X123589535Y-77909404D01*
X123591242Y-77910526D01*
X123989129Y-78176984D01*
X123990746Y-78178087D01*
X124337736Y-78418910D01*
X124384045Y-78451050D01*
X124385728Y-78452239D01*
X124774402Y-78731676D01*
X124776066Y-78732893D01*
X125160090Y-79018789D01*
X125161732Y-79020033D01*
X125540949Y-79312269D01*
X125542482Y-79313470D01*
X125916827Y-79612001D01*
X125918412Y-79613287D01*
X126287749Y-79918002D01*
X126289222Y-79919239D01*
X126653420Y-80230031D01*
X126654977Y-80231382D01*
X127013937Y-80548167D01*
X127015471Y-80549544D01*
X127369083Y-80872221D01*
X127370594Y-80873623D01*
X127718824Y-81202161D01*
X127720284Y-81203561D01*
X128063023Y-81537859D01*
X128064436Y-81539261D01*
X128401553Y-81879191D01*
X128402992Y-81880666D01*
X128734443Y-82226184D01*
X128735843Y-82227670D01*
X129061448Y-82578588D01*
X129062753Y-82580017D01*
X129177443Y-82707820D01*
X129382580Y-82936411D01*
X129383943Y-82937956D01*
X129697674Y-83299468D01*
X129699013Y-83301036D01*
X130006783Y-83667823D01*
X130008094Y-83669413D01*
X130309668Y-84041192D01*
X130310953Y-84042804D01*
X130606287Y-84419523D01*
X130607545Y-84421155D01*
X130896622Y-84802790D01*
X130897824Y-84804404D01*
X131180584Y-85190881D01*
X131181682Y-85192409D01*
X131376280Y-85467881D01*
X131457905Y-85583428D01*
X131459081Y-85585121D01*
X131728818Y-85980752D01*
X131729900Y-85982368D01*
X131993000Y-86382392D01*
X131994087Y-86384075D01*
X132250508Y-86788426D01*
X132251597Y-86790176D01*
X132501217Y-87198661D01*
X132502277Y-87200429D01*
X132745057Y-87612981D01*
X132746088Y-87614766D01*
X132982016Y-88031363D01*
X132983016Y-88033164D01*
X133211964Y-88453582D01*
X133212935Y-88455401D01*
X133434872Y-88879584D01*
X133435768Y-88881332D01*
X133605304Y-89218904D01*
X133650645Y-89309186D01*
X133651554Y-89311035D01*
X133859282Y-89742384D01*
X133860161Y-89744249D01*
X134060658Y-90178923D01*
X134061506Y-90180802D01*
X134254793Y-90618845D01*
X134255609Y-90620737D01*
X134441547Y-91061835D01*
X134442332Y-91063741D01*
X134620934Y-91507921D01*
X134621687Y-91509839D01*
X134677350Y-91655208D01*
X134792867Y-91956887D01*
X134793588Y-91958819D01*
X134957327Y-92408689D01*
X134958016Y-92410631D01*
X135114261Y-92863176D01*
X135114917Y-92865130D01*
X135263594Y-93320137D01*
X135264218Y-93322102D01*
X135405333Y-93779589D01*
X135405924Y-93781563D01*
X135539408Y-94241300D01*
X135539966Y-94243284D01*
X135665774Y-94705120D01*
X135666300Y-94707113D01*
X135784442Y-95171088D01*
X135784934Y-95173090D01*
X135895342Y-95638937D01*
X135895800Y-95640946D01*
X135998440Y-96108522D01*
X135998865Y-96110539D01*
X136093714Y-96579730D01*
X136094106Y-96581754D01*
X136181156Y-97052527D01*
X136181514Y-97054556D01*
X136260726Y-97526699D01*
X136261050Y-97528735D01*
X136332402Y-98002119D01*
X136332692Y-98004160D01*
X136396154Y-98478592D01*
X136396411Y-98480637D01*
X136451996Y-98956199D01*
X136452218Y-98958247D01*
X136499883Y-99434580D01*
X136500071Y-99436633D01*
X136539812Y-99913704D01*
X136539966Y-99915760D01*
X136571771Y-100393412D01*
X136571891Y-100395469D01*
X136595757Y-100873651D01*
X136595842Y-100875711D01*
X136611751Y-101354095D01*
X136611803Y-101356155D01*
X136619762Y-101834861D01*
X136619779Y-101836922D01*
X136619779Y-102315633D01*
X136619762Y-102317694D01*
X136611803Y-102796400D01*
X136611751Y-102798460D01*
X136595842Y-103276844D01*
X136595757Y-103278904D01*
X136571891Y-103757086D01*
X136571771Y-103759143D01*
X136539966Y-104236795D01*
X136539812Y-104238851D01*
X136500071Y-104715922D01*
X136499883Y-104717975D01*
X136452218Y-105194308D01*
X136451996Y-105196356D01*
X136396411Y-105671918D01*
X136396154Y-105673963D01*
X136332692Y-106148395D01*
X136332402Y-106150436D01*
X136261050Y-106623820D01*
X136260726Y-106625856D01*
X136181514Y-107097999D01*
X136181156Y-107100028D01*
X136094106Y-107570801D01*
X136093714Y-107572825D01*
X135998865Y-108042016D01*
X135998440Y-108044033D01*
X135895800Y-108511609D01*
X135895342Y-108513618D01*
X135784934Y-108979465D01*
X135784442Y-108981467D01*
X135666300Y-109445442D01*
X135665774Y-109447435D01*
X135539966Y-109909271D01*
X135539408Y-109911255D01*
X135405924Y-110370992D01*
X135405333Y-110372966D01*
X135264218Y-110830453D01*
X135263594Y-110832418D01*
X135114917Y-111287425D01*
X135114261Y-111289379D01*
X134958016Y-111741924D01*
X134957327Y-111743866D01*
X134793588Y-112193736D01*
X134792867Y-112195668D01*
X134621687Y-112642716D01*
X134620934Y-112644634D01*
X134442332Y-113088814D01*
X134441547Y-113090720D01*
X134255609Y-113531818D01*
X134254793Y-113533710D01*
X134061506Y-113971753D01*
X134060658Y-113973632D01*
X133860161Y-114408306D01*
X133859282Y-114410171D01*
X133651554Y-114841520D01*
X133650645Y-114843369D01*
X133570367Y-115003217D01*
X133452095Y-115238717D01*
X133435813Y-115271137D01*
X133434872Y-115272971D01*
X133212935Y-115697154D01*
X133211964Y-115698973D01*
X132983016Y-116119391D01*
X132982016Y-116121192D01*
X132746088Y-116537789D01*
X132745057Y-116539574D01*
X132502277Y-116952126D01*
X132501217Y-116953894D01*
X132251597Y-117362379D01*
X132250508Y-117364129D01*
X131994087Y-117768480D01*
X131992969Y-117770211D01*
X131790072Y-118078702D01*
X131729965Y-118170090D01*
X131728818Y-118171803D01*
X131459081Y-118567434D01*
X131457905Y-118569127D01*
X131181715Y-118960100D01*
X131180543Y-118961729D01*
X131170494Y-118975466D01*
X130897853Y-119348112D01*
X130896622Y-119349765D01*
X130607545Y-119731400D01*
X130606287Y-119733032D01*
X130310967Y-120109734D01*
X130309682Y-120111346D01*
X130008094Y-120483142D01*
X130006783Y-120484732D01*
X129699013Y-120851519D01*
X129697674Y-120853087D01*
X129383943Y-121214599D01*
X129382580Y-121216144D01*
X129062793Y-121572494D01*
X129061403Y-121574016D01*
X128735857Y-121924871D01*
X128734443Y-121926371D01*
X128402992Y-122271889D01*
X128401553Y-122273364D01*
X128064436Y-122613294D01*
X128062972Y-122614746D01*
X127720311Y-122948968D01*
X127718824Y-122950394D01*
X127370594Y-123278932D01*
X127369083Y-123280334D01*
X127015471Y-123603011D01*
X127013937Y-123604388D01*
X126654977Y-123921173D01*
X126653420Y-123922524D01*
X126289275Y-124233272D01*
X126287696Y-124234597D01*
X125918427Y-124539256D01*
X125916827Y-124540554D01*
X125542526Y-124839050D01*
X125540903Y-124840322D01*
X125161732Y-125132522D01*
X125160090Y-125133766D01*
X124776066Y-125419662D01*
X124774402Y-125420879D01*
X124385728Y-125700316D01*
X124384045Y-125701505D01*
X123990791Y-125974437D01*
X123989088Y-125975599D01*
X123591257Y-126242019D01*
X123589535Y-126243151D01*
X123187414Y-126502868D01*
X123185673Y-126503972D01*
X122779276Y-126756979D01*
X122777517Y-126758054D01*
X122366952Y-127004282D01*
X122365176Y-127005327D01*
X121950620Y-127244671D01*
X121948827Y-127245687D01*
X121530281Y-127478146D01*
X121528471Y-127479132D01*
X121106148Y-127704587D01*
X121104321Y-127705542D01*
X120678328Y-127923934D01*
X120676487Y-127924859D01*
X120246902Y-128136154D01*
X120245044Y-128137048D01*
X119812077Y-128341138D01*
X119810206Y-128342002D01*
X119373786Y-128538922D01*
X119371900Y-128539754D01*
X118932310Y-128729374D01*
X118930411Y-128730174D01*
X118487761Y-128912449D01*
X118485848Y-128913218D01*
X118040220Y-129088115D01*
X118038295Y-129088852D01*
X117589822Y-129256317D01*
X117587885Y-129257022D01*
X117136725Y-129416996D01*
X117134778Y-129417669D01*
X116680914Y-129570160D01*
X116678954Y-129570800D01*
X116222745Y-129715685D01*
X116220776Y-129716293D01*
X115762077Y-129853619D01*
X115760097Y-129854193D01*
X115299338Y-129983830D01*
X115297350Y-129984372D01*
X114834413Y-130106356D01*
X114832415Y-130106865D01*
X114367502Y-130221140D01*
X114365497Y-130221615D01*
X113898779Y-130328141D01*
X113896765Y-130328583D01*
X113428321Y-130427340D01*
X113426301Y-130427748D01*
X112956325Y-130518697D01*
X112954298Y-130519072D01*
X112482839Y-130602203D01*
X112480807Y-130602544D01*
X112008021Y-130677829D01*
X112005982Y-130678136D01*
X111532079Y-130745542D01*
X111530037Y-130745816D01*
X111054962Y-130805351D01*
X111052914Y-130805590D01*
X110576988Y-130857212D01*
X110574937Y-130857417D01*
X110098218Y-130901121D01*
X110096164Y-130901292D01*
X109618788Y-130937066D01*
X109616732Y-130937203D01*
X109138824Y-130965039D01*
X109136765Y-130965142D01*
X108658409Y-130985031D01*
X108656350Y-130985099D01*
X108177845Y-130997033D01*
X108175784Y-130997068D01*
X107697031Y-131001047D01*
X107694969Y-131001047D01*
X107216215Y-130997068D01*
X107214154Y-130997033D01*
X106735649Y-130985099D01*
X106733590Y-130985031D01*
X106255234Y-130965142D01*
X106253175Y-130965039D01*
X105775267Y-130937203D01*
X105773211Y-130937066D01*
X105295835Y-130901292D01*
X105293781Y-130901121D01*
X104817062Y-130857417D01*
X104815011Y-130857212D01*
X104339085Y-130805590D01*
X104337037Y-130805351D01*
X103861962Y-130745816D01*
X103859920Y-130745542D01*
X103386017Y-130678136D01*
X103383978Y-130677829D01*
X102911192Y-130602544D01*
X102909160Y-130602203D01*
X102437701Y-130519072D01*
X102435674Y-130518697D01*
X101965698Y-130427748D01*
X101963678Y-130427340D01*
X101495234Y-130328583D01*
X101493220Y-130328141D01*
X101026502Y-130221615D01*
X101024497Y-130221140D01*
X100559584Y-130106865D01*
X100557586Y-130106356D01*
X100094649Y-129984372D01*
X100092661Y-129983830D01*
X99631902Y-129854193D01*
X99629922Y-129853619D01*
X99171223Y-129716293D01*
X99169254Y-129715685D01*
X98713045Y-129570800D01*
X98711085Y-129570160D01*
X98257221Y-129417669D01*
X98255274Y-129416996D01*
X97804114Y-129257022D01*
X97802177Y-129256317D01*
X97353704Y-129088852D01*
X97351779Y-129088115D01*
X96906151Y-128913218D01*
X96904238Y-128912449D01*
X96461588Y-128730174D01*
X96459689Y-128729374D01*
X96020099Y-128539754D01*
X96018213Y-128538922D01*
X95581793Y-128342002D01*
X95579922Y-128341138D01*
X95146955Y-128137048D01*
X95145150Y-128136179D01*
X94902734Y-128016945D01*
X94715512Y-127924859D01*
X94713671Y-127923934D01*
X94287678Y-127705542D01*
X94285915Y-127704620D01*
X93863528Y-127479132D01*
X93861718Y-127478146D01*
X93443172Y-127245687D01*
X93441379Y-127244671D01*
X93026823Y-127005327D01*
X93025047Y-127004282D01*
X92614482Y-126758054D01*
X92612723Y-126756979D01*
X92206326Y-126503972D01*
X92204585Y-126502868D01*
X91802464Y-126243151D01*
X91800742Y-126242019D01*
X91402911Y-125975599D01*
X91401208Y-125974437D01*
X91007954Y-125701505D01*
X91006271Y-125700316D01*
X90617597Y-125420879D01*
X90615933Y-125419662D01*
X90231909Y-125133766D01*
X90230267Y-125132522D01*
X90061544Y-125002499D01*
X89851067Y-124840299D01*
X89849473Y-124839050D01*
X89799120Y-124798895D01*
X89475166Y-124540549D01*
X89473572Y-124539256D01*
X89367812Y-124452000D01*
X99125739Y-124452000D01*
X99218138Y-124633345D01*
X99218143Y-124633353D01*
X99338417Y-124798894D01*
X99338417Y-124798895D01*
X99483104Y-124943582D01*
X99648650Y-125063859D01*
X99830968Y-125156755D01*
X100025577Y-125219988D01*
X100071586Y-125227275D01*
X100134722Y-125257204D01*
X100171653Y-125316515D01*
X100170657Y-125386378D01*
X100132047Y-125444611D01*
X100076383Y-125471366D01*
X100023584Y-125481868D01*
X100023579Y-125481870D01*
X99832403Y-125561058D01*
X99660342Y-125676024D01*
X99514024Y-125822342D01*
X99399058Y-125994403D01*
X99319870Y-126185579D01*
X99319868Y-126185587D01*
X99279500Y-126388530D01*
X99279500Y-126595469D01*
X99319868Y-126798412D01*
X99319870Y-126798420D01*
X99399059Y-126989598D01*
X99409569Y-127005327D01*
X99514024Y-127161657D01*
X99660342Y-127307975D01*
X99660345Y-127307977D01*
X99832402Y-127422941D01*
X100023580Y-127502130D01*
X100186462Y-127534529D01*
X100226530Y-127542499D01*
X100226534Y-127542500D01*
X100226535Y-127542500D01*
X100433466Y-127542500D01*
X100433467Y-127542499D01*
X100636420Y-127502130D01*
X100827598Y-127422941D01*
X100999655Y-127307977D01*
X101145977Y-127161655D01*
X101260941Y-126989598D01*
X101340130Y-126798420D01*
X101380500Y-126595465D01*
X101380500Y-126388535D01*
X101340130Y-126185580D01*
X101260941Y-125994402D01*
X101145977Y-125822345D01*
X101145975Y-125822342D01*
X100999657Y-125676024D01*
X100986632Y-125667321D01*
X114519500Y-125667321D01*
X114519500Y-127316678D01*
X114534032Y-127389735D01*
X114534033Y-127389739D01*
X114534034Y-127389740D01*
X114589399Y-127472601D01*
X114633595Y-127502131D01*
X114672260Y-127527966D01*
X114672264Y-127527967D01*
X114745321Y-127542499D01*
X114745324Y-127542500D01*
X114745326Y-127542500D01*
X116394676Y-127542500D01*
X116394677Y-127542499D01*
X116467740Y-127527966D01*
X116550601Y-127472601D01*
X116605966Y-127389740D01*
X116620500Y-127316674D01*
X116620500Y-125667326D01*
X116620500Y-125667323D01*
X116620499Y-125667321D01*
X116605967Y-125594264D01*
X116605966Y-125594260D01*
X116583782Y-125561059D01*
X116550601Y-125511399D01*
X116467740Y-125456034D01*
X116467739Y-125456033D01*
X116467735Y-125456032D01*
X116394677Y-125441500D01*
X116394674Y-125441500D01*
X114745326Y-125441500D01*
X114745323Y-125441500D01*
X114672264Y-125456032D01*
X114672260Y-125456033D01*
X114589399Y-125511399D01*
X114534033Y-125594260D01*
X114534032Y-125594264D01*
X114519500Y-125667321D01*
X100986632Y-125667321D01*
X100903695Y-125611905D01*
X100827598Y-125561059D01*
X100636420Y-125481870D01*
X100636414Y-125481868D01*
X100583617Y-125471366D01*
X100521706Y-125438981D01*
X100487132Y-125378265D01*
X100490873Y-125308495D01*
X100531739Y-125251823D01*
X100588413Y-125227275D01*
X100634422Y-125219988D01*
X100829031Y-125156755D01*
X101011349Y-125063859D01*
X101176894Y-124943582D01*
X101176895Y-124943582D01*
X101321582Y-124798895D01*
X101321582Y-124798894D01*
X101441856Y-124633353D01*
X101441861Y-124633345D01*
X101534261Y-124452000D01*
X99125739Y-124452000D01*
X89367812Y-124452000D01*
X89104262Y-124234562D01*
X89102765Y-124233307D01*
X88738579Y-123922524D01*
X88737022Y-123921173D01*
X88712281Y-123899339D01*
X99930000Y-123899339D01*
X99930000Y-124004661D01*
X99957259Y-124106394D01*
X100009920Y-124197606D01*
X100084394Y-124272080D01*
X100175606Y-124324741D01*
X100277339Y-124352000D01*
X100382661Y-124352000D01*
X100484394Y-124324741D01*
X100575606Y-124272080D01*
X100650080Y-124197606D01*
X100702741Y-124106394D01*
X100730000Y-124004661D01*
X100730000Y-123899339D01*
X100702741Y-123797606D01*
X100650080Y-123706394D01*
X100575606Y-123631920D01*
X100484394Y-123579259D01*
X100382661Y-123552000D01*
X100277339Y-123552000D01*
X100175606Y-123579259D01*
X100084394Y-123631920D01*
X100009920Y-123706394D01*
X99957259Y-123797606D01*
X99930000Y-123899339D01*
X88712281Y-123899339D01*
X88654708Y-123848530D01*
X88378050Y-123604377D01*
X88376528Y-123603011D01*
X88371766Y-123598666D01*
X88267489Y-123503511D01*
X88211040Y-123452000D01*
X99125739Y-123452000D01*
X101534260Y-123452000D01*
X101441861Y-123270654D01*
X101441856Y-123270646D01*
X101321582Y-123105105D01*
X101321582Y-123105104D01*
X101176895Y-122960417D01*
X101011349Y-122840140D01*
X100829031Y-122747244D01*
X100634417Y-122684009D01*
X100588411Y-122676723D01*
X100525276Y-122646794D01*
X100488345Y-122587482D01*
X100489343Y-122517619D01*
X100527953Y-122459387D01*
X100583616Y-122432633D01*
X100636420Y-122422130D01*
X100827598Y-122342941D01*
X100999655Y-122227977D01*
X101145977Y-122081655D01*
X101259336Y-121912000D01*
X114365739Y-121912000D01*
X114458138Y-122093345D01*
X114458143Y-122093353D01*
X114578417Y-122258894D01*
X114578417Y-122258895D01*
X114723104Y-122403582D01*
X114888650Y-122523859D01*
X115070968Y-122616755D01*
X115265577Y-122679988D01*
X115311586Y-122687275D01*
X115374722Y-122717204D01*
X115411653Y-122776515D01*
X115410657Y-122846378D01*
X115372047Y-122904611D01*
X115316383Y-122931366D01*
X115263584Y-122941868D01*
X115263579Y-122941870D01*
X115072403Y-123021058D01*
X114900342Y-123136024D01*
X114754024Y-123282342D01*
X114639058Y-123454403D01*
X114559870Y-123645579D01*
X114559868Y-123645587D01*
X114519500Y-123848530D01*
X114519500Y-124055469D01*
X114559868Y-124258412D01*
X114559870Y-124258420D01*
X114639058Y-124449596D01*
X114754024Y-124621657D01*
X114900342Y-124767975D01*
X114900345Y-124767977D01*
X115072402Y-124882941D01*
X115263580Y-124962130D01*
X115385630Y-124986407D01*
X115466530Y-125002499D01*
X115466534Y-125002500D01*
X115466535Y-125002500D01*
X115673466Y-125002500D01*
X115673467Y-125002499D01*
X115876420Y-124962130D01*
X116067598Y-124882941D01*
X116239655Y-124767977D01*
X116385977Y-124621655D01*
X116500941Y-124449598D01*
X116530164Y-124379048D01*
X116574005Y-124324644D01*
X116640299Y-124302579D01*
X116644725Y-124302500D01*
X117394142Y-124302500D01*
X117394144Y-124302500D01*
X117483288Y-124278614D01*
X117563212Y-124232470D01*
X118145863Y-123649819D01*
X118207186Y-123616334D01*
X118233544Y-123613500D01*
X118309472Y-123613500D01*
X118309475Y-123613500D01*
X118449485Y-123575984D01*
X118575015Y-123503509D01*
X118677509Y-123401015D01*
X118749984Y-123275485D01*
X118787500Y-123135475D01*
X118787500Y-122990525D01*
X118749984Y-122850515D01*
X118747595Y-122846378D01*
X118677511Y-122724988D01*
X118677506Y-122724982D01*
X118575017Y-122622493D01*
X118575011Y-122622488D01*
X118449488Y-122550017D01*
X118449489Y-122550017D01*
X118438006Y-122546940D01*
X118309475Y-122512500D01*
X118164525Y-122512500D01*
X118035993Y-122546940D01*
X118024511Y-122550017D01*
X117898988Y-122622488D01*
X117898982Y-122622493D01*
X117796493Y-122724982D01*
X117796488Y-122724988D01*
X117724017Y-122850511D01*
X117724016Y-122850515D01*
X117686500Y-122990525D01*
X117686500Y-122990527D01*
X117686500Y-123066456D01*
X117666815Y-123133495D01*
X117650181Y-123154137D01*
X117239137Y-123565181D01*
X117177814Y-123598666D01*
X117151456Y-123601500D01*
X116644725Y-123601500D01*
X116577686Y-123581815D01*
X116531931Y-123529011D01*
X116530164Y-123524952D01*
X116500943Y-123454405D01*
X116385975Y-123282342D01*
X116239657Y-123136024D01*
X116135540Y-123066456D01*
X116067598Y-123021059D01*
X115876420Y-122941870D01*
X115876414Y-122941868D01*
X115823617Y-122931366D01*
X115761706Y-122898981D01*
X115727132Y-122838265D01*
X115730873Y-122768495D01*
X115771739Y-122711823D01*
X115828413Y-122687275D01*
X115874422Y-122679988D01*
X116069031Y-122616755D01*
X116251349Y-122523859D01*
X116416894Y-122403582D01*
X116416895Y-122403582D01*
X116561582Y-122258895D01*
X116561582Y-122258894D01*
X116681856Y-122093353D01*
X116681861Y-122093345D01*
X116774261Y-121912000D01*
X114365739Y-121912000D01*
X101259336Y-121912000D01*
X101260941Y-121909598D01*
X101290164Y-121839048D01*
X101334004Y-121784644D01*
X101400298Y-121762579D01*
X101404725Y-121762500D01*
X102662142Y-121762500D01*
X102662144Y-121762500D01*
X102751288Y-121738614D01*
X102831212Y-121692470D01*
X103164343Y-121359339D01*
X115170000Y-121359339D01*
X115170000Y-121464661D01*
X115197259Y-121566394D01*
X115249920Y-121657606D01*
X115324394Y-121732080D01*
X115415606Y-121784741D01*
X115517339Y-121812000D01*
X115622661Y-121812000D01*
X115724394Y-121784741D01*
X115815606Y-121732080D01*
X115890080Y-121657606D01*
X115942741Y-121566394D01*
X115970000Y-121464661D01*
X115970000Y-121359339D01*
X115942741Y-121257606D01*
X115890080Y-121166394D01*
X115815606Y-121091920D01*
X115724394Y-121039259D01*
X115622661Y-121012000D01*
X115517339Y-121012000D01*
X115415606Y-121039259D01*
X115324394Y-121091920D01*
X115249920Y-121166394D01*
X115197259Y-121257606D01*
X115170000Y-121359339D01*
X103164343Y-121359339D01*
X103611682Y-120912000D01*
X114365739Y-120912000D01*
X115070000Y-120912000D01*
X116070000Y-120912000D01*
X116774260Y-120912000D01*
X116681861Y-120730654D01*
X116681856Y-120730646D01*
X116561582Y-120565105D01*
X116561582Y-120565104D01*
X116416895Y-120420417D01*
X116251349Y-120300140D01*
X116157819Y-120252484D01*
X116107023Y-120204509D01*
X116090228Y-120136688D01*
X116112765Y-120070553D01*
X116157820Y-120031514D01*
X116251345Y-119983861D01*
X116251353Y-119983856D01*
X116375423Y-119893713D01*
X123649500Y-119893713D01*
X123649500Y-120106286D01*
X123680203Y-120300140D01*
X123682754Y-120316243D01*
X123736306Y-120481059D01*
X123748444Y-120518414D01*
X123844951Y-120707820D01*
X123969890Y-120879786D01*
X124120213Y-121030109D01*
X124292179Y-121155048D01*
X124292181Y-121155049D01*
X124292184Y-121155051D01*
X124481588Y-121251557D01*
X124683757Y-121317246D01*
X124893713Y-121350500D01*
X124893714Y-121350500D01*
X125106286Y-121350500D01*
X125106287Y-121350500D01*
X125316243Y-121317246D01*
X125518412Y-121251557D01*
X125707816Y-121155051D01*
X125729789Y-121139086D01*
X125879786Y-121030109D01*
X125879788Y-121030106D01*
X125879792Y-121030104D01*
X126030104Y-120879792D01*
X126030106Y-120879788D01*
X126030109Y-120879786D01*
X126155048Y-120707820D01*
X126155047Y-120707820D01*
X126155051Y-120707816D01*
X126251557Y-120518412D01*
X126317246Y-120316243D01*
X126350500Y-120106287D01*
X126350500Y-119893713D01*
X126317246Y-119683757D01*
X126251557Y-119481588D01*
X126155051Y-119292184D01*
X126155049Y-119292181D01*
X126155048Y-119292179D01*
X126030109Y-119120213D01*
X125879786Y-118969890D01*
X125707820Y-118844951D01*
X125518414Y-118748444D01*
X125518413Y-118748443D01*
X125518412Y-118748443D01*
X125316243Y-118682754D01*
X125316241Y-118682753D01*
X125316240Y-118682753D01*
X125154957Y-118657208D01*
X125106287Y-118649500D01*
X124893713Y-118649500D01*
X124845042Y-118657208D01*
X124683760Y-118682753D01*
X124683757Y-118682754D01*
X124483272Y-118747896D01*
X124481585Y-118748444D01*
X124292179Y-118844951D01*
X124120213Y-118969890D01*
X123969890Y-119120213D01*
X123844951Y-119292179D01*
X123748444Y-119481585D01*
X123682753Y-119683760D01*
X123649500Y-119893713D01*
X116375423Y-119893713D01*
X116416894Y-119863582D01*
X116416895Y-119863582D01*
X116479318Y-119801160D01*
X116561582Y-119718895D01*
X116561582Y-119718894D01*
X116681856Y-119553353D01*
X116681861Y-119553345D01*
X116774261Y-119372000D01*
X116070000Y-119372000D01*
X116070000Y-120912000D01*
X115070000Y-120912000D01*
X115070000Y-119372000D01*
X114365739Y-119372000D01*
X114458138Y-119553345D01*
X114458143Y-119553353D01*
X114578417Y-119718894D01*
X114578417Y-119718895D01*
X114723104Y-119863582D01*
X114888646Y-119983856D01*
X114888654Y-119983861D01*
X114982179Y-120031514D01*
X115032975Y-120079488D01*
X115049771Y-120147309D01*
X115027234Y-120213444D01*
X114982180Y-120252483D01*
X114888655Y-120300136D01*
X114723105Y-120420417D01*
X114723104Y-120420417D01*
X114578417Y-120565104D01*
X114578417Y-120565105D01*
X114458143Y-120730646D01*
X114458138Y-120730654D01*
X114365739Y-120912000D01*
X103611682Y-120912000D01*
X105704343Y-118819339D01*
X115170000Y-118819339D01*
X115170000Y-118924661D01*
X115197259Y-119026394D01*
X115249920Y-119117606D01*
X115324394Y-119192080D01*
X115415606Y-119244741D01*
X115517339Y-119272000D01*
X115622661Y-119272000D01*
X115724394Y-119244741D01*
X115815606Y-119192080D01*
X115890080Y-119117606D01*
X115942741Y-119026394D01*
X115970000Y-118924661D01*
X115970000Y-118819339D01*
X115942741Y-118717606D01*
X115890080Y-118626394D01*
X115815606Y-118551920D01*
X115724394Y-118499259D01*
X115622661Y-118472000D01*
X115517339Y-118472000D01*
X115415606Y-118499259D01*
X115324394Y-118551920D01*
X115249920Y-118626394D01*
X115197259Y-118717606D01*
X115170000Y-118819339D01*
X105704343Y-118819339D01*
X106534863Y-117988819D01*
X106596186Y-117955334D01*
X106622544Y-117952500D01*
X114387803Y-117952500D01*
X114454842Y-117972185D01*
X114500597Y-118024989D01*
X114510541Y-118094147D01*
X114488121Y-118149386D01*
X114458143Y-118190646D01*
X114458138Y-118190654D01*
X114365739Y-118372000D01*
X116774260Y-118372000D01*
X116681861Y-118190654D01*
X116681856Y-118190646D01*
X116651879Y-118149386D01*
X116628399Y-118083579D01*
X116644224Y-118015525D01*
X116694330Y-117966830D01*
X116752197Y-117952500D01*
X128219440Y-117952500D01*
X128281439Y-117969112D01*
X129600144Y-118730467D01*
X129670688Y-118754413D01*
X129770130Y-118747896D01*
X129859508Y-118703819D01*
X129908628Y-118647809D01*
X130933302Y-116873021D01*
X130957248Y-116802477D01*
X130950731Y-116703035D01*
X130906654Y-116613657D01*
X130850644Y-116564537D01*
X130807407Y-116539574D01*
X129750500Y-115929368D01*
X129702284Y-115878801D01*
X129688500Y-115821981D01*
X129688500Y-114952543D01*
X129708185Y-114885504D01*
X129724814Y-114864867D01*
X131919541Y-112670139D01*
X131980862Y-112636656D01*
X132050554Y-112641640D01*
X132069220Y-112650435D01*
X132296869Y-112781868D01*
X132850144Y-113101302D01*
X132920688Y-113125248D01*
X133020130Y-113118731D01*
X133109508Y-113074654D01*
X133158628Y-113018644D01*
X134183302Y-111243856D01*
X134207248Y-111173312D01*
X134200731Y-111073870D01*
X134156654Y-110984492D01*
X134100644Y-110935372D01*
X134100641Y-110935370D01*
X132325860Y-109910700D01*
X132325858Y-109910699D01*
X132325856Y-109910698D01*
X132318970Y-109908360D01*
X132255313Y-109886752D01*
X132255312Y-109886752D01*
X132205591Y-109890010D01*
X132155869Y-109893269D01*
X132066492Y-109937346D01*
X132066491Y-109937346D01*
X132017370Y-109993358D01*
X130992700Y-111768139D01*
X130992696Y-111768149D01*
X130968752Y-111838685D01*
X130968752Y-111838687D01*
X130968752Y-111838688D01*
X130975269Y-111938130D01*
X131019346Y-112027508D01*
X131075356Y-112076628D01*
X131098910Y-112090227D01*
X131218370Y-112159197D01*
X131266586Y-112209764D01*
X131279809Y-112278371D01*
X131253841Y-112343236D01*
X131244051Y-112354265D01*
X129057531Y-114540786D01*
X129057527Y-114540791D01*
X129018740Y-114607974D01*
X129018739Y-114607976D01*
X129011386Y-114620710D01*
X128987500Y-114709856D01*
X128987500Y-115405412D01*
X128967815Y-115472451D01*
X128916686Y-115516753D01*
X128916824Y-115517032D01*
X128915760Y-115517556D01*
X128915011Y-115518206D01*
X128912913Y-115518960D01*
X128816492Y-115566511D01*
X128816491Y-115566511D01*
X128767370Y-115622523D01*
X128390509Y-116275267D01*
X127999694Y-116952180D01*
X127862677Y-117189500D01*
X127812110Y-117237716D01*
X127755290Y-117251500D01*
X116435495Y-117251500D01*
X116368456Y-117231815D01*
X116322701Y-117179011D01*
X116312757Y-117109853D01*
X116341782Y-117046297D01*
X116347814Y-117039819D01*
X116385974Y-117001658D01*
X116385975Y-117001657D01*
X116385977Y-117001655D01*
X116500941Y-116829598D01*
X116580130Y-116638420D01*
X116620500Y-116435465D01*
X116620500Y-116228535D01*
X116580130Y-116025580D01*
X116500941Y-115834402D01*
X116434055Y-115734299D01*
X124203714Y-115734299D01*
X124296745Y-115862345D01*
X124296750Y-115862351D01*
X124463697Y-116029298D01*
X124654712Y-116168079D01*
X124865081Y-116275267D01*
X125089636Y-116348230D01*
X125089635Y-116348230D01*
X125322832Y-116385165D01*
X125325171Y-116385165D01*
X125325170Y-116385164D01*
X125087330Y-115497536D01*
X124203714Y-115734299D01*
X116434055Y-115734299D01*
X116385977Y-115662345D01*
X116385975Y-115662342D01*
X116239657Y-115516024D01*
X116067596Y-115401057D01*
X115909951Y-115335759D01*
X115909949Y-115335758D01*
X115876424Y-115321871D01*
X115876412Y-115321868D01*
X115673469Y-115281500D01*
X115673465Y-115281500D01*
X115466535Y-115281500D01*
X115466530Y-115281500D01*
X115263587Y-115321868D01*
X115263579Y-115321870D01*
X115072403Y-115401058D01*
X114900342Y-115516024D01*
X114754024Y-115662342D01*
X114639058Y-115834403D01*
X114559870Y-116025579D01*
X114559868Y-116025587D01*
X114519500Y-116228530D01*
X114519500Y-116435469D01*
X114554944Y-116613656D01*
X114559870Y-116638420D01*
X114639059Y-116829598D01*
X114686042Y-116899913D01*
X114754024Y-117001657D01*
X114792186Y-117039819D01*
X114825671Y-117101142D01*
X114820687Y-117170834D01*
X114778815Y-117226767D01*
X114713351Y-117251184D01*
X114704505Y-117251500D01*
X106379854Y-117251500D01*
X106309123Y-117270451D01*
X106309124Y-117270452D01*
X106290715Y-117275385D01*
X106290709Y-117275387D01*
X106210791Y-117321527D01*
X106210786Y-117321531D01*
X102507137Y-121025181D01*
X102445814Y-121058666D01*
X102419456Y-121061500D01*
X101404725Y-121061500D01*
X101337686Y-121041815D01*
X101291931Y-120989011D01*
X101290164Y-120984952D01*
X101260943Y-120914405D01*
X101237815Y-120879792D01*
X101145977Y-120742345D01*
X101145975Y-120742342D01*
X100999657Y-120596024D01*
X100830715Y-120483142D01*
X100827598Y-120481059D01*
X100636420Y-120401870D01*
X100636412Y-120401868D01*
X100433469Y-120361500D01*
X100433465Y-120361500D01*
X100226535Y-120361500D01*
X100226530Y-120361500D01*
X100023587Y-120401868D01*
X100023579Y-120401870D01*
X99832403Y-120481058D01*
X99660342Y-120596024D01*
X99514024Y-120742342D01*
X99399058Y-120914403D01*
X99319870Y-121105579D01*
X99319868Y-121105587D01*
X99279500Y-121308530D01*
X99279500Y-121515469D01*
X99319868Y-121718412D01*
X99319870Y-121718420D01*
X99399059Y-121909598D01*
X99456541Y-121995626D01*
X99514024Y-122081657D01*
X99660342Y-122227975D01*
X99660345Y-122227977D01*
X99832402Y-122342941D01*
X100023580Y-122422130D01*
X100053696Y-122428120D01*
X100076381Y-122432633D01*
X100138292Y-122465017D01*
X100172866Y-122525733D01*
X100169127Y-122595502D01*
X100128261Y-122652175D01*
X100071589Y-122676723D01*
X100025581Y-122684010D01*
X99830968Y-122747244D01*
X99648650Y-122840140D01*
X99483105Y-122960417D01*
X99483104Y-122960417D01*
X99338417Y-123105104D01*
X99338417Y-123105105D01*
X99218143Y-123270646D01*
X99218138Y-123270654D01*
X99125739Y-123452000D01*
X88211040Y-123452000D01*
X88022916Y-123280334D01*
X88021405Y-123278932D01*
X87673175Y-122950394D01*
X87671688Y-122948968D01*
X87620439Y-122898981D01*
X87328977Y-122614696D01*
X87327563Y-122613294D01*
X86990446Y-122273364D01*
X86989007Y-122271889D01*
X86657556Y-121926371D01*
X86656142Y-121924871D01*
X86330546Y-121573961D01*
X86329251Y-121572544D01*
X86009416Y-121216140D01*
X86008118Y-121214670D01*
X85821676Y-120999833D01*
X89207526Y-120999833D01*
X89228007Y-121142289D01*
X89287794Y-121273203D01*
X89287795Y-121273204D01*
X89287796Y-121273206D01*
X89325415Y-121319889D01*
X89325418Y-121319892D01*
X89325423Y-121319898D01*
X90054589Y-122049062D01*
X90241645Y-122236118D01*
X90288328Y-122273738D01*
X90419244Y-122333526D01*
X90419243Y-122333526D01*
X90437150Y-122336100D01*
X90561701Y-122354008D01*
X90704158Y-122333526D01*
X90835074Y-122273738D01*
X90881757Y-122236119D01*
X92010118Y-121107757D01*
X92047738Y-121061074D01*
X92107526Y-120930158D01*
X92128008Y-120787701D01*
X92107526Y-120645244D01*
X92047738Y-120514328D01*
X92010119Y-120467645D01*
X92010114Y-120467640D01*
X92010110Y-120467635D01*
X91093896Y-119551423D01*
X91093889Y-119551416D01*
X91047206Y-119513796D01*
X90994590Y-119489767D01*
X90916288Y-119454007D01*
X90916290Y-119454007D01*
X90773833Y-119433526D01*
X90631376Y-119454007D01*
X90500462Y-119513794D01*
X90453767Y-119551423D01*
X89325423Y-120679769D01*
X89325417Y-120679776D01*
X89287795Y-120726461D01*
X89287794Y-120726463D01*
X89228007Y-120857376D01*
X89207526Y-120999833D01*
X85821676Y-120999833D01*
X85694325Y-120853087D01*
X85692986Y-120851519D01*
X85385216Y-120484732D01*
X85383905Y-120483142D01*
X85082318Y-120111346D01*
X85081033Y-120109734D01*
X85051041Y-120071477D01*
X84785700Y-119733016D01*
X84784454Y-119731400D01*
X84726214Y-119654513D01*
X84495374Y-119349762D01*
X84494189Y-119348170D01*
X84345876Y-119145455D01*
X87693434Y-119145455D01*
X87693434Y-119318676D01*
X87719236Y-119481588D01*
X87720532Y-119489767D01*
X87774061Y-119654511D01*
X87852702Y-119808854D01*
X87954520Y-119948994D01*
X88077006Y-120071480D01*
X88217146Y-120173298D01*
X88371489Y-120251939D01*
X88536233Y-120305468D01*
X88707323Y-120332566D01*
X88707324Y-120332566D01*
X88880544Y-120332566D01*
X88880545Y-120332566D01*
X89051635Y-120305468D01*
X89216379Y-120251939D01*
X89370722Y-120173298D01*
X89510862Y-120071480D01*
X89845480Y-119736862D01*
X89947298Y-119596722D01*
X90025939Y-119442379D01*
X90079468Y-119277635D01*
X90106566Y-119106545D01*
X90106566Y-118933323D01*
X90105194Y-118924661D01*
X90082574Y-118781840D01*
X90080465Y-118768530D01*
X99279500Y-118768530D01*
X99279500Y-118975469D01*
X99319868Y-119178412D01*
X99319870Y-119178420D01*
X99399058Y-119369596D01*
X99514024Y-119541657D01*
X99660342Y-119687975D01*
X99660345Y-119687977D01*
X99832402Y-119802941D01*
X100023580Y-119882130D01*
X100226530Y-119922499D01*
X100226534Y-119922500D01*
X100226535Y-119922500D01*
X100433466Y-119922500D01*
X100433467Y-119922499D01*
X100636420Y-119882130D01*
X100827598Y-119802941D01*
X100999655Y-119687977D01*
X101145977Y-119541655D01*
X101260941Y-119369598D01*
X101340130Y-119178420D01*
X101380500Y-118975465D01*
X101380500Y-118768535D01*
X101340130Y-118565580D01*
X101260941Y-118374402D01*
X101145977Y-118202345D01*
X101145975Y-118202342D01*
X100999657Y-118056024D01*
X100899076Y-117988819D01*
X100827598Y-117941059D01*
X100636420Y-117861870D01*
X100636412Y-117861868D01*
X100433469Y-117821500D01*
X100433465Y-117821500D01*
X100226535Y-117821500D01*
X100226530Y-117821500D01*
X100023587Y-117861868D01*
X100023579Y-117861870D01*
X99832403Y-117941058D01*
X99660342Y-118056024D01*
X99514024Y-118202342D01*
X99399058Y-118374403D01*
X99319870Y-118565579D01*
X99319868Y-118565587D01*
X99279500Y-118768530D01*
X90080465Y-118768530D01*
X90079468Y-118762235D01*
X90079468Y-118762233D01*
X90025939Y-118597489D01*
X89947298Y-118443146D01*
X89845480Y-118303006D01*
X89722994Y-118180520D01*
X89582854Y-118078702D01*
X89428511Y-118000061D01*
X89263767Y-117946532D01*
X89263765Y-117946531D01*
X89263764Y-117946531D01*
X89132337Y-117925715D01*
X89092677Y-117919434D01*
X88919455Y-117919434D01*
X88879794Y-117925715D01*
X88748368Y-117946531D01*
X88583618Y-118000062D01*
X88429277Y-118078702D01*
X88349322Y-118136793D01*
X88289138Y-118180520D01*
X88289136Y-118180522D01*
X88289135Y-118180522D01*
X87954522Y-118515135D01*
X87954522Y-118515136D01*
X87954520Y-118515138D01*
X87927796Y-118551920D01*
X87852702Y-118655277D01*
X87774062Y-118809618D01*
X87774061Y-118809620D01*
X87774061Y-118809621D01*
X87747296Y-118891993D01*
X87720531Y-118974368D01*
X87693434Y-119145455D01*
X84345876Y-119145455D01*
X84211400Y-118961652D01*
X84210333Y-118960169D01*
X83934090Y-118569121D01*
X83932918Y-118567434D01*
X83799673Y-118372000D01*
X83663154Y-118171763D01*
X83662117Y-118170214D01*
X83398980Y-117770133D01*
X83397912Y-117768480D01*
X83153141Y-117382500D01*
X83141470Y-117364095D01*
X83140402Y-117362379D01*
X83128029Y-117342131D01*
X82890751Y-116953842D01*
X82889754Y-116952180D01*
X82705111Y-116638420D01*
X82646942Y-116539574D01*
X82645911Y-116537789D01*
X82501930Y-116283550D01*
X82501929Y-116283549D01*
X82470773Y-116228534D01*
X82470771Y-116228530D01*
X99279500Y-116228530D01*
X99279500Y-116435469D01*
X99314944Y-116613656D01*
X99319870Y-116638420D01*
X99399059Y-116829598D01*
X99446042Y-116899913D01*
X99514024Y-117001657D01*
X99660342Y-117147975D01*
X99660345Y-117147977D01*
X99832402Y-117262941D01*
X100023580Y-117342130D01*
X100226530Y-117382499D01*
X100226534Y-117382500D01*
X100226535Y-117382500D01*
X100433466Y-117382500D01*
X100433467Y-117382499D01*
X100636420Y-117342130D01*
X100827598Y-117262941D01*
X100999655Y-117147977D01*
X101145977Y-117001655D01*
X101260941Y-116829598D01*
X101340130Y-116638420D01*
X101380500Y-116435465D01*
X101380500Y-116228535D01*
X101340130Y-116025580D01*
X101260941Y-115834402D01*
X101145977Y-115662345D01*
X101145975Y-115662342D01*
X100999657Y-115516024D01*
X100913626Y-115458541D01*
X100827598Y-115401059D01*
X100827593Y-115401057D01*
X100636420Y-115321870D01*
X100636412Y-115321868D01*
X100433469Y-115281500D01*
X100433465Y-115281500D01*
X100226535Y-115281500D01*
X100226530Y-115281500D01*
X100023587Y-115321868D01*
X100023579Y-115321870D01*
X99832403Y-115401058D01*
X99660342Y-115516024D01*
X99514024Y-115662342D01*
X99399058Y-115834403D01*
X99319870Y-116025579D01*
X99319868Y-116025587D01*
X99279500Y-116228530D01*
X82470771Y-116228530D01*
X82409952Y-116121137D01*
X82408983Y-116119391D01*
X82305502Y-115929368D01*
X82180024Y-115698954D01*
X82179064Y-115697154D01*
X82160850Y-115662342D01*
X81957106Y-115272930D01*
X81956253Y-115271268D01*
X81741326Y-114843312D01*
X81740445Y-114841520D01*
X81627977Y-114607980D01*
X81532694Y-114410122D01*
X81531838Y-114408306D01*
X81331314Y-113973574D01*
X81330493Y-113971753D01*
X81296831Y-113895466D01*
X81205520Y-113688530D01*
X99279500Y-113688530D01*
X99279500Y-113895469D01*
X99319868Y-114098412D01*
X99319870Y-114098420D01*
X99399058Y-114289596D01*
X99514024Y-114461657D01*
X99660341Y-114607974D01*
X99660344Y-114607976D01*
X99660345Y-114607977D01*
X99832402Y-114722941D01*
X100023580Y-114802130D01*
X100221608Y-114841520D01*
X100226530Y-114842499D01*
X100226534Y-114842500D01*
X100226535Y-114842500D01*
X100433466Y-114842500D01*
X100433467Y-114842499D01*
X100636420Y-114802130D01*
X100827598Y-114722941D01*
X100999655Y-114607977D01*
X101145977Y-114461655D01*
X101260941Y-114289598D01*
X101340130Y-114098420D01*
X101380500Y-113895465D01*
X101380500Y-113688535D01*
X101380499Y-113688530D01*
X114519500Y-113688530D01*
X114519500Y-113895469D01*
X114559868Y-114098412D01*
X114559870Y-114098420D01*
X114639058Y-114289596D01*
X114754024Y-114461657D01*
X114900341Y-114607974D01*
X114900344Y-114607976D01*
X114900345Y-114607977D01*
X115072402Y-114722941D01*
X115263580Y-114802130D01*
X115461608Y-114841520D01*
X115466530Y-114842499D01*
X115466534Y-114842500D01*
X115466535Y-114842500D01*
X115673466Y-114842500D01*
X115673467Y-114842499D01*
X115822998Y-114812756D01*
X124890884Y-114812756D01*
X124890884Y-114957574D01*
X124928366Y-115097457D01*
X125000774Y-115222873D01*
X125103176Y-115325275D01*
X125228592Y-115397683D01*
X125368475Y-115435165D01*
X125513293Y-115435165D01*
X125653176Y-115397683D01*
X125778592Y-115325275D01*
X125865150Y-115238717D01*
X126053255Y-115238717D01*
X126290018Y-116122333D01*
X126418064Y-116029304D01*
X126585017Y-115862351D01*
X126723798Y-115671336D01*
X126830986Y-115460967D01*
X126903949Y-115236412D01*
X126940884Y-115003217D01*
X126940884Y-115000878D01*
X126940883Y-115000878D01*
X126053255Y-115238717D01*
X125865150Y-115238717D01*
X125880994Y-115222873D01*
X125953402Y-115097457D01*
X125990884Y-114957574D01*
X125990884Y-114812756D01*
X125953402Y-114672873D01*
X125880994Y-114547457D01*
X125778592Y-114445055D01*
X125653176Y-114372647D01*
X125513293Y-114335165D01*
X125368475Y-114335165D01*
X125228592Y-114372647D01*
X125103176Y-114445055D01*
X125000774Y-114547457D01*
X124928366Y-114672873D01*
X124890884Y-114812756D01*
X115822998Y-114812756D01*
X115876420Y-114802130D01*
X115960960Y-114767112D01*
X123940884Y-114767112D01*
X123940884Y-114769450D01*
X124828511Y-114531611D01*
X124591748Y-113647996D01*
X124591747Y-113647996D01*
X124463698Y-113741031D01*
X124463697Y-113741031D01*
X124296750Y-113907978D01*
X124157969Y-114098993D01*
X124050781Y-114309362D01*
X123977818Y-114533917D01*
X123940884Y-114767112D01*
X115960960Y-114767112D01*
X116067598Y-114722941D01*
X116239655Y-114607977D01*
X116385977Y-114461655D01*
X116500941Y-114289598D01*
X116580130Y-114098420D01*
X116620500Y-113895465D01*
X116620500Y-113688535D01*
X116580130Y-113485580D01*
X116580128Y-113485575D01*
X116547020Y-113405644D01*
X116538537Y-113385165D01*
X125556597Y-113385165D01*
X125794436Y-114272792D01*
X126678052Y-114036029D01*
X126585025Y-113907986D01*
X126418070Y-113741031D01*
X126227055Y-113602250D01*
X126016686Y-113495062D01*
X125792131Y-113422099D01*
X125792132Y-113422099D01*
X125558936Y-113385165D01*
X125556597Y-113385165D01*
X116538537Y-113385165D01*
X116500942Y-113294404D01*
X116385975Y-113122342D01*
X116239657Y-112976024D01*
X116090336Y-112876252D01*
X116067598Y-112861059D01*
X116035670Y-112847834D01*
X115876420Y-112781870D01*
X115876412Y-112781868D01*
X115673469Y-112741500D01*
X115673465Y-112741500D01*
X115466535Y-112741500D01*
X115466530Y-112741500D01*
X115263587Y-112781868D01*
X115263579Y-112781870D01*
X115072403Y-112861058D01*
X114900342Y-112976024D01*
X114754024Y-113122342D01*
X114639058Y-113294403D01*
X114559870Y-113485579D01*
X114559868Y-113485587D01*
X114519500Y-113688530D01*
X101380499Y-113688530D01*
X101340130Y-113485580D01*
X101260941Y-113294402D01*
X101145977Y-113122345D01*
X101145975Y-113122342D01*
X100999657Y-112976024D01*
X100850336Y-112876252D01*
X100827598Y-112861059D01*
X100795670Y-112847834D01*
X100636420Y-112781870D01*
X100636412Y-112781868D01*
X100433469Y-112741500D01*
X100433465Y-112741500D01*
X100226535Y-112741500D01*
X100226530Y-112741500D01*
X100023587Y-112781868D01*
X100023579Y-112781870D01*
X99832403Y-112861058D01*
X99660342Y-112976024D01*
X99514024Y-113122342D01*
X99399058Y-113294403D01*
X99319870Y-113485579D01*
X99319868Y-113485587D01*
X99279500Y-113688530D01*
X81205520Y-113688530D01*
X81137206Y-113533710D01*
X81136390Y-113531818D01*
X81090140Y-113422099D01*
X80950434Y-113090677D01*
X80949667Y-113088814D01*
X80869514Y-112889476D01*
X80771057Y-112644614D01*
X80770335Y-112642775D01*
X80599098Y-112195578D01*
X80598411Y-112193736D01*
X80434672Y-111743866D01*
X80433983Y-111741924D01*
X80344074Y-111481513D01*
X80277716Y-111289314D01*
X80277105Y-111287495D01*
X80128388Y-110832366D01*
X80127781Y-110830453D01*
X80105662Y-110758746D01*
X80010401Y-110449915D01*
X79986666Y-110372966D01*
X79986075Y-110370992D01*
X79945779Y-110232206D01*
X79928029Y-110171073D01*
X82160849Y-110171073D01*
X82172643Y-110186168D01*
X82328053Y-110331090D01*
X82504217Y-110449915D01*
X82696804Y-110539720D01*
X82901066Y-110598290D01*
X82901074Y-110598291D01*
X82941046Y-110603199D01*
X83005188Y-110630905D01*
X83044167Y-110688891D01*
X83045610Y-110758746D01*
X83009057Y-110818291D01*
X82992956Y-110829222D01*
X82993560Y-110830142D01*
X82987076Y-110834399D01*
X82877567Y-110927780D01*
X82877563Y-110927784D01*
X82798796Y-111048236D01*
X82798796Y-111048237D01*
X82757155Y-111185999D01*
X82757154Y-111186007D01*
X82756012Y-111329915D01*
X82756013Y-111329919D01*
X82756013Y-111329920D01*
X82770379Y-111388127D01*
X83212507Y-112602861D01*
X83213553Y-112605733D01*
X83239960Y-112659553D01*
X83333341Y-112769065D01*
X83333344Y-112769068D01*
X83352919Y-112781868D01*
X83453797Y-112847834D01*
X83591563Y-112889477D01*
X83663522Y-112890047D01*
X83735477Y-112890618D01*
X83735477Y-112890617D01*
X83735481Y-112890618D01*
X83793688Y-112876252D01*
X85293197Y-112330474D01*
X85347022Y-112304065D01*
X85456535Y-112210682D01*
X85535303Y-112090228D01*
X85576945Y-111952462D01*
X85578087Y-111808544D01*
X85563721Y-111750337D01*
X85120549Y-110532736D01*
X85094140Y-110478911D01*
X85000757Y-110369397D01*
X85000755Y-110369395D01*
X84926835Y-110321058D01*
X84880303Y-110290630D01*
X84742537Y-110248987D01*
X84742532Y-110248986D01*
X84598619Y-110247845D01*
X84590920Y-110248751D01*
X84590534Y-110245472D01*
X84535701Y-110243002D01*
X84478683Y-110202620D01*
X84452548Y-110137822D01*
X84465595Y-110069182D01*
X84485269Y-110041149D01*
X84512741Y-110011689D01*
X84631566Y-109835525D01*
X84721371Y-109642938D01*
X84779941Y-109438677D01*
X84779942Y-109438673D01*
X84805839Y-109227762D01*
X84805170Y-109208618D01*
X83524114Y-109674885D01*
X83619007Y-109620099D01*
X83712099Y-109527007D01*
X83777925Y-109412993D01*
X83812000Y-109285826D01*
X83812000Y-109154174D01*
X83777925Y-109027007D01*
X83712099Y-108912993D01*
X83619007Y-108819901D01*
X83504993Y-108754075D01*
X83377826Y-108720000D01*
X83246174Y-108720000D01*
X83119007Y-108754075D01*
X83004993Y-108819901D01*
X82911901Y-108912993D01*
X82846075Y-109027007D01*
X82812000Y-109154174D01*
X82812000Y-109285826D01*
X82846075Y-109412993D01*
X82911901Y-109527007D01*
X83004993Y-109620099D01*
X83119007Y-109685925D01*
X83246174Y-109720000D01*
X83377826Y-109720000D01*
X83462498Y-109697311D01*
X82160849Y-110171073D01*
X79928029Y-110171073D01*
X79911164Y-110112988D01*
X79852570Y-109911181D01*
X79852054Y-109909348D01*
X79726207Y-109447366D01*
X79725715Y-109445505D01*
X79666317Y-109212233D01*
X81818161Y-109212233D01*
X81818829Y-109231380D01*
X82671143Y-108921163D01*
X82395560Y-108164004D01*
X82256179Y-108272901D01*
X82111258Y-108428310D01*
X81992433Y-108604474D01*
X81902628Y-108797061D01*
X81844058Y-109001323D01*
X81844057Y-109001327D01*
X81818161Y-109212233D01*
X79666317Y-109212233D01*
X79607557Y-108981467D01*
X79607065Y-108979465D01*
X79496657Y-108513618D01*
X79496199Y-108511609D01*
X79393559Y-108044033D01*
X79393134Y-108042016D01*
X79350192Y-107829593D01*
X79348654Y-107821983D01*
X83335252Y-107821983D01*
X83610834Y-108579143D01*
X83610835Y-108579143D01*
X84463149Y-108268925D01*
X84463149Y-108268924D01*
X84451361Y-108253836D01*
X84295951Y-108108913D01*
X84295942Y-108108906D01*
X84119787Y-107990087D01*
X84119783Y-107990085D01*
X83927194Y-107900279D01*
X83722933Y-107841709D01*
X83722929Y-107841708D01*
X83512016Y-107815812D01*
X83335252Y-107821983D01*
X79348654Y-107821983D01*
X79298285Y-107572825D01*
X79297893Y-107570801D01*
X79210843Y-107100028D01*
X79210485Y-107097999D01*
X79166273Y-106834472D01*
X79131264Y-106625804D01*
X79130949Y-106623820D01*
X79119749Y-106549511D01*
X79059582Y-106150334D01*
X79059322Y-106148501D01*
X78995840Y-105673930D01*
X78995588Y-105671918D01*
X78975767Y-105502342D01*
X78940003Y-105196356D01*
X78939781Y-105194308D01*
X78936535Y-105161868D01*
X78892106Y-104717872D01*
X78891936Y-104716016D01*
X78852185Y-104238834D01*
X78852033Y-104236795D01*
X78844776Y-104127802D01*
X78820226Y-103759120D01*
X78820108Y-103757086D01*
X78798572Y-103325579D01*
X78796240Y-103278856D01*
X78796157Y-103276844D01*
X78780246Y-102798399D01*
X78780196Y-102796400D01*
X78779454Y-102751778D01*
X78772235Y-102317562D01*
X78772219Y-102315780D01*
X78772033Y-102226202D01*
X78771722Y-102076278D01*
X78772219Y-101836754D01*
X78772236Y-101834972D01*
X78774037Y-101726636D01*
X78780197Y-101356096D01*
X78780246Y-101354159D01*
X78796159Y-100875654D01*
X78796242Y-100873651D01*
X78800638Y-100785587D01*
X78820109Y-100395440D01*
X78820228Y-100393412D01*
X78825504Y-100314186D01*
X78852034Y-99915733D01*
X78852187Y-99913704D01*
X78891937Y-99436528D01*
X78892105Y-99434693D01*
X78939785Y-98958207D01*
X78940003Y-98956199D01*
X78942884Y-98931549D01*
X78995591Y-98480605D01*
X78995845Y-98478592D01*
X78999866Y-98448534D01*
X79059324Y-98004037D01*
X79059580Y-98002237D01*
X79130960Y-97528663D01*
X79131261Y-97526769D01*
X79210485Y-97054550D01*
X79210843Y-97052527D01*
X79297893Y-96581754D01*
X79298285Y-96579730D01*
X79307584Y-96533734D01*
X79393138Y-96110516D01*
X79393559Y-96108522D01*
X79399388Y-96081967D01*
X79496208Y-95640903D01*
X79496657Y-95638937D01*
X79505649Y-95601000D01*
X79607067Y-95173078D01*
X79607557Y-95171088D01*
X79638291Y-95050387D01*
X79698683Y-94813212D01*
X80791793Y-94813212D01*
X80791793Y-94958162D01*
X80828868Y-95096527D01*
X80829310Y-95098175D01*
X80901781Y-95223698D01*
X80901786Y-95223704D01*
X80955474Y-95277392D01*
X80988959Y-95338715D01*
X80991793Y-95365073D01*
X80991793Y-97898436D01*
X81010381Y-97967810D01*
X81015678Y-97987578D01*
X81015680Y-97987583D01*
X81061820Y-98067501D01*
X81061822Y-98067504D01*
X81061823Y-98067505D01*
X90036787Y-107042469D01*
X90106086Y-107082479D01*
X90106088Y-107082481D01*
X90114464Y-107087316D01*
X90116712Y-107088614D01*
X90205856Y-107112500D01*
X90957114Y-107112500D01*
X91024153Y-107132185D01*
X91044795Y-107148819D01*
X91098485Y-107202509D01*
X91098486Y-107202510D01*
X91098488Y-107202511D01*
X91224011Y-107274982D01*
X91224012Y-107274982D01*
X91224015Y-107274984D01*
X91364025Y-107312500D01*
X91364028Y-107312500D01*
X91508972Y-107312500D01*
X91508975Y-107312500D01*
X91648985Y-107274984D01*
X91774515Y-107202509D01*
X91877009Y-107100015D01*
X91949484Y-106974485D01*
X91987000Y-106834475D01*
X91987000Y-106689525D01*
X91949484Y-106549515D01*
X91877009Y-106423985D01*
X91774515Y-106321491D01*
X91774513Y-106321490D01*
X91774511Y-106321488D01*
X91648988Y-106249017D01*
X91648989Y-106249017D01*
X91637506Y-106245940D01*
X91508975Y-106211500D01*
X91364025Y-106211500D01*
X91235493Y-106245940D01*
X91224011Y-106249017D01*
X91098488Y-106321488D01*
X91098482Y-106321493D01*
X91044795Y-106375181D01*
X90983472Y-106408666D01*
X90957114Y-106411500D01*
X90448544Y-106411500D01*
X90381505Y-106391815D01*
X90360863Y-106375181D01*
X81729112Y-97743430D01*
X81695627Y-97682107D01*
X81692793Y-97655749D01*
X81692793Y-95365073D01*
X81712478Y-95298034D01*
X81729112Y-95277392D01*
X81752807Y-95253697D01*
X81782802Y-95223702D01*
X81855277Y-95098172D01*
X81892793Y-94958162D01*
X81892793Y-94813212D01*
X81855277Y-94673202D01*
X81799568Y-94576712D01*
X81782804Y-94547675D01*
X81782799Y-94547669D01*
X81680310Y-94445180D01*
X81680304Y-94445175D01*
X81554781Y-94372704D01*
X81554782Y-94372704D01*
X81543299Y-94369627D01*
X81414768Y-94335187D01*
X81269818Y-94335187D01*
X81141286Y-94369627D01*
X81129804Y-94372704D01*
X81004281Y-94445175D01*
X81004275Y-94445180D01*
X80901786Y-94547669D01*
X80901781Y-94547675D01*
X80829310Y-94673198D01*
X80829309Y-94673202D01*
X80791793Y-94813212D01*
X79698683Y-94813212D01*
X79725716Y-94707049D01*
X79726198Y-94705218D01*
X79852063Y-94243175D01*
X79852561Y-94241405D01*
X79986081Y-93781540D01*
X79986666Y-93779589D01*
X80017619Y-93679242D01*
X80127798Y-93322048D01*
X80128377Y-93320223D01*
X80277117Y-92865023D01*
X80277704Y-92863276D01*
X80318232Y-92745890D01*
X81544237Y-92745890D01*
X81544237Y-92890840D01*
X81554388Y-92928722D01*
X81581754Y-93030853D01*
X81654225Y-93156376D01*
X81654227Y-93156378D01*
X81654228Y-93156380D01*
X81756722Y-93258874D01*
X81756723Y-93258875D01*
X81756725Y-93258876D01*
X81882248Y-93331347D01*
X81882249Y-93331347D01*
X81882252Y-93331349D01*
X82022262Y-93368865D01*
X82022265Y-93368865D01*
X82167209Y-93368865D01*
X82167212Y-93368865D01*
X82307222Y-93331349D01*
X82432752Y-93258874D01*
X82486442Y-93205184D01*
X82547765Y-93171699D01*
X82574123Y-93168865D01*
X85709706Y-93168865D01*
X85776745Y-93188550D01*
X85822500Y-93241354D01*
X85832444Y-93310512D01*
X85829483Y-93324945D01*
X85809500Y-93399525D01*
X85809500Y-93544475D01*
X85836704Y-93646000D01*
X85847017Y-93684488D01*
X85919488Y-93810011D01*
X85919490Y-93810013D01*
X85919491Y-93810015D01*
X86021985Y-93912509D01*
X86021986Y-93912510D01*
X86021988Y-93912511D01*
X86147511Y-93984982D01*
X86147512Y-93984982D01*
X86147515Y-93984984D01*
X86287525Y-94022500D01*
X86287528Y-94022500D01*
X86432472Y-94022500D01*
X86432475Y-94022500D01*
X86572485Y-93984984D01*
X86698015Y-93912509D01*
X86751705Y-93858819D01*
X86813028Y-93825334D01*
X86815399Y-93824842D01*
X86827277Y-93822500D01*
X86914144Y-93822500D01*
X87003288Y-93798614D01*
X87013912Y-93792480D01*
X87083212Y-93752470D01*
X87229498Y-93606184D01*
X87290821Y-93572699D01*
X87317179Y-93569865D01*
X88645721Y-93569865D01*
X88712760Y-93589550D01*
X88733402Y-93606184D01*
X93339181Y-98211962D01*
X93372666Y-98273285D01*
X93375500Y-98299643D01*
X93375500Y-109227643D01*
X93391796Y-109288464D01*
X93399384Y-109316783D01*
X93399387Y-109316790D01*
X93445527Y-109396708D01*
X93445531Y-109396713D01*
X95907335Y-111858517D01*
X95939427Y-111914102D01*
X95966701Y-112015886D01*
X96026011Y-112118613D01*
X96109887Y-112202489D01*
X96212614Y-112261799D01*
X96327191Y-112292500D01*
X96327194Y-112292500D01*
X96445806Y-112292500D01*
X96445809Y-112292500D01*
X96560386Y-112261799D01*
X96663113Y-112202489D01*
X96746989Y-112118613D01*
X96806299Y-112015886D01*
X96837000Y-111901309D01*
X96837000Y-111782691D01*
X96806299Y-111668114D01*
X96746989Y-111565387D01*
X96663113Y-111481511D01*
X96560386Y-111422201D01*
X96458602Y-111394927D01*
X96444716Y-111386910D01*
X96431271Y-111383986D01*
X96403017Y-111362835D01*
X96188712Y-111148530D01*
X99279500Y-111148530D01*
X99279500Y-111355469D01*
X99310237Y-111509993D01*
X99319870Y-111558420D01*
X99399059Y-111749598D01*
X99421171Y-111782691D01*
X99514024Y-111921657D01*
X99660342Y-112067975D01*
X99660345Y-112067977D01*
X99832402Y-112182941D01*
X100023580Y-112262130D01*
X100226530Y-112302499D01*
X100226534Y-112302500D01*
X100226535Y-112302500D01*
X100433466Y-112302500D01*
X100433467Y-112302499D01*
X100636420Y-112262130D01*
X100827598Y-112182941D01*
X100999655Y-112067977D01*
X101145977Y-111921655D01*
X101260941Y-111749598D01*
X101340130Y-111558420D01*
X101380500Y-111355465D01*
X101380500Y-111148535D01*
X101380499Y-111148530D01*
X114519500Y-111148530D01*
X114519500Y-111355469D01*
X114550237Y-111509993D01*
X114559870Y-111558420D01*
X114639059Y-111749598D01*
X114661171Y-111782691D01*
X114754024Y-111921657D01*
X114900342Y-112067975D01*
X114900345Y-112067977D01*
X115072402Y-112182941D01*
X115263580Y-112262130D01*
X115466530Y-112302499D01*
X115466534Y-112302500D01*
X115466535Y-112302500D01*
X115673466Y-112302500D01*
X115673467Y-112302499D01*
X115876420Y-112262130D01*
X116067598Y-112182941D01*
X116239655Y-112067977D01*
X116385977Y-111921655D01*
X116415129Y-111878025D01*
X116988000Y-111878025D01*
X116988000Y-112022975D01*
X117013627Y-112118615D01*
X117025517Y-112162988D01*
X117097988Y-112288511D01*
X117097990Y-112288513D01*
X117097991Y-112288515D01*
X117200485Y-112391009D01*
X117200486Y-112391010D01*
X117200488Y-112391011D01*
X117326011Y-112463482D01*
X117326012Y-112463482D01*
X117326015Y-112463484D01*
X117466025Y-112501000D01*
X117466028Y-112501000D01*
X117610972Y-112501000D01*
X117610975Y-112501000D01*
X117750985Y-112463484D01*
X117876515Y-112391009D01*
X117979009Y-112288515D01*
X118051484Y-112162985D01*
X118089000Y-112022975D01*
X118089000Y-111947043D01*
X118108685Y-111880004D01*
X118125319Y-111859362D01*
X118844362Y-111140319D01*
X118905685Y-111106834D01*
X118932043Y-111104000D01*
X119007972Y-111104000D01*
X119007975Y-111104000D01*
X119147985Y-111066484D01*
X119273515Y-110994009D01*
X119376009Y-110891515D01*
X119448484Y-110765985D01*
X119486000Y-110625975D01*
X119486000Y-110481025D01*
X119448484Y-110341015D01*
X119436962Y-110321059D01*
X119376011Y-110215488D01*
X119376006Y-110215482D01*
X119273517Y-110112993D01*
X119273511Y-110112988D01*
X119259906Y-110105133D01*
X127453716Y-110105133D01*
X127546747Y-110233179D01*
X127546752Y-110233185D01*
X127713699Y-110400132D01*
X127904714Y-110538913D01*
X128115083Y-110646101D01*
X128339638Y-110719064D01*
X128339637Y-110719064D01*
X128572834Y-110755999D01*
X128575173Y-110755999D01*
X128575172Y-110755998D01*
X128337332Y-109868370D01*
X127453716Y-110105133D01*
X119259906Y-110105133D01*
X119147988Y-110040517D01*
X119147989Y-110040517D01*
X119136506Y-110037440D01*
X119007975Y-110003000D01*
X118863025Y-110003000D01*
X118734493Y-110037440D01*
X118723011Y-110040517D01*
X118597488Y-110112988D01*
X118597482Y-110112993D01*
X118494993Y-110215482D01*
X118494988Y-110215488D01*
X118422517Y-110341011D01*
X118422516Y-110341015D01*
X118385000Y-110481025D01*
X118385000Y-110481027D01*
X118385000Y-110556956D01*
X118365315Y-110623995D01*
X118348681Y-110644637D01*
X117629637Y-111363681D01*
X117568314Y-111397166D01*
X117541956Y-111400000D01*
X117466025Y-111400000D01*
X117337493Y-111434440D01*
X117326011Y-111437517D01*
X117200488Y-111509988D01*
X117200482Y-111509993D01*
X117097993Y-111612482D01*
X117097988Y-111612488D01*
X117025517Y-111738011D01*
X117025516Y-111738015D01*
X116988000Y-111878025D01*
X116415129Y-111878025D01*
X116500941Y-111749598D01*
X116580130Y-111558420D01*
X116620500Y-111355465D01*
X116620500Y-111148535D01*
X116580130Y-110945580D01*
X116550906Y-110875028D01*
X116543437Y-110805559D01*
X116574712Y-110743079D01*
X116577757Y-110739923D01*
X117882470Y-109435212D01*
X117928614Y-109355288D01*
X117931885Y-109343080D01*
X117938931Y-109316787D01*
X117947226Y-109285826D01*
X117952500Y-109266144D01*
X117952500Y-109183590D01*
X128140886Y-109183590D01*
X128140886Y-109328408D01*
X128178368Y-109468291D01*
X128250776Y-109593707D01*
X128353178Y-109696109D01*
X128478594Y-109768517D01*
X128618477Y-109805999D01*
X128763295Y-109805999D01*
X128903178Y-109768517D01*
X129028594Y-109696109D01*
X129115152Y-109609551D01*
X129303257Y-109609551D01*
X129540020Y-110493167D01*
X129668066Y-110400138D01*
X129835019Y-110233185D01*
X129973800Y-110042170D01*
X130080988Y-109831801D01*
X130153951Y-109607246D01*
X130190886Y-109374051D01*
X130190886Y-109371712D01*
X130190885Y-109371712D01*
X129303257Y-109609551D01*
X129115152Y-109609551D01*
X129130996Y-109593707D01*
X129203404Y-109468291D01*
X129240886Y-109328408D01*
X129240886Y-109183590D01*
X129203404Y-109043707D01*
X129130996Y-108918291D01*
X129028594Y-108815889D01*
X128903178Y-108743481D01*
X128763295Y-108705999D01*
X128618477Y-108705999D01*
X128478594Y-108743481D01*
X128353178Y-108815889D01*
X128250776Y-108918291D01*
X128178368Y-109043707D01*
X128140886Y-109183590D01*
X117952500Y-109183590D01*
X117952500Y-109137946D01*
X127190886Y-109137946D01*
X127190886Y-109140284D01*
X128078513Y-108902445D01*
X127841750Y-108018830D01*
X127841749Y-108018830D01*
X127713700Y-108111865D01*
X127713699Y-108111865D01*
X127546752Y-108278812D01*
X127407971Y-108469827D01*
X127300783Y-108680196D01*
X127227820Y-108904751D01*
X127190886Y-109137946D01*
X117952500Y-109137946D01*
X117952500Y-107755999D01*
X128806599Y-107755999D01*
X129044438Y-108643626D01*
X129928054Y-108406863D01*
X129835027Y-108278820D01*
X129668072Y-108111865D01*
X129477057Y-107973084D01*
X129266688Y-107865896D01*
X129042133Y-107792933D01*
X129042134Y-107792933D01*
X128808938Y-107755999D01*
X128806599Y-107755999D01*
X117952500Y-107755999D01*
X117952500Y-102622135D01*
X123419500Y-102622135D01*
X123419500Y-104167870D01*
X123419501Y-104167876D01*
X123425908Y-104227483D01*
X123476202Y-104362328D01*
X123476206Y-104362335D01*
X123562452Y-104477544D01*
X123562455Y-104477547D01*
X123677664Y-104563793D01*
X123677671Y-104563797D01*
X123812517Y-104614091D01*
X123812516Y-104614091D01*
X123819444Y-104614835D01*
X123872127Y-104620500D01*
X125167872Y-104620499D01*
X125227483Y-104614091D01*
X125362331Y-104563796D01*
X125477546Y-104477546D01*
X125563796Y-104362331D01*
X125614091Y-104227483D01*
X125614091Y-104227481D01*
X125615874Y-104219938D01*
X125619117Y-104220704D01*
X125640035Y-104170172D01*
X125697419Y-104130311D01*
X125767243Y-104127802D01*
X125827340Y-104163441D01*
X125847089Y-104191662D01*
X125865379Y-104227557D01*
X125990272Y-104399459D01*
X125990276Y-104399464D01*
X126140535Y-104549723D01*
X126140540Y-104549727D01*
X126312442Y-104674620D01*
X126501784Y-104771096D01*
X126519998Y-104777014D01*
X126520000Y-104777013D01*
X127520000Y-104777013D01*
X127520001Y-104777014D01*
X127538215Y-104771096D01*
X127727557Y-104674620D01*
X127899459Y-104549727D01*
X127899464Y-104549723D01*
X128049723Y-104399464D01*
X128049727Y-104399459D01*
X128174620Y-104227557D01*
X128271094Y-104038219D01*
X128286768Y-103989978D01*
X128326205Y-103932302D01*
X128390563Y-103905103D01*
X128459409Y-103917016D01*
X128510886Y-103964259D01*
X128515185Y-103971999D01*
X128578768Y-104096788D01*
X128680586Y-104236928D01*
X128803072Y-104359414D01*
X128943212Y-104461232D01*
X129097555Y-104539873D01*
X129262299Y-104593402D01*
X129433389Y-104620500D01*
X129433390Y-104620500D01*
X129606610Y-104620500D01*
X129606611Y-104620500D01*
X129777701Y-104593402D01*
X129942445Y-104539873D01*
X130096788Y-104461232D01*
X130236928Y-104359414D01*
X130359414Y-104236928D01*
X130461232Y-104096788D01*
X130539873Y-103942445D01*
X130593402Y-103777701D01*
X130620500Y-103606611D01*
X130620500Y-103183389D01*
X130919500Y-103183389D01*
X130919500Y-103606611D01*
X130927171Y-103655044D01*
X130946536Y-103777315D01*
X130946598Y-103777701D01*
X131000127Y-103942445D01*
X131078768Y-104096788D01*
X131180586Y-104236928D01*
X131303072Y-104359414D01*
X131443212Y-104461232D01*
X131597555Y-104539873D01*
X131762299Y-104593402D01*
X131933389Y-104620500D01*
X131933390Y-104620500D01*
X132106610Y-104620500D01*
X132106611Y-104620500D01*
X132277701Y-104593402D01*
X132442445Y-104539873D01*
X132596788Y-104461232D01*
X132736928Y-104359414D01*
X132859414Y-104236928D01*
X132961232Y-104096788D01*
X133039873Y-103942445D01*
X133093402Y-103777701D01*
X133120500Y-103606611D01*
X133120500Y-103183389D01*
X133093402Y-103012299D01*
X133039873Y-102847555D01*
X132961232Y-102693212D01*
X132859414Y-102553072D01*
X132736928Y-102430586D01*
X132596788Y-102328768D01*
X132442445Y-102250127D01*
X132277701Y-102196598D01*
X132277699Y-102196597D01*
X132277698Y-102196597D01*
X132146271Y-102175781D01*
X132106611Y-102169500D01*
X131933389Y-102169500D01*
X131893728Y-102175781D01*
X131762302Y-102196597D01*
X131597552Y-102250128D01*
X131443211Y-102328768D01*
X131363256Y-102386859D01*
X131303072Y-102430586D01*
X131303070Y-102430588D01*
X131303069Y-102430588D01*
X131180588Y-102553069D01*
X131180588Y-102553070D01*
X131180586Y-102553072D01*
X131144762Y-102602380D01*
X131078768Y-102693211D01*
X131000128Y-102847552D01*
X130946597Y-103012302D01*
X130925795Y-103143643D01*
X130919500Y-103183389D01*
X130620500Y-103183389D01*
X130593402Y-103012299D01*
X130539873Y-102847555D01*
X130461232Y-102693212D01*
X130359414Y-102553072D01*
X130236928Y-102430586D01*
X130096788Y-102328768D01*
X129942445Y-102250127D01*
X129777701Y-102196598D01*
X129777699Y-102196597D01*
X129777698Y-102196597D01*
X129646271Y-102175781D01*
X129606611Y-102169500D01*
X129433389Y-102169500D01*
X129393728Y-102175781D01*
X129262302Y-102196597D01*
X129097552Y-102250128D01*
X128943211Y-102328768D01*
X128863256Y-102386859D01*
X128803072Y-102430586D01*
X128803070Y-102430588D01*
X128803069Y-102430588D01*
X128680588Y-102553069D01*
X128680588Y-102553070D01*
X128680586Y-102553072D01*
X128644762Y-102602380D01*
X128578768Y-102693211D01*
X128515185Y-102818000D01*
X128467210Y-102868796D01*
X128399389Y-102885591D01*
X128333254Y-102863053D01*
X128289803Y-102808338D01*
X128286768Y-102800022D01*
X128271093Y-102751778D01*
X128174620Y-102562442D01*
X128049727Y-102390540D01*
X128049723Y-102390535D01*
X127899464Y-102240276D01*
X127899459Y-102240272D01*
X127727557Y-102115379D01*
X127538216Y-102018904D01*
X127520000Y-102012984D01*
X127520000Y-104777013D01*
X126520000Y-104777013D01*
X126520000Y-103332465D01*
X126545000Y-103332465D01*
X126545000Y-103457535D01*
X126577370Y-103578343D01*
X126639905Y-103686657D01*
X126728343Y-103775095D01*
X126836657Y-103837630D01*
X126957465Y-103870000D01*
X127082535Y-103870000D01*
X127203343Y-103837630D01*
X127311657Y-103775095D01*
X127400095Y-103686657D01*
X127462630Y-103578343D01*
X127495000Y-103457535D01*
X127495000Y-103332465D01*
X127462630Y-103211657D01*
X127400095Y-103103343D01*
X127311657Y-103014905D01*
X127203343Y-102952370D01*
X127082535Y-102920000D01*
X126957465Y-102920000D01*
X126836657Y-102952370D01*
X126728343Y-103014905D01*
X126639905Y-103103343D01*
X126577370Y-103211657D01*
X126545000Y-103332465D01*
X126520000Y-103332465D01*
X126520000Y-102012985D01*
X126519999Y-102012984D01*
X126501783Y-102018904D01*
X126312442Y-102115379D01*
X126140540Y-102240272D01*
X126140535Y-102240276D01*
X125990276Y-102390535D01*
X125990272Y-102390540D01*
X125865377Y-102562444D01*
X125847087Y-102598339D01*
X125799112Y-102649133D01*
X125731290Y-102665927D01*
X125665156Y-102643388D01*
X125621706Y-102588672D01*
X125616976Y-102569807D01*
X125615876Y-102570068D01*
X125614092Y-102562520D01*
X125610567Y-102553070D01*
X125575295Y-102458500D01*
X125563797Y-102427671D01*
X125563793Y-102427664D01*
X125477547Y-102312455D01*
X125477544Y-102312452D01*
X125362335Y-102226206D01*
X125362328Y-102226202D01*
X125227482Y-102175908D01*
X125227483Y-102175908D01*
X125167883Y-102169501D01*
X125167881Y-102169500D01*
X125167873Y-102169500D01*
X125167864Y-102169500D01*
X123872129Y-102169500D01*
X123872123Y-102169501D01*
X123812516Y-102175908D01*
X123677671Y-102226202D01*
X123677664Y-102226206D01*
X123562455Y-102312452D01*
X123562452Y-102312455D01*
X123476206Y-102427664D01*
X123476202Y-102427671D01*
X123425908Y-102562517D01*
X123419501Y-102622116D01*
X123419500Y-102622135D01*
X117952500Y-102622135D01*
X117952500Y-98106093D01*
X124216011Y-98106093D01*
X124409588Y-98168990D01*
X124611683Y-98201000D01*
X124816317Y-98201000D01*
X125018411Y-98168990D01*
X125211987Y-98106093D01*
X124714001Y-97608106D01*
X124714000Y-97608106D01*
X124216011Y-98106093D01*
X117952500Y-98106093D01*
X117952500Y-96396321D01*
X121123500Y-96396321D01*
X121123500Y-97405675D01*
X121123501Y-97405677D01*
X121138034Y-97478739D01*
X121138034Y-97478740D01*
X121179424Y-97540684D01*
X121179427Y-97540688D01*
X121534315Y-97895576D01*
X121534318Y-97895578D01*
X121596260Y-97936966D01*
X121596262Y-97936966D01*
X121596264Y-97936967D01*
X121632793Y-97944233D01*
X121669326Y-97951500D01*
X122846306Y-97951499D01*
X122846311Y-97951499D01*
X122846311Y-97951498D01*
X122861068Y-97949161D01*
X122887060Y-97945045D01*
X122887068Y-97945043D01*
X122942433Y-97936275D01*
X123058294Y-97877241D01*
X123150241Y-97785294D01*
X123209275Y-97669433D01*
X123224500Y-97573307D01*
X123224499Y-97306582D01*
X123244183Y-97239546D01*
X123296987Y-97193791D01*
X123366146Y-97183847D01*
X123429701Y-97212872D01*
X123466430Y-97268266D01*
X123508904Y-97398987D01*
X123508905Y-97398987D01*
X124006893Y-96901000D01*
X123954232Y-96848339D01*
X124314000Y-96848339D01*
X124314000Y-96953661D01*
X124341259Y-97055394D01*
X124393920Y-97146606D01*
X124468394Y-97221080D01*
X124559606Y-97273741D01*
X124661339Y-97301000D01*
X124766661Y-97301000D01*
X124868394Y-97273741D01*
X124959606Y-97221080D01*
X125034080Y-97146606D01*
X125086741Y-97055394D01*
X125114000Y-96953661D01*
X125114000Y-96900999D01*
X125421106Y-96900999D01*
X125421106Y-96901000D01*
X125919093Y-97398986D01*
X125981989Y-97205416D01*
X125989275Y-97159413D01*
X126019204Y-97096278D01*
X126078515Y-97059346D01*
X126148377Y-97060342D01*
X126206611Y-97098951D01*
X126233366Y-97154617D01*
X126243868Y-97207414D01*
X126243870Y-97207420D01*
X126323059Y-97398598D01*
X126327788Y-97405675D01*
X126438024Y-97570657D01*
X126584342Y-97716975D01*
X126584345Y-97716977D01*
X126756402Y-97831941D01*
X126947580Y-97911130D01*
X127150525Y-97951498D01*
X127150530Y-97951499D01*
X127150534Y-97951500D01*
X127150535Y-97951500D01*
X127357466Y-97951500D01*
X127357467Y-97951499D01*
X127560420Y-97911130D01*
X127751598Y-97831941D01*
X127923655Y-97716977D01*
X128069977Y-97570655D01*
X128184941Y-97398598D01*
X128264130Y-97207420D01*
X128304500Y-97004465D01*
X128304500Y-96797535D01*
X128304499Y-96797530D01*
X128743500Y-96797530D01*
X128743500Y-97004469D01*
X128783868Y-97207412D01*
X128783870Y-97207420D01*
X128863059Y-97398598D01*
X128867788Y-97405675D01*
X128978024Y-97570657D01*
X129124342Y-97716975D01*
X129124345Y-97716977D01*
X129296402Y-97831941D01*
X129487580Y-97911130D01*
X129690525Y-97951498D01*
X129690530Y-97951499D01*
X129690534Y-97951500D01*
X129690535Y-97951500D01*
X129897466Y-97951500D01*
X129897467Y-97951499D01*
X130100420Y-97911130D01*
X130291598Y-97831941D01*
X130463655Y-97716977D01*
X130609977Y-97570655D01*
X130724941Y-97398598D01*
X130804130Y-97207420D01*
X130844500Y-97004465D01*
X130844500Y-96797535D01*
X130804130Y-96594580D01*
X130724941Y-96403402D01*
X130609977Y-96231345D01*
X130609975Y-96231342D01*
X130463657Y-96085024D01*
X130360161Y-96015871D01*
X130291598Y-95970059D01*
X130228056Y-95943739D01*
X130100420Y-95890870D01*
X130100412Y-95890868D01*
X129897469Y-95850500D01*
X129897465Y-95850500D01*
X129690535Y-95850500D01*
X129690530Y-95850500D01*
X129487587Y-95890868D01*
X129487579Y-95890870D01*
X129296403Y-95970058D01*
X129124342Y-96085024D01*
X128978024Y-96231342D01*
X128863058Y-96403403D01*
X128783870Y-96594579D01*
X128783868Y-96594587D01*
X128743500Y-96797530D01*
X128304499Y-96797530D01*
X128264130Y-96594580D01*
X128184941Y-96403402D01*
X128069977Y-96231345D01*
X128069975Y-96231342D01*
X127923657Y-96085024D01*
X127820161Y-96015871D01*
X127751598Y-95970059D01*
X127688056Y-95943739D01*
X127560420Y-95890870D01*
X127560412Y-95890868D01*
X127357469Y-95850500D01*
X127357465Y-95850500D01*
X127150535Y-95850500D01*
X127150530Y-95850500D01*
X126947587Y-95890868D01*
X126947579Y-95890870D01*
X126756403Y-95970058D01*
X126584342Y-96085024D01*
X126438024Y-96231342D01*
X126323058Y-96403403D01*
X126243870Y-96594579D01*
X126243868Y-96594584D01*
X126233366Y-96647383D01*
X126200980Y-96709293D01*
X126140264Y-96743867D01*
X126070495Y-96740126D01*
X126013823Y-96699259D01*
X125989275Y-96642586D01*
X125981989Y-96596583D01*
X125919093Y-96403011D01*
X125421106Y-96900999D01*
X125114000Y-96900999D01*
X125114000Y-96848339D01*
X125086741Y-96746606D01*
X125034080Y-96655394D01*
X124959606Y-96580920D01*
X124868394Y-96528259D01*
X124766661Y-96501000D01*
X124661339Y-96501000D01*
X124559606Y-96528259D01*
X124468394Y-96580920D01*
X124393920Y-96655394D01*
X124341259Y-96746606D01*
X124314000Y-96848339D01*
X123954232Y-96848339D01*
X123508904Y-96403011D01*
X123466430Y-96533734D01*
X123426992Y-96591410D01*
X123362634Y-96618608D01*
X123293787Y-96606693D01*
X123242312Y-96559449D01*
X123224499Y-96495416D01*
X123224499Y-96228688D01*
X123209276Y-96132571D01*
X123209276Y-96132570D01*
X123209275Y-96132568D01*
X123209275Y-96132567D01*
X123150241Y-96016706D01*
X123150239Y-96016704D01*
X123150236Y-96016700D01*
X123058299Y-95924763D01*
X123058295Y-95924760D01*
X123058294Y-95924759D01*
X122942433Y-95865725D01*
X122942431Y-95865724D01*
X122942428Y-95865723D01*
X122887064Y-95856955D01*
X122846307Y-95850500D01*
X121669324Y-95850500D01*
X121669322Y-95850501D01*
X121596260Y-95865034D01*
X121596259Y-95865034D01*
X121534315Y-95906424D01*
X121534311Y-95906427D01*
X121179423Y-96261315D01*
X121138033Y-96323261D01*
X121138032Y-96323264D01*
X121123500Y-96396321D01*
X117952500Y-96396321D01*
X117952500Y-95695904D01*
X124216011Y-95695904D01*
X124714000Y-96193893D01*
X124714001Y-96193893D01*
X125211987Y-95695905D01*
X125211987Y-95695904D01*
X125018419Y-95633010D01*
X124816317Y-95601000D01*
X124611683Y-95601000D01*
X124409581Y-95633010D01*
X124409578Y-95633010D01*
X124216011Y-95695904D01*
X117952500Y-95695904D01*
X117952500Y-91901856D01*
X117928614Y-91812712D01*
X117901999Y-91766614D01*
X117882469Y-91732787D01*
X117646300Y-91496618D01*
X117612815Y-91435295D01*
X117617799Y-91365603D01*
X117659671Y-91309670D01*
X117665068Y-91305849D01*
X117763655Y-91239977D01*
X117909977Y-91093655D01*
X118024941Y-90921598D01*
X118104130Y-90730420D01*
X118144500Y-90527465D01*
X118144500Y-90320535D01*
X118104130Y-90117580D01*
X118024941Y-89926402D01*
X117909977Y-89754345D01*
X117909975Y-89754342D01*
X117763657Y-89608024D01*
X117609304Y-89504890D01*
X117591598Y-89493059D01*
X117456033Y-89436906D01*
X117400420Y-89413870D01*
X117400412Y-89413868D01*
X117197469Y-89373500D01*
X117197465Y-89373500D01*
X116990535Y-89373500D01*
X116990530Y-89373500D01*
X116787587Y-89413868D01*
X116787579Y-89413870D01*
X116596403Y-89493058D01*
X116424342Y-89608024D01*
X116278024Y-89754342D01*
X116163058Y-89926403D01*
X116083870Y-90117579D01*
X116083868Y-90117587D01*
X116043500Y-90320530D01*
X116043500Y-90527469D01*
X116083868Y-90730412D01*
X116083870Y-90730420D01*
X116163059Y-90921598D01*
X116163319Y-90921987D01*
X116278024Y-91093657D01*
X116424342Y-91239975D01*
X116424345Y-91239977D01*
X116596402Y-91354941D01*
X116657902Y-91380415D01*
X116667573Y-91384421D01*
X116721976Y-91428262D01*
X116741326Y-91478312D01*
X116741397Y-91478294D01*
X116741572Y-91478948D01*
X116743058Y-91482791D01*
X116743498Y-91486138D01*
X116767386Y-91575287D01*
X116767387Y-91575290D01*
X116813527Y-91655208D01*
X116813531Y-91655213D01*
X117215181Y-92056863D01*
X117248666Y-92118186D01*
X117251500Y-92144544D01*
X117251500Y-109023455D01*
X117231815Y-109090494D01*
X117215181Y-109111136D01*
X116082103Y-110244213D01*
X116020780Y-110277698D01*
X115951088Y-110272714D01*
X115946990Y-110271101D01*
X115876420Y-110241870D01*
X115876412Y-110241868D01*
X115673469Y-110201500D01*
X115673465Y-110201500D01*
X115466535Y-110201500D01*
X115466530Y-110201500D01*
X115263587Y-110241868D01*
X115263579Y-110241870D01*
X115072403Y-110321058D01*
X114900342Y-110436024D01*
X114754024Y-110582342D01*
X114639058Y-110754403D01*
X114559870Y-110945579D01*
X114559868Y-110945587D01*
X114519500Y-111148530D01*
X101380499Y-111148530D01*
X101340130Y-110945580D01*
X101260941Y-110754402D01*
X101145977Y-110582345D01*
X101145975Y-110582342D01*
X100999657Y-110436024D01*
X100905283Y-110372966D01*
X100827598Y-110321059D01*
X100754136Y-110290630D01*
X100636420Y-110241870D01*
X100636412Y-110241868D01*
X100433469Y-110201500D01*
X100433465Y-110201500D01*
X100226535Y-110201500D01*
X100226530Y-110201500D01*
X100023587Y-110241868D01*
X100023579Y-110241870D01*
X99832403Y-110321058D01*
X99660342Y-110436024D01*
X99514024Y-110582342D01*
X99399058Y-110754403D01*
X99319870Y-110945579D01*
X99319868Y-110945587D01*
X99279500Y-111148530D01*
X96188712Y-111148530D01*
X94112819Y-109072637D01*
X94079334Y-109011314D01*
X94076500Y-108984956D01*
X94076500Y-108608530D01*
X99279500Y-108608530D01*
X99279500Y-108815469D01*
X99319868Y-109018412D01*
X99319870Y-109018420D01*
X99399058Y-109209596D01*
X99514024Y-109381657D01*
X99660342Y-109527975D01*
X99660345Y-109527977D01*
X99832402Y-109642941D01*
X100023580Y-109722130D01*
X100226530Y-109762499D01*
X100226534Y-109762500D01*
X100226535Y-109762500D01*
X100433466Y-109762500D01*
X100433467Y-109762499D01*
X100636420Y-109722130D01*
X100827598Y-109642941D01*
X100999655Y-109527977D01*
X101145977Y-109381655D01*
X101260941Y-109209598D01*
X101340130Y-109018420D01*
X101380500Y-108815465D01*
X101380500Y-108608535D01*
X101380499Y-108608530D01*
X114519500Y-108608530D01*
X114519500Y-108815469D01*
X114559868Y-109018412D01*
X114559870Y-109018420D01*
X114639058Y-109209596D01*
X114754024Y-109381657D01*
X114900342Y-109527975D01*
X114900345Y-109527977D01*
X115072402Y-109642941D01*
X115263580Y-109722130D01*
X115466530Y-109762499D01*
X115466534Y-109762500D01*
X115466535Y-109762500D01*
X115673466Y-109762500D01*
X115673467Y-109762499D01*
X115876420Y-109722130D01*
X116067598Y-109642941D01*
X116239655Y-109527977D01*
X116385977Y-109381655D01*
X116500941Y-109209598D01*
X116580130Y-109018420D01*
X116620500Y-108815465D01*
X116620500Y-108608535D01*
X116580130Y-108405580D01*
X116500941Y-108214402D01*
X116385977Y-108042345D01*
X116385975Y-108042342D01*
X116239657Y-107896024D01*
X116140235Y-107829593D01*
X116067598Y-107781059D01*
X115876420Y-107701870D01*
X115876412Y-107701868D01*
X115673469Y-107661500D01*
X115673465Y-107661500D01*
X115466535Y-107661500D01*
X115466530Y-107661500D01*
X115263587Y-107701868D01*
X115263579Y-107701870D01*
X115072403Y-107781058D01*
X114900342Y-107896024D01*
X114754024Y-108042342D01*
X114639058Y-108214403D01*
X114559870Y-108405579D01*
X114559868Y-108405587D01*
X114519500Y-108608530D01*
X101380499Y-108608530D01*
X101340130Y-108405580D01*
X101260941Y-108214402D01*
X101145977Y-108042345D01*
X101145975Y-108042342D01*
X100999657Y-107896024D01*
X100900235Y-107829593D01*
X100827598Y-107781059D01*
X100636420Y-107701870D01*
X100636412Y-107701868D01*
X100433469Y-107661500D01*
X100433465Y-107661500D01*
X100226535Y-107661500D01*
X100226530Y-107661500D01*
X100023587Y-107701868D01*
X100023579Y-107701870D01*
X99832403Y-107781058D01*
X99660342Y-107896024D01*
X99514024Y-108042342D01*
X99399058Y-108214403D01*
X99319870Y-108405579D01*
X99319868Y-108405587D01*
X99279500Y-108608530D01*
X94076500Y-108608530D01*
X94076500Y-106068530D01*
X99279500Y-106068530D01*
X99279500Y-106275469D01*
X99319868Y-106478412D01*
X99319870Y-106478420D01*
X99399058Y-106669596D01*
X99514024Y-106841657D01*
X99660342Y-106987975D01*
X99660345Y-106987977D01*
X99832402Y-107102941D01*
X100023580Y-107182130D01*
X100226530Y-107222499D01*
X100226534Y-107222500D01*
X100226535Y-107222500D01*
X100433466Y-107222500D01*
X100433467Y-107222499D01*
X100636420Y-107182130D01*
X100827598Y-107102941D01*
X100999655Y-106987977D01*
X101145977Y-106841655D01*
X101260941Y-106669598D01*
X101340130Y-106478420D01*
X101380500Y-106275465D01*
X101380500Y-106068535D01*
X101380499Y-106068530D01*
X114519500Y-106068530D01*
X114519500Y-106275469D01*
X114559868Y-106478412D01*
X114559870Y-106478420D01*
X114639058Y-106669596D01*
X114754024Y-106841657D01*
X114900342Y-106987975D01*
X114900345Y-106987977D01*
X115072402Y-107102941D01*
X115263580Y-107182130D01*
X115466530Y-107222499D01*
X115466534Y-107222500D01*
X115466535Y-107222500D01*
X115673466Y-107222500D01*
X115673467Y-107222499D01*
X115876420Y-107182130D01*
X116067598Y-107102941D01*
X116239655Y-106987977D01*
X116385977Y-106841655D01*
X116500941Y-106669598D01*
X116580130Y-106478420D01*
X116620500Y-106275465D01*
X116620500Y-106068535D01*
X116580130Y-105865580D01*
X116500941Y-105674402D01*
X116385977Y-105502345D01*
X116385975Y-105502342D01*
X116239657Y-105356024D01*
X116153626Y-105298541D01*
X116067598Y-105241059D01*
X115876420Y-105161870D01*
X115876412Y-105161868D01*
X115673469Y-105121500D01*
X115673465Y-105121500D01*
X115466535Y-105121500D01*
X115466530Y-105121500D01*
X115263587Y-105161868D01*
X115263579Y-105161870D01*
X115072403Y-105241058D01*
X114900342Y-105356024D01*
X114754024Y-105502342D01*
X114639058Y-105674403D01*
X114559870Y-105865579D01*
X114559868Y-105865587D01*
X114519500Y-106068530D01*
X101380499Y-106068530D01*
X101340130Y-105865580D01*
X101260941Y-105674402D01*
X101145977Y-105502345D01*
X101145975Y-105502342D01*
X100999657Y-105356024D01*
X100913626Y-105298541D01*
X100827598Y-105241059D01*
X100636420Y-105161870D01*
X100636412Y-105161868D01*
X100433469Y-105121500D01*
X100433465Y-105121500D01*
X100226535Y-105121500D01*
X100226530Y-105121500D01*
X100023587Y-105161868D01*
X100023579Y-105161870D01*
X99832403Y-105241058D01*
X99660342Y-105356024D01*
X99514024Y-105502342D01*
X99399058Y-105674403D01*
X99319870Y-105865579D01*
X99319868Y-105865587D01*
X99279500Y-106068530D01*
X94076500Y-106068530D01*
X94076500Y-102669419D01*
X94096185Y-102602380D01*
X94148989Y-102556625D01*
X94218147Y-102546681D01*
X94281703Y-102575706D01*
X94299766Y-102595106D01*
X94373884Y-102694116D01*
X94486222Y-102778212D01*
X94566993Y-102808338D01*
X94617700Y-102827251D01*
X94675809Y-102833499D01*
X94675826Y-102833500D01*
X95369174Y-102833500D01*
X95369190Y-102833499D01*
X95427299Y-102827251D01*
X95444584Y-102820804D01*
X95558778Y-102778212D01*
X95671116Y-102694116D01*
X95755212Y-102581778D01*
X95768819Y-102545295D01*
X95810690Y-102489364D01*
X95876154Y-102464947D01*
X95944427Y-102479799D01*
X95993832Y-102529205D01*
X96001178Y-102545288D01*
X96014788Y-102581778D01*
X96014789Y-102581780D01*
X96044985Y-102622116D01*
X96098884Y-102694116D01*
X96211222Y-102778212D01*
X96292559Y-102808549D01*
X96348492Y-102850419D01*
X96372909Y-102915884D01*
X96358057Y-102984157D01*
X96336906Y-103012411D01*
X96106032Y-103243285D01*
X96106030Y-103243288D01*
X96065948Y-103312712D01*
X96065947Y-103312714D01*
X96059888Y-103323208D01*
X96059885Y-103323215D01*
X96036000Y-103412356D01*
X96036000Y-103894859D01*
X96019387Y-103956859D01*
X95966702Y-104048110D01*
X95966701Y-104048114D01*
X95936000Y-104162691D01*
X95936000Y-104281309D01*
X95966701Y-104395886D01*
X96026011Y-104498613D01*
X96109887Y-104582489D01*
X96212614Y-104641799D01*
X96327191Y-104672500D01*
X96327194Y-104672500D01*
X96445806Y-104672500D01*
X96445809Y-104672500D01*
X96560386Y-104641799D01*
X96663113Y-104582489D01*
X96746989Y-104498613D01*
X96806299Y-104395886D01*
X96837000Y-104281309D01*
X96837000Y-104162691D01*
X96806299Y-104048114D01*
X96757885Y-103964259D01*
X96753613Y-103956859D01*
X96749462Y-103941370D01*
X96742023Y-103929794D01*
X96737000Y-103894859D01*
X96737000Y-103655044D01*
X96756685Y-103588005D01*
X96773319Y-103567363D01*
X96883147Y-103457535D01*
X97027970Y-103312712D01*
X97074114Y-103232788D01*
X97087350Y-103183389D01*
X97098000Y-103143644D01*
X97098000Y-102933598D01*
X97117685Y-102866559D01*
X97170489Y-102820804D01*
X97178650Y-102817422D01*
X97283778Y-102778212D01*
X97396116Y-102694116D01*
X97480212Y-102581778D01*
X97529251Y-102450299D01*
X97531370Y-102430588D01*
X97535499Y-102392190D01*
X97535500Y-102392173D01*
X97535500Y-101823826D01*
X97535499Y-101823809D01*
X97529251Y-101765700D01*
X97499820Y-101686794D01*
X97480212Y-101634222D01*
X97396116Y-101521884D01*
X97283778Y-101437788D01*
X97283775Y-101437787D01*
X97178665Y-101398582D01*
X97122732Y-101356711D01*
X97098316Y-101291246D01*
X97098000Y-101282401D01*
X97098000Y-99283044D01*
X97117685Y-99216005D01*
X97134319Y-99195363D01*
X97135175Y-99194507D01*
X97181470Y-99148212D01*
X97227614Y-99068288D01*
X97251500Y-98979144D01*
X97251500Y-98886856D01*
X97251500Y-98755943D01*
X97271185Y-98688904D01*
X97323989Y-98643149D01*
X97362250Y-98632653D01*
X97367483Y-98632091D01*
X97502331Y-98581796D01*
X97617546Y-98495546D01*
X97703796Y-98380331D01*
X97754091Y-98245483D01*
X97760500Y-98185873D01*
X97760499Y-97140128D01*
X97754091Y-97080517D01*
X97746566Y-97060342D01*
X97703797Y-96945671D01*
X97703793Y-96945664D01*
X97617547Y-96830455D01*
X97617544Y-96830452D01*
X97502335Y-96744206D01*
X97502328Y-96744202D01*
X97367486Y-96693910D01*
X97367485Y-96693909D01*
X97367483Y-96693909D01*
X97307873Y-96687500D01*
X97307863Y-96687500D01*
X96537129Y-96687500D01*
X96537123Y-96687501D01*
X96477516Y-96693908D01*
X96342671Y-96744202D01*
X96342664Y-96744206D01*
X96227455Y-96830452D01*
X96227452Y-96830455D01*
X96141206Y-96945664D01*
X96141202Y-96945671D01*
X96090908Y-97080517D01*
X96084851Y-97136863D01*
X96084501Y-97140123D01*
X96084500Y-97140135D01*
X96084500Y-98185870D01*
X96084501Y-98185876D01*
X96090908Y-98245483D01*
X96141202Y-98380328D01*
X96141206Y-98380335D01*
X96227452Y-98495544D01*
X96227455Y-98495547D01*
X96342664Y-98581793D01*
X96342673Y-98581798D01*
X96463312Y-98626793D01*
X96484860Y-98642923D01*
X96508380Y-98656019D01*
X96512410Y-98663547D01*
X96519246Y-98668664D01*
X96528652Y-98693882D01*
X96541359Y-98717615D01*
X96540679Y-98726127D01*
X96543664Y-98734128D01*
X96537942Y-98760432D01*
X96535801Y-98787264D01*
X96530240Y-98795838D01*
X96528813Y-98802401D01*
X96518632Y-98818100D01*
X96513567Y-98824750D01*
X96467030Y-98871288D01*
X96436186Y-98924712D01*
X96432240Y-98931545D01*
X96432238Y-98931549D01*
X96420886Y-98951210D01*
X96397000Y-99040356D01*
X96397000Y-101282401D01*
X96377315Y-101349440D01*
X96324511Y-101395195D01*
X96316335Y-101398582D01*
X96211221Y-101437788D01*
X96098884Y-101521884D01*
X96014788Y-101634221D01*
X96001181Y-101670703D01*
X95959309Y-101726636D01*
X95893845Y-101751052D01*
X95825572Y-101736200D01*
X95776167Y-101686794D01*
X95768819Y-101670703D01*
X95755226Y-101634260D01*
X95755212Y-101634222D01*
X95671116Y-101521884D01*
X95558778Y-101437788D01*
X95558776Y-101437787D01*
X95558778Y-101437787D01*
X95427166Y-101388698D01*
X95371232Y-101346827D01*
X95346816Y-101281362D01*
X95346500Y-101272517D01*
X95346500Y-99013858D01*
X95346500Y-99013856D01*
X95322614Y-98924712D01*
X95291770Y-98871288D01*
X95276472Y-98844791D01*
X95276468Y-98844786D01*
X95262338Y-98830656D01*
X95228853Y-98769333D01*
X95233837Y-98699641D01*
X95275709Y-98643708D01*
X95306685Y-98626793D01*
X95427331Y-98581796D01*
X95542546Y-98495546D01*
X95628796Y-98380331D01*
X95679091Y-98245483D01*
X95685500Y-98185873D01*
X95685499Y-97140128D01*
X95679091Y-97080517D01*
X95671566Y-97060342D01*
X95628797Y-96945671D01*
X95628793Y-96945664D01*
X95542547Y-96830455D01*
X95542544Y-96830452D01*
X95427335Y-96744206D01*
X95427328Y-96744202D01*
X95292486Y-96693910D01*
X95292485Y-96693909D01*
X95292483Y-96693909D01*
X95232873Y-96687500D01*
X95232863Y-96687500D01*
X94462129Y-96687500D01*
X94462123Y-96687501D01*
X94402516Y-96693908D01*
X94267671Y-96744202D01*
X94267664Y-96744206D01*
X94152455Y-96830452D01*
X94152452Y-96830455D01*
X94066206Y-96945664D01*
X94066202Y-96945671D01*
X94015501Y-97081608D01*
X93973629Y-97137542D01*
X93908165Y-97161959D01*
X93839892Y-97147107D01*
X93811638Y-97125956D01*
X92624863Y-95939181D01*
X92591378Y-95877858D01*
X92596362Y-95808166D01*
X92638234Y-95752233D01*
X92703698Y-95727816D01*
X92712544Y-95727500D01*
X97212456Y-95727500D01*
X97279495Y-95747185D01*
X97300137Y-95763819D01*
X98673181Y-97136863D01*
X98706666Y-97198186D01*
X98709500Y-97224544D01*
X98709500Y-102408144D01*
X98715514Y-102430588D01*
X98722993Y-102458500D01*
X98733386Y-102497289D01*
X98733387Y-102497290D01*
X98779527Y-102577208D01*
X98779531Y-102577213D01*
X99322213Y-103119895D01*
X99355698Y-103181218D01*
X99350714Y-103250910D01*
X99349093Y-103255028D01*
X99319871Y-103325575D01*
X99319868Y-103325587D01*
X99279500Y-103528530D01*
X99279500Y-103735469D01*
X99319868Y-103938412D01*
X99319870Y-103938420D01*
X99385468Y-104096788D01*
X99399059Y-104129598D01*
X99440529Y-104191662D01*
X99514024Y-104301657D01*
X99660342Y-104447975D01*
X99660345Y-104447977D01*
X99832402Y-104562941D01*
X100023580Y-104642130D01*
X100226530Y-104682499D01*
X100226534Y-104682500D01*
X100226535Y-104682500D01*
X100433466Y-104682500D01*
X100433467Y-104682499D01*
X100636420Y-104642130D01*
X100827598Y-104562941D01*
X100999655Y-104447977D01*
X101145977Y-104301655D01*
X101260941Y-104129598D01*
X101340130Y-103938420D01*
X101380500Y-103735465D01*
X101380500Y-103528535D01*
X101380499Y-103528530D01*
X114519500Y-103528530D01*
X114519500Y-103735469D01*
X114559868Y-103938412D01*
X114559870Y-103938420D01*
X114625468Y-104096788D01*
X114639059Y-104129598D01*
X114680529Y-104191662D01*
X114754024Y-104301657D01*
X114900342Y-104447975D01*
X114900345Y-104447977D01*
X115072402Y-104562941D01*
X115263580Y-104642130D01*
X115466530Y-104682499D01*
X115466534Y-104682500D01*
X115466535Y-104682500D01*
X115673466Y-104682500D01*
X115673467Y-104682499D01*
X115876420Y-104642130D01*
X116067598Y-104562941D01*
X116239655Y-104447977D01*
X116385977Y-104301655D01*
X116500941Y-104129598D01*
X116580130Y-103938420D01*
X116620500Y-103735465D01*
X116620500Y-103528535D01*
X116580130Y-103325580D01*
X116500941Y-103134402D01*
X116385977Y-102962345D01*
X116385975Y-102962342D01*
X116239657Y-102816024D01*
X116143505Y-102751778D01*
X116067598Y-102701059D01*
X116050836Y-102694116D01*
X115876420Y-102621870D01*
X115876412Y-102621868D01*
X115673469Y-102581500D01*
X115673465Y-102581500D01*
X115466535Y-102581500D01*
X115466530Y-102581500D01*
X115263587Y-102621868D01*
X115263579Y-102621870D01*
X115072403Y-102701058D01*
X114900342Y-102816024D01*
X114754024Y-102962342D01*
X114639058Y-103134403D01*
X114559870Y-103325579D01*
X114559868Y-103325587D01*
X114519500Y-103528530D01*
X101380499Y-103528530D01*
X101340130Y-103325580D01*
X101260941Y-103134402D01*
X101145977Y-102962345D01*
X101145975Y-102962342D01*
X100999657Y-102816024D01*
X100903505Y-102751778D01*
X100827598Y-102701059D01*
X100810836Y-102694116D01*
X100636420Y-102621870D01*
X100636412Y-102621868D01*
X100433469Y-102581500D01*
X100433465Y-102581500D01*
X100226535Y-102581500D01*
X100226530Y-102581500D01*
X100023587Y-102621868D01*
X100023575Y-102621871D01*
X99953028Y-102651093D01*
X99883559Y-102658562D01*
X99821080Y-102627287D01*
X99817895Y-102624213D01*
X99446819Y-102253137D01*
X99432115Y-102226209D01*
X99415523Y-102200391D01*
X99414631Y-102194190D01*
X99413334Y-102191814D01*
X99410500Y-102165456D01*
X99410500Y-101957495D01*
X99430185Y-101890456D01*
X99482989Y-101844701D01*
X99552147Y-101834757D01*
X99615703Y-101863782D01*
X99622181Y-101869814D01*
X99660342Y-101907975D01*
X99660345Y-101907977D01*
X99832402Y-102022941D01*
X100023580Y-102102130D01*
X100226530Y-102142499D01*
X100226534Y-102142500D01*
X100226535Y-102142500D01*
X100433466Y-102142500D01*
X100433467Y-102142499D01*
X100636420Y-102102130D01*
X100827598Y-102022941D01*
X100999655Y-101907977D01*
X101145977Y-101761655D01*
X101260941Y-101589598D01*
X101340130Y-101398420D01*
X101380500Y-101195465D01*
X101380500Y-100988535D01*
X101380499Y-100988530D01*
X114519500Y-100988530D01*
X114519500Y-101195469D01*
X114559868Y-101398412D01*
X114559870Y-101398420D01*
X114639059Y-101589598D01*
X114659969Y-101620892D01*
X114754024Y-101761657D01*
X114900342Y-101907975D01*
X114900345Y-101907977D01*
X115072402Y-102022941D01*
X115263580Y-102102130D01*
X115466530Y-102142499D01*
X115466534Y-102142500D01*
X115466535Y-102142500D01*
X115673466Y-102142500D01*
X115673467Y-102142499D01*
X115876420Y-102102130D01*
X116067598Y-102022941D01*
X116239655Y-101907977D01*
X116385977Y-101761655D01*
X116500941Y-101589598D01*
X116580130Y-101398420D01*
X116620500Y-101195465D01*
X116620500Y-100988535D01*
X116580130Y-100785580D01*
X116500941Y-100594402D01*
X116385977Y-100422345D01*
X116385975Y-100422342D01*
X116239657Y-100276024D01*
X116153626Y-100218541D01*
X116067598Y-100161059D01*
X115876420Y-100081870D01*
X115876412Y-100081868D01*
X115673469Y-100041500D01*
X115673465Y-100041500D01*
X115466535Y-100041500D01*
X115466530Y-100041500D01*
X115263587Y-100081868D01*
X115263579Y-100081870D01*
X115072403Y-100161058D01*
X114900342Y-100276024D01*
X114754024Y-100422342D01*
X114639058Y-100594403D01*
X114559870Y-100785579D01*
X114559868Y-100785587D01*
X114519500Y-100988530D01*
X101380499Y-100988530D01*
X101340130Y-100785580D01*
X101260941Y-100594402D01*
X101145977Y-100422345D01*
X101145975Y-100422342D01*
X100999657Y-100276024D01*
X100913626Y-100218541D01*
X100827598Y-100161059D01*
X100636420Y-100081870D01*
X100636412Y-100081868D01*
X100433469Y-100041500D01*
X100433465Y-100041500D01*
X100226535Y-100041500D01*
X100226530Y-100041500D01*
X100023587Y-100081868D01*
X100023579Y-100081870D01*
X99832403Y-100161058D01*
X99660342Y-100276024D01*
X99660341Y-100276025D01*
X99622181Y-100314186D01*
X99560858Y-100347671D01*
X99491166Y-100342687D01*
X99435233Y-100300815D01*
X99410816Y-100235351D01*
X99410500Y-100226505D01*
X99410500Y-99417495D01*
X99430185Y-99350456D01*
X99482989Y-99304701D01*
X99552147Y-99294757D01*
X99615703Y-99323782D01*
X99622181Y-99329814D01*
X99660342Y-99367975D01*
X99660345Y-99367977D01*
X99832402Y-99482941D01*
X100023580Y-99562130D01*
X100226530Y-99602499D01*
X100226534Y-99602500D01*
X100226535Y-99602500D01*
X100433466Y-99602500D01*
X100433467Y-99602499D01*
X100636420Y-99562130D01*
X100827598Y-99482941D01*
X100999655Y-99367977D01*
X101145977Y-99221655D01*
X101260941Y-99049598D01*
X101340130Y-98858420D01*
X101380500Y-98655465D01*
X101380500Y-98448535D01*
X101380499Y-98448530D01*
X114519500Y-98448530D01*
X114519500Y-98655469D01*
X114559868Y-98858412D01*
X114559870Y-98858420D01*
X114628689Y-99024564D01*
X114639059Y-99049598D01*
X114651547Y-99068287D01*
X114754024Y-99221657D01*
X114900342Y-99367975D01*
X114900345Y-99367977D01*
X115072402Y-99482941D01*
X115263580Y-99562130D01*
X115466530Y-99602499D01*
X115466534Y-99602500D01*
X115466535Y-99602500D01*
X115673466Y-99602500D01*
X115673467Y-99602499D01*
X115876420Y-99562130D01*
X116067598Y-99482941D01*
X116239655Y-99367977D01*
X116385977Y-99221655D01*
X116500941Y-99049598D01*
X116580130Y-98858420D01*
X116620500Y-98655465D01*
X116620500Y-98448535D01*
X116580130Y-98245580D01*
X116500941Y-98054402D01*
X116385977Y-97882345D01*
X116385975Y-97882342D01*
X116239657Y-97736024D01*
X116139988Y-97669428D01*
X116067598Y-97621059D01*
X115876420Y-97541870D01*
X115876412Y-97541868D01*
X115673469Y-97501500D01*
X115673465Y-97501500D01*
X115466535Y-97501500D01*
X115466530Y-97501500D01*
X115263587Y-97541868D01*
X115263579Y-97541870D01*
X115072403Y-97621058D01*
X114900342Y-97736024D01*
X114754024Y-97882342D01*
X114639058Y-98054403D01*
X114559870Y-98245579D01*
X114559868Y-98245587D01*
X114519500Y-98448530D01*
X101380499Y-98448530D01*
X101340130Y-98245580D01*
X101260941Y-98054402D01*
X101145977Y-97882345D01*
X101145975Y-97882342D01*
X100999657Y-97736024D01*
X100899988Y-97669428D01*
X100827598Y-97621059D01*
X100636420Y-97541870D01*
X100636412Y-97541868D01*
X100433469Y-97501500D01*
X100433465Y-97501500D01*
X100226535Y-97501500D01*
X100226530Y-97501500D01*
X100023587Y-97541868D01*
X100023579Y-97541870D01*
X99832403Y-97621058D01*
X99660342Y-97736024D01*
X99660341Y-97736025D01*
X99622181Y-97774186D01*
X99560858Y-97807671D01*
X99491166Y-97802687D01*
X99435233Y-97760815D01*
X99410816Y-97695351D01*
X99410500Y-97686505D01*
X99410500Y-96981858D01*
X99410500Y-96981856D01*
X99386614Y-96892712D01*
X99350670Y-96830455D01*
X99340472Y-96812791D01*
X99340468Y-96812786D01*
X98766078Y-96238396D01*
X105128708Y-96238396D01*
X105145780Y-96247094D01*
X105347871Y-96312757D01*
X105557754Y-96346000D01*
X105770246Y-96346000D01*
X105980127Y-96312757D01*
X105980130Y-96312757D01*
X106182218Y-96247094D01*
X106182220Y-96247093D01*
X106199289Y-96238395D01*
X106199290Y-96238395D01*
X105664001Y-95703106D01*
X105664000Y-95703106D01*
X105128708Y-96238396D01*
X98766078Y-96238396D01*
X97624213Y-95096531D01*
X97624208Y-95096527D01*
X97544290Y-95050387D01*
X97544289Y-95050386D01*
X97544288Y-95050386D01*
X97455144Y-95026500D01*
X97455143Y-95026500D01*
X92330644Y-95026500D01*
X92301203Y-95017855D01*
X92271217Y-95011332D01*
X92266201Y-95007577D01*
X92263605Y-95006815D01*
X92242963Y-94990181D01*
X92142535Y-94889753D01*
X104314000Y-94889753D01*
X104314000Y-95102246D01*
X104347242Y-95312127D01*
X104347242Y-95312130D01*
X104412903Y-95514213D01*
X104412908Y-95514225D01*
X104421602Y-95531289D01*
X104421603Y-95531290D01*
X104956894Y-94996000D01*
X104891068Y-94930174D01*
X105164000Y-94930174D01*
X105164000Y-95061826D01*
X105198075Y-95188993D01*
X105263901Y-95303007D01*
X105356993Y-95396099D01*
X105471007Y-95461925D01*
X105598174Y-95496000D01*
X105729826Y-95496000D01*
X105856993Y-95461925D01*
X105971007Y-95396099D01*
X106064099Y-95303007D01*
X106129925Y-95188993D01*
X106164000Y-95061826D01*
X106164000Y-94995999D01*
X106371106Y-94995999D01*
X106371106Y-94996001D01*
X106906395Y-95531290D01*
X106906395Y-95531289D01*
X106915093Y-95514220D01*
X106915094Y-95514218D01*
X106947239Y-95415287D01*
X106986676Y-95357611D01*
X107051035Y-95330413D01*
X107119881Y-95342328D01*
X107171357Y-95389572D01*
X107183100Y-95415284D01*
X107184127Y-95418446D01*
X107184128Y-95418447D01*
X107262768Y-95572788D01*
X107364586Y-95712928D01*
X107487072Y-95835414D01*
X107627212Y-95937232D01*
X107781555Y-96015873D01*
X107946299Y-96069402D01*
X108117389Y-96096500D01*
X108117390Y-96096500D01*
X108290610Y-96096500D01*
X108290611Y-96096500D01*
X108461701Y-96069402D01*
X108626445Y-96015873D01*
X108780788Y-95937232D01*
X108920928Y-95835414D01*
X109043414Y-95712928D01*
X109145232Y-95572788D01*
X109223873Y-95418445D01*
X109277402Y-95253701D01*
X109304500Y-95082611D01*
X109304500Y-94909389D01*
X109277402Y-94738299D01*
X109223873Y-94573555D01*
X109145232Y-94419212D01*
X109043414Y-94279072D01*
X108920928Y-94156586D01*
X108872390Y-94121321D01*
X109643500Y-94121321D01*
X109643500Y-95870678D01*
X109658032Y-95943735D01*
X109658033Y-95943739D01*
X109658034Y-95943740D01*
X109713399Y-96026601D01*
X109796260Y-96081966D01*
X109796264Y-96081967D01*
X109869321Y-96096499D01*
X109869324Y-96096500D01*
X109869326Y-96096500D01*
X111618676Y-96096500D01*
X111618677Y-96096499D01*
X111691740Y-96081966D01*
X111774601Y-96026601D01*
X111829966Y-95943740D01*
X111844500Y-95870674D01*
X111844500Y-94121326D01*
X111844500Y-94121323D01*
X111844499Y-94121321D01*
X111829967Y-94048264D01*
X111829966Y-94048260D01*
X111812754Y-94022500D01*
X111774601Y-93965399D01*
X111710542Y-93922597D01*
X111691739Y-93910033D01*
X111691735Y-93910032D01*
X111618677Y-93895500D01*
X111618674Y-93895500D01*
X109869326Y-93895500D01*
X109869323Y-93895500D01*
X109796264Y-93910032D01*
X109796260Y-93910033D01*
X109713399Y-93965399D01*
X109658033Y-94048260D01*
X109658032Y-94048264D01*
X109643500Y-94121321D01*
X108872390Y-94121321D01*
X108780788Y-94054768D01*
X108626445Y-93976127D01*
X108461701Y-93922598D01*
X108461699Y-93922597D01*
X108461698Y-93922597D01*
X108330271Y-93901781D01*
X108290611Y-93895500D01*
X108117389Y-93895500D01*
X108077728Y-93901781D01*
X107946302Y-93922597D01*
X107781552Y-93976128D01*
X107627211Y-94054768D01*
X107547256Y-94112859D01*
X107487072Y-94156586D01*
X107487070Y-94156588D01*
X107487069Y-94156588D01*
X107364588Y-94279069D01*
X107364588Y-94279070D01*
X107364586Y-94279072D01*
X107357450Y-94288894D01*
X107262768Y-94419211D01*
X107184128Y-94573550D01*
X107183487Y-94575522D01*
X107183102Y-94576712D01*
X107183099Y-94576720D01*
X107182381Y-94577769D01*
X107182266Y-94578048D01*
X107182207Y-94578023D01*
X107143657Y-94634393D01*
X107079297Y-94661587D01*
X107010451Y-94649668D01*
X106958979Y-94602420D01*
X106947239Y-94576712D01*
X106915094Y-94477780D01*
X106906396Y-94460708D01*
X106371106Y-94995999D01*
X106164000Y-94995999D01*
X106164000Y-94930174D01*
X106129925Y-94803007D01*
X106064099Y-94688993D01*
X105971007Y-94595901D01*
X105856993Y-94530075D01*
X105729826Y-94496000D01*
X105598174Y-94496000D01*
X105471007Y-94530075D01*
X105356993Y-94595901D01*
X105263901Y-94688993D01*
X105198075Y-94803007D01*
X105164000Y-94930174D01*
X104891068Y-94930174D01*
X104421603Y-94460709D01*
X104412904Y-94477783D01*
X104347242Y-94679869D01*
X104347242Y-94679872D01*
X104314000Y-94889753D01*
X92142535Y-94889753D01*
X91006385Y-93753603D01*
X105128709Y-93753603D01*
X105664000Y-94288894D01*
X105664001Y-94288894D01*
X106199290Y-93753603D01*
X106199289Y-93753602D01*
X106182225Y-93744908D01*
X106182213Y-93744903D01*
X105980128Y-93679242D01*
X105770246Y-93646000D01*
X105557754Y-93646000D01*
X105347872Y-93679242D01*
X105347869Y-93679242D01*
X105145783Y-93744904D01*
X105128709Y-93753603D01*
X91006385Y-93753603D01*
X89389678Y-92136896D01*
X89389673Y-92136892D01*
X89309755Y-92090752D01*
X89309754Y-92090751D01*
X89309753Y-92090751D01*
X89220609Y-92066865D01*
X89220608Y-92066865D01*
X86581409Y-92066865D01*
X86514370Y-92047180D01*
X86493728Y-92030546D01*
X86092275Y-91629093D01*
X101356011Y-91629093D01*
X101549588Y-91691990D01*
X101751683Y-91724000D01*
X101956317Y-91724000D01*
X102158411Y-91691990D01*
X102351987Y-91629093D01*
X101854001Y-91131106D01*
X101854000Y-91131106D01*
X101356011Y-91629093D01*
X86092275Y-91629093D01*
X84062503Y-89599321D01*
X98263500Y-89599321D01*
X98263500Y-91248678D01*
X98278032Y-91321735D01*
X98278033Y-91321739D01*
X98278034Y-91321740D01*
X98333399Y-91404601D01*
X98377595Y-91434131D01*
X98416260Y-91459966D01*
X98416264Y-91459967D01*
X98489321Y-91474499D01*
X98489324Y-91474500D01*
X98489326Y-91474500D01*
X100138676Y-91474500D01*
X100166834Y-91468899D01*
X100166834Y-91468898D01*
X100211740Y-91459966D01*
X100294601Y-91404601D01*
X100349966Y-91321740D01*
X100364500Y-91248674D01*
X100364500Y-90829585D01*
X100384185Y-90762546D01*
X100436989Y-90716791D01*
X100506147Y-90706847D01*
X100569703Y-90735872D01*
X100606431Y-90791267D01*
X100648904Y-90921987D01*
X100648905Y-90921987D01*
X101146893Y-90424000D01*
X101094232Y-90371339D01*
X101454000Y-90371339D01*
X101454000Y-90476661D01*
X101481259Y-90578394D01*
X101533920Y-90669606D01*
X101608394Y-90744080D01*
X101699606Y-90796741D01*
X101801339Y-90824000D01*
X101906661Y-90824000D01*
X102008394Y-90796741D01*
X102099606Y-90744080D01*
X102174080Y-90669606D01*
X102226741Y-90578394D01*
X102254000Y-90476661D01*
X102254000Y-90423999D01*
X102561106Y-90423999D01*
X102561106Y-90424000D01*
X103059093Y-90921986D01*
X103121989Y-90728416D01*
X103129275Y-90682413D01*
X103159204Y-90619278D01*
X103218515Y-90582346D01*
X103288377Y-90583342D01*
X103346611Y-90621951D01*
X103373366Y-90677617D01*
X103383868Y-90730414D01*
X103383870Y-90730420D01*
X103463059Y-90921598D01*
X103463319Y-90921987D01*
X103578024Y-91093657D01*
X103724342Y-91239975D01*
X103724345Y-91239977D01*
X103896402Y-91354941D01*
X104087580Y-91434130D01*
X104262372Y-91468898D01*
X104290530Y-91474499D01*
X104290534Y-91474500D01*
X104290535Y-91474500D01*
X104497466Y-91474500D01*
X104497467Y-91474499D01*
X104700420Y-91434130D01*
X104891598Y-91354941D01*
X105063655Y-91239977D01*
X105209977Y-91093655D01*
X105324941Y-90921598D01*
X105404130Y-90730420D01*
X105444500Y-90527465D01*
X105444500Y-90320535D01*
X105444499Y-90320530D01*
X105883500Y-90320530D01*
X105883500Y-90527469D01*
X105923868Y-90730412D01*
X105923870Y-90730420D01*
X106003059Y-90921598D01*
X106003319Y-90921987D01*
X106118024Y-91093657D01*
X106264342Y-91239975D01*
X106264345Y-91239977D01*
X106436402Y-91354941D01*
X106627580Y-91434130D01*
X106802372Y-91468898D01*
X106830530Y-91474499D01*
X106830534Y-91474500D01*
X106830535Y-91474500D01*
X107037466Y-91474500D01*
X107037467Y-91474499D01*
X107240420Y-91434130D01*
X107431598Y-91354941D01*
X107603655Y-91239977D01*
X107749977Y-91093655D01*
X107864941Y-90921598D01*
X107944130Y-90730420D01*
X107984500Y-90527465D01*
X107984500Y-90320535D01*
X107984499Y-90320530D01*
X108423500Y-90320530D01*
X108423500Y-90527469D01*
X108463868Y-90730412D01*
X108463870Y-90730420D01*
X108543059Y-90921598D01*
X108543319Y-90921987D01*
X108658024Y-91093657D01*
X108804342Y-91239975D01*
X108804345Y-91239977D01*
X108976402Y-91354941D01*
X109167580Y-91434130D01*
X109342372Y-91468898D01*
X109370530Y-91474499D01*
X109370534Y-91474500D01*
X109370535Y-91474500D01*
X109577466Y-91474500D01*
X109577467Y-91474499D01*
X109780420Y-91434130D01*
X109971598Y-91354941D01*
X110143655Y-91239977D01*
X110289977Y-91093655D01*
X110404941Y-90921598D01*
X110484130Y-90730420D01*
X110524500Y-90527465D01*
X110524500Y-90320535D01*
X110524499Y-90320530D01*
X110963500Y-90320530D01*
X110963500Y-90527469D01*
X111003868Y-90730412D01*
X111003870Y-90730420D01*
X111083059Y-90921598D01*
X111083319Y-90921987D01*
X111198024Y-91093657D01*
X111344342Y-91239975D01*
X111344345Y-91239977D01*
X111516402Y-91354941D01*
X111707580Y-91434130D01*
X111882372Y-91468898D01*
X111910530Y-91474499D01*
X111910534Y-91474500D01*
X111910535Y-91474500D01*
X112117466Y-91474500D01*
X112117467Y-91474499D01*
X112320420Y-91434130D01*
X112511598Y-91354941D01*
X112683655Y-91239977D01*
X112829977Y-91093655D01*
X112944941Y-90921598D01*
X113024130Y-90730420D01*
X113064500Y-90527465D01*
X113064500Y-90320535D01*
X113064499Y-90320530D01*
X113503500Y-90320530D01*
X113503500Y-90527469D01*
X113543868Y-90730412D01*
X113543870Y-90730420D01*
X113623059Y-90921598D01*
X113623319Y-90921987D01*
X113738024Y-91093657D01*
X113884342Y-91239975D01*
X113884345Y-91239977D01*
X114056402Y-91354941D01*
X114247580Y-91434130D01*
X114422372Y-91468898D01*
X114450530Y-91474499D01*
X114450534Y-91474500D01*
X114450535Y-91474500D01*
X114657466Y-91474500D01*
X114657467Y-91474499D01*
X114860420Y-91434130D01*
X115051598Y-91354941D01*
X115223655Y-91239977D01*
X115369977Y-91093655D01*
X115484941Y-90921598D01*
X115564130Y-90730420D01*
X115604500Y-90527465D01*
X115604500Y-90320535D01*
X115564130Y-90117580D01*
X115484941Y-89926402D01*
X115369977Y-89754345D01*
X115369975Y-89754342D01*
X115223657Y-89608024D01*
X115069304Y-89504890D01*
X115051598Y-89493059D01*
X114916033Y-89436906D01*
X114860420Y-89413870D01*
X114860412Y-89413868D01*
X114657469Y-89373500D01*
X114657465Y-89373500D01*
X114450535Y-89373500D01*
X114450530Y-89373500D01*
X114247587Y-89413868D01*
X114247579Y-89413870D01*
X114056403Y-89493058D01*
X113884342Y-89608024D01*
X113738024Y-89754342D01*
X113623058Y-89926403D01*
X113543870Y-90117579D01*
X113543868Y-90117587D01*
X113503500Y-90320530D01*
X113064499Y-90320530D01*
X113024130Y-90117580D01*
X112944941Y-89926402D01*
X112829977Y-89754345D01*
X112829975Y-89754342D01*
X112683657Y-89608024D01*
X112529304Y-89504890D01*
X112511598Y-89493059D01*
X112376033Y-89436906D01*
X112320420Y-89413870D01*
X112320412Y-89413868D01*
X112117469Y-89373500D01*
X112117465Y-89373500D01*
X111910535Y-89373500D01*
X111910530Y-89373500D01*
X111707587Y-89413868D01*
X111707579Y-89413870D01*
X111516403Y-89493058D01*
X111344342Y-89608024D01*
X111198024Y-89754342D01*
X111083058Y-89926403D01*
X111003870Y-90117579D01*
X111003868Y-90117587D01*
X110963500Y-90320530D01*
X110524499Y-90320530D01*
X110484130Y-90117580D01*
X110404941Y-89926402D01*
X110289977Y-89754345D01*
X110289975Y-89754342D01*
X110143657Y-89608024D01*
X109989304Y-89504890D01*
X109971598Y-89493059D01*
X109836033Y-89436906D01*
X109780420Y-89413870D01*
X109780412Y-89413868D01*
X109577469Y-89373500D01*
X109577465Y-89373500D01*
X109370535Y-89373500D01*
X109370530Y-89373500D01*
X109167587Y-89413868D01*
X109167579Y-89413870D01*
X108976403Y-89493058D01*
X108804342Y-89608024D01*
X108658024Y-89754342D01*
X108543058Y-89926403D01*
X108463870Y-90117579D01*
X108463868Y-90117587D01*
X108423500Y-90320530D01*
X107984499Y-90320530D01*
X107944130Y-90117580D01*
X107864941Y-89926402D01*
X107749977Y-89754345D01*
X107749975Y-89754342D01*
X107603657Y-89608024D01*
X107449304Y-89504890D01*
X107431598Y-89493059D01*
X107296033Y-89436906D01*
X107240420Y-89413870D01*
X107240412Y-89413868D01*
X107037469Y-89373500D01*
X107037465Y-89373500D01*
X106830535Y-89373500D01*
X106830530Y-89373500D01*
X106627587Y-89413868D01*
X106627579Y-89413870D01*
X106436403Y-89493058D01*
X106264342Y-89608024D01*
X106118024Y-89754342D01*
X106003058Y-89926403D01*
X105923870Y-90117579D01*
X105923868Y-90117587D01*
X105883500Y-90320530D01*
X105444499Y-90320530D01*
X105404130Y-90117580D01*
X105324941Y-89926402D01*
X105209977Y-89754345D01*
X105209975Y-89754342D01*
X105063657Y-89608024D01*
X104909304Y-89504890D01*
X104891598Y-89493059D01*
X104756033Y-89436906D01*
X104700420Y-89413870D01*
X104700412Y-89413868D01*
X104497469Y-89373500D01*
X104497465Y-89373500D01*
X104290535Y-89373500D01*
X104290530Y-89373500D01*
X104087587Y-89413868D01*
X104087579Y-89413870D01*
X103896403Y-89493058D01*
X103724342Y-89608024D01*
X103578024Y-89754342D01*
X103463058Y-89926403D01*
X103383870Y-90117579D01*
X103383868Y-90117584D01*
X103373366Y-90170383D01*
X103340980Y-90232293D01*
X103280264Y-90266867D01*
X103210495Y-90263126D01*
X103153823Y-90222259D01*
X103129275Y-90165586D01*
X103121989Y-90119583D01*
X103059093Y-89926011D01*
X102561106Y-90423999D01*
X102254000Y-90423999D01*
X102254000Y-90371339D01*
X102226741Y-90269606D01*
X102174080Y-90178394D01*
X102099606Y-90103920D01*
X102008394Y-90051259D01*
X101906661Y-90024000D01*
X101801339Y-90024000D01*
X101699606Y-90051259D01*
X101608394Y-90103920D01*
X101533920Y-90178394D01*
X101481259Y-90269606D01*
X101454000Y-90371339D01*
X101094232Y-90371339D01*
X100648904Y-89926011D01*
X100606431Y-90056731D01*
X100566993Y-90114407D01*
X100502635Y-90141605D01*
X100433788Y-90129690D01*
X100382313Y-90082446D01*
X100364500Y-90018413D01*
X100364500Y-89599323D01*
X100364499Y-89599321D01*
X100349967Y-89526264D01*
X100349966Y-89526260D01*
X100327782Y-89493059D01*
X100294601Y-89443399D01*
X100215829Y-89390766D01*
X100211739Y-89388033D01*
X100211735Y-89388032D01*
X100166825Y-89379099D01*
X100166824Y-89379099D01*
X100138676Y-89373500D01*
X100138674Y-89373500D01*
X98489326Y-89373500D01*
X98489323Y-89373500D01*
X98416264Y-89388032D01*
X98416260Y-89388033D01*
X98333399Y-89443399D01*
X98278033Y-89526260D01*
X98278032Y-89526264D01*
X98263500Y-89599321D01*
X84062503Y-89599321D01*
X83900092Y-89436910D01*
X83900087Y-89436906D01*
X83820169Y-89390766D01*
X83820168Y-89390765D01*
X83820167Y-89390765D01*
X83731023Y-89366879D01*
X83731022Y-89366879D01*
X83702789Y-89366879D01*
X83635750Y-89347194D01*
X83615108Y-89330560D01*
X83561420Y-89276872D01*
X83561414Y-89276867D01*
X83461020Y-89218904D01*
X101356011Y-89218904D01*
X101854000Y-89716893D01*
X101854001Y-89716893D01*
X102351987Y-89218905D01*
X102351987Y-89218904D01*
X102158419Y-89156010D01*
X101956317Y-89124000D01*
X101751683Y-89124000D01*
X101549581Y-89156010D01*
X101549578Y-89156010D01*
X101356011Y-89218904D01*
X83461020Y-89218904D01*
X83435891Y-89204396D01*
X83435892Y-89204396D01*
X83424409Y-89201319D01*
X83295878Y-89166879D01*
X83150928Y-89166879D01*
X83022396Y-89201319D01*
X83010914Y-89204396D01*
X82885391Y-89276867D01*
X82885385Y-89276872D01*
X82782896Y-89379361D01*
X82782891Y-89379367D01*
X82710420Y-89504890D01*
X82710419Y-89504894D01*
X82672903Y-89644904D01*
X82672903Y-89789854D01*
X82709492Y-89926403D01*
X82710420Y-89929867D01*
X82782891Y-90055390D01*
X82782893Y-90055392D01*
X82782894Y-90055394D01*
X82885388Y-90157888D01*
X82885389Y-90157889D01*
X82885391Y-90157890D01*
X83010914Y-90230361D01*
X83010915Y-90230361D01*
X83010918Y-90230363D01*
X83150928Y-90267879D01*
X83150931Y-90267879D01*
X83295875Y-90267879D01*
X83295878Y-90267879D01*
X83435888Y-90230363D01*
X83522310Y-90180466D01*
X83590209Y-90163994D01*
X83656236Y-90186846D01*
X83671991Y-90200173D01*
X85728002Y-92256184D01*
X85761487Y-92317507D01*
X85756503Y-92387199D01*
X85714631Y-92443132D01*
X85649167Y-92467549D01*
X85640321Y-92467865D01*
X82574123Y-92467865D01*
X82507084Y-92448180D01*
X82486442Y-92431546D01*
X82432754Y-92377858D01*
X82432748Y-92377853D01*
X82307225Y-92305382D01*
X82307226Y-92305382D01*
X82295743Y-92302305D01*
X82167212Y-92267865D01*
X82022262Y-92267865D01*
X81893730Y-92302305D01*
X81882248Y-92305382D01*
X81756725Y-92377853D01*
X81756719Y-92377858D01*
X81654230Y-92480347D01*
X81654225Y-92480353D01*
X81581754Y-92605876D01*
X81581753Y-92605880D01*
X81544237Y-92745890D01*
X80318232Y-92745890D01*
X80433998Y-92410587D01*
X80434672Y-92408689D01*
X80445895Y-92377853D01*
X80598431Y-91958764D01*
X80599083Y-91957015D01*
X80770350Y-91509739D01*
X80771040Y-91507982D01*
X80949701Y-91063657D01*
X80950416Y-91061920D01*
X81136422Y-90620661D01*
X81137206Y-90618845D01*
X81152872Y-90583342D01*
X81330518Y-90180744D01*
X81331294Y-90179027D01*
X81531882Y-89744153D01*
X81532672Y-89742479D01*
X81740449Y-89311024D01*
X81741302Y-89309290D01*
X81956277Y-88881240D01*
X81957079Y-88879676D01*
X82179101Y-88455331D01*
X82179997Y-88453651D01*
X82409015Y-88033105D01*
X82409951Y-88031419D01*
X82645928Y-87614736D01*
X82646942Y-87612981D01*
X82889786Y-87200321D01*
X82890719Y-87198765D01*
X83140458Y-86790084D01*
X83141436Y-86788512D01*
X83397942Y-86384027D01*
X83398944Y-86382476D01*
X83662154Y-85982284D01*
X83663117Y-85980846D01*
X83932958Y-85585062D01*
X83934048Y-85583493D01*
X84210375Y-85192327D01*
X84211359Y-85190958D01*
X84494231Y-84804328D01*
X84495330Y-84802852D01*
X84784509Y-84421082D01*
X84785654Y-84419598D01*
X85081125Y-84042704D01*
X85082255Y-84041286D01*
X85383938Y-83669372D01*
X85385184Y-83667860D01*
X85693032Y-83300981D01*
X85694275Y-83299526D01*
X86008113Y-82937890D01*
X86009364Y-82936473D01*
X86329303Y-82579954D01*
X86330488Y-82578657D01*
X86656218Y-82227602D01*
X86657487Y-82226257D01*
X86976491Y-81893713D01*
X88649500Y-81893713D01*
X88649500Y-82106286D01*
X88668714Y-82227602D01*
X88682754Y-82316243D01*
X88701955Y-82375338D01*
X88748444Y-82518414D01*
X88844951Y-82707820D01*
X88969890Y-82879786D01*
X89120213Y-83030109D01*
X89292179Y-83155048D01*
X89292181Y-83155049D01*
X89292184Y-83155051D01*
X89481588Y-83251557D01*
X89683757Y-83317246D01*
X89893713Y-83350500D01*
X89893714Y-83350500D01*
X90106286Y-83350500D01*
X90106287Y-83350500D01*
X90316243Y-83317246D01*
X90518412Y-83251557D01*
X90707816Y-83155051D01*
X90729789Y-83139086D01*
X90879786Y-83030109D01*
X90879788Y-83030106D01*
X90879792Y-83030104D01*
X91030104Y-82879792D01*
X91030106Y-82879788D01*
X91030109Y-82879786D01*
X91155048Y-82707820D01*
X91155047Y-82707820D01*
X91155051Y-82707816D01*
X91251557Y-82518412D01*
X91317246Y-82316243D01*
X91350500Y-82106287D01*
X91350500Y-81893713D01*
X123649500Y-81893713D01*
X123649500Y-82106286D01*
X123668714Y-82227602D01*
X123682754Y-82316243D01*
X123701955Y-82375338D01*
X123748444Y-82518414D01*
X123844951Y-82707820D01*
X123969890Y-82879786D01*
X124120213Y-83030109D01*
X124292179Y-83155048D01*
X124292181Y-83155049D01*
X124292184Y-83155051D01*
X124481588Y-83251557D01*
X124683757Y-83317246D01*
X124893713Y-83350500D01*
X124893714Y-83350500D01*
X125106286Y-83350500D01*
X125106287Y-83350500D01*
X125316243Y-83317246D01*
X125518412Y-83251557D01*
X125707816Y-83155051D01*
X125729789Y-83139086D01*
X125879786Y-83030109D01*
X125879788Y-83030106D01*
X125879792Y-83030104D01*
X126030104Y-82879792D01*
X126030106Y-82879788D01*
X126030109Y-82879786D01*
X126155048Y-82707820D01*
X126155047Y-82707820D01*
X126155051Y-82707816D01*
X126251557Y-82518412D01*
X126317246Y-82316243D01*
X126350500Y-82106287D01*
X126350500Y-81893713D01*
X126317246Y-81683757D01*
X126251557Y-81481588D01*
X126155051Y-81292184D01*
X126155049Y-81292181D01*
X126155048Y-81292179D01*
X126030109Y-81120213D01*
X125879786Y-80969890D01*
X125707820Y-80844951D01*
X125518414Y-80748444D01*
X125518413Y-80748443D01*
X125518412Y-80748443D01*
X125316243Y-80682754D01*
X125316241Y-80682753D01*
X125316240Y-80682753D01*
X125154957Y-80657208D01*
X125106287Y-80649500D01*
X124893713Y-80649500D01*
X124845042Y-80657208D01*
X124683760Y-80682753D01*
X124481585Y-80748444D01*
X124292179Y-80844951D01*
X124120213Y-80969890D01*
X123969890Y-81120213D01*
X123844951Y-81292179D01*
X123748444Y-81481585D01*
X123682753Y-81683760D01*
X123649500Y-81893713D01*
X91350500Y-81893713D01*
X91317246Y-81683757D01*
X91251557Y-81481588D01*
X91155051Y-81292184D01*
X91155049Y-81292181D01*
X91155048Y-81292179D01*
X91030109Y-81120213D01*
X90879786Y-80969890D01*
X90707820Y-80844951D01*
X90518414Y-80748444D01*
X90518413Y-80748443D01*
X90518412Y-80748443D01*
X90316243Y-80682754D01*
X90316241Y-80682753D01*
X90316240Y-80682753D01*
X90154957Y-80657208D01*
X90106287Y-80649500D01*
X89893713Y-80649500D01*
X89845042Y-80657208D01*
X89683760Y-80682753D01*
X89481585Y-80748444D01*
X89292179Y-80844951D01*
X89120213Y-80969890D01*
X88969890Y-81120213D01*
X88844951Y-81292179D01*
X88748444Y-81481585D01*
X88682753Y-81683760D01*
X88649500Y-81893713D01*
X86976491Y-81893713D01*
X86989057Y-81880614D01*
X86990394Y-81879244D01*
X87327613Y-81539210D01*
X87328916Y-81537918D01*
X87671773Y-81203504D01*
X87673175Y-81202161D01*
X87919368Y-80969890D01*
X88021442Y-80873588D01*
X88022878Y-80872255D01*
X88376608Y-80549471D01*
X88377984Y-80548236D01*
X88737089Y-80231323D01*
X88738509Y-80230090D01*
X89102836Y-79919188D01*
X89104191Y-79918051D01*
X89473646Y-79613238D01*
X89475097Y-79612061D01*
X89849574Y-79313425D01*
X89850990Y-79312315D01*
X90230326Y-79019988D01*
X90231850Y-79018833D01*
X90616011Y-78732835D01*
X90617515Y-78731735D01*
X91006322Y-78452202D01*
X91007903Y-78451085D01*
X91401312Y-78178046D01*
X91402816Y-78177020D01*
X91800810Y-77910490D01*
X91802392Y-77909451D01*
X92071344Y-77735743D01*
X92138333Y-77715908D01*
X123236695Y-77705155D01*
X123303733Y-77724814D01*
G37*
%TD.AperFunction*%
%TD*%
M02*
