%TF.GenerationSoftware,KiCad,Pcbnew,9.0.5*%
%TF.CreationDate,2025-12-18T19:46:57-05:00*%
%TF.ProjectId,airbrakes,61697262-7261-46b6-9573-2e6b69636164,rev?*%
%TF.SameCoordinates,Original*%
%TF.FileFunction,Legend,Bot*%
%TF.FilePolarity,Positive*%
%FSLAX46Y46*%
G04 Gerber Fmt 4.6, Leading zero omitted, Abs format (unit mm)*
G04 Created by KiCad (PCBNEW 9.0.5) date 2025-12-18 19:46:57*
%MOMM*%
%LPD*%
G01*
G04 APERTURE LIST*
%ADD10C,0.200000*%
%ADD11C,0.100000*%
%ADD12C,0.625000*%
%ADD13C,0.150000*%
%ADD14C,0.300000*%
%ADD15C,0.120000*%
%ADD16C,0.000000*%
G04 APERTURE END LIST*
D10*
X84609764Y-87656816D02*
X83850822Y-87453459D01*
X83850822Y-87453459D02*
X83731320Y-87347490D01*
X83731320Y-87347490D02*
X83699299Y-87191013D01*
X83699299Y-87191013D02*
X83773247Y-86915034D01*
X83773247Y-86915034D02*
X83879216Y-86795532D01*
X84540769Y-87638329D02*
X84646738Y-87518827D01*
X84646738Y-87518827D02*
X84739173Y-87173854D01*
X84739173Y-87173854D02*
X84707153Y-87017377D01*
X84707153Y-87017377D02*
X84587650Y-86911408D01*
X84587650Y-86911408D02*
X84449661Y-86874434D01*
X84449661Y-86874434D02*
X84293184Y-86906455D01*
X84293184Y-86906455D02*
X84187215Y-87025957D01*
X84187215Y-87025957D02*
X84094780Y-87370930D01*
X84094780Y-87370930D02*
X83988811Y-87490433D01*
X84258509Y-88967716D02*
X83499567Y-88764358D01*
X83499567Y-88764358D02*
X83380065Y-88658389D01*
X83380065Y-88658389D02*
X83348044Y-88501913D01*
X83348044Y-88501913D02*
X83421993Y-88225934D01*
X83421993Y-88225934D02*
X83527962Y-88106432D01*
X84189514Y-88949229D02*
X84295483Y-88829726D01*
X84295483Y-88829726D02*
X84387919Y-88484753D01*
X84387919Y-88484753D02*
X84355898Y-88328276D01*
X84355898Y-88328276D02*
X84236396Y-88222308D01*
X84236396Y-88222308D02*
X84098406Y-88185333D01*
X84098406Y-88185333D02*
X83941930Y-88217354D01*
X83941930Y-88217354D02*
X83835961Y-88336856D01*
X83835961Y-88336856D02*
X83743526Y-88681830D01*
X83743526Y-88681830D02*
X83637557Y-88801332D01*
X84073638Y-89657663D02*
X83107712Y-89398844D01*
X83383691Y-89472792D02*
X83227215Y-89504813D01*
X83227215Y-89504813D02*
X83139733Y-89555320D01*
X83139733Y-89555320D02*
X83033764Y-89674823D01*
X83033764Y-89674823D02*
X82996790Y-89812812D01*
X83833306Y-90554594D02*
X82867381Y-90295775D01*
X82384418Y-90166365D02*
X82471899Y-90115858D01*
X82471899Y-90115858D02*
X82522407Y-90203339D01*
X82522407Y-90203339D02*
X82434925Y-90253847D01*
X82434925Y-90253847D02*
X82384418Y-90166365D01*
X82384418Y-90166365D02*
X82522407Y-90203339D01*
X82737971Y-90778738D02*
X82590074Y-91330696D01*
X82199547Y-90856312D02*
X83441452Y-91189080D01*
X83441452Y-91189080D02*
X83560954Y-91295049D01*
X83560954Y-91295049D02*
X83592974Y-91451525D01*
X83592974Y-91451525D02*
X83556000Y-91589515D01*
X83130798Y-93176393D02*
X81681909Y-92788164D01*
X82541866Y-93166486D02*
X82982901Y-93728350D01*
X82016975Y-93469531D02*
X82716829Y-93065470D01*
X82761056Y-94556287D02*
X82729035Y-94399811D01*
X82729035Y-94399811D02*
X82678528Y-94312329D01*
X82678528Y-94312329D02*
X82559025Y-94206360D01*
X82559025Y-94206360D02*
X82145057Y-94095437D01*
X82145057Y-94095437D02*
X81988581Y-94127458D01*
X81988581Y-94127458D02*
X81901099Y-94177966D01*
X81901099Y-94177966D02*
X81795130Y-94297468D01*
X81795130Y-94297468D02*
X81739669Y-94504452D01*
X81739669Y-94504452D02*
X81771689Y-94660929D01*
X81771689Y-94660929D02*
X81822197Y-94748410D01*
X81822197Y-94748410D02*
X81941699Y-94854379D01*
X81941699Y-94854379D02*
X82355668Y-94965302D01*
X82355668Y-94965302D02*
X82512144Y-94933281D01*
X82512144Y-94933281D02*
X82599626Y-94882773D01*
X82599626Y-94882773D02*
X82705595Y-94763271D01*
X82705595Y-94763271D02*
X82761056Y-94556287D01*
X81332953Y-96022336D02*
X82298879Y-96281155D01*
X81499337Y-95401383D02*
X82258279Y-95604741D01*
X82258279Y-95604741D02*
X82377781Y-95710710D01*
X82377781Y-95710710D02*
X82409802Y-95867186D01*
X82409802Y-95867186D02*
X82354340Y-96074171D01*
X82354340Y-96074171D02*
X82248371Y-96193673D01*
X82248371Y-96193673D02*
X82160890Y-96244181D01*
X81148082Y-96712283D02*
X82114008Y-96971102D01*
X81286072Y-96749257D02*
X81198590Y-96799765D01*
X81198590Y-96799765D02*
X81092621Y-96919267D01*
X81092621Y-96919267D02*
X81037160Y-97126251D01*
X81037160Y-97126251D02*
X81069181Y-97282728D01*
X81069181Y-97282728D02*
X81188683Y-97388696D01*
X81188683Y-97388696D02*
X81947625Y-97592054D01*
X81596370Y-98902954D02*
X80147481Y-98514725D01*
X81527375Y-98884467D02*
X81633344Y-98764964D01*
X81633344Y-98764964D02*
X81707293Y-98488985D01*
X81707293Y-98488985D02*
X81675272Y-98332509D01*
X81675272Y-98332509D02*
X81624764Y-98245027D01*
X81624764Y-98245027D02*
X81505262Y-98139058D01*
X81505262Y-98139058D02*
X81091294Y-98028136D01*
X81091294Y-98028136D02*
X80934817Y-98060156D01*
X80934817Y-98060156D02*
X80847336Y-98110664D01*
X80847336Y-98110664D02*
X80741367Y-98230166D01*
X80741367Y-98230166D02*
X80667418Y-98506145D01*
X80667418Y-98506145D02*
X80699439Y-98662622D01*
X81411499Y-99592901D02*
X80445574Y-99334082D01*
X79962611Y-99204672D02*
X80050092Y-99154165D01*
X80050092Y-99154165D02*
X80100600Y-99241646D01*
X80100600Y-99241646D02*
X80013118Y-99292154D01*
X80013118Y-99292154D02*
X79962611Y-99204672D01*
X79962611Y-99204672D02*
X80100600Y-99241646D01*
X80260703Y-100024029D02*
X81226629Y-100282848D01*
X80398692Y-100061003D02*
X80311210Y-100111511D01*
X80311210Y-100111511D02*
X80205242Y-100231013D01*
X80205242Y-100231013D02*
X80149780Y-100437997D01*
X80149780Y-100437997D02*
X80181801Y-100594474D01*
X80181801Y-100594474D02*
X80301303Y-100700443D01*
X80301303Y-100700443D02*
X81060245Y-100903800D01*
X79946422Y-101196939D02*
X80819913Y-101800732D01*
X79761552Y-101886886D02*
X80819913Y-101800732D01*
X80819913Y-101800732D02*
X81201861Y-101755178D01*
X81201861Y-101755178D02*
X81289342Y-101704670D01*
X81289342Y-101704670D02*
X81395311Y-101585168D01*
X80413197Y-103318615D02*
X79654256Y-103115257D01*
X79654256Y-103115257D02*
X79534753Y-103009288D01*
X79534753Y-103009288D02*
X79502733Y-102852812D01*
X79502733Y-102852812D02*
X79576681Y-102576833D01*
X79576681Y-102576833D02*
X79682650Y-102457331D01*
X80344203Y-103300128D02*
X80450171Y-103180626D01*
X80450171Y-103180626D02*
X80542607Y-102835652D01*
X80542607Y-102835652D02*
X80510586Y-102679176D01*
X80510586Y-102679176D02*
X80391084Y-102573207D01*
X80391084Y-102573207D02*
X80253095Y-102536233D01*
X80253095Y-102536233D02*
X80096618Y-102568253D01*
X80096618Y-102568253D02*
X79990649Y-102687755D01*
X79990649Y-102687755D02*
X79898214Y-103032729D01*
X79898214Y-103032729D02*
X79792245Y-103152231D01*
D11*
X130188687Y-99440419D02*
X130522020Y-98964228D01*
X130760115Y-99440419D02*
X130760115Y-98440419D01*
X130760115Y-98440419D02*
X130379163Y-98440419D01*
X130379163Y-98440419D02*
X130283925Y-98488038D01*
X130283925Y-98488038D02*
X130236306Y-98535657D01*
X130236306Y-98535657D02*
X130188687Y-98630895D01*
X130188687Y-98630895D02*
X130188687Y-98773752D01*
X130188687Y-98773752D02*
X130236306Y-98868990D01*
X130236306Y-98868990D02*
X130283925Y-98916609D01*
X130283925Y-98916609D02*
X130379163Y-98964228D01*
X130379163Y-98964228D02*
X130760115Y-98964228D01*
X129855353Y-98440419D02*
X129188687Y-99440419D01*
X129188687Y-98440419D02*
X129855353Y-99440419D01*
X133442972Y-98440419D02*
X132871544Y-98440419D01*
X133157258Y-99440419D02*
X133157258Y-98440419D01*
X132633448Y-98440419D02*
X131966782Y-99440419D01*
X131966782Y-98440419D02*
X132633448Y-99440419D01*
D12*
X121318435Y-85945976D02*
X121318435Y-81945976D01*
X121318435Y-81945976D02*
X119794625Y-81945976D01*
X119794625Y-81945976D02*
X119413673Y-82136452D01*
X119413673Y-82136452D02*
X119223196Y-82326928D01*
X119223196Y-82326928D02*
X119032720Y-82707880D01*
X119032720Y-82707880D02*
X119032720Y-83279309D01*
X119032720Y-83279309D02*
X119223196Y-83660261D01*
X119223196Y-83660261D02*
X119413673Y-83850738D01*
X119413673Y-83850738D02*
X119794625Y-84041214D01*
X119794625Y-84041214D02*
X121318435Y-84041214D01*
X117318435Y-81945976D02*
X117318435Y-85184071D01*
X117318435Y-85184071D02*
X117127958Y-85565023D01*
X117127958Y-85565023D02*
X116937482Y-85755500D01*
X116937482Y-85755500D02*
X116556530Y-85945976D01*
X116556530Y-85945976D02*
X115794625Y-85945976D01*
X115794625Y-85945976D02*
X115413673Y-85755500D01*
X115413673Y-85755500D02*
X115223196Y-85565023D01*
X115223196Y-85565023D02*
X115032720Y-85184071D01*
X115032720Y-85184071D02*
X115032720Y-81945976D01*
X111223197Y-85945976D02*
X113127959Y-85945976D01*
X113127959Y-85945976D02*
X113127959Y-81945976D01*
X110080340Y-85755500D02*
X109508911Y-85945976D01*
X109508911Y-85945976D02*
X108556530Y-85945976D01*
X108556530Y-85945976D02*
X108175578Y-85755500D01*
X108175578Y-85755500D02*
X107985102Y-85565023D01*
X107985102Y-85565023D02*
X107794625Y-85184071D01*
X107794625Y-85184071D02*
X107794625Y-84803119D01*
X107794625Y-84803119D02*
X107985102Y-84422166D01*
X107985102Y-84422166D02*
X108175578Y-84231690D01*
X108175578Y-84231690D02*
X108556530Y-84041214D01*
X108556530Y-84041214D02*
X109318435Y-83850738D01*
X109318435Y-83850738D02*
X109699387Y-83660261D01*
X109699387Y-83660261D02*
X109889864Y-83469785D01*
X109889864Y-83469785D02*
X110080340Y-83088833D01*
X110080340Y-83088833D02*
X110080340Y-82707880D01*
X110080340Y-82707880D02*
X109889864Y-82326928D01*
X109889864Y-82326928D02*
X109699387Y-82136452D01*
X109699387Y-82136452D02*
X109318435Y-81945976D01*
X109318435Y-81945976D02*
X108366054Y-81945976D01*
X108366054Y-81945976D02*
X107794625Y-82136452D01*
X106080340Y-83850738D02*
X104747006Y-83850738D01*
X104175578Y-85945976D02*
X106080340Y-85945976D01*
X106080340Y-85945976D02*
X106080340Y-81945976D01*
X106080340Y-81945976D02*
X104175578Y-81945976D01*
X97127958Y-85945976D02*
X98461292Y-84041214D01*
X99413673Y-85945976D02*
X99413673Y-81945976D01*
X99413673Y-81945976D02*
X97889863Y-81945976D01*
X97889863Y-81945976D02*
X97508911Y-82136452D01*
X97508911Y-82136452D02*
X97318434Y-82326928D01*
X97318434Y-82326928D02*
X97127958Y-82707880D01*
X97127958Y-82707880D02*
X97127958Y-83279309D01*
X97127958Y-83279309D02*
X97318434Y-83660261D01*
X97318434Y-83660261D02*
X97508911Y-83850738D01*
X97508911Y-83850738D02*
X97889863Y-84041214D01*
X97889863Y-84041214D02*
X99413673Y-84041214D01*
X95604149Y-82326928D02*
X95413673Y-82136452D01*
X95413673Y-82136452D02*
X95032720Y-81945976D01*
X95032720Y-81945976D02*
X94080339Y-81945976D01*
X94080339Y-81945976D02*
X93699387Y-82136452D01*
X93699387Y-82136452D02*
X93508911Y-82326928D01*
X93508911Y-82326928D02*
X93318434Y-82707880D01*
X93318434Y-82707880D02*
X93318434Y-83088833D01*
X93318434Y-83088833D02*
X93508911Y-83660261D01*
X93508911Y-83660261D02*
X95794625Y-85945976D01*
X95794625Y-85945976D02*
X93318434Y-85945976D01*
D11*
X124552972Y-98440419D02*
X124219639Y-99440419D01*
X124219639Y-99440419D02*
X123886306Y-98440419D01*
X122981544Y-99345180D02*
X123029163Y-99392800D01*
X123029163Y-99392800D02*
X123172020Y-99440419D01*
X123172020Y-99440419D02*
X123267258Y-99440419D01*
X123267258Y-99440419D02*
X123410115Y-99392800D01*
X123410115Y-99392800D02*
X123505353Y-99297561D01*
X123505353Y-99297561D02*
X123552972Y-99202323D01*
X123552972Y-99202323D02*
X123600591Y-99011847D01*
X123600591Y-99011847D02*
X123600591Y-98868990D01*
X123600591Y-98868990D02*
X123552972Y-98678514D01*
X123552972Y-98678514D02*
X123505353Y-98583276D01*
X123505353Y-98583276D02*
X123410115Y-98488038D01*
X123410115Y-98488038D02*
X123267258Y-98440419D01*
X123267258Y-98440419D02*
X123172020Y-98440419D01*
X123172020Y-98440419D02*
X123029163Y-98488038D01*
X123029163Y-98488038D02*
X122981544Y-98535657D01*
X121981544Y-99345180D02*
X122029163Y-99392800D01*
X122029163Y-99392800D02*
X122172020Y-99440419D01*
X122172020Y-99440419D02*
X122267258Y-99440419D01*
X122267258Y-99440419D02*
X122410115Y-99392800D01*
X122410115Y-99392800D02*
X122505353Y-99297561D01*
X122505353Y-99297561D02*
X122552972Y-99202323D01*
X122552972Y-99202323D02*
X122600591Y-99011847D01*
X122600591Y-99011847D02*
X122600591Y-98868990D01*
X122600591Y-98868990D02*
X122552972Y-98678514D01*
X122552972Y-98678514D02*
X122505353Y-98583276D01*
X122505353Y-98583276D02*
X122410115Y-98488038D01*
X122410115Y-98488038D02*
X122267258Y-98440419D01*
X122267258Y-98440419D02*
X122172020Y-98440419D01*
X122172020Y-98440419D02*
X122029163Y-98488038D01*
X122029163Y-98488038D02*
X121981544Y-98535657D01*
X127442306Y-98488038D02*
X127537544Y-98440419D01*
X127537544Y-98440419D02*
X127680401Y-98440419D01*
X127680401Y-98440419D02*
X127823258Y-98488038D01*
X127823258Y-98488038D02*
X127918496Y-98583276D01*
X127918496Y-98583276D02*
X127966115Y-98678514D01*
X127966115Y-98678514D02*
X128013734Y-98868990D01*
X128013734Y-98868990D02*
X128013734Y-99011847D01*
X128013734Y-99011847D02*
X127966115Y-99202323D01*
X127966115Y-99202323D02*
X127918496Y-99297561D01*
X127918496Y-99297561D02*
X127823258Y-99392800D01*
X127823258Y-99392800D02*
X127680401Y-99440419D01*
X127680401Y-99440419D02*
X127585163Y-99440419D01*
X127585163Y-99440419D02*
X127442306Y-99392800D01*
X127442306Y-99392800D02*
X127394687Y-99345180D01*
X127394687Y-99345180D02*
X127394687Y-99011847D01*
X127394687Y-99011847D02*
X127585163Y-99011847D01*
X126966115Y-99440419D02*
X126966115Y-98440419D01*
X126966115Y-98440419D02*
X126394687Y-99440419D01*
X126394687Y-99440419D02*
X126394687Y-98440419D01*
X125918496Y-99440419D02*
X125918496Y-98440419D01*
X125918496Y-98440419D02*
X125680401Y-98440419D01*
X125680401Y-98440419D02*
X125537544Y-98488038D01*
X125537544Y-98488038D02*
X125442306Y-98583276D01*
X125442306Y-98583276D02*
X125394687Y-98678514D01*
X125394687Y-98678514D02*
X125347068Y-98868990D01*
X125347068Y-98868990D02*
X125347068Y-99011847D01*
X125347068Y-99011847D02*
X125394687Y-99202323D01*
X125394687Y-99202323D02*
X125442306Y-99297561D01*
X125442306Y-99297561D02*
X125537544Y-99392800D01*
X125537544Y-99392800D02*
X125680401Y-99440419D01*
X125680401Y-99440419D02*
X125918496Y-99440419D01*
D13*
X96051666Y-103897580D02*
X96099285Y-103945200D01*
X96099285Y-103945200D02*
X96242142Y-103992819D01*
X96242142Y-103992819D02*
X96337380Y-103992819D01*
X96337380Y-103992819D02*
X96480237Y-103945200D01*
X96480237Y-103945200D02*
X96575475Y-103849961D01*
X96575475Y-103849961D02*
X96623094Y-103754723D01*
X96623094Y-103754723D02*
X96670713Y-103564247D01*
X96670713Y-103564247D02*
X96670713Y-103421390D01*
X96670713Y-103421390D02*
X96623094Y-103230914D01*
X96623094Y-103230914D02*
X96575475Y-103135676D01*
X96575475Y-103135676D02*
X96480237Y-103040438D01*
X96480237Y-103040438D02*
X96337380Y-102992819D01*
X96337380Y-102992819D02*
X96242142Y-102992819D01*
X96242142Y-102992819D02*
X96099285Y-103040438D01*
X96099285Y-103040438D02*
X96051666Y-103088057D01*
X95099285Y-103992819D02*
X95670713Y-103992819D01*
X95384999Y-103992819D02*
X95384999Y-102992819D01*
X95384999Y-102992819D02*
X95480237Y-103135676D01*
X95480237Y-103135676D02*
X95575475Y-103230914D01*
X95575475Y-103230914D02*
X95670713Y-103278533D01*
X96051666Y-99702580D02*
X96099285Y-99750200D01*
X96099285Y-99750200D02*
X96242142Y-99797819D01*
X96242142Y-99797819D02*
X96337380Y-99797819D01*
X96337380Y-99797819D02*
X96480237Y-99750200D01*
X96480237Y-99750200D02*
X96575475Y-99654961D01*
X96575475Y-99654961D02*
X96623094Y-99559723D01*
X96623094Y-99559723D02*
X96670713Y-99369247D01*
X96670713Y-99369247D02*
X96670713Y-99226390D01*
X96670713Y-99226390D02*
X96623094Y-99035914D01*
X96623094Y-99035914D02*
X96575475Y-98940676D01*
X96575475Y-98940676D02*
X96480237Y-98845438D01*
X96480237Y-98845438D02*
X96337380Y-98797819D01*
X96337380Y-98797819D02*
X96242142Y-98797819D01*
X96242142Y-98797819D02*
X96099285Y-98845438D01*
X96099285Y-98845438D02*
X96051666Y-98893057D01*
X95670713Y-98893057D02*
X95623094Y-98845438D01*
X95623094Y-98845438D02*
X95527856Y-98797819D01*
X95527856Y-98797819D02*
X95289761Y-98797819D01*
X95289761Y-98797819D02*
X95194523Y-98845438D01*
X95194523Y-98845438D02*
X95146904Y-98893057D01*
X95146904Y-98893057D02*
X95099285Y-98988295D01*
X95099285Y-98988295D02*
X95099285Y-99083533D01*
X95099285Y-99083533D02*
X95146904Y-99226390D01*
X95146904Y-99226390D02*
X95718332Y-99797819D01*
X95718332Y-99797819D02*
X95099285Y-99797819D01*
X130127142Y-107388819D02*
X130460475Y-106912628D01*
X130698570Y-107388819D02*
X130698570Y-106388819D01*
X130698570Y-106388819D02*
X130317618Y-106388819D01*
X130317618Y-106388819D02*
X130222380Y-106436438D01*
X130222380Y-106436438D02*
X130174761Y-106484057D01*
X130174761Y-106484057D02*
X130127142Y-106579295D01*
X130127142Y-106579295D02*
X130127142Y-106722152D01*
X130127142Y-106722152D02*
X130174761Y-106817390D01*
X130174761Y-106817390D02*
X130222380Y-106865009D01*
X130222380Y-106865009D02*
X130317618Y-106912628D01*
X130317618Y-106912628D02*
X130698570Y-106912628D01*
X129746189Y-107103104D02*
X129269999Y-107103104D01*
X129841427Y-107388819D02*
X129508094Y-106388819D01*
X129508094Y-106388819D02*
X129174761Y-107388819D01*
X128841427Y-107388819D02*
X128841427Y-106388819D01*
X128841427Y-106388819D02*
X128603332Y-106388819D01*
X128603332Y-106388819D02*
X128460475Y-106436438D01*
X128460475Y-106436438D02*
X128365237Y-106531676D01*
X128365237Y-106531676D02*
X128317618Y-106626914D01*
X128317618Y-106626914D02*
X128269999Y-106817390D01*
X128269999Y-106817390D02*
X128269999Y-106960247D01*
X128269999Y-106960247D02*
X128317618Y-107150723D01*
X128317618Y-107150723D02*
X128365237Y-107245961D01*
X128365237Y-107245961D02*
X128460475Y-107341200D01*
X128460475Y-107341200D02*
X128603332Y-107388819D01*
X128603332Y-107388819D02*
X128841427Y-107388819D01*
X127841427Y-107388819D02*
X127841427Y-106388819D01*
X127174761Y-106388819D02*
X126984285Y-106388819D01*
X126984285Y-106388819D02*
X126889047Y-106436438D01*
X126889047Y-106436438D02*
X126793809Y-106531676D01*
X126793809Y-106531676D02*
X126746190Y-106722152D01*
X126746190Y-106722152D02*
X126746190Y-107055485D01*
X126746190Y-107055485D02*
X126793809Y-107245961D01*
X126793809Y-107245961D02*
X126889047Y-107341200D01*
X126889047Y-107341200D02*
X126984285Y-107388819D01*
X126984285Y-107388819D02*
X127174761Y-107388819D01*
X127174761Y-107388819D02*
X127269999Y-107341200D01*
X127269999Y-107341200D02*
X127365237Y-107245961D01*
X127365237Y-107245961D02*
X127412856Y-107055485D01*
X127412856Y-107055485D02*
X127412856Y-106722152D01*
X127412856Y-106722152D02*
X127365237Y-106531676D01*
X127365237Y-106531676D02*
X127269999Y-106436438D01*
X127269999Y-106436438D02*
X127174761Y-106388819D01*
X125793809Y-107388819D02*
X126365237Y-107388819D01*
X126079523Y-107388819D02*
X126079523Y-106388819D01*
X126079523Y-106388819D02*
X126174761Y-106531676D01*
X126174761Y-106531676D02*
X126269999Y-106626914D01*
X126269999Y-106626914D02*
X126365237Y-106674533D01*
D14*
X-30025253Y-91355741D02*
X-29882396Y-91284312D01*
X-29882396Y-91284312D02*
X-29668110Y-91284312D01*
X-29668110Y-91284312D02*
X-29453824Y-91355741D01*
X-29453824Y-91355741D02*
X-29310967Y-91498598D01*
X-29310967Y-91498598D02*
X-29239538Y-91641455D01*
X-29239538Y-91641455D02*
X-29168110Y-91927169D01*
X-29168110Y-91927169D02*
X-29168110Y-92141455D01*
X-29168110Y-92141455D02*
X-29239538Y-92427169D01*
X-29239538Y-92427169D02*
X-29310967Y-92570026D01*
X-29310967Y-92570026D02*
X-29453824Y-92712884D01*
X-29453824Y-92712884D02*
X-29668110Y-92784312D01*
X-29668110Y-92784312D02*
X-29810967Y-92784312D01*
X-29810967Y-92784312D02*
X-30025253Y-92712884D01*
X-30025253Y-92712884D02*
X-30096681Y-92641455D01*
X-30096681Y-92641455D02*
X-30096681Y-92141455D01*
X-30096681Y-92141455D02*
X-29810967Y-92141455D01*
X-30953824Y-91284312D02*
X-30953824Y-91641455D01*
X-30596681Y-91498598D02*
X-30953824Y-91641455D01*
X-30953824Y-91641455D02*
X-31310967Y-91498598D01*
X-30739538Y-91927169D02*
X-30953824Y-91641455D01*
X-30953824Y-91641455D02*
X-31168110Y-91927169D01*
X-32096681Y-91284312D02*
X-32096681Y-91641455D01*
X-31739538Y-91498598D02*
X-32096681Y-91641455D01*
X-32096681Y-91641455D02*
X-32453824Y-91498598D01*
X-31882395Y-91927169D02*
X-32096681Y-91641455D01*
X-32096681Y-91641455D02*
X-32310967Y-91927169D01*
X-33239538Y-91284312D02*
X-33239538Y-91641455D01*
X-32882395Y-91498598D02*
X-33239538Y-91641455D01*
X-33239538Y-91641455D02*
X-33596681Y-91498598D01*
X-33025252Y-91927169D02*
X-33239538Y-91641455D01*
X-33239538Y-91641455D02*
X-33453824Y-91927169D01*
D13*
X110743666Y-93371200D02*
X110600809Y-93418819D01*
X110600809Y-93418819D02*
X110362714Y-93418819D01*
X110362714Y-93418819D02*
X110267476Y-93371200D01*
X110267476Y-93371200D02*
X110219857Y-93323580D01*
X110219857Y-93323580D02*
X110172238Y-93228342D01*
X110172238Y-93228342D02*
X110172238Y-93133104D01*
X110172238Y-93133104D02*
X110219857Y-93037866D01*
X110219857Y-93037866D02*
X110267476Y-92990247D01*
X110267476Y-92990247D02*
X110362714Y-92942628D01*
X110362714Y-92942628D02*
X110553190Y-92895009D01*
X110553190Y-92895009D02*
X110648428Y-92847390D01*
X110648428Y-92847390D02*
X110696047Y-92799771D01*
X110696047Y-92799771D02*
X110743666Y-92704533D01*
X110743666Y-92704533D02*
X110743666Y-92609295D01*
X110743666Y-92609295D02*
X110696047Y-92514057D01*
X110696047Y-92514057D02*
X110648428Y-92466438D01*
X110648428Y-92466438D02*
X110553190Y-92418819D01*
X110553190Y-92418819D02*
X110315095Y-92418819D01*
X110315095Y-92418819D02*
X110172238Y-92466438D01*
X109743666Y-92895009D02*
X109410333Y-92895009D01*
X109267476Y-93418819D02*
X109743666Y-93418819D01*
X109743666Y-93418819D02*
X109743666Y-92418819D01*
X109743666Y-92418819D02*
X109267476Y-92418819D01*
X108267476Y-93418819D02*
X108600809Y-92942628D01*
X108838904Y-93418819D02*
X108838904Y-92418819D01*
X108838904Y-92418819D02*
X108457952Y-92418819D01*
X108457952Y-92418819D02*
X108362714Y-92466438D01*
X108362714Y-92466438D02*
X108315095Y-92514057D01*
X108315095Y-92514057D02*
X108267476Y-92609295D01*
X108267476Y-92609295D02*
X108267476Y-92752152D01*
X108267476Y-92752152D02*
X108315095Y-92847390D01*
X108315095Y-92847390D02*
X108362714Y-92895009D01*
X108362714Y-92895009D02*
X108457952Y-92942628D01*
X108457952Y-92942628D02*
X108838904Y-92942628D01*
X107981761Y-92418819D02*
X107648428Y-93418819D01*
X107648428Y-93418819D02*
X107315095Y-92418819D01*
X106791285Y-92418819D02*
X106600809Y-92418819D01*
X106600809Y-92418819D02*
X106505571Y-92466438D01*
X106505571Y-92466438D02*
X106410333Y-92561676D01*
X106410333Y-92561676D02*
X106362714Y-92752152D01*
X106362714Y-92752152D02*
X106362714Y-93085485D01*
X106362714Y-93085485D02*
X106410333Y-93275961D01*
X106410333Y-93275961D02*
X106505571Y-93371200D01*
X106505571Y-93371200D02*
X106600809Y-93418819D01*
X106600809Y-93418819D02*
X106791285Y-93418819D01*
X106791285Y-93418819D02*
X106886523Y-93371200D01*
X106886523Y-93371200D02*
X106981761Y-93275961D01*
X106981761Y-93275961D02*
X107029380Y-93085485D01*
X107029380Y-93085485D02*
X107029380Y-92752152D01*
X107029380Y-92752152D02*
X106981761Y-92561676D01*
X106981761Y-92561676D02*
X106886523Y-92466438D01*
X106886523Y-92466438D02*
X106791285Y-92418819D01*
X105410333Y-93418819D02*
X105981761Y-93418819D01*
X105696047Y-93418819D02*
X105696047Y-92418819D01*
X105696047Y-92418819D02*
X105791285Y-92561676D01*
X105791285Y-92561676D02*
X105886523Y-92656914D01*
X105886523Y-92656914D02*
X105981761Y-92704533D01*
X11264309Y-87882475D02*
X12204002Y-87540455D01*
X12204002Y-87540455D02*
X12073708Y-87182477D01*
X12073708Y-87182477D02*
X11996388Y-87109269D01*
X11996388Y-87109269D02*
X11935354Y-87080808D01*
X11935354Y-87080808D02*
X11829572Y-87068634D01*
X11829572Y-87068634D02*
X11695331Y-87117494D01*
X11695331Y-87117494D02*
X11622123Y-87194815D01*
X11622123Y-87194815D02*
X11593662Y-87255849D01*
X11593662Y-87255849D02*
X11581488Y-87361630D01*
X11581488Y-87361630D02*
X11711782Y-87719608D01*
X11894555Y-86690257D02*
X10873429Y-86808540D01*
X10873429Y-86808540D02*
X11479491Y-86385251D01*
X11479491Y-86385251D02*
X10743135Y-86450562D01*
X10743135Y-86450562D02*
X11601395Y-85884806D01*
X10335969Y-85331881D02*
X10897448Y-85482245D01*
X10531409Y-85868848D02*
X11471101Y-85526828D01*
X11471101Y-85526828D02*
X11340808Y-85168850D01*
X11340808Y-85168850D02*
X11263487Y-85095642D01*
X11263487Y-85095642D02*
X11202453Y-85067181D01*
X11202453Y-85067181D02*
X11096672Y-85055007D01*
X11096672Y-85055007D02*
X10962430Y-85103867D01*
X10962430Y-85103867D02*
X10889223Y-85181188D01*
X10889223Y-85181188D02*
X10860762Y-85242222D01*
X10860762Y-85242222D02*
X10848588Y-85348003D01*
X10848588Y-85348003D02*
X10978881Y-85705981D01*
X10010235Y-84436935D02*
X10205675Y-84973903D01*
X10107955Y-84705419D02*
X11047648Y-84363399D01*
X11047648Y-84363399D02*
X10945979Y-84501753D01*
X10945979Y-84501753D02*
X10889058Y-84623821D01*
X10889058Y-84623821D02*
X10876884Y-84729603D01*
X87150635Y-110628480D02*
X88090328Y-110286460D01*
X88090328Y-110286460D02*
X87960034Y-109928481D01*
X87960034Y-109928481D02*
X87882714Y-109855274D01*
X87882714Y-109855274D02*
X87821680Y-109826813D01*
X87821680Y-109826813D02*
X87715899Y-109814639D01*
X87715899Y-109814639D02*
X87581657Y-109863499D01*
X87581657Y-109863499D02*
X87508449Y-109940820D01*
X87508449Y-109940820D02*
X87479988Y-110001854D01*
X87479988Y-110001854D02*
X87467814Y-110107635D01*
X87467814Y-110107635D02*
X87598108Y-110465613D01*
X87780881Y-109436262D02*
X86759755Y-109554545D01*
X86759755Y-109554545D02*
X87365817Y-109131256D01*
X87365817Y-109131256D02*
X86629462Y-109196567D01*
X86629462Y-109196567D02*
X87487721Y-108630811D01*
X86222295Y-108077886D02*
X86783774Y-108228250D01*
X86417735Y-108614853D02*
X87357427Y-108272833D01*
X87357427Y-108272833D02*
X87227134Y-107914855D01*
X87227134Y-107914855D02*
X87149813Y-107841647D01*
X87149813Y-107841647D02*
X87088779Y-107813186D01*
X87088779Y-107813186D02*
X86982998Y-107801012D01*
X86982998Y-107801012D02*
X86848756Y-107849872D01*
X86848756Y-107849872D02*
X86775549Y-107927193D01*
X86775549Y-107927193D02*
X86747088Y-107988227D01*
X86747088Y-107988227D02*
X86734914Y-108094008D01*
X86734914Y-108094008D02*
X86865207Y-108451986D01*
X125873789Y-110338764D02*
X125628063Y-109811994D01*
X126159503Y-109843893D02*
X125293478Y-109343893D01*
X125293478Y-109343893D02*
X125103002Y-109673807D01*
X125103002Y-109673807D02*
X125096622Y-109780095D01*
X125096622Y-109780095D02*
X125114052Y-109845144D01*
X125114052Y-109845144D02*
X125172721Y-109934002D01*
X125172721Y-109934002D02*
X125296439Y-110005431D01*
X125296439Y-110005431D02*
X125402727Y-110011811D01*
X125402727Y-110011811D02*
X125467776Y-109994381D01*
X125467776Y-109994381D02*
X125556634Y-109935712D01*
X125556634Y-109935712D02*
X125747110Y-109605797D01*
X125642073Y-110644869D02*
X125611884Y-110792397D01*
X125611884Y-110792397D02*
X125492837Y-110998593D01*
X125492837Y-110998593D02*
X125403978Y-111057262D01*
X125403978Y-111057262D02*
X125338929Y-111074692D01*
X125338929Y-111074692D02*
X125232641Y-111068312D01*
X125232641Y-111068312D02*
X125150163Y-111020693D01*
X125150163Y-111020693D02*
X125091494Y-110931835D01*
X125091494Y-110931835D02*
X125074064Y-110866786D01*
X125074064Y-110866786D02*
X125080444Y-110760498D01*
X125080444Y-110760498D02*
X125134442Y-110571731D01*
X125134442Y-110571731D02*
X125140822Y-110465443D01*
X125140822Y-110465443D02*
X125123392Y-110400394D01*
X125123392Y-110400394D02*
X125064723Y-110311536D01*
X125064723Y-110311536D02*
X124982245Y-110263917D01*
X124982245Y-110263917D02*
X124875956Y-110257537D01*
X124875956Y-110257537D02*
X124810908Y-110274967D01*
X124810908Y-110274967D02*
X124722049Y-110333636D01*
X124722049Y-110333636D02*
X124603002Y-110539832D01*
X124603002Y-110539832D02*
X124572812Y-110687360D01*
X124388716Y-110910986D02*
X124103002Y-111405858D01*
X125111884Y-111658422D02*
X124245859Y-111158422D01*
X124540455Y-112648166D02*
X124826170Y-112153294D01*
X124683313Y-112400730D02*
X123817287Y-111900730D01*
X123817287Y-111900730D02*
X123988624Y-111889680D01*
X123988624Y-111889680D02*
X124118722Y-111854820D01*
X124118722Y-111854820D02*
X124207580Y-111796151D01*
X93908631Y-119690041D02*
X93773944Y-119622698D01*
X93773944Y-119622698D02*
X93605586Y-119454339D01*
X93605586Y-119454339D02*
X93571914Y-119353324D01*
X93571914Y-119353324D02*
X93571914Y-119285980D01*
X93571914Y-119285980D02*
X93605586Y-119184965D01*
X93605586Y-119184965D02*
X93672929Y-119117621D01*
X93672929Y-119117621D02*
X93773944Y-119083950D01*
X93773944Y-119083950D02*
X93841288Y-119083950D01*
X93841288Y-119083950D02*
X93942303Y-119117621D01*
X93942303Y-119117621D02*
X94110662Y-119218637D01*
X94110662Y-119218637D02*
X94211677Y-119252308D01*
X94211677Y-119252308D02*
X94279021Y-119252308D01*
X94279021Y-119252308D02*
X94380036Y-119218637D01*
X94380036Y-119218637D02*
X94447379Y-119151293D01*
X94447379Y-119151293D02*
X94481051Y-119050278D01*
X94481051Y-119050278D02*
X94481051Y-118982934D01*
X94481051Y-118982934D02*
X94447379Y-118881919D01*
X94447379Y-118881919D02*
X94279021Y-118713560D01*
X94279021Y-118713560D02*
X94144334Y-118646217D01*
X93706601Y-118612545D02*
X93100509Y-118949263D01*
X93100509Y-118949263D02*
X93302540Y-118477858D01*
X93302540Y-118477858D02*
X92831135Y-118679888D01*
X92831135Y-118679888D02*
X93167853Y-118073797D01*
X92427074Y-118275828D02*
X92898479Y-117804423D01*
X93134181Y-117568721D02*
X93134181Y-117636064D01*
X93134181Y-117636064D02*
X93066838Y-117636064D01*
X93066838Y-117636064D02*
X93066838Y-117568721D01*
X93066838Y-117568721D02*
X93134181Y-117568721D01*
X93134181Y-117568721D02*
X93066838Y-117636064D01*
X92662777Y-117568721D02*
X92393403Y-117299347D01*
X92797464Y-117232004D02*
X92191372Y-117838095D01*
X92191372Y-117838095D02*
X92090357Y-117871767D01*
X92090357Y-117871767D02*
X91989342Y-117838095D01*
X91989342Y-117838095D02*
X91921998Y-117770752D01*
X91416922Y-117198331D02*
X91450593Y-117299347D01*
X91450593Y-117299347D02*
X91585280Y-117434034D01*
X91585280Y-117434034D02*
X91686296Y-117467706D01*
X91686296Y-117467706D02*
X91753639Y-117467706D01*
X91753639Y-117467706D02*
X91854655Y-117434034D01*
X91854655Y-117434034D02*
X92056685Y-117232003D01*
X92056685Y-117232003D02*
X92090357Y-117130988D01*
X92090357Y-117130988D02*
X92090357Y-117063644D01*
X92090357Y-117063644D02*
X92056685Y-116962629D01*
X92056685Y-116962629D02*
X91921998Y-116827942D01*
X91921998Y-116827942D02*
X91820983Y-116794270D01*
X91080204Y-116928957D02*
X91787311Y-116221851D01*
X90777158Y-116625912D02*
X91147548Y-116255522D01*
X91147548Y-116255522D02*
X91248563Y-116221851D01*
X91248563Y-116221851D02*
X91349578Y-116255522D01*
X91349578Y-116255522D02*
X91450593Y-116356538D01*
X91450593Y-116356538D02*
X91484265Y-116457553D01*
X91484265Y-116457553D02*
X91484265Y-116524896D01*
X90070052Y-115918805D02*
X90474113Y-116322866D01*
X90272082Y-116120835D02*
X90979189Y-115413728D01*
X90979189Y-115413728D02*
X90945517Y-115582087D01*
X90945517Y-115582087D02*
X90945517Y-115716774D01*
X90945517Y-115716774D02*
X90979189Y-115817790D01*
D15*
%TO.C,C1*%
X95738733Y-102618000D02*
X96031267Y-102618000D01*
X95738733Y-101598000D02*
X96031267Y-101598000D01*
%TO.C,C2*%
X95623748Y-98398000D02*
X96146252Y-98398000D01*
X95623748Y-96928000D02*
X96146252Y-96928000D01*
%TO.C,RADIO1*%
X121670000Y-106145000D02*
X121670000Y-104895000D01*
X121960000Y-99885000D02*
X134580000Y-99885000D01*
X121960000Y-105855000D02*
X121960000Y-99885000D01*
X121970000Y-103595000D02*
X122720000Y-103595000D01*
X121970000Y-105095000D02*
X123770000Y-105095000D01*
X121970000Y-105845000D02*
X121970000Y-105095000D01*
X122720000Y-100645000D02*
X128270000Y-100645000D01*
X122720000Y-103595000D02*
X122720000Y-100645000D01*
X122920000Y-106145000D02*
X121670000Y-106145000D01*
X123770000Y-105095000D02*
X123770000Y-105845000D01*
X123770000Y-105845000D02*
X121970000Y-105845000D01*
X125270000Y-105095000D02*
X131270000Y-105095000D01*
X125270000Y-105845000D02*
X125270000Y-105095000D01*
X131270000Y-105095000D02*
X131270000Y-105845000D01*
X131270000Y-105845000D02*
X125270000Y-105845000D01*
X132770000Y-105095000D02*
X134570000Y-105095000D01*
X132770000Y-105845000D02*
X132770000Y-105095000D01*
X133820000Y-100645000D02*
X128270000Y-100645000D01*
X133820000Y-103595000D02*
X133820000Y-100645000D01*
X134570000Y-103595000D02*
X133820000Y-103595000D01*
X134570000Y-105095000D02*
X134570000Y-105845000D01*
X134570000Y-105845000D02*
X132770000Y-105845000D01*
X134580000Y-99885000D02*
X134580000Y-105855000D01*
X134580000Y-105855000D02*
X121960000Y-105855000D01*
D16*
%TO.C,G\u002A\u002A\u002A*%
G36*
X108958332Y-115328974D02*
G01*
X109163957Y-115594156D01*
X109156105Y-115659438D01*
X108893745Y-115867274D01*
X108829157Y-115859338D01*
X108623532Y-115594156D01*
X108631384Y-115528874D01*
X108893745Y-115321038D01*
X108958332Y-115328974D01*
G37*
G36*
X107901465Y-113246650D02*
G01*
X108244893Y-114029274D01*
X108512977Y-114693243D01*
X108610950Y-115012644D01*
X108537895Y-114954876D01*
X108280299Y-114535057D01*
X107903168Y-113833326D01*
X107207967Y-112482173D01*
X106856845Y-113287089D01*
X106810480Y-113391502D01*
X106585354Y-113811139D01*
X106514488Y-113777748D01*
X106599291Y-113353141D01*
X106841172Y-112599130D01*
X107179399Y-111652490D01*
X107901465Y-113246650D01*
G37*
G36*
X104831771Y-113786247D02*
G01*
X105147359Y-114030240D01*
X105392001Y-114528579D01*
X105738801Y-115374831D01*
X106090740Y-114733418D01*
X106251853Y-114458852D01*
X106427085Y-114274291D01*
X106401537Y-114545232D01*
X106169449Y-115234978D01*
X105877068Y-116003833D01*
X105386407Y-115047919D01*
X105293789Y-114872692D01*
X104921368Y-114352098D01*
X104420269Y-114080464D01*
X103584638Y-113930075D01*
X102273532Y-113768144D01*
X103659366Y-113725236D01*
X104270531Y-113715597D01*
X104831771Y-113786247D01*
G37*
G36*
X108291401Y-99042350D02*
G01*
X108819786Y-99397377D01*
X109299064Y-100162973D01*
X109431768Y-100452139D01*
X109587792Y-100910053D01*
X109700056Y-101476765D01*
X109776288Y-102239758D01*
X109824215Y-103286516D01*
X109851567Y-104704520D01*
X109866073Y-106581253D01*
X109892657Y-111907059D01*
X109724472Y-106581253D01*
X109688898Y-105530015D01*
X109611672Y-103762813D01*
X109521429Y-102425401D01*
X109410462Y-101439740D01*
X109271067Y-100727790D01*
X109095537Y-100211512D01*
X109067099Y-100148488D01*
X108569408Y-99418968D01*
X108017363Y-99225694D01*
X107440199Y-99565717D01*
X106867149Y-100436091D01*
X106822891Y-100527698D01*
X106655407Y-100942101D01*
X106525866Y-101435328D01*
X106427231Y-102085277D01*
X106352465Y-102969848D01*
X106294530Y-104166940D01*
X106246390Y-105754452D01*
X106201007Y-107810285D01*
X106174095Y-109031852D01*
X106132861Y-110529606D01*
X106090258Y-111703522D01*
X106048792Y-112498016D01*
X106010971Y-112857507D01*
X105979301Y-112726414D01*
X105957438Y-112205636D01*
X105940737Y-111140817D01*
X105937142Y-109744974D01*
X105946831Y-108139227D01*
X105969985Y-106444694D01*
X105984727Y-105655734D01*
X106025244Y-104047324D01*
X106080132Y-102848821D01*
X106160102Y-101963152D01*
X106275864Y-101293246D01*
X106438129Y-100742030D01*
X106657606Y-100212433D01*
X106850598Y-99802902D01*
X107195628Y-99225603D01*
X107539039Y-98991180D01*
X108008595Y-98983401D01*
X108291401Y-99042350D01*
G37*
G36*
X106191617Y-128430715D02*
G01*
X107948000Y-128430715D01*
X109704383Y-128430715D01*
X109685391Y-121261360D01*
X109676401Y-119671079D01*
X109651325Y-117845439D01*
X109612836Y-116383781D01*
X109562662Y-115331660D01*
X109502531Y-114734629D01*
X109434170Y-114638242D01*
X109292659Y-114941990D01*
X109189167Y-115045051D01*
X109220171Y-114762618D01*
X109372429Y-114178771D01*
X109632701Y-113377586D01*
X109820047Y-112877182D01*
X110087596Y-112277541D01*
X110258186Y-112043618D01*
X110293946Y-112059202D01*
X110536646Y-112379775D01*
X110858635Y-112984087D01*
X110973171Y-113217281D01*
X111307027Y-113691497D01*
X111781910Y-113921579D01*
X112597511Y-114027331D01*
X113892681Y-114130106D01*
X112523087Y-114179335D01*
X111931603Y-114191541D01*
X111359824Y-114120966D01*
X111020176Y-113866241D01*
X110727541Y-113340930D01*
X110301588Y-112453296D01*
X110001052Y-113227290D01*
X109832809Y-113839881D01*
X109847842Y-114242225D01*
X109880387Y-114467071D01*
X109916935Y-115179597D01*
X109947681Y-116300611D01*
X109971099Y-117753747D01*
X109985664Y-119462640D01*
X109989850Y-121350922D01*
X109984533Y-128218679D01*
X110587543Y-128055308D01*
X110994313Y-127955621D01*
X111393213Y-127888208D01*
X111440707Y-127817530D01*
X111520379Y-127328674D01*
X111575366Y-126477117D01*
X111595872Y-125383914D01*
X111590869Y-124548677D01*
X111549287Y-123598513D01*
X111439558Y-122948793D01*
X111231030Y-122449845D01*
X110893052Y-121951998D01*
X110710365Y-121700030D01*
X110382636Y-121168927D01*
X110307259Y-120902360D01*
X110366087Y-120923986D01*
X110680881Y-121255885D01*
X111191107Y-121899754D01*
X111820717Y-122762143D01*
X112177966Y-123274081D01*
X112730380Y-124132817D01*
X113044261Y-124795129D01*
X113184790Y-125419901D01*
X113217149Y-126166014D01*
X113217149Y-127591818D01*
X111528319Y-128122279D01*
X109520296Y-128564274D01*
X107026108Y-128616017D01*
X104544734Y-128130995D01*
X102678851Y-127558156D01*
X102678851Y-126225728D01*
X102697646Y-125692353D01*
X102740321Y-125462839D01*
X104301284Y-125462839D01*
X104305675Y-126373877D01*
X104340692Y-127178075D01*
X104434352Y-127638175D01*
X104614282Y-127869021D01*
X104908106Y-127985454D01*
X105320289Y-128086464D01*
X105718745Y-128153868D01*
X105742381Y-128128707D01*
X105812597Y-127724559D01*
X105869172Y-126903117D01*
X105906819Y-125762849D01*
X105920247Y-124402220D01*
X105919090Y-120646844D01*
X105110766Y-121875876D01*
X104879246Y-122238568D01*
X104567925Y-122835735D01*
X104394042Y-123455993D01*
X104318271Y-124273607D01*
X104301284Y-125462839D01*
X102740321Y-125462839D01*
X102807505Y-125101518D01*
X103069224Y-124481954D01*
X103542690Y-123699444D01*
X104287790Y-122619769D01*
X104688577Y-122051632D01*
X105277498Y-121177964D01*
X105641758Y-120511001D01*
X105841679Y-119893213D01*
X105937584Y-119167068D01*
X105989794Y-118175036D01*
X106010558Y-117857807D01*
X106039350Y-117882706D01*
X106068040Y-118375683D01*
X106095002Y-119292157D01*
X106118610Y-120587547D01*
X106137238Y-122217274D01*
X106156360Y-124402220D01*
X106191617Y-128430715D01*
G37*
D15*
%TO.C,SERVO1*%
X104284000Y-96376000D02*
X104284000Y-93616000D01*
X109474000Y-93616000D02*
X104284000Y-93616000D01*
X109474000Y-96376000D02*
X104284000Y-96376000D01*
X109474000Y-96376000D02*
X109474000Y-93616000D01*
X110744000Y-96376000D02*
X112124000Y-96376000D01*
X112124000Y-96376000D02*
X112124000Y-94996000D01*
%TO.C,PWR1*%
X79138107Y-108014878D02*
X84748072Y-105973017D01*
X80112209Y-108469108D02*
X81155370Y-111335171D01*
X81744300Y-115175336D02*
X79138107Y-108014878D01*
X82198532Y-114201235D02*
X81155370Y-111335171D01*
X82627787Y-106755380D02*
X82884302Y-107460149D01*
X82884302Y-107460149D02*
X80112209Y-108469108D01*
X84037326Y-106242349D02*
X84742095Y-105985834D01*
X84652962Y-107933796D02*
X84037326Y-106242349D01*
X84742095Y-105985834D02*
X85357732Y-107677281D01*
X84748072Y-105973017D02*
X87354265Y-113133475D01*
X84970625Y-113192275D02*
X82198532Y-114201235D01*
X85165992Y-109343336D02*
X85870761Y-109086821D01*
X85227140Y-113897044D02*
X84970625Y-113192275D01*
X85357732Y-107677281D02*
X84652962Y-107933796D01*
X85508012Y-110283027D02*
X85165992Y-109343336D01*
X85870761Y-109086821D02*
X86212783Y-110026513D01*
X86021042Y-111692569D02*
X86725813Y-111436052D01*
X86212783Y-110026513D02*
X85508012Y-110283027D01*
X86636679Y-113384014D02*
X86021042Y-111692569D01*
X86725813Y-111436052D02*
X87341448Y-113127499D01*
X87298436Y-112132184D02*
X87725962Y-113306801D01*
X87341448Y-113127499D02*
X86636679Y-113384014D01*
X87354265Y-113133475D02*
X81744300Y-115175336D01*
X87725962Y-113306801D02*
X86551346Y-113734325D01*
%TO.C,RST1*%
X125074860Y-113519140D02*
X127324860Y-109622025D01*
X127913962Y-116601673D02*
X126614925Y-115851671D01*
X130114922Y-109789494D02*
X131413962Y-110539494D01*
X132954025Y-112872025D02*
X130704025Y-116769140D01*
%TO.C,Switch1*%
X84607862Y-119797751D02*
X88829289Y-115576325D01*
X85682665Y-119797752D02*
X87839340Y-121954427D01*
X87238299Y-117181456D02*
X87768628Y-117711787D01*
X87768628Y-117711787D02*
X85682665Y-119797752D01*
X88298960Y-116120797D02*
X88829289Y-115590467D01*
X88829289Y-115576325D02*
X94217443Y-120964478D01*
X88829289Y-115590467D02*
X90102081Y-116863258D01*
X89571751Y-117393588D02*
X88298960Y-116120797D01*
X89996016Y-124111103D02*
X87839340Y-121954427D01*
X89996016Y-125185905D02*
X84607862Y-119797751D01*
X90102081Y-116863258D02*
X89571751Y-117393588D01*
X90632412Y-118454249D02*
X91162743Y-117923919D01*
X91162743Y-117923919D02*
X91869848Y-118631025D01*
X91339518Y-119161355D02*
X90632412Y-118454249D01*
X91869848Y-118631025D02*
X91339518Y-119161355D01*
X92081981Y-122025138D02*
X89996016Y-124111103D01*
X92400178Y-120222016D02*
X92930508Y-119691685D01*
X92612311Y-122555468D02*
X92081981Y-122025138D01*
X92930508Y-119691685D02*
X94203301Y-120964478D01*
X93672972Y-121494808D02*
X92400178Y-120222016D01*
X93743682Y-120080595D02*
X94627565Y-120964478D01*
X94203301Y-120964478D02*
X93672972Y-121494808D01*
X94217443Y-120964478D02*
X89996016Y-125185905D01*
X94627565Y-120964478D02*
X93743681Y-121848361D01*
%TD*%
M02*
