%TF.GenerationSoftware,KiCad,Pcbnew,9.0.5*%
%TF.CreationDate,2025-12-18T19:46:57-05:00*%
%TF.ProjectId,airbrakes,61697262-7261-46b6-9573-2e6b69636164,rev?*%
%TF.SameCoordinates,Original*%
%TF.FileFunction,Legend,Top*%
%TF.FilePolarity,Positive*%
%FSLAX46Y46*%
G04 Gerber Fmt 4.6, Leading zero omitted, Abs format (unit mm)*
G04 Created by KiCad (PCBNEW 9.0.5) date 2025-12-18 19:46:57*
%MOMM*%
%LPD*%
G01*
G04 APERTURE LIST*
%ADD10C,0.150000*%
%ADD11C,0.100000*%
%ADD12C,0.120000*%
G04 APERTURE END LIST*
D10*
X124238095Y-117304819D02*
X124238095Y-116304819D01*
X124238095Y-116781009D02*
X124809523Y-116781009D01*
X124809523Y-117304819D02*
X124809523Y-116304819D01*
X125190476Y-116304819D02*
X125809523Y-116304819D01*
X125809523Y-116304819D02*
X125476190Y-116685771D01*
X125476190Y-116685771D02*
X125619047Y-116685771D01*
X125619047Y-116685771D02*
X125714285Y-116733390D01*
X125714285Y-116733390D02*
X125761904Y-116781009D01*
X125761904Y-116781009D02*
X125809523Y-116876247D01*
X125809523Y-116876247D02*
X125809523Y-117114342D01*
X125809523Y-117114342D02*
X125761904Y-117209580D01*
X125761904Y-117209580D02*
X125714285Y-117257200D01*
X125714285Y-117257200D02*
X125619047Y-117304819D01*
X125619047Y-117304819D02*
X125333333Y-117304819D01*
X125333333Y-117304819D02*
X125238095Y-117257200D01*
X125238095Y-117257200D02*
X125190476Y-117209580D01*
X93149595Y-102206819D02*
X93149595Y-103016342D01*
X93149595Y-103016342D02*
X93197214Y-103111580D01*
X93197214Y-103111580D02*
X93244833Y-103159200D01*
X93244833Y-103159200D02*
X93340071Y-103206819D01*
X93340071Y-103206819D02*
X93530547Y-103206819D01*
X93530547Y-103206819D02*
X93625785Y-103159200D01*
X93625785Y-103159200D02*
X93673404Y-103111580D01*
X93673404Y-103111580D02*
X93721023Y-103016342D01*
X93721023Y-103016342D02*
X93721023Y-102206819D01*
X94149595Y-102302057D02*
X94197214Y-102254438D01*
X94197214Y-102254438D02*
X94292452Y-102206819D01*
X94292452Y-102206819D02*
X94530547Y-102206819D01*
X94530547Y-102206819D02*
X94625785Y-102254438D01*
X94625785Y-102254438D02*
X94673404Y-102302057D01*
X94673404Y-102302057D02*
X94721023Y-102397295D01*
X94721023Y-102397295D02*
X94721023Y-102492533D01*
X94721023Y-102492533D02*
X94673404Y-102635390D01*
X94673404Y-102635390D02*
X94101976Y-103206819D01*
X94101976Y-103206819D02*
X94721023Y-103206819D01*
X93626737Y-97476813D02*
X94297946Y-97721113D01*
X94297946Y-97721113D02*
X94415901Y-97814720D01*
X94415901Y-97814720D02*
X94472823Y-97936788D01*
X94472823Y-97936788D02*
X94468710Y-98087316D01*
X94468710Y-98087316D02*
X94436136Y-98176811D01*
X93757031Y-97118834D02*
X93968757Y-96537120D01*
X93968757Y-96537120D02*
X94212729Y-96980644D01*
X94212729Y-96980644D02*
X94261589Y-96846402D01*
X94261589Y-96846402D02*
X94338910Y-96773194D01*
X94338910Y-96773194D02*
X94399943Y-96744734D01*
X94399943Y-96744734D02*
X94505725Y-96732560D01*
X94505725Y-96732560D02*
X94729461Y-96813993D01*
X94729461Y-96813993D02*
X94802669Y-96891314D01*
X94802669Y-96891314D02*
X94831129Y-96952348D01*
X94831129Y-96952348D02*
X94843303Y-97058129D01*
X94843303Y-97058129D02*
X94745583Y-97326613D01*
X94745583Y-97326613D02*
X94668263Y-97399820D01*
X94668263Y-97399820D02*
X94607229Y-97428281D01*
D11*
X108534419Y-87597499D02*
X107534419Y-87597499D01*
X107534419Y-87597499D02*
X108248704Y-87264166D01*
X108248704Y-87264166D02*
X107534419Y-86930833D01*
X107534419Y-86930833D02*
X108534419Y-86930833D01*
X108534419Y-86454642D02*
X107534419Y-86454642D01*
X107534419Y-86454642D02*
X107534419Y-86073690D01*
X107534419Y-86073690D02*
X107582038Y-85978452D01*
X107582038Y-85978452D02*
X107629657Y-85930833D01*
X107629657Y-85930833D02*
X107724895Y-85883214D01*
X107724895Y-85883214D02*
X107867752Y-85883214D01*
X107867752Y-85883214D02*
X107962990Y-85930833D01*
X107962990Y-85930833D02*
X108010609Y-85978452D01*
X108010609Y-85978452D02*
X108058228Y-86073690D01*
X108058228Y-86073690D02*
X108058228Y-86454642D01*
X107534419Y-85454642D02*
X108343942Y-85454642D01*
X108343942Y-85454642D02*
X108439180Y-85407023D01*
X108439180Y-85407023D02*
X108486800Y-85359404D01*
X108486800Y-85359404D02*
X108534419Y-85264166D01*
X108534419Y-85264166D02*
X108534419Y-85073690D01*
X108534419Y-85073690D02*
X108486800Y-84978452D01*
X108486800Y-84978452D02*
X108439180Y-84930833D01*
X108439180Y-84930833D02*
X108343942Y-84883214D01*
X108343942Y-84883214D02*
X107534419Y-84883214D01*
X107534419Y-83978452D02*
X107534419Y-84168928D01*
X107534419Y-84168928D02*
X107582038Y-84264166D01*
X107582038Y-84264166D02*
X107629657Y-84311785D01*
X107629657Y-84311785D02*
X107772514Y-84407023D01*
X107772514Y-84407023D02*
X107962990Y-84454642D01*
X107962990Y-84454642D02*
X108343942Y-84454642D01*
X108343942Y-84454642D02*
X108439180Y-84407023D01*
X108439180Y-84407023D02*
X108486800Y-84359404D01*
X108486800Y-84359404D02*
X108534419Y-84264166D01*
X108534419Y-84264166D02*
X108534419Y-84073690D01*
X108534419Y-84073690D02*
X108486800Y-83978452D01*
X108486800Y-83978452D02*
X108439180Y-83930833D01*
X108439180Y-83930833D02*
X108343942Y-83883214D01*
X108343942Y-83883214D02*
X108105847Y-83883214D01*
X108105847Y-83883214D02*
X108010609Y-83930833D01*
X108010609Y-83930833D02*
X107962990Y-83978452D01*
X107962990Y-83978452D02*
X107915371Y-84073690D01*
X107915371Y-84073690D02*
X107915371Y-84264166D01*
X107915371Y-84264166D02*
X107962990Y-84359404D01*
X107962990Y-84359404D02*
X108010609Y-84407023D01*
X108010609Y-84407023D02*
X108105847Y-84454642D01*
X107534419Y-83264166D02*
X107534419Y-83168928D01*
X107534419Y-83168928D02*
X107582038Y-83073690D01*
X107582038Y-83073690D02*
X107629657Y-83026071D01*
X107629657Y-83026071D02*
X107724895Y-82978452D01*
X107724895Y-82978452D02*
X107915371Y-82930833D01*
X107915371Y-82930833D02*
X108153466Y-82930833D01*
X108153466Y-82930833D02*
X108343942Y-82978452D01*
X108343942Y-82978452D02*
X108439180Y-83026071D01*
X108439180Y-83026071D02*
X108486800Y-83073690D01*
X108486800Y-83073690D02*
X108534419Y-83168928D01*
X108534419Y-83168928D02*
X108534419Y-83264166D01*
X108534419Y-83264166D02*
X108486800Y-83359404D01*
X108486800Y-83359404D02*
X108439180Y-83407023D01*
X108439180Y-83407023D02*
X108343942Y-83454642D01*
X108343942Y-83454642D02*
X108153466Y-83502261D01*
X108153466Y-83502261D02*
X107915371Y-83502261D01*
X107915371Y-83502261D02*
X107724895Y-83454642D01*
X107724895Y-83454642D02*
X107629657Y-83407023D01*
X107629657Y-83407023D02*
X107582038Y-83359404D01*
X107582038Y-83359404D02*
X107534419Y-83264166D01*
X107534419Y-82026071D02*
X107534419Y-82502261D01*
X107534419Y-82502261D02*
X108010609Y-82549880D01*
X108010609Y-82549880D02*
X107962990Y-82502261D01*
X107962990Y-82502261D02*
X107915371Y-82407023D01*
X107915371Y-82407023D02*
X107915371Y-82168928D01*
X107915371Y-82168928D02*
X107962990Y-82073690D01*
X107962990Y-82073690D02*
X108010609Y-82026071D01*
X108010609Y-82026071D02*
X108105847Y-81978452D01*
X108105847Y-81978452D02*
X108343942Y-81978452D01*
X108343942Y-81978452D02*
X108439180Y-82026071D01*
X108439180Y-82026071D02*
X108486800Y-82073690D01*
X108486800Y-82073690D02*
X108534419Y-82168928D01*
X108534419Y-82168928D02*
X108534419Y-82407023D01*
X108534419Y-82407023D02*
X108486800Y-82502261D01*
X108486800Y-82502261D02*
X108439180Y-82549880D01*
X107534419Y-81359404D02*
X107534419Y-81264166D01*
X107534419Y-81264166D02*
X107582038Y-81168928D01*
X107582038Y-81168928D02*
X107629657Y-81121309D01*
X107629657Y-81121309D02*
X107724895Y-81073690D01*
X107724895Y-81073690D02*
X107915371Y-81026071D01*
X107915371Y-81026071D02*
X108153466Y-81026071D01*
X108153466Y-81026071D02*
X108343942Y-81073690D01*
X108343942Y-81073690D02*
X108439180Y-81121309D01*
X108439180Y-81121309D02*
X108486800Y-81168928D01*
X108486800Y-81168928D02*
X108534419Y-81264166D01*
X108534419Y-81264166D02*
X108534419Y-81359404D01*
X108534419Y-81359404D02*
X108486800Y-81454642D01*
X108486800Y-81454642D02*
X108439180Y-81502261D01*
X108439180Y-81502261D02*
X108343942Y-81549880D01*
X108343942Y-81549880D02*
X108153466Y-81597499D01*
X108153466Y-81597499D02*
X107915371Y-81597499D01*
X107915371Y-81597499D02*
X107724895Y-81549880D01*
X107724895Y-81549880D02*
X107629657Y-81502261D01*
X107629657Y-81502261D02*
X107582038Y-81454642D01*
X107582038Y-81454642D02*
X107534419Y-81359404D01*
D10*
X89238095Y-79304819D02*
X89238095Y-78304819D01*
X89238095Y-78781009D02*
X89809523Y-78781009D01*
X89809523Y-79304819D02*
X89809523Y-78304819D01*
X90809523Y-79304819D02*
X90238095Y-79304819D01*
X90523809Y-79304819D02*
X90523809Y-78304819D01*
X90523809Y-78304819D02*
X90428571Y-78447676D01*
X90428571Y-78447676D02*
X90333333Y-78542914D01*
X90333333Y-78542914D02*
X90238095Y-78590533D01*
D11*
X123555428Y-91627609D02*
X123698285Y-91675228D01*
X123698285Y-91675228D02*
X123745904Y-91722847D01*
X123745904Y-91722847D02*
X123793523Y-91818085D01*
X123793523Y-91818085D02*
X123793523Y-91960942D01*
X123793523Y-91960942D02*
X123745904Y-92056180D01*
X123745904Y-92056180D02*
X123698285Y-92103800D01*
X123698285Y-92103800D02*
X123603047Y-92151419D01*
X123603047Y-92151419D02*
X123222095Y-92151419D01*
X123222095Y-92151419D02*
X123222095Y-91151419D01*
X123222095Y-91151419D02*
X123555428Y-91151419D01*
X123555428Y-91151419D02*
X123650666Y-91199038D01*
X123650666Y-91199038D02*
X123698285Y-91246657D01*
X123698285Y-91246657D02*
X123745904Y-91341895D01*
X123745904Y-91341895D02*
X123745904Y-91437133D01*
X123745904Y-91437133D02*
X123698285Y-91532371D01*
X123698285Y-91532371D02*
X123650666Y-91579990D01*
X123650666Y-91579990D02*
X123555428Y-91627609D01*
X123555428Y-91627609D02*
X123222095Y-91627609D01*
X124222095Y-92151419D02*
X124222095Y-91151419D01*
X124222095Y-91151419D02*
X124555428Y-91865704D01*
X124555428Y-91865704D02*
X124888761Y-91151419D01*
X124888761Y-91151419D02*
X124888761Y-92151419D01*
X125364952Y-92151419D02*
X125364952Y-91151419D01*
X125364952Y-91151419D02*
X125745904Y-91151419D01*
X125745904Y-91151419D02*
X125841142Y-91199038D01*
X125841142Y-91199038D02*
X125888761Y-91246657D01*
X125888761Y-91246657D02*
X125936380Y-91341895D01*
X125936380Y-91341895D02*
X125936380Y-91484752D01*
X125936380Y-91484752D02*
X125888761Y-91579990D01*
X125888761Y-91579990D02*
X125841142Y-91627609D01*
X125841142Y-91627609D02*
X125745904Y-91675228D01*
X125745904Y-91675228D02*
X125364952Y-91675228D01*
X126888761Y-92151419D02*
X126317333Y-92151419D01*
X126603047Y-92151419D02*
X126603047Y-91151419D01*
X126603047Y-91151419D02*
X126507809Y-91294276D01*
X126507809Y-91294276D02*
X126412571Y-91389514D01*
X126412571Y-91389514D02*
X126317333Y-91437133D01*
X127460190Y-91579990D02*
X127364952Y-91532371D01*
X127364952Y-91532371D02*
X127317333Y-91484752D01*
X127317333Y-91484752D02*
X127269714Y-91389514D01*
X127269714Y-91389514D02*
X127269714Y-91341895D01*
X127269714Y-91341895D02*
X127317333Y-91246657D01*
X127317333Y-91246657D02*
X127364952Y-91199038D01*
X127364952Y-91199038D02*
X127460190Y-91151419D01*
X127460190Y-91151419D02*
X127650666Y-91151419D01*
X127650666Y-91151419D02*
X127745904Y-91199038D01*
X127745904Y-91199038D02*
X127793523Y-91246657D01*
X127793523Y-91246657D02*
X127841142Y-91341895D01*
X127841142Y-91341895D02*
X127841142Y-91389514D01*
X127841142Y-91389514D02*
X127793523Y-91484752D01*
X127793523Y-91484752D02*
X127745904Y-91532371D01*
X127745904Y-91532371D02*
X127650666Y-91579990D01*
X127650666Y-91579990D02*
X127460190Y-91579990D01*
X127460190Y-91579990D02*
X127364952Y-91627609D01*
X127364952Y-91627609D02*
X127317333Y-91675228D01*
X127317333Y-91675228D02*
X127269714Y-91770466D01*
X127269714Y-91770466D02*
X127269714Y-91960942D01*
X127269714Y-91960942D02*
X127317333Y-92056180D01*
X127317333Y-92056180D02*
X127364952Y-92103800D01*
X127364952Y-92103800D02*
X127460190Y-92151419D01*
X127460190Y-92151419D02*
X127650666Y-92151419D01*
X127650666Y-92151419D02*
X127745904Y-92103800D01*
X127745904Y-92103800D02*
X127793523Y-92056180D01*
X127793523Y-92056180D02*
X127841142Y-91960942D01*
X127841142Y-91960942D02*
X127841142Y-91770466D01*
X127841142Y-91770466D02*
X127793523Y-91675228D01*
X127793523Y-91675228D02*
X127745904Y-91627609D01*
X127745904Y-91627609D02*
X127650666Y-91579990D01*
X128460190Y-91151419D02*
X128555428Y-91151419D01*
X128555428Y-91151419D02*
X128650666Y-91199038D01*
X128650666Y-91199038D02*
X128698285Y-91246657D01*
X128698285Y-91246657D02*
X128745904Y-91341895D01*
X128745904Y-91341895D02*
X128793523Y-91532371D01*
X128793523Y-91532371D02*
X128793523Y-91770466D01*
X128793523Y-91770466D02*
X128745904Y-91960942D01*
X128745904Y-91960942D02*
X128698285Y-92056180D01*
X128698285Y-92056180D02*
X128650666Y-92103800D01*
X128650666Y-92103800D02*
X128555428Y-92151419D01*
X128555428Y-92151419D02*
X128460190Y-92151419D01*
X128460190Y-92151419D02*
X128364952Y-92103800D01*
X128364952Y-92103800D02*
X128317333Y-92056180D01*
X128317333Y-92056180D02*
X128269714Y-91960942D01*
X128269714Y-91960942D02*
X128222095Y-91770466D01*
X128222095Y-91770466D02*
X128222095Y-91532371D01*
X128222095Y-91532371D02*
X128269714Y-91341895D01*
X128269714Y-91341895D02*
X128317333Y-91246657D01*
X128317333Y-91246657D02*
X128364952Y-91199038D01*
X128364952Y-91199038D02*
X128460190Y-91151419D01*
D10*
X107188095Y-92926819D02*
X107188095Y-93736342D01*
X107188095Y-93736342D02*
X107235714Y-93831580D01*
X107235714Y-93831580D02*
X107283333Y-93879200D01*
X107283333Y-93879200D02*
X107378571Y-93926819D01*
X107378571Y-93926819D02*
X107569047Y-93926819D01*
X107569047Y-93926819D02*
X107664285Y-93879200D01*
X107664285Y-93879200D02*
X107711904Y-93831580D01*
X107711904Y-93831580D02*
X107759523Y-93736342D01*
X107759523Y-93736342D02*
X107759523Y-92926819D01*
X108759523Y-93926819D02*
X108188095Y-93926819D01*
X108473809Y-93926819D02*
X108473809Y-92926819D01*
X108473809Y-92926819D02*
X108378571Y-93069676D01*
X108378571Y-93069676D02*
X108283333Y-93164914D01*
X108283333Y-93164914D02*
X108188095Y-93212533D01*
X124238095Y-79304819D02*
X124238095Y-78304819D01*
X124238095Y-78781009D02*
X124809523Y-78781009D01*
X124809523Y-79304819D02*
X124809523Y-78304819D01*
X125238095Y-78400057D02*
X125285714Y-78352438D01*
X125285714Y-78352438D02*
X125380952Y-78304819D01*
X125380952Y-78304819D02*
X125619047Y-78304819D01*
X125619047Y-78304819D02*
X125714285Y-78352438D01*
X125714285Y-78352438D02*
X125761904Y-78400057D01*
X125761904Y-78400057D02*
X125809523Y-78495295D01*
X125809523Y-78495295D02*
X125809523Y-78590533D01*
X125809523Y-78590533D02*
X125761904Y-78733390D01*
X125761904Y-78733390D02*
X125190476Y-79304819D01*
X125190476Y-79304819D02*
X125809523Y-79304819D01*
D12*
%TO.C,U2*%
X91851500Y-103597000D02*
X95971500Y-103597000D01*
X91851500Y-103662000D02*
X91851500Y-103597000D01*
X91851500Y-112467000D02*
X91851500Y-112402000D01*
X95971500Y-103597000D02*
X95971500Y-103662000D01*
X95971500Y-112402000D02*
X95971500Y-112467000D01*
X95971500Y-112467000D02*
X91851500Y-112467000D01*
X91311500Y-103662000D02*
X91071500Y-103332000D01*
X91551500Y-103332000D01*
X91311500Y-103662000D01*
G36*
X91311500Y-103662000D02*
G01*
X91071500Y-103332000D01*
X91551500Y-103332000D01*
X91311500Y-103662000D01*
G37*
%TO.C,J3*%
X86828303Y-101522248D02*
X80908239Y-99367521D01*
X90314562Y-102791143D02*
X88613719Y-102172086D01*
X90352183Y-102687776D02*
X90314562Y-102791143D01*
X90572317Y-89188990D02*
X85310038Y-87273677D01*
X93626318Y-90300555D02*
X94716361Y-90697299D01*
X94716361Y-90697299D02*
X90865215Y-101278236D01*
%TO.C,MPU6050*%
D11*
X96774000Y-92964000D02*
X119380000Y-92964000D01*
X119380000Y-77231190D01*
X96774000Y-77231190D01*
X96774000Y-92964000D01*
%TO.C,BMP180*%
X120794117Y-85217000D02*
X131173883Y-85217000D01*
X131173883Y-98171000D01*
X120794117Y-98171000D01*
X120794117Y-85217000D01*
D12*
%TO.C,U1*%
X98933000Y-97282000D02*
X98933000Y-130302000D01*
X98933000Y-130302000D02*
X104013000Y-130302000D01*
X101600000Y-97282000D02*
X98933000Y-97282000D01*
X101600000Y-99822000D02*
X101600000Y-97282000D01*
X101600000Y-99822000D02*
X101600000Y-127762000D01*
X101600000Y-127762000D02*
X98930000Y-127762000D01*
X104013000Y-132842000D02*
X104013000Y-130302000D01*
X104013000Y-132842000D02*
X111887000Y-132842000D01*
X111887000Y-130302000D02*
X116967000Y-130302000D01*
X111887000Y-132842000D02*
X111887000Y-130302000D01*
X114300000Y-97282000D02*
X114300000Y-127762000D01*
X114300000Y-97282000D02*
X116970000Y-97282000D01*
X114300000Y-125222000D02*
X116970000Y-125222000D01*
X114300000Y-127762000D02*
X116970000Y-127762000D01*
X116967000Y-97282000D02*
X101600000Y-97282000D01*
X116967000Y-130302000D02*
X116970000Y-97282000D01*
%TD*%
M02*
