%TF.GenerationSoftware,KiCad,Pcbnew,9.0.5*%
%TF.CreationDate,2025-12-18T19:46:57-05:00*%
%TF.ProjectId,airbrakes,61697262-7261-46b6-9573-2e6b69636164,rev?*%
%TF.SameCoordinates,Original*%
%TF.FileFunction,Soldermask,Top*%
%TF.FilePolarity,Negative*%
%FSLAX46Y46*%
G04 Gerber Fmt 4.6, Leading zero omitted, Abs format (unit mm)*
G04 Created by KiCad (PCBNEW 9.0.5) date 2025-12-18 19:46:57*
%MOMM*%
%LPD*%
G01*
G04 APERTURE LIST*
G04 Aperture macros list*
%AMRoundRect*
0 Rectangle with rounded corners*
0 $1 Rounding radius*
0 $2 $3 $4 $5 $6 $7 $8 $9 X,Y pos of 4 corners*
0 Add a 4 corners polygon primitive as box body*
4,1,4,$2,$3,$4,$5,$6,$7,$8,$9,$2,$3,0*
0 Add four circle primitives for the rounded corners*
1,1,$1+$1,$2,$3*
1,1,$1+$1,$4,$5*
1,1,$1+$1,$6,$7*
1,1,$1+$1,$8,$9*
0 Add four rect primitives between the rounded corners*
20,1,$1+$1,$2,$3,$4,$5,0*
20,1,$1+$1,$4,$5,$6,$7,0*
20,1,$1+$1,$6,$7,$8,$9,0*
20,1,$1+$1,$8,$9,$2,$3,0*%
%AMHorizOval*
0 Thick line with rounded ends*
0 $1 width*
0 $2 $3 position (X,Y) of the first rounded end (center of the circle)*
0 $4 $5 position (X,Y) of the second rounded end (center of the circle)*
0 Add line between two ends*
20,1,$1,$2,$3,$4,$5,0*
0 Add two circle primitives to create the rounded ends*
1,1,$1,$2,$3*
1,1,$1,$4,$5*%
%AMRotRect*
0 Rectangle, with rotation*
0 The origin of the aperture is its center*
0 $1 length*
0 $2 width*
0 $3 Rotation angle, in degrees counterclockwise*
0 Add horizontal line*
21,1,$1,$2,0,0,$3*%
%AMFreePoly0*
4,1,15,-0.800000,0.480000,-0.480000,0.800000,0.640000,0.800000,0.701229,0.787821,0.753137,0.753137,0.787821,0.701229,0.800000,0.640000,0.800000,-0.640000,0.787821,-0.701229,0.753137,-0.753137,0.701229,-0.787821,0.640000,-0.800000,-0.480000,-0.800000,-0.800000,-0.480000,-0.800000,0.480000,-0.800000,0.480000,$1*%
G04 Aperture macros list end*
%ADD10C,2.200000*%
%ADD11RoundRect,0.150000X-0.825000X-0.150000X0.825000X-0.150000X0.825000X0.150000X-0.825000X0.150000X0*%
%ADD12RotRect,0.700000X1.750000X250.000000*%
%ADD13RotRect,1.450000X1.000000X250.000000*%
%ADD14RotRect,1.000000X1.550000X250.000000*%
%ADD15RotRect,0.800000X1.500000X250.000000*%
%ADD16RotRect,1.300000X1.500000X250.000000*%
%ADD17RotRect,1.500000X1.500000X250.000000*%
%ADD18RotRect,0.800000X1.400000X250.000000*%
%ADD19R,1.600000X1.600000*%
%ADD20C,1.600000*%
%ADD21FreePoly0,0.000000*%
%ADD22O,1.600000X1.600000*%
%ADD23RoundRect,0.250000X-0.600000X-0.725000X0.600000X-0.725000X0.600000X0.725000X-0.600000X0.725000X0*%
%ADD24O,1.700000X1.950000*%
%ADD25R,1.700000X1.700000*%
%ADD26C,1.700000*%
%ADD27RoundRect,0.250000X0.909982X-0.307300X0.499557X0.820331X-0.909982X0.307300X-0.499557X-0.820331X0*%
%ADD28HorizOval,1.700000X0.140954X0.051303X-0.140954X-0.051303X0*%
%ADD29RotRect,2.000000X2.000000X150.000000*%
%ADD30C,2.000000*%
%ADD31RoundRect,0.250000X0.954594X0.106066X0.106066X0.954594X-0.954594X-0.106066X-0.106066X-0.954594X0*%
%ADD32HorizOval,1.700000X0.106066X0.106066X-0.106066X-0.106066X0*%
G04 APERTURE END LIST*
D10*
%TO.C,H3*%
X125000000Y-120000000D03*
%TD*%
D11*
%TO.C,U2*%
X91436500Y-104222000D03*
X91436500Y-105492000D03*
X91436500Y-106762000D03*
X91436500Y-108032000D03*
X91436500Y-109302000D03*
X91436500Y-110572000D03*
X91436500Y-111842000D03*
X96386500Y-111842000D03*
X96386500Y-110572000D03*
X96386500Y-109302000D03*
X96386500Y-108032000D03*
X96386500Y-106762000D03*
X96386500Y-105492000D03*
X96386500Y-104222000D03*
%TD*%
D12*
%TO.C,J3*%
X80966071Y-95919350D03*
X81342293Y-94885687D03*
X81718515Y-93852027D03*
X82094737Y-92818365D03*
X82470959Y-91784703D03*
X82847181Y-90751041D03*
X83223403Y-89717379D03*
X83599626Y-88683717D03*
D13*
X92653063Y-90781699D03*
D14*
X90293902Y-101868430D03*
D15*
X91354680Y-89963268D03*
D16*
X84127510Y-87598838D03*
D17*
X80245583Y-98264350D03*
D18*
X87878340Y-101414908D03*
%TD*%
D19*
%TO.C,MPU6050*%
X99314000Y-90424000D03*
D20*
X101854000Y-90424000D03*
X104394000Y-90424000D03*
X106934000Y-90424000D03*
X109474000Y-90424000D03*
X112014000Y-90424000D03*
X114554000Y-90424000D03*
X117094000Y-90424000D03*
%TD*%
D10*
%TO.C,H1*%
X90000000Y-82000000D03*
%TD*%
D21*
%TO.C,BMP180*%
X122174000Y-96901000D03*
D20*
X124714000Y-96901000D03*
X127254000Y-96901000D03*
X129794000Y-96901000D03*
%TD*%
D19*
%TO.C,U1*%
X115570000Y-126492000D03*
D22*
X115570000Y-123952000D03*
X115570000Y-121412000D03*
X115570000Y-118872000D03*
X115570000Y-116332000D03*
X115570000Y-113792000D03*
X115570000Y-111252000D03*
X115570000Y-108712000D03*
X115570000Y-106172000D03*
X115570000Y-103632000D03*
X115570000Y-101092000D03*
X115570000Y-98552000D03*
X100330000Y-98552000D03*
X100330000Y-101092000D03*
X100330000Y-103632000D03*
X100330000Y-106172000D03*
X100330000Y-108712000D03*
X100330000Y-111252000D03*
X100330000Y-113792000D03*
X100330000Y-116332000D03*
X100330000Y-118872000D03*
X100330000Y-121412000D03*
X100330000Y-123952000D03*
X100330000Y-126492000D03*
%TD*%
D10*
%TO.C,H2*%
X125000000Y-82000000D03*
%TD*%
D23*
%TO.C,RADIO1*%
X124520000Y-103395000D03*
D24*
X127020000Y-103395000D03*
X129520000Y-103395000D03*
X132020000Y-103395000D03*
%TD*%
D25*
%TO.C,SERVO1*%
X110744000Y-94996000D03*
D26*
X108204000Y-94996000D03*
X105664000Y-94996000D03*
%TD*%
D27*
%TO.C,PWR1*%
X84167050Y-111569232D03*
D28*
X83312000Y-109220000D03*
%TD*%
D29*
%TO.C,RST1*%
X129338000Y-117135165D03*
X132588000Y-111506000D03*
D30*
X125440884Y-114885165D03*
X128690886Y-109255999D03*
%TD*%
D31*
%TO.C,Switch1*%
X90667767Y-120893767D03*
D32*
X88900000Y-119126000D03*
%TD*%
M02*
